M48
; DRILL file KiCad 10.0.4 date 2026-07-22T09:59:51
; FORMAT={-:-/ absolute / metric / decimal}
; #@! TF.CreationDate,2026-07-22T09:59:51-04:00
; #@! TF.GenerationSoftware,Kicad,Pcbnew,10.0.4
; #@! TF.FileFunction,MixedPlating,1,2
FMAT,2
METRIC
; #@! TA.AperFunction,Plated,PTH,ViaDrill
T1C0.250
; #@! TA.AperFunction,Plated,PTH,ViaDrill
T2C0.300
; #@! TA.AperFunction,Plated,PTH,ComponentDrill
T3C1.000
; #@! TA.AperFunction,Plated,PTH,ComponentDrill
T4C1.100
; #@! TA.AperFunction,NonPlated,NPTH,ComponentDrill
T5C3.200
%
G90
G05
T1
X1.5Y-2.0
X1.8Y-2.55
X2.1Y-3.1
X2.4Y-3.65
X15.6Y-70.0
X15.661Y-51.632
X15.661Y-88.368
X15.797Y-33.356
X15.797Y-106.644
X17.665Y-109.804
X17.74Y-39.086
X17.809Y-92.052
X17.865Y-56.783
X17.896Y-74.403
X24.466Y-21.159
X24.466Y-118.841
X25.996Y-121.625
X26.075Y-27.302
X36.673Y-12.505
X36.673Y-127.495
X37.794Y-129.987
X37.863Y-18.973
X54.96Y-12.387
X54.96Y-127.613
X55.52Y-129.882
X55.564Y-19.106
X73.178Y-19.148
X73.189Y-129.852
X73.316Y-12.352
X73.316Y-127.648
X90.815Y-19.065
X90.872Y-129.914
X91.655Y-12.424
X91.655Y-127.576
X108.557Y-18.918
X108.628Y-130.033
X109.906Y-12.556
X109.906Y-127.444
X120.373Y-27.244
X120.447Y-121.677
X122.089Y-21.214
X122.089Y-118.786
X128.603Y-74.414
X128.628Y-56.753
X128.674Y-92.095
X128.733Y-39.036
X128.798Y-109.855
X130.735Y-33.407
X130.735Y-106.593
X130.851Y-51.668
X130.851Y-88.332
X130.9Y-70.0
T2
X2.5Y-5.0
X3.2Y-5.7
X3.9Y-6.4
X4.6Y-7.1
X42.75Y-4.0
X43.25Y-4.55
X43.75Y-5.1
X44.25Y-5.65
X44.75Y-6.2
T3
X78.0Y-30.0
X78.0Y-32.54
X78.0Y-35.08
X78.0Y-37.62
X95.0Y-30.0
X95.0Y-32.54
X95.0Y-35.08
X95.0Y-37.62
X95.0Y-40.16
X95.0Y-42.7
X95.0Y-45.24
X95.0Y-47.78
X95.0Y-50.32
X95.0Y-52.86
X97.54Y-30.0
X97.54Y-32.54
X97.54Y-35.08
X97.54Y-37.62
X97.54Y-40.16
X97.54Y-42.7
X97.54Y-45.24
X97.54Y-47.78
X97.54Y-50.32
X97.54Y-52.86
T4
X13.5Y-34.0
X13.5Y-38.5
X13.5Y-52.0
X13.5Y-56.5
X13.5Y-70.0
X13.5Y-74.5
X13.5Y-88.0
X13.5Y-92.5
X13.5Y-106.0
X13.5Y-110.5
X20.0Y-34.0
X20.0Y-38.5
X20.0Y-52.0
X20.0Y-56.5
X20.0Y-70.0
X20.0Y-74.5
X20.0Y-88.0
X20.0Y-92.5
X20.0Y-106.0
X20.0Y-110.5
X22.0Y-22.0
X22.0Y-26.5
X22.0Y-118.0
X22.0Y-122.5
X28.5Y-22.0
X28.5Y-26.5
X28.5Y-118.0
X28.5Y-122.5
X34.0Y-13.5
X34.0Y-18.0
X34.0Y-126.5
X34.0Y-131.0
X40.5Y-13.5
X40.5Y-18.0
X40.5Y-126.5
X40.5Y-131.0
X52.0Y-13.5
X52.0Y-18.0
X52.0Y-126.5
X52.0Y-131.0
X58.5Y-13.5
X58.5Y-18.0
X58.5Y-126.5
X58.5Y-131.0
X70.0Y-13.5
X70.0Y-18.0
X70.0Y-126.5
X70.0Y-131.0
X76.5Y-13.5
X76.5Y-18.0
X76.5Y-126.5
X76.5Y-131.0
X88.0Y-13.5
X88.0Y-18.0
X88.0Y-126.5
X88.0Y-131.0
X94.5Y-13.5
X94.5Y-18.0
X94.5Y-126.5
X94.5Y-131.0
X106.0Y-13.5
X106.0Y-18.0
X106.0Y-126.5
X106.0Y-131.0
X112.5Y-13.5
X112.5Y-18.0
X112.5Y-126.5
X112.5Y-131.0
X118.0Y-22.0
X118.0Y-26.5
X118.0Y-118.0
X118.0Y-122.5
X124.5Y-22.0
X124.5Y-26.5
X124.5Y-118.0
X124.5Y-122.5
X126.5Y-34.0
X126.5Y-38.5
X126.5Y-52.0
X126.5Y-56.5
X126.5Y-70.0
X126.5Y-74.5
X126.5Y-88.0
X126.5Y-92.5
X126.5Y-106.0
X126.5Y-110.5
X133.0Y-34.0
X133.0Y-38.5
X133.0Y-52.0
X133.0Y-56.5
X133.0Y-70.0
X133.0Y-74.5
X133.0Y-88.0
X133.0Y-92.5
X133.0Y-106.0
X133.0Y-110.5
T5
X15.0Y-15.0
X15.0Y-125.0
X125.0Y-15.0
X125.0Y-125.0
M30
