%TF.GenerationSoftware,KiCad,Pcbnew,10.0.4*%
%TF.CreationDate,2026-07-22T09:59:50-04:00*%
%TF.ProjectId,cmfd-board-a,636d6664-2d62-46f6-9172-642d612e6b69,rev?*%
%TF.SameCoordinates,Original*%
%TF.FileFunction,Copper,L1,Top*%
%TF.FilePolarity,Positive*%
%FSLAX46Y46*%
G04 Gerber Fmt 4.6, Leading zero omitted, Abs format (unit mm)*
G04 Created by KiCad (PCBNEW 10.0.4) date 2026-07-22 09:59:50*
%MOMM*%
%LPD*%
G01*
G04 APERTURE LIST*
G04 Aperture macros list*
%AMRoundRect*
0 Rectangle with rounded corners*
0 $1 Rounding radius*
0 $2 $3 $4 $5 $6 $7 $8 $9 X,Y pos of 4 corners*
0 Add a 4 corners polygon primitive as box body*
4,1,4,$2,$3,$4,$5,$6,$7,$8,$9,$2,$3,0*
0 Add four circle primitives for the rounded corners*
1,1,$1+$1,$2,$3*
1,1,$1+$1,$4,$5*
1,1,$1+$1,$6,$7*
1,1,$1+$1,$8,$9*
0 Add four rect primitives between the rounded corners*
20,1,$1+$1,$2,$3,$4,$5,0*
20,1,$1+$1,$4,$5,$6,$7,0*
20,1,$1+$1,$6,$7,$8,$9,0*
20,1,$1+$1,$8,$9,$2,$3,0*%
G04 Aperture macros list end*
%TA.AperFunction,ComponentPad*%
%ADD10C,2.000000*%
%TD*%
%TA.AperFunction,SMDPad,CuDef*%
%ADD11RoundRect,0.150000X-0.512500X-0.150000X0.512500X-0.150000X0.512500X0.150000X-0.512500X0.150000X0*%
%TD*%
%TA.AperFunction,SMDPad,CuDef*%
%ADD12RoundRect,0.225000X-0.225000X-0.250000X0.225000X-0.250000X0.225000X0.250000X-0.225000X0.250000X0*%
%TD*%
%TA.AperFunction,SMDPad,CuDef*%
%ADD13RoundRect,0.075000X-0.662500X-0.075000X0.662500X-0.075000X0.662500X0.075000X-0.662500X0.075000X0*%
%TD*%
%TA.AperFunction,SMDPad,CuDef*%
%ADD14RoundRect,0.075000X-0.075000X-0.662500X0.075000X-0.662500X0.075000X0.662500X-0.075000X0.662500X0*%
%TD*%
%TA.AperFunction,ComponentPad*%
%ADD15R,1.700000X1.700000*%
%TD*%
%TA.AperFunction,ComponentPad*%
%ADD16C,1.700000*%
%TD*%
%TA.AperFunction,ViaPad*%
%ADD17C,0.500000*%
%TD*%
%TA.AperFunction,ViaPad*%
%ADD18C,0.550000*%
%TD*%
%TA.AperFunction,Conductor*%
%ADD19C,0.200000*%
%TD*%
G04 APERTURE END LIST*
D10*
%TO.P,S9,1*%
%TO.N,ROW_RIGHT*%
X126500000Y-52000000D03*
X133000000Y-52000000D03*
%TO.P,S9,2*%
%TO.N,COL3*%
X126500000Y-56500000D03*
X133000000Y-56500000D03*
%TD*%
D11*
%TO.P,U4,1*%
%TO.N,N/C*%
X60862500Y-29050000D03*
%TO.P,U4,2*%
X60862500Y-30000000D03*
%TO.P,U4,3*%
X60862500Y-30950000D03*
%TO.P,U4,4*%
X63137500Y-30950000D03*
%TO.P,U4,5*%
X63137500Y-29050000D03*
%TD*%
D10*
%TO.P,S1,1*%
%TO.N,ROW_TOP*%
X34000000Y-126500000D03*
X40500000Y-126500000D03*
%TO.P,S1,2*%
%TO.N,COL0*%
X34000000Y-131000000D03*
X40500000Y-131000000D03*
%TD*%
%TO.P,SW3,1*%
%TO.N,RK_BRT*%
X22000000Y-22000000D03*
X28500000Y-22000000D03*
%TO.P,SW3,2*%
%TO.N,GND*%
X22000000Y-26500000D03*
X28500000Y-26500000D03*
%TD*%
%TO.P,SW2,1*%
%TO.N,RK_SYM*%
X118000000Y-118000000D03*
X124500000Y-118000000D03*
%TO.P,SW2,2*%
%TO.N,GND*%
X118000000Y-122500000D03*
X124500000Y-122500000D03*
%TD*%
D12*
%TO.P,C5,1*%
%TO.N,N/C*%
X52225000Y-38000000D03*
%TO.P,C5,2*%
X53775000Y-38000000D03*
%TD*%
D10*
%TO.P,S20,1*%
%TO.N,ROW_LEFT*%
X13500000Y-106000000D03*
X20000000Y-106000000D03*
%TO.P,S20,2*%
%TO.N,COL0*%
X13500000Y-110500000D03*
X20000000Y-110500000D03*
%TD*%
D12*
%TO.P,C2,1*%
%TO.N,N/C*%
X40225000Y-38000000D03*
%TO.P,C2,2*%
X41775000Y-38000000D03*
%TD*%
D10*
%TO.P,S18,1*%
%TO.N,ROW_LEFT*%
X13500000Y-70000000D03*
X20000000Y-70000000D03*
%TO.P,S18,2*%
%TO.N,COL2*%
X13500000Y-74500000D03*
X20000000Y-74500000D03*
%TD*%
%TO.P,S7,1*%
%TO.N,ROW_RIGHT*%
X126500000Y-88000000D03*
X133000000Y-88000000D03*
%TO.P,S7,2*%
%TO.N,COL1*%
X126500000Y-92500000D03*
X133000000Y-92500000D03*
%TD*%
%TO.P,S15,1*%
%TO.N,ROW_BOT*%
X34000000Y-13500000D03*
X40500000Y-13500000D03*
%TO.P,S15,2*%
%TO.N,COL0*%
X34000000Y-18000000D03*
X40500000Y-18000000D03*
%TD*%
%TO.P,S2,1*%
%TO.N,ROW_TOP*%
X52000000Y-126500000D03*
X58500000Y-126500000D03*
%TO.P,S2,2*%
%TO.N,COL1*%
X52000000Y-131000000D03*
X58500000Y-131000000D03*
%TD*%
%TO.P,S4,1*%
%TO.N,ROW_TOP*%
X88000000Y-126500000D03*
X94500000Y-126500000D03*
%TO.P,S4,2*%
%TO.N,COL3*%
X88000000Y-131000000D03*
X94500000Y-131000000D03*
%TD*%
%TO.P,SW1,1*%
%TO.N,RK_GAIN*%
X22000000Y-118000000D03*
X28500000Y-118000000D03*
%TO.P,SW1,2*%
%TO.N,GND*%
X22000000Y-122500000D03*
X28500000Y-122500000D03*
%TD*%
%TO.P,SW4,1*%
%TO.N,RK_CON*%
X118000000Y-22000000D03*
X124500000Y-22000000D03*
%TO.P,SW4,2*%
%TO.N,GND*%
X118000000Y-26500000D03*
X124500000Y-26500000D03*
%TD*%
D13*
%TO.P,U1,1*%
%TO.N,N/C*%
X40837500Y-27250000D03*
%TO.P,U1,2*%
X40837500Y-27750000D03*
%TO.P,U1,3*%
X40837500Y-28250000D03*
%TO.P,U1,4*%
X40837500Y-28750000D03*
%TO.P,U1,5*%
X40837500Y-29250000D03*
%TO.P,U1,6*%
X40837500Y-29750000D03*
%TO.P,U1,7*%
X40837500Y-30250000D03*
%TO.P,U1,8*%
X40837500Y-30750000D03*
%TO.P,U1,9*%
X40837500Y-31250000D03*
%TO.P,U1,10*%
%TO.N,ROW_TOP*%
X40837500Y-31750000D03*
%TO.P,U1,11*%
%TO.N,ROW_RIGHT*%
X40837500Y-32250000D03*
%TO.P,U1,12*%
%TO.N,ROW_BOT*%
X40837500Y-32750000D03*
D14*
%TO.P,U1,13*%
%TO.N,ROW_LEFT*%
X42250000Y-34162500D03*
%TO.P,U1,14*%
%TO.N,COL0*%
X42750000Y-34162500D03*
%TO.P,U1,15*%
%TO.N,COL1*%
X43250000Y-34162500D03*
%TO.P,U1,16*%
%TO.N,COL2*%
X43750000Y-34162500D03*
%TO.P,U1,17*%
%TO.N,COL3*%
X44250000Y-34162500D03*
%TO.P,U1,18*%
%TO.N,COL4*%
X44750000Y-34162500D03*
%TO.P,U1,19*%
%TO.N,RK_GAIN*%
X45250000Y-34162500D03*
%TO.P,U1,20*%
%TO.N,RK_SYM*%
X45750000Y-34162500D03*
%TO.P,U1,21*%
%TO.N,RK_BRT*%
X46250000Y-34162500D03*
%TO.P,U1,22*%
%TO.N,RK_CON*%
X46750000Y-34162500D03*
%TO.P,U1,23*%
%TO.N,N/C*%
X47250000Y-34162500D03*
%TO.P,U1,24*%
X47750000Y-34162500D03*
D13*
%TO.P,U1,25*%
X49162500Y-32750000D03*
%TO.P,U1,26*%
X49162500Y-32250000D03*
%TO.P,U1,27*%
X49162500Y-31750000D03*
%TO.P,U1,28*%
X49162500Y-31250000D03*
%TO.P,U1,29*%
%TO.N,UART_TX*%
X49162500Y-30750000D03*
%TO.P,U1,30*%
%TO.N,UART_RX*%
X49162500Y-30250000D03*
%TO.P,U1,31*%
%TO.N,N/C*%
X49162500Y-29750000D03*
%TO.P,U1,32*%
X49162500Y-29250000D03*
%TO.P,U1,33*%
X49162500Y-28750000D03*
%TO.P,U1,34*%
%TO.N,SWDIO*%
X49162500Y-28250000D03*
%TO.P,U1,35*%
%TO.N,N/C*%
X49162500Y-27750000D03*
%TO.P,U1,36*%
X49162500Y-27250000D03*
D14*
%TO.P,U1,37*%
%TO.N,SWCLK*%
X47750000Y-25837500D03*
%TO.P,U1,38*%
%TO.N,N/C*%
X47250000Y-25837500D03*
%TO.P,U1,39*%
X46750000Y-25837500D03*
%TO.P,U1,40*%
X46250000Y-25837500D03*
%TO.P,U1,41*%
X45750000Y-25837500D03*
%TO.P,U1,42*%
X45250000Y-25837500D03*
%TO.P,U1,43*%
X44750000Y-25837500D03*
%TO.P,U1,44*%
X44250000Y-25837500D03*
%TO.P,U1,45*%
X43750000Y-25837500D03*
%TO.P,U1,46*%
X43250000Y-25837500D03*
%TO.P,U1,47*%
X42750000Y-25837500D03*
%TO.P,U1,48*%
X42250000Y-25837500D03*
%TD*%
D10*
%TO.P,S3,1*%
%TO.N,ROW_TOP*%
X70000000Y-126500000D03*
X76500000Y-126500000D03*
%TO.P,S3,2*%
%TO.N,COL2*%
X70000000Y-131000000D03*
X76500000Y-131000000D03*
%TD*%
%TO.P,S5,1*%
%TO.N,ROW_TOP*%
X106000000Y-126500000D03*
X112500000Y-126500000D03*
%TO.P,S5,2*%
%TO.N,COL4*%
X106000000Y-131000000D03*
X112500000Y-131000000D03*
%TD*%
%TO.P,S12,1*%
%TO.N,ROW_BOT*%
X88000000Y-13500000D03*
X94500000Y-13500000D03*
%TO.P,S12,2*%
%TO.N,COL3*%
X88000000Y-18000000D03*
X94500000Y-18000000D03*
%TD*%
%TO.P,S14,1*%
%TO.N,ROW_BOT*%
X52000000Y-13500000D03*
X58500000Y-13500000D03*
%TO.P,S14,2*%
%TO.N,COL1*%
X52000000Y-18000000D03*
X58500000Y-18000000D03*
%TD*%
%TO.P,S17,1*%
%TO.N,ROW_LEFT*%
X13500000Y-52000000D03*
X20000000Y-52000000D03*
%TO.P,S17,2*%
%TO.N,COL3*%
X13500000Y-56500000D03*
X20000000Y-56500000D03*
%TD*%
D15*
%TO.P,J2,1*%
%TO.N,SWDIO*%
X78000000Y-30000000D03*
D16*
%TO.P,J2,2*%
%TO.N,SWCLK*%
X78000000Y-32540000D03*
%TO.P,J2,3*%
%TO.N,GND*%
X78000000Y-35080000D03*
%TO.P,J2,4*%
%TO.N,3V3*%
X78000000Y-37620000D03*
%TD*%
D10*
%TO.P,S16,1*%
%TO.N,ROW_LEFT*%
X13500000Y-34000000D03*
X20000000Y-34000000D03*
%TO.P,S16,2*%
%TO.N,COL4*%
X13500000Y-38500000D03*
X20000000Y-38500000D03*
%TD*%
D12*
%TO.P,C4,1*%
%TO.N,N/C*%
X48225000Y-38000000D03*
%TO.P,C4,2*%
X49775000Y-38000000D03*
%TD*%
D10*
%TO.P,S11,1*%
%TO.N,ROW_BOT*%
X106000000Y-13500000D03*
X112500000Y-13500000D03*
%TO.P,S11,2*%
%TO.N,COL4*%
X106000000Y-18000000D03*
X112500000Y-18000000D03*
%TD*%
D12*
%TO.P,C1,1*%
%TO.N,N/C*%
X36225000Y-38000000D03*
%TO.P,C1,2*%
X37775000Y-38000000D03*
%TD*%
%TO.P,C3,1*%
%TO.N,N/C*%
X44225000Y-38000000D03*
%TO.P,C3,2*%
X45775000Y-38000000D03*
%TD*%
D15*
%TO.P,J1,1*%
%TO.N,3V3*%
X95000000Y-30000000D03*
D16*
%TO.P,J1,2*%
X97540000Y-30000000D03*
%TO.P,J1,3*%
%TO.N,GND*%
X95000000Y-32540000D03*
%TO.P,J1,4*%
X97540000Y-32540000D03*
%TO.P,J1,5*%
%TO.N,UART_TX*%
X95000000Y-35080000D03*
%TO.P,J1,6*%
%TO.N,UART_RX*%
X97540000Y-35080000D03*
%TO.P,J1,7*%
%TO.N,N/C*%
X95000000Y-37620000D03*
%TO.P,J1,8*%
X97540000Y-37620000D03*
%TO.P,J1,9*%
X95000000Y-40160000D03*
%TO.P,J1,10*%
X97540000Y-40160000D03*
%TO.P,J1,11*%
X95000000Y-42700000D03*
%TO.P,J1,12*%
X97540000Y-42700000D03*
%TO.P,J1,13*%
X95000000Y-45240000D03*
%TO.P,J1,14*%
X97540000Y-45240000D03*
%TO.P,J1,15*%
X95000000Y-47780000D03*
%TO.P,J1,16*%
X97540000Y-47780000D03*
%TO.P,J1,17*%
X95000000Y-50320000D03*
%TO.P,J1,18*%
X97540000Y-50320000D03*
%TO.P,J1,19*%
X95000000Y-52860000D03*
%TO.P,J1,20*%
X97540000Y-52860000D03*
%TD*%
D10*
%TO.P,S19,1*%
%TO.N,ROW_LEFT*%
X13500000Y-88000000D03*
X20000000Y-88000000D03*
%TO.P,S19,2*%
%TO.N,COL1*%
X13500000Y-92500000D03*
X20000000Y-92500000D03*
%TD*%
%TO.P,S6,1*%
%TO.N,ROW_RIGHT*%
X126500000Y-106000000D03*
X133000000Y-106000000D03*
%TO.P,S6,2*%
%TO.N,COL0*%
X126500000Y-110500000D03*
X133000000Y-110500000D03*
%TD*%
%TO.P,S10,1*%
%TO.N,ROW_RIGHT*%
X126500000Y-34000000D03*
X133000000Y-34000000D03*
%TO.P,S10,2*%
%TO.N,COL4*%
X126500000Y-38500000D03*
X133000000Y-38500000D03*
%TD*%
%TO.P,S8,1*%
%TO.N,ROW_RIGHT*%
X126500000Y-70000000D03*
X133000000Y-70000000D03*
%TO.P,S8,2*%
%TO.N,COL2*%
X126500000Y-74500000D03*
X133000000Y-74500000D03*
%TD*%
%TO.P,S13,1*%
%TO.N,ROW_BOT*%
X70000000Y-13500000D03*
X76500000Y-13500000D03*
%TO.P,S13,2*%
%TO.N,COL2*%
X70000000Y-18000000D03*
X76500000Y-18000000D03*
%TD*%
D17*
%TO.N,ROW_RIGHT*%
X130900000Y-70000000D03*
D18*
X4600000Y-7100000D03*
D17*
X130735024Y-106593487D03*
X130735024Y-33406512D03*
X130851119Y-88331717D03*
X130851119Y-51668282D03*
%TO.N,COL3*%
X128628275Y-56753444D03*
X90814970Y-19064541D03*
D18*
X44250000Y-5650000D03*
D17*
X90871683Y-129914008D03*
X17864734Y-56782608D03*
%TO.N,ROW_TOP*%
X73316041Y-127648102D03*
D18*
X2500000Y-5000000D03*
D17*
X91654835Y-127576386D03*
X36673287Y-127494938D03*
X109906111Y-127444466D03*
X54959514Y-127612707D03*
D18*
%TO.N,COL0*%
X42750000Y-4000000D03*
D17*
X128798072Y-109854760D03*
X17665338Y-109803827D03*
X37862859Y-18973089D03*
X37793976Y-129986792D03*
%TO.N,RK_BRT*%
X1800000Y-2550000D03*
X24465802Y-21158849D03*
%TO.N,GND*%
X120446682Y-121677089D03*
X120373242Y-27244174D03*
X25996004Y-121624798D03*
X26074608Y-27301574D03*
%TO.N,RK_SYM*%
X2100000Y-3100000D03*
X122089350Y-118786123D03*
%TO.N,ROW_LEFT*%
X15600000Y-70000000D03*
X15797290Y-106644084D03*
X15660558Y-51631738D03*
X15797290Y-33355915D03*
X15660558Y-88368261D03*
D18*
X3200000Y-5700000D03*
D17*
%TO.N,COL2*%
X73188816Y-129851628D03*
X128603247Y-74413633D03*
X73178264Y-19147760D03*
D18*
X43750000Y-5100000D03*
D17*
X17895915Y-74403162D03*
%TO.N,COL1*%
X55520284Y-129882213D03*
X128673777Y-92094727D03*
X17809318Y-92052400D03*
X55563821Y-19106352D03*
D18*
X43250000Y-4550000D03*
D17*
%TO.N,ROW_BOT*%
X73316041Y-12351897D03*
X91654835Y-12423613D03*
D18*
X3900000Y-6400000D03*
D17*
X109906111Y-12555533D03*
X54959514Y-12387292D03*
X36673287Y-12505061D03*
%TO.N,RK_GAIN*%
X1500000Y-2000000D03*
X24465802Y-118841150D03*
%TO.N,RK_CON*%
X2400000Y-3650000D03*
X122089350Y-21213876D03*
%TO.N,COL4*%
X128732713Y-39036309D03*
X17739787Y-39085508D03*
X108627728Y-130032902D03*
D18*
X44750000Y-6200000D03*
D17*
X108557179Y-18917877D03*
%TD*%
%TO.N,ROW_RIGHT*%
D19*
X126500000Y-106000000D02*
X133000000Y-106000000D01*
X129750000Y-88000000D02*
X130851119Y-88331717D01*
X129750000Y-106000000D02*
X130735024Y-106593487D01*
X4600000Y-7100000D02*
X40837500Y-7100000D01*
X129750000Y-34000000D02*
X130735024Y-33406512D01*
X129750000Y-70000000D02*
X130900000Y-70000000D01*
X126500000Y-34000000D02*
X133000000Y-34000000D01*
X129750000Y-52000000D02*
X130851119Y-51668282D01*
X126500000Y-52000000D02*
X133000000Y-52000000D01*
X40837500Y-7100000D02*
X40837500Y-32250000D01*
X126500000Y-88000000D02*
X133000000Y-88000000D01*
X126500000Y-70000000D02*
X133000000Y-70000000D01*
%TO.N,COL3*%
X16750000Y-56500000D02*
X17864734Y-56782608D01*
X129750000Y-56500000D02*
X128628275Y-56753444D01*
X13500000Y-56500000D02*
X20000000Y-56500000D01*
X88000000Y-18000000D02*
X94500000Y-18000000D01*
X91250000Y-18000000D02*
X90814970Y-19064541D01*
X44250000Y-5650000D02*
X44250000Y-34162500D01*
X88000000Y-131000000D02*
X94500000Y-131000000D01*
X126500000Y-56500000D02*
X133000000Y-56500000D01*
X91250000Y-131000000D02*
X90871683Y-129914008D01*
%TO.N,ROW_TOP*%
X106000000Y-126500000D02*
X112500000Y-126500000D01*
X40837500Y-5000000D02*
X40837500Y-31750000D01*
X52000000Y-126500000D02*
X58500000Y-126500000D01*
X109250000Y-126500000D02*
X109906111Y-127444466D01*
X2500000Y-5000000D02*
X40837500Y-5000000D01*
X73250000Y-126500000D02*
X73316041Y-127648102D01*
X34000000Y-126500000D02*
X40500000Y-126500000D01*
X55250000Y-126500000D02*
X54959514Y-127612707D01*
X70000000Y-126500000D02*
X76500000Y-126500000D01*
X91250000Y-126500000D02*
X91654835Y-127576386D01*
X37250000Y-126500000D02*
X36673287Y-127494938D01*
X88000000Y-126500000D02*
X94500000Y-126500000D01*
%TO.N,COL0*%
X34000000Y-131000000D02*
X40500000Y-131000000D01*
X129750000Y-110500000D02*
X128798072Y-109854760D01*
X16750000Y-110500000D02*
X17665338Y-109803827D01*
X126500000Y-110500000D02*
X133000000Y-110500000D01*
X34000000Y-18000000D02*
X40500000Y-18000000D01*
X42750000Y-4000000D02*
X42750000Y-34162500D01*
X37250000Y-18000000D02*
X37862859Y-18973089D01*
X37250000Y-131000000D02*
X37793976Y-129986792D01*
X13500000Y-110500000D02*
X20000000Y-110500000D01*
%TO.N,RK_BRT*%
X22000000Y-22000000D02*
X28500000Y-22000000D01*
X46250000Y-2550000D02*
X46250000Y-34162500D01*
X1800000Y-2550000D02*
X46250000Y-2550000D01*
X25250000Y-22000000D02*
X24465802Y-21158849D01*
%TO.N,GND*%
X22000000Y-26500000D02*
X28500000Y-26500000D01*
X118000000Y-122500000D02*
X124500000Y-122500000D01*
X121250000Y-122500000D02*
X120446682Y-121677089D01*
X25250000Y-26500000D02*
X26074608Y-27301574D01*
X118000000Y-26500000D02*
X124500000Y-26500000D01*
X22000000Y-122500000D02*
X28500000Y-122500000D01*
X121250000Y-26500000D02*
X120373242Y-27244174D01*
X25250000Y-122500000D02*
X25996004Y-121624798D01*
%TO.N,RK_SYM*%
X118000000Y-118000000D02*
X124500000Y-118000000D01*
X45750000Y-3100000D02*
X45750000Y-34162500D01*
X121250000Y-118000000D02*
X122089350Y-118786123D01*
X2100000Y-3100000D02*
X45750000Y-3100000D01*
%TO.N,ROW_LEFT*%
X16750000Y-34000000D02*
X15797290Y-33355915D01*
X13500000Y-106000000D02*
X20000000Y-106000000D01*
X16750000Y-52000000D02*
X15660558Y-51631738D01*
X16750000Y-106000000D02*
X15797290Y-106644084D01*
X3200000Y-5700000D02*
X42250000Y-5700000D01*
X13500000Y-70000000D02*
X20000000Y-70000000D01*
X13500000Y-52000000D02*
X20000000Y-52000000D01*
X16750000Y-70000000D02*
X15600000Y-70000000D01*
X13500000Y-34000000D02*
X20000000Y-34000000D01*
X16750000Y-88000000D02*
X15660558Y-88368261D01*
X42250000Y-5700000D02*
X42250000Y-34162500D01*
X13500000Y-88000000D02*
X20000000Y-88000000D01*
%TO.N,COL2*%
X129750000Y-74500000D02*
X128603247Y-74413633D01*
X73250000Y-18000000D02*
X73178264Y-19147760D01*
X70000000Y-131000000D02*
X76500000Y-131000000D01*
X16750000Y-74500000D02*
X17895915Y-74403162D01*
X70000000Y-18000000D02*
X76500000Y-18000000D01*
X13500000Y-74500000D02*
X20000000Y-74500000D01*
X43750000Y-5100000D02*
X43750000Y-34162500D01*
X126500000Y-74500000D02*
X133000000Y-74500000D01*
X73250000Y-131000000D02*
X73188816Y-129851628D01*
%TO.N,COL1*%
X16750000Y-92500000D02*
X17809318Y-92052400D01*
X52000000Y-18000000D02*
X58500000Y-18000000D01*
X43250000Y-4550000D02*
X43250000Y-34162500D01*
X55250000Y-18000000D02*
X55563821Y-19106352D01*
X55250000Y-131000000D02*
X55520284Y-129882213D01*
X126500000Y-92500000D02*
X133000000Y-92500000D01*
X13500000Y-92500000D02*
X20000000Y-92500000D01*
X129750000Y-92500000D02*
X128673777Y-92094727D01*
X52000000Y-131000000D02*
X58500000Y-131000000D01*
%TO.N,ROW_BOT*%
X3900000Y-6400000D02*
X40837500Y-6400000D01*
X40837500Y-6400000D02*
X40837500Y-32750000D01*
X52000000Y-13500000D02*
X58500000Y-13500000D01*
X55250000Y-13500000D02*
X54959514Y-12387292D01*
X37250000Y-13500000D02*
X36673287Y-12505061D01*
X73250000Y-13500000D02*
X73316041Y-12351897D01*
X109250000Y-13500000D02*
X109906111Y-12555533D01*
X34000000Y-13500000D02*
X40500000Y-13500000D01*
X106000000Y-13500000D02*
X112500000Y-13500000D01*
X91250000Y-13500000D02*
X91654835Y-12423613D01*
X88000000Y-13500000D02*
X94500000Y-13500000D01*
X70000000Y-13500000D02*
X76500000Y-13500000D01*
%TO.N,RK_GAIN*%
X45250000Y-2000000D02*
X45250000Y-34162500D01*
X22000000Y-118000000D02*
X28500000Y-118000000D01*
X25250000Y-118000000D02*
X24465802Y-118841150D01*
X1500000Y-2000000D02*
X45250000Y-2000000D01*
%TO.N,RK_CON*%
X121250000Y-22000000D02*
X122089350Y-21213876D01*
X2400000Y-3650000D02*
X46750000Y-3650000D01*
X118000000Y-22000000D02*
X124500000Y-22000000D01*
X46750000Y-3650000D02*
X46750000Y-34162500D01*
%TO.N,COL4*%
X129750000Y-38500000D02*
X128732713Y-39036309D01*
X16750000Y-38500000D02*
X17739787Y-39085508D01*
X126500000Y-38500000D02*
X133000000Y-38500000D01*
X106000000Y-18000000D02*
X112500000Y-18000000D01*
X44750000Y-6200000D02*
X44750000Y-34162500D01*
X109250000Y-18000000D02*
X108557179Y-18917877D01*
X109250000Y-131000000D02*
X108627728Y-130032902D01*
X13500000Y-38500000D02*
X20000000Y-38500000D01*
X106000000Y-131000000D02*
X112500000Y-131000000D01*
%TO.N,UART_TX*%
X95000000Y-30750000D02*
X95000000Y-35080000D01*
X49162500Y-30750000D02*
X95000000Y-30750000D01*
%TO.N,UART_RX*%
X97540000Y-30250000D02*
X97540000Y-35080000D01*
X49162500Y-30250000D02*
X97540000Y-30250000D01*
%TD*%
M02*
