%TF.GenerationSoftware,KiCad,Pcbnew,10.0.4*%
%TF.CreationDate,2026-07-22T09:59:50-04:00*%
%TF.ProjectId,cmfd-board-a,636d6664-2d62-46f6-9172-642d612e6b69,rev?*%
%TF.SameCoordinates,Original*%
%TF.FileFunction,Soldermask,Bot*%
%TF.FilePolarity,Negative*%
%FSLAX46Y46*%
G04 Gerber Fmt 4.6, Leading zero omitted, Abs format (unit mm)*
G04 Created by KiCad (PCBNEW 10.0.4) date 2026-07-22 09:59:50*
%MOMM*%
%LPD*%
G01*
G04 APERTURE LIST*
%ADD10C,2.000000*%
%ADD11C,3.200000*%
%ADD12R,1.700000X1.700000*%
%ADD13C,1.700000*%
G04 APERTURE END LIST*
D10*
%TO.C,S9*%
X126500000Y-52000000D03*
X133000000Y-52000000D03*
X126500000Y-56500000D03*
X133000000Y-56500000D03*
%TD*%
D11*
%TO.C,H2*%
X125000000Y-15000000D03*
%TD*%
D10*
%TO.C,S1*%
X34000000Y-126500000D03*
X40500000Y-126500000D03*
X34000000Y-131000000D03*
X40500000Y-131000000D03*
%TD*%
%TO.C,SW3*%
X22000000Y-22000000D03*
X28500000Y-22000000D03*
X22000000Y-26500000D03*
X28500000Y-26500000D03*
%TD*%
%TO.C,SW2*%
X118000000Y-118000000D03*
X124500000Y-118000000D03*
X118000000Y-122500000D03*
X124500000Y-122500000D03*
%TD*%
%TO.C,S20*%
X13500000Y-106000000D03*
X20000000Y-106000000D03*
X13500000Y-110500000D03*
X20000000Y-110500000D03*
%TD*%
%TO.C,S18*%
X13500000Y-70000000D03*
X20000000Y-70000000D03*
X13500000Y-74500000D03*
X20000000Y-74500000D03*
%TD*%
%TO.C,S7*%
X126500000Y-88000000D03*
X133000000Y-88000000D03*
X126500000Y-92500000D03*
X133000000Y-92500000D03*
%TD*%
%TO.C,S15*%
X34000000Y-13500000D03*
X40500000Y-13500000D03*
X34000000Y-18000000D03*
X40500000Y-18000000D03*
%TD*%
%TO.C,S2*%
X52000000Y-126500000D03*
X58500000Y-126500000D03*
X52000000Y-131000000D03*
X58500000Y-131000000D03*
%TD*%
%TO.C,S4*%
X88000000Y-126500000D03*
X94500000Y-126500000D03*
X88000000Y-131000000D03*
X94500000Y-131000000D03*
%TD*%
%TO.C,SW1*%
X22000000Y-118000000D03*
X28500000Y-118000000D03*
X22000000Y-122500000D03*
X28500000Y-122500000D03*
%TD*%
%TO.C,SW4*%
X118000000Y-22000000D03*
X124500000Y-22000000D03*
X118000000Y-26500000D03*
X124500000Y-26500000D03*
%TD*%
%TO.C,S3*%
X70000000Y-126500000D03*
X76500000Y-126500000D03*
X70000000Y-131000000D03*
X76500000Y-131000000D03*
%TD*%
%TO.C,S5*%
X106000000Y-126500000D03*
X112500000Y-126500000D03*
X106000000Y-131000000D03*
X112500000Y-131000000D03*
%TD*%
D11*
%TO.C,H1*%
X15000000Y-15000000D03*
%TD*%
D10*
%TO.C,S12*%
X88000000Y-13500000D03*
X94500000Y-13500000D03*
X88000000Y-18000000D03*
X94500000Y-18000000D03*
%TD*%
%TO.C,S14*%
X52000000Y-13500000D03*
X58500000Y-13500000D03*
X52000000Y-18000000D03*
X58500000Y-18000000D03*
%TD*%
%TO.C,S17*%
X13500000Y-52000000D03*
X20000000Y-52000000D03*
X13500000Y-56500000D03*
X20000000Y-56500000D03*
%TD*%
D12*
%TO.C,J2*%
X78000000Y-30000000D03*
D13*
X78000000Y-32540000D03*
X78000000Y-35080000D03*
X78000000Y-37620000D03*
%TD*%
D10*
%TO.C,S16*%
X13500000Y-34000000D03*
X20000000Y-34000000D03*
X13500000Y-38500000D03*
X20000000Y-38500000D03*
%TD*%
%TO.C,S11*%
X106000000Y-13500000D03*
X112500000Y-13500000D03*
X106000000Y-18000000D03*
X112500000Y-18000000D03*
%TD*%
D12*
%TO.C,J1*%
X95000000Y-30000000D03*
D13*
X97540000Y-30000000D03*
X95000000Y-32540000D03*
X97540000Y-32540000D03*
X95000000Y-35080000D03*
X97540000Y-35080000D03*
X95000000Y-37620000D03*
X97540000Y-37620000D03*
X95000000Y-40160000D03*
X97540000Y-40160000D03*
X95000000Y-42700000D03*
X97540000Y-42700000D03*
X95000000Y-45240000D03*
X97540000Y-45240000D03*
X95000000Y-47780000D03*
X97540000Y-47780000D03*
X95000000Y-50320000D03*
X97540000Y-50320000D03*
X95000000Y-52860000D03*
X97540000Y-52860000D03*
%TD*%
D11*
%TO.C,H4*%
X15000000Y-125000000D03*
%TD*%
D10*
%TO.C,S19*%
X13500000Y-88000000D03*
X20000000Y-88000000D03*
X13500000Y-92500000D03*
X20000000Y-92500000D03*
%TD*%
%TO.C,S6*%
X126500000Y-106000000D03*
X133000000Y-106000000D03*
X126500000Y-110500000D03*
X133000000Y-110500000D03*
%TD*%
%TO.C,S10*%
X126500000Y-34000000D03*
X133000000Y-34000000D03*
X126500000Y-38500000D03*
X133000000Y-38500000D03*
%TD*%
%TO.C,S8*%
X126500000Y-70000000D03*
X133000000Y-70000000D03*
X126500000Y-74500000D03*
X133000000Y-74500000D03*
%TD*%
D11*
%TO.C,H3*%
X125000000Y-125000000D03*
%TD*%
D10*
%TO.C,S13*%
X70000000Y-13500000D03*
X76500000Y-13500000D03*
X70000000Y-18000000D03*
X76500000Y-18000000D03*
%TD*%
M02*
