M48
; DRILL file KiCad 10.0.4 date 2026-07-22T10:10:36
; FORMAT={-:-/ absolute / metric / decimal}
; #@! TF.CreationDate,2026-07-22T10:10:36-04:00
; #@! TF.GenerationSoftware,Kicad,Pcbnew,10.0.4
; #@! TF.FileFunction,MixedPlating,1,2
FMAT,2
METRIC
; #@! TA.AperFunction,Plated,PTH,ComponentDrill
T1C1.000
; #@! TA.AperFunction,Plated,PTH,ComponentDrill
T2C1.100
; #@! TA.AperFunction,NonPlated,NPTH,ComponentDrill
T3C3.200
%
G90
G05
T1
X8.5Y-35.0
X8.5Y-54.5
X8.5Y-74.0
X8.5Y-93.5
X8.5Y-113.0
X20.5Y-20.5
X20.5Y-127.5
X35.0Y-8.5
X35.0Y-139.5
X54.5Y-8.5
X54.5Y-139.5
X74.0Y-8.5
X74.0Y-20.0
X74.0Y-22.54
X74.0Y-139.5
X93.5Y-8.5
X93.5Y-139.5
X113.0Y-8.5
X113.0Y-139.5
X127.5Y-20.5
X127.5Y-127.5
X139.5Y-35.0
X139.5Y-54.5
X139.5Y-74.0
X139.5Y-93.5
X139.5Y-113.0
T2
X14.0Y-28.5
X14.0Y-35.0
X14.0Y-48.0
X14.0Y-54.5
X14.0Y-67.5
X14.0Y-74.0
X14.0Y-87.0
X14.0Y-93.5
X14.0Y-106.5
X14.0Y-113.0
X18.5Y-28.5
X18.5Y-35.0
X18.5Y-48.0
X18.5Y-54.5
X18.5Y-67.5
X18.5Y-74.0
X18.5Y-87.0
X18.5Y-93.5
X18.5Y-106.5
X18.5Y-113.0
X26.0Y-26.0
X26.0Y-30.5
X26.0Y-122.0
X26.0Y-126.5
X28.5Y-129.5
X28.5Y-134.0
X32.5Y-26.0
X32.5Y-30.5
X32.5Y-122.0
X32.5Y-126.5
X35.0Y-14.0
X35.0Y-18.5
X35.0Y-129.5
X35.0Y-134.0
X41.5Y-14.0
X41.5Y-18.5
X48.0Y-129.5
X48.0Y-134.0
X54.5Y-14.0
X54.5Y-18.5
X54.5Y-129.5
X54.5Y-134.0
X61.0Y-14.0
X61.0Y-18.5
X67.5Y-129.5
X67.5Y-134.0
X74.0Y-14.0
X74.0Y-18.5
X74.0Y-129.5
X74.0Y-134.0
X80.5Y-14.0
X80.5Y-18.5
X87.0Y-129.5
X87.0Y-134.0
X93.5Y-14.0
X93.5Y-18.5
X93.5Y-129.5
X93.5Y-134.0
X100.0Y-14.0
X100.0Y-18.5
X106.5Y-129.5
X106.5Y-134.0
X113.0Y-14.0
X113.0Y-18.5
X113.0Y-129.5
X113.0Y-134.0
X119.5Y-14.0
X119.5Y-18.5
X122.0Y-26.0
X122.0Y-30.5
X122.0Y-122.0
X122.0Y-126.5
X128.5Y-26.0
X128.5Y-30.5
X128.5Y-122.0
X128.5Y-126.5
X129.5Y-35.0
X129.5Y-41.5
X129.5Y-54.5
X129.5Y-61.0
X129.5Y-74.0
X129.5Y-80.5
X129.5Y-93.5
X129.5Y-100.0
X129.5Y-113.0
X129.5Y-119.5
X134.0Y-35.0
X134.0Y-41.5
X134.0Y-54.5
X134.0Y-61.0
X134.0Y-74.0
X134.0Y-80.5
X134.0Y-93.5
X134.0Y-100.0
X134.0Y-113.0
X134.0Y-119.5
T3
X16.0Y-16.0
X16.0Y-132.0
X132.0Y-16.0
X132.0Y-132.0
M30
