%TF.GenerationSoftware,KiCad,Pcbnew,10.0.4*%
%TF.CreationDate,2026-07-22T09:45:02-04:00*%
%TF.ProjectId,cmfd-board-a,636d6664-2d62-46f6-9172-642d612e6b69,rev?*%
%TF.SameCoordinates,Original*%
%TF.FileFunction,Copper,L1,Top*%
%TF.FilePolarity,Positive*%
%FSLAX46Y46*%
G04 Gerber Fmt 4.6, Leading zero omitted, Abs format (unit mm)*
G04 Created by KiCad (PCBNEW 10.0.4) date 2026-07-22 09:45:02*
%MOMM*%
%LPD*%
G01*
G04 APERTURE LIST*
G04 Aperture macros list*
%AMRoundRect*
0 Rectangle with rounded corners*
0 $1 Rounding radius*
0 $2 $3 $4 $5 $6 $7 $8 $9 X,Y pos of 4 corners*
0 Add a 4 corners polygon primitive as box body*
4,1,4,$2,$3,$4,$5,$6,$7,$8,$9,$2,$3,0*
0 Add four circle primitives for the rounded corners*
1,1,$1+$1,$2,$3*
1,1,$1+$1,$4,$5*
1,1,$1+$1,$6,$7*
1,1,$1+$1,$8,$9*
0 Add four rect primitives between the rounded corners*
20,1,$1+$1,$2,$3,$4,$5,0*
20,1,$1+$1,$4,$5,$6,$7,0*
20,1,$1+$1,$6,$7,$8,$9,0*
20,1,$1+$1,$8,$9,$2,$3,0*%
G04 Aperture macros list end*
%TA.AperFunction,ComponentPad*%
%ADD10C,2.000000*%
%TD*%
%TA.AperFunction,SMDPad,CuDef*%
%ADD11RoundRect,0.225000X-0.225000X-0.250000X0.225000X-0.250000X0.225000X0.250000X-0.225000X0.250000X0*%
%TD*%
%TA.AperFunction,ComponentPad*%
%ADD12R,1.700000X1.700000*%
%TD*%
%TA.AperFunction,ComponentPad*%
%ADD13C,1.700000*%
%TD*%
%TA.AperFunction,ComponentPad*%
%ADD14C,6.400000*%
%TD*%
%TA.AperFunction,SMDPad,CuDef*%
%ADD15RoundRect,0.150000X-0.512500X-0.150000X0.512500X-0.150000X0.512500X0.150000X-0.512500X0.150000X0*%
%TD*%
%TA.AperFunction,SMDPad,CuDef*%
%ADD16RoundRect,0.075000X-0.662500X-0.075000X0.662500X-0.075000X0.662500X0.075000X-0.662500X0.075000X0*%
%TD*%
%TA.AperFunction,SMDPad,CuDef*%
%ADD17RoundRect,0.075000X-0.075000X-0.662500X0.075000X-0.662500X0.075000X0.662500X-0.075000X0.662500X0*%
%TD*%
G04 APERTURE END LIST*
D10*
%TO.P,S20,1*%
%TO.N,OSB20*%
X13500000Y-106000000D03*
%TO.N,GND*%
X20000000Y-106000000D03*
%TO.P,S20,2*%
%TO.N,OSB20*%
X13500000Y-110500000D03*
%TO.N,GND*%
X20000000Y-110500000D03*
%TD*%
D11*
%TO.P,C2,1*%
%TO.N,N/C*%
X40225000Y-38000000D03*
%TO.P,C2,2*%
X41775000Y-38000000D03*
%TD*%
D12*
%TO.P,J1,1*%
%TO.N,N/C*%
X95000000Y-30000000D03*
D13*
%TO.P,J1,2*%
X97540000Y-30000000D03*
%TO.P,J1,3*%
X95000000Y-32540000D03*
%TO.P,J1,4*%
X97540000Y-32540000D03*
%TO.P,J1,5*%
X95000000Y-35080000D03*
%TO.P,J1,6*%
X97540000Y-35080000D03*
%TO.P,J1,7*%
X95000000Y-37620000D03*
%TO.P,J1,8*%
X97540000Y-37620000D03*
%TO.P,J1,9*%
X95000000Y-40160000D03*
%TO.P,J1,10*%
X97540000Y-40160000D03*
%TO.P,J1,11*%
X95000000Y-42700000D03*
%TO.P,J1,12*%
X97540000Y-42700000D03*
%TO.P,J1,13*%
X95000000Y-45240000D03*
%TO.P,J1,14*%
X97540000Y-45240000D03*
%TO.P,J1,15*%
X95000000Y-47780000D03*
%TO.P,J1,16*%
X97540000Y-47780000D03*
%TO.P,J1,17*%
X95000000Y-50320000D03*
%TO.P,J1,18*%
X97540000Y-50320000D03*
%TO.P,J1,19*%
X95000000Y-52860000D03*
%TO.P,J1,20*%
X97540000Y-52860000D03*
%TD*%
D10*
%TO.P,SW3,1*%
%TO.N,N/C*%
X22000000Y-22000000D03*
X28500000Y-22000000D03*
%TO.P,SW3,2*%
X22000000Y-26500000D03*
X28500000Y-26500000D03*
%TD*%
%TO.P,S8,1*%
%TO.N,OSB8*%
X126500000Y-70000000D03*
%TO.N,GND*%
X133000000Y-70000000D03*
%TO.P,S8,2*%
%TO.N,OSB8*%
X126500000Y-74500000D03*
%TO.N,GND*%
X133000000Y-74500000D03*
%TD*%
%TO.P,S14,1*%
%TO.N,OSB14*%
X52000000Y-13500000D03*
%TO.N,GND*%
X58500000Y-13500000D03*
%TO.P,S14,2*%
%TO.N,OSB14*%
X52000000Y-18000000D03*
%TO.N,GND*%
X58500000Y-18000000D03*
%TD*%
%TO.P,S5,1*%
%TO.N,OSB5*%
X106000000Y-126500000D03*
%TO.N,GND*%
X112500000Y-126500000D03*
%TO.P,S5,2*%
%TO.N,OSB5*%
X106000000Y-131000000D03*
%TO.N,GND*%
X112500000Y-131000000D03*
%TD*%
%TO.P,SW1,1*%
%TO.N,N/C*%
X22000000Y-118000000D03*
X28500000Y-118000000D03*
%TO.P,SW1,2*%
X22000000Y-122500000D03*
X28500000Y-122500000D03*
%TD*%
%TO.P,S6,1*%
%TO.N,OSB6*%
X126500000Y-106000000D03*
%TO.N,GND*%
X133000000Y-106000000D03*
%TO.P,S6,2*%
%TO.N,OSB6*%
X126500000Y-110500000D03*
%TO.N,GND*%
X133000000Y-110500000D03*
%TD*%
%TO.P,S11,1*%
%TO.N,OSB11*%
X106000000Y-13500000D03*
%TO.N,GND*%
X112500000Y-13500000D03*
%TO.P,S11,2*%
%TO.N,OSB11*%
X106000000Y-18000000D03*
%TO.N,GND*%
X112500000Y-18000000D03*
%TD*%
%TO.P,S7,1*%
%TO.N,OSB7*%
X126500000Y-88000000D03*
%TO.N,GND*%
X133000000Y-88000000D03*
%TO.P,S7,2*%
%TO.N,OSB7*%
X126500000Y-92500000D03*
%TO.N,GND*%
X133000000Y-92500000D03*
%TD*%
%TO.P,S19,1*%
%TO.N,OSB19*%
X13500000Y-88000000D03*
%TO.N,GND*%
X20000000Y-88000000D03*
%TO.P,S19,2*%
%TO.N,OSB19*%
X13500000Y-92500000D03*
%TO.N,GND*%
X20000000Y-92500000D03*
%TD*%
D14*
%TO.P,H4,1*%
%TO.N,N/C*%
X7000000Y-133000000D03*
%TD*%
D10*
%TO.P,SW4,1*%
%TO.N,N/C*%
X118000000Y-22000000D03*
X124500000Y-22000000D03*
%TO.P,SW4,2*%
X118000000Y-26500000D03*
X124500000Y-26500000D03*
%TD*%
%TO.P,S3,1*%
%TO.N,OSB3*%
X70000000Y-126500000D03*
%TO.N,GND*%
X76500000Y-126500000D03*
%TO.P,S3,2*%
%TO.N,OSB3*%
X70000000Y-131000000D03*
%TO.N,GND*%
X76500000Y-131000000D03*
%TD*%
D14*
%TO.P,H1,1*%
%TO.N,N/C*%
X7000000Y-7000000D03*
%TD*%
D11*
%TO.P,C1,1*%
%TO.N,N/C*%
X36225000Y-38000000D03*
%TO.P,C1,2*%
X37775000Y-38000000D03*
%TD*%
D10*
%TO.P,S12,1*%
%TO.N,OSB12*%
X88000000Y-13500000D03*
%TO.N,GND*%
X94500000Y-13500000D03*
%TO.P,S12,2*%
%TO.N,OSB12*%
X88000000Y-18000000D03*
%TO.N,GND*%
X94500000Y-18000000D03*
%TD*%
D14*
%TO.P,H2,1*%
%TO.N,N/C*%
X133000000Y-7000000D03*
%TD*%
D10*
%TO.P,S1,1*%
%TO.N,OSB1*%
X34000000Y-126500000D03*
%TO.N,GND*%
X40500000Y-126500000D03*
%TO.P,S1,2*%
%TO.N,OSB1*%
X34000000Y-131000000D03*
%TO.N,GND*%
X40500000Y-131000000D03*
%TD*%
%TO.P,S18,1*%
%TO.N,OSB18*%
X13500000Y-70000000D03*
%TO.N,GND*%
X20000000Y-70000000D03*
%TO.P,S18,2*%
%TO.N,OSB18*%
X13500000Y-74500000D03*
%TO.N,GND*%
X20000000Y-74500000D03*
%TD*%
%TO.P,S13,1*%
%TO.N,OSB13*%
X70000000Y-13500000D03*
%TO.N,GND*%
X76500000Y-13500000D03*
%TO.P,S13,2*%
%TO.N,OSB13*%
X70000000Y-18000000D03*
%TO.N,GND*%
X76500000Y-18000000D03*
%TD*%
D12*
%TO.P,J2,1*%
%TO.N,N/C*%
X78000000Y-30000000D03*
D13*
%TO.P,J2,2*%
X78000000Y-32540000D03*
%TO.P,J2,3*%
X78000000Y-35080000D03*
%TO.P,J2,4*%
X78000000Y-37620000D03*
%TD*%
D14*
%TO.P,H3,1*%
%TO.N,N/C*%
X133000000Y-133000000D03*
%TD*%
D10*
%TO.P,S16,1*%
%TO.N,OSB16*%
X13500000Y-34000000D03*
%TO.N,GND*%
X20000000Y-34000000D03*
%TO.P,S16,2*%
%TO.N,OSB16*%
X13500000Y-38500000D03*
%TO.N,GND*%
X20000000Y-38500000D03*
%TD*%
%TO.P,S9,1*%
%TO.N,OSB9*%
X126500000Y-52000000D03*
%TO.N,GND*%
X133000000Y-52000000D03*
%TO.P,S9,2*%
%TO.N,OSB9*%
X126500000Y-56500000D03*
%TO.N,GND*%
X133000000Y-56500000D03*
%TD*%
%TO.P,SW2,1*%
%TO.N,N/C*%
X118000000Y-118000000D03*
X124500000Y-118000000D03*
%TO.P,SW2,2*%
X118000000Y-122500000D03*
X124500000Y-122500000D03*
%TD*%
D15*
%TO.P,U4,1*%
%TO.N,N/C*%
X60862500Y-29050000D03*
%TO.P,U4,2*%
X60862500Y-30000000D03*
%TO.P,U4,3*%
X60862500Y-30950000D03*
%TO.P,U4,4*%
X63137500Y-30950000D03*
%TO.P,U4,5*%
X63137500Y-29050000D03*
%TD*%
D10*
%TO.P,S4,1*%
%TO.N,OSB4*%
X88000000Y-126500000D03*
%TO.N,GND*%
X94500000Y-126500000D03*
%TO.P,S4,2*%
%TO.N,OSB4*%
X88000000Y-131000000D03*
%TO.N,GND*%
X94500000Y-131000000D03*
%TD*%
D11*
%TO.P,C5,1*%
%TO.N,N/C*%
X52225000Y-38000000D03*
%TO.P,C5,2*%
X53775000Y-38000000D03*
%TD*%
D16*
%TO.P,U1,1*%
%TO.N,N/C*%
X40837500Y-27250000D03*
%TO.P,U1,2*%
X40837500Y-27750000D03*
%TO.P,U1,3*%
X40837500Y-28250000D03*
%TO.P,U1,4*%
X40837500Y-28750000D03*
%TO.P,U1,5*%
X40837500Y-29250000D03*
%TO.P,U1,6*%
X40837500Y-29750000D03*
%TO.P,U1,7*%
X40837500Y-30250000D03*
%TO.P,U1,8*%
X40837500Y-30750000D03*
%TO.P,U1,9*%
X40837500Y-31250000D03*
%TO.P,U1,10*%
X40837500Y-31750000D03*
%TO.P,U1,11*%
X40837500Y-32250000D03*
%TO.P,U1,12*%
X40837500Y-32750000D03*
D17*
%TO.P,U1,13*%
X42250000Y-34162500D03*
%TO.P,U1,14*%
X42750000Y-34162500D03*
%TO.P,U1,15*%
X43250000Y-34162500D03*
%TO.P,U1,16*%
X43750000Y-34162500D03*
%TO.P,U1,17*%
X44250000Y-34162500D03*
%TO.P,U1,18*%
X44750000Y-34162500D03*
%TO.P,U1,19*%
X45250000Y-34162500D03*
%TO.P,U1,20*%
X45750000Y-34162500D03*
%TO.P,U1,21*%
X46250000Y-34162500D03*
%TO.P,U1,22*%
X46750000Y-34162500D03*
%TO.P,U1,23*%
X47250000Y-34162500D03*
%TO.P,U1,24*%
X47750000Y-34162500D03*
D16*
%TO.P,U1,25*%
X49162500Y-32750000D03*
%TO.P,U1,26*%
X49162500Y-32250000D03*
%TO.P,U1,27*%
X49162500Y-31750000D03*
%TO.P,U1,28*%
X49162500Y-31250000D03*
%TO.P,U1,29*%
X49162500Y-30750000D03*
%TO.P,U1,30*%
X49162500Y-30250000D03*
%TO.P,U1,31*%
X49162500Y-29750000D03*
%TO.P,U1,32*%
X49162500Y-29250000D03*
%TO.P,U1,33*%
X49162500Y-28750000D03*
%TO.P,U1,34*%
X49162500Y-28250000D03*
%TO.P,U1,35*%
X49162500Y-27750000D03*
%TO.P,U1,36*%
X49162500Y-27250000D03*
D17*
%TO.P,U1,37*%
X47750000Y-25837500D03*
%TO.P,U1,38*%
X47250000Y-25837500D03*
%TO.P,U1,39*%
X46750000Y-25837500D03*
%TO.P,U1,40*%
X46250000Y-25837500D03*
%TO.P,U1,41*%
X45750000Y-25837500D03*
%TO.P,U1,42*%
X45250000Y-25837500D03*
%TO.P,U1,43*%
X44750000Y-25837500D03*
%TO.P,U1,44*%
X44250000Y-25837500D03*
%TO.P,U1,45*%
X43750000Y-25837500D03*
%TO.P,U1,46*%
X43250000Y-25837500D03*
%TO.P,U1,47*%
X42750000Y-25837500D03*
%TO.P,U1,48*%
X42250000Y-25837500D03*
%TD*%
D10*
%TO.P,S10,1*%
%TO.N,OSB10*%
X126500000Y-34000000D03*
%TO.N,GND*%
X133000000Y-34000000D03*
%TO.P,S10,2*%
%TO.N,OSB10*%
X126500000Y-38500000D03*
%TO.N,GND*%
X133000000Y-38500000D03*
%TD*%
D11*
%TO.P,C4,1*%
%TO.N,N/C*%
X48225000Y-38000000D03*
%TO.P,C4,2*%
X49775000Y-38000000D03*
%TD*%
D10*
%TO.P,S15,1*%
%TO.N,OSB15*%
X34000000Y-13500000D03*
%TO.N,GND*%
X40500000Y-13500000D03*
%TO.P,S15,2*%
%TO.N,OSB15*%
X34000000Y-18000000D03*
%TO.N,GND*%
X40500000Y-18000000D03*
%TD*%
D11*
%TO.P,C3,1*%
%TO.N,N/C*%
X44225000Y-38000000D03*
%TO.P,C3,2*%
X45775000Y-38000000D03*
%TD*%
D10*
%TO.P,S17,1*%
%TO.N,OSB17*%
X13500000Y-52000000D03*
%TO.N,GND*%
X20000000Y-52000000D03*
%TO.P,S17,2*%
%TO.N,OSB17*%
X13500000Y-56500000D03*
%TO.N,GND*%
X20000000Y-56500000D03*
%TD*%
%TO.P,S2,1*%
%TO.N,OSB2*%
X52000000Y-126500000D03*
%TO.N,GND*%
X58500000Y-126500000D03*
%TO.P,S2,2*%
%TO.N,OSB2*%
X52000000Y-131000000D03*
%TO.N,GND*%
X58500000Y-131000000D03*
%TD*%
M02*
