%TF.GenerationSoftware,KiCad,Pcbnew,10.0.4*%
%TF.CreationDate,2026-07-22T10:10:36-04:00*%
%TF.ProjectId,cmfd-board-a,636d6664-2d62-46f6-9172-642d612e6b69,rev?*%
%TF.SameCoordinates,Original*%
%TF.FileFunction,Soldermask,Bot*%
%TF.FilePolarity,Negative*%
%FSLAX46Y46*%
G04 Gerber Fmt 4.6, Leading zero omitted, Abs format (unit mm)*
G04 Created by KiCad (PCBNEW 10.0.4) date 2026-07-22 10:10:36*
%MOMM*%
%LPD*%
G01*
G04 APERTURE LIST*
%ADD10C,2.000000*%
%ADD11R,1.700000X1.700000*%
%ADD12C,1.700000*%
%ADD13C,3.200000*%
G04 APERTURE END LIST*
D10*
%TO.C,S6*%
X134000000Y-113000000D03*
X134000000Y-119500000D03*
X129500000Y-113000000D03*
X129500000Y-119500000D03*
%TD*%
D11*
%TO.C,J6*%
X139500000Y-113000000D03*
%TD*%
D10*
%TO.C,S4*%
X93500000Y-134000000D03*
X87000000Y-134000000D03*
X93500000Y-129500000D03*
X87000000Y-129500000D03*
%TD*%
D11*
%TO.C,J15*%
X35000000Y-8500000D03*
%TD*%
D10*
%TO.C,S13*%
X74000000Y-14000000D03*
X80500000Y-14000000D03*
X74000000Y-18500000D03*
X80500000Y-18500000D03*
%TD*%
D11*
%TO.C,J_GND*%
X74000000Y-20000000D03*
D12*
X74000000Y-22540000D03*
%TD*%
D11*
%TO.C,J13*%
X74000000Y-8500000D03*
%TD*%
D10*
%TO.C,S17*%
X14000000Y-54500000D03*
X14000000Y-48000000D03*
X18500000Y-54500000D03*
X18500000Y-48000000D03*
%TD*%
D11*
%TO.C,J20*%
X8500000Y-113000000D03*
%TD*%
D13*
%TO.C,H2*%
X132000000Y-16000000D03*
%TD*%
D10*
%TO.C,S8*%
X134000000Y-74000000D03*
X134000000Y-80500000D03*
X129500000Y-74000000D03*
X129500000Y-80500000D03*
%TD*%
D11*
%TO.C,J12*%
X93500000Y-8500000D03*
%TD*%
D10*
%TO.C,S3*%
X74000000Y-134000000D03*
X67500000Y-134000000D03*
X74000000Y-129500000D03*
X67500000Y-129500000D03*
%TD*%
%TO.C,S5*%
X113000000Y-134000000D03*
X106500000Y-134000000D03*
X113000000Y-129500000D03*
X106500000Y-129500000D03*
%TD*%
%TO.C,S15*%
X35000000Y-14000000D03*
X41500000Y-14000000D03*
X35000000Y-18500000D03*
X41500000Y-18500000D03*
%TD*%
D11*
%TO.C,J11*%
X113000000Y-8500000D03*
%TD*%
D10*
%TO.C,S12*%
X93500000Y-14000000D03*
X100000000Y-14000000D03*
X93500000Y-18500000D03*
X100000000Y-18500000D03*
%TD*%
%TO.C,S14*%
X54500000Y-14000000D03*
X61000000Y-14000000D03*
X54500000Y-18500000D03*
X61000000Y-18500000D03*
%TD*%
D11*
%TO.C,J_CON*%
X127500000Y-20500000D03*
%TD*%
D10*
%TO.C,S7*%
X134000000Y-93500000D03*
X134000000Y-100000000D03*
X129500000Y-93500000D03*
X129500000Y-100000000D03*
%TD*%
D11*
%TO.C,J_BRT*%
X20500000Y-20500000D03*
%TD*%
D10*
%TO.C,SW3*%
X26000000Y-26000000D03*
X32500000Y-26000000D03*
X26000000Y-30500000D03*
X32500000Y-30500000D03*
%TD*%
%TO.C,S1*%
X35000000Y-134000000D03*
X28500000Y-134000000D03*
X35000000Y-129500000D03*
X28500000Y-129500000D03*
%TD*%
D11*
%TO.C,J_SYM*%
X127500000Y-127500000D03*
%TD*%
D10*
%TO.C,S19*%
X14000000Y-93500000D03*
X14000000Y-87000000D03*
X18500000Y-93500000D03*
X18500000Y-87000000D03*
%TD*%
D11*
%TO.C,J3*%
X74000000Y-139500000D03*
%TD*%
%TO.C,J19*%
X8500000Y-93500000D03*
%TD*%
D10*
%TO.C,S10*%
X134000000Y-35000000D03*
X134000000Y-41500000D03*
X129500000Y-35000000D03*
X129500000Y-41500000D03*
%TD*%
D11*
%TO.C,J9*%
X139500000Y-54500000D03*
%TD*%
%TO.C,J17*%
X8500000Y-54500000D03*
%TD*%
D10*
%TO.C,S9*%
X134000000Y-54500000D03*
X134000000Y-61000000D03*
X129500000Y-54500000D03*
X129500000Y-61000000D03*
%TD*%
%TO.C,S11*%
X113000000Y-14000000D03*
X119500000Y-14000000D03*
X113000000Y-18500000D03*
X119500000Y-18500000D03*
%TD*%
D11*
%TO.C,J18*%
X8500000Y-74000000D03*
%TD*%
%TO.C,J14*%
X54500000Y-8500000D03*
%TD*%
D10*
%TO.C,S16*%
X14000000Y-35000000D03*
X14000000Y-28500000D03*
X18500000Y-35000000D03*
X18500000Y-28500000D03*
%TD*%
D13*
%TO.C,H3*%
X132000000Y-132000000D03*
%TD*%
D11*
%TO.C,J10*%
X139500000Y-35000000D03*
%TD*%
%TO.C,J5*%
X113000000Y-139500000D03*
%TD*%
D10*
%TO.C,S20*%
X14000000Y-113000000D03*
X14000000Y-106500000D03*
X18500000Y-113000000D03*
X18500000Y-106500000D03*
%TD*%
%TO.C,S2*%
X54500000Y-134000000D03*
X48000000Y-134000000D03*
X54500000Y-129500000D03*
X48000000Y-129500000D03*
%TD*%
%TO.C,SW4*%
X122000000Y-26000000D03*
X128500000Y-26000000D03*
X122000000Y-30500000D03*
X128500000Y-30500000D03*
%TD*%
D11*
%TO.C,J7*%
X139500000Y-93500000D03*
%TD*%
D10*
%TO.C,SW1*%
X26000000Y-122000000D03*
X32500000Y-122000000D03*
X26000000Y-126500000D03*
X32500000Y-126500000D03*
%TD*%
D11*
%TO.C,J8*%
X139500000Y-74000000D03*
%TD*%
D13*
%TO.C,H4*%
X16000000Y-132000000D03*
%TD*%
D11*
%TO.C,J16*%
X8500000Y-35000000D03*
%TD*%
%TO.C,J2*%
X54500000Y-139500000D03*
%TD*%
%TO.C,J1*%
X35000000Y-139500000D03*
%TD*%
D13*
%TO.C,H1*%
X16000000Y-16000000D03*
%TD*%
D10*
%TO.C,SW2*%
X122000000Y-122000000D03*
X128500000Y-122000000D03*
X122000000Y-126500000D03*
X128500000Y-126500000D03*
%TD*%
D11*
%TO.C,J_GAIN*%
X20500000Y-127500000D03*
%TD*%
D10*
%TO.C,S18*%
X14000000Y-74000000D03*
X14000000Y-67500000D03*
X18500000Y-74000000D03*
X18500000Y-67500000D03*
%TD*%
D11*
%TO.C,J4*%
X93500000Y-139500000D03*
%TD*%
M02*
