%TF.GenerationSoftware,KiCad,Pcbnew,10.0.4*%
%TF.CreationDate,2026-07-22T09:59:50-04:00*%
%TF.ProjectId,cmfd-board-a,636d6664-2d62-46f6-9172-642d612e6b69,rev?*%
%TF.SameCoordinates,Original*%
%TF.FileFunction,Paste,Top*%
%TF.FilePolarity,Positive*%
%FSLAX46Y46*%
G04 Gerber Fmt 4.6, Leading zero omitted, Abs format (unit mm)*
G04 Created by KiCad (PCBNEW 10.0.4) date 2026-07-22 09:59:50*
%MOMM*%
%LPD*%
G01*
G04 APERTURE LIST*
G04 Aperture macros list*
%AMRoundRect*
0 Rectangle with rounded corners*
0 $1 Rounding radius*
0 $2 $3 $4 $5 $6 $7 $8 $9 X,Y pos of 4 corners*
0 Add a 4 corners polygon primitive as box body*
4,1,4,$2,$3,$4,$5,$6,$7,$8,$9,$2,$3,0*
0 Add four circle primitives for the rounded corners*
1,1,$1+$1,$2,$3*
1,1,$1+$1,$4,$5*
1,1,$1+$1,$6,$7*
1,1,$1+$1,$8,$9*
0 Add four rect primitives between the rounded corners*
20,1,$1+$1,$2,$3,$4,$5,0*
20,1,$1+$1,$4,$5,$6,$7,0*
20,1,$1+$1,$6,$7,$8,$9,0*
20,1,$1+$1,$8,$9,$2,$3,0*%
G04 Aperture macros list end*
%ADD10RoundRect,0.150000X-0.512500X-0.150000X0.512500X-0.150000X0.512500X0.150000X-0.512500X0.150000X0*%
%ADD11RoundRect,0.225000X-0.225000X-0.250000X0.225000X-0.250000X0.225000X0.250000X-0.225000X0.250000X0*%
%ADD12RoundRect,0.075000X-0.662500X-0.075000X0.662500X-0.075000X0.662500X0.075000X-0.662500X0.075000X0*%
%ADD13RoundRect,0.075000X-0.075000X-0.662500X0.075000X-0.662500X0.075000X0.662500X-0.075000X0.662500X0*%
G04 APERTURE END LIST*
D10*
%TO.C,U4*%
X60862500Y-29050000D03*
X60862500Y-30000000D03*
X60862500Y-30950000D03*
X63137500Y-30950000D03*
X63137500Y-29050000D03*
%TD*%
D11*
%TO.C,C5*%
X52225000Y-38000000D03*
X53775000Y-38000000D03*
%TD*%
%TO.C,C2*%
X40225000Y-38000000D03*
X41775000Y-38000000D03*
%TD*%
D12*
%TO.C,U1*%
X40837500Y-27250000D03*
X40837500Y-27750000D03*
X40837500Y-28250000D03*
X40837500Y-28750000D03*
X40837500Y-29250000D03*
X40837500Y-29750000D03*
X40837500Y-30250000D03*
X40837500Y-30750000D03*
X40837500Y-31250000D03*
X40837500Y-31750000D03*
X40837500Y-32250000D03*
X40837500Y-32750000D03*
D13*
X42250000Y-34162500D03*
X42750000Y-34162500D03*
X43250000Y-34162500D03*
X43750000Y-34162500D03*
X44250000Y-34162500D03*
X44750000Y-34162500D03*
X45250000Y-34162500D03*
X45750000Y-34162500D03*
X46250000Y-34162500D03*
X46750000Y-34162500D03*
X47250000Y-34162500D03*
X47750000Y-34162500D03*
D12*
X49162500Y-32750000D03*
X49162500Y-32250000D03*
X49162500Y-31750000D03*
X49162500Y-31250000D03*
X49162500Y-30750000D03*
X49162500Y-30250000D03*
X49162500Y-29750000D03*
X49162500Y-29250000D03*
X49162500Y-28750000D03*
X49162500Y-28250000D03*
X49162500Y-27750000D03*
X49162500Y-27250000D03*
D13*
X47750000Y-25837500D03*
X47250000Y-25837500D03*
X46750000Y-25837500D03*
X46250000Y-25837500D03*
X45750000Y-25837500D03*
X45250000Y-25837500D03*
X44750000Y-25837500D03*
X44250000Y-25837500D03*
X43750000Y-25837500D03*
X43250000Y-25837500D03*
X42750000Y-25837500D03*
X42250000Y-25837500D03*
%TD*%
D11*
%TO.C,C4*%
X48225000Y-38000000D03*
X49775000Y-38000000D03*
%TD*%
%TO.C,C1*%
X36225000Y-38000000D03*
X37775000Y-38000000D03*
%TD*%
%TO.C,C3*%
X44225000Y-38000000D03*
X45775000Y-38000000D03*
%TD*%
M02*
