%TF.GenerationSoftware,KiCad,Pcbnew,10.0.4*%
%TF.CreationDate,2026-07-22T10:10:36-04:00*%
%TF.ProjectId,cmfd-board-a,636d6664-2d62-46f6-9172-642d612e6b69,rev?*%
%TF.SameCoordinates,Original*%
%TF.FileFunction,Legend,Top*%
%TF.FilePolarity,Positive*%
%FSLAX46Y46*%
G04 Gerber Fmt 4.6, Leading zero omitted, Abs format (unit mm)*
G04 Created by KiCad (PCBNEW 10.0.4) date 2026-07-22 10:10:36*
%MOMM*%
%LPD*%
G01*
G04 APERTURE LIST*
%ADD10C,0.120000*%
%ADD11C,0.150000*%
%ADD12C,2.000000*%
%ADD13R,1.700000X1.700000*%
%ADD14C,1.700000*%
%ADD15C,3.200000*%
G04 APERTURE END LIST*
D10*
X21433334Y-33450926D02*
X21533334Y-33484260D01*
X21533334Y-33484260D02*
X21566667Y-33517593D01*
X21566667Y-33517593D02*
X21600000Y-33584260D01*
X21600000Y-33584260D02*
X21600000Y-33684260D01*
X21600000Y-33684260D02*
X21566667Y-33750926D01*
X21566667Y-33750926D02*
X21533334Y-33784260D01*
X21533334Y-33784260D02*
X21466667Y-33817593D01*
X21466667Y-33817593D02*
X21200000Y-33817593D01*
X21200000Y-33817593D02*
X21200000Y-33117593D01*
X21200000Y-33117593D02*
X21433334Y-33117593D01*
X21433334Y-33117593D02*
X21500000Y-33150926D01*
X21500000Y-33150926D02*
X21533334Y-33184260D01*
X21533334Y-33184260D02*
X21566667Y-33250926D01*
X21566667Y-33250926D02*
X21566667Y-33317593D01*
X21566667Y-33317593D02*
X21533334Y-33384260D01*
X21533334Y-33384260D02*
X21500000Y-33417593D01*
X21500000Y-33417593D02*
X21433334Y-33450926D01*
X21433334Y-33450926D02*
X21200000Y-33450926D01*
X22300000Y-33817593D02*
X22066667Y-33484260D01*
X21900000Y-33817593D02*
X21900000Y-33117593D01*
X21900000Y-33117593D02*
X22166667Y-33117593D01*
X22166667Y-33117593D02*
X22233334Y-33150926D01*
X22233334Y-33150926D02*
X22266667Y-33184260D01*
X22266667Y-33184260D02*
X22300000Y-33250926D01*
X22300000Y-33250926D02*
X22300000Y-33350926D01*
X22300000Y-33350926D02*
X22266667Y-33417593D01*
X22266667Y-33417593D02*
X22233334Y-33450926D01*
X22233334Y-33450926D02*
X22166667Y-33484260D01*
X22166667Y-33484260D02*
X21900000Y-33484260D01*
X22500000Y-33117593D02*
X22900000Y-33117593D01*
X22700000Y-33817593D02*
X22700000Y-33117593D01*
X21350000Y-129150926D02*
X21283333Y-129117593D01*
X21283333Y-129117593D02*
X21183333Y-129117593D01*
X21183333Y-129117593D02*
X21083333Y-129150926D01*
X21083333Y-129150926D02*
X21016667Y-129217593D01*
X21016667Y-129217593D02*
X20983333Y-129284260D01*
X20983333Y-129284260D02*
X20950000Y-129417593D01*
X20950000Y-129417593D02*
X20950000Y-129517593D01*
X20950000Y-129517593D02*
X20983333Y-129650926D01*
X20983333Y-129650926D02*
X21016667Y-129717593D01*
X21016667Y-129717593D02*
X21083333Y-129784260D01*
X21083333Y-129784260D02*
X21183333Y-129817593D01*
X21183333Y-129817593D02*
X21250000Y-129817593D01*
X21250000Y-129817593D02*
X21350000Y-129784260D01*
X21350000Y-129784260D02*
X21383333Y-129750926D01*
X21383333Y-129750926D02*
X21383333Y-129517593D01*
X21383333Y-129517593D02*
X21250000Y-129517593D01*
X21650000Y-129617593D02*
X21983333Y-129617593D01*
X21583333Y-129817593D02*
X21816667Y-129117593D01*
X21816667Y-129117593D02*
X22050000Y-129817593D01*
X22283333Y-129817593D02*
X22283333Y-129117593D01*
X22616666Y-129817593D02*
X22616666Y-129117593D01*
X22616666Y-129117593D02*
X23016666Y-129817593D01*
X23016666Y-129817593D02*
X23016666Y-129117593D01*
X18100002Y-140317593D02*
X17700002Y-140317593D01*
X17900002Y-140317593D02*
X17900002Y-139617593D01*
X17900002Y-139617593D02*
X17833335Y-139717593D01*
X17833335Y-139717593D02*
X17766669Y-139784260D01*
X17766669Y-139784260D02*
X17700002Y-139817593D01*
X18933335Y-139850926D02*
X18933335Y-140550926D01*
X18933335Y-139884260D02*
X19000002Y-139850926D01*
X19000002Y-139850926D02*
X19133335Y-139850926D01*
X19133335Y-139850926D02*
X19200002Y-139884260D01*
X19200002Y-139884260D02*
X19233335Y-139917593D01*
X19233335Y-139917593D02*
X19266669Y-139984260D01*
X19266669Y-139984260D02*
X19266669Y-140184260D01*
X19266669Y-140184260D02*
X19233335Y-140250926D01*
X19233335Y-140250926D02*
X19200002Y-140284260D01*
X19200002Y-140284260D02*
X19133335Y-140317593D01*
X19133335Y-140317593D02*
X19000002Y-140317593D01*
X19000002Y-140317593D02*
X18933335Y-140284260D01*
X19566668Y-140317593D02*
X19566668Y-139850926D01*
X19566668Y-139617593D02*
X19533335Y-139650926D01*
X19533335Y-139650926D02*
X19566668Y-139684260D01*
X19566668Y-139684260D02*
X19600002Y-139650926D01*
X19600002Y-139650926D02*
X19566668Y-139617593D01*
X19566668Y-139617593D02*
X19566668Y-139684260D01*
X19900001Y-139850926D02*
X19900001Y-140317593D01*
X19900001Y-139917593D02*
X19933335Y-139884260D01*
X19933335Y-139884260D02*
X20000001Y-139850926D01*
X20000001Y-139850926D02*
X20100001Y-139850926D01*
X20100001Y-139850926D02*
X20166668Y-139884260D01*
X20166668Y-139884260D02*
X20200001Y-139950926D01*
X20200001Y-139950926D02*
X20200001Y-140317593D01*
X21066667Y-139850926D02*
X21066667Y-140550926D01*
X21066667Y-139884260D02*
X21133334Y-139850926D01*
X21133334Y-139850926D02*
X21266667Y-139850926D01*
X21266667Y-139850926D02*
X21333334Y-139884260D01*
X21333334Y-139884260D02*
X21366667Y-139917593D01*
X21366667Y-139917593D02*
X21400001Y-139984260D01*
X21400001Y-139984260D02*
X21400001Y-140184260D01*
X21400001Y-140184260D02*
X21366667Y-140250926D01*
X21366667Y-140250926D02*
X21333334Y-140284260D01*
X21333334Y-140284260D02*
X21266667Y-140317593D01*
X21266667Y-140317593D02*
X21133334Y-140317593D01*
X21133334Y-140317593D02*
X21066667Y-140284260D01*
X21966667Y-140284260D02*
X21900000Y-140317593D01*
X21900000Y-140317593D02*
X21766667Y-140317593D01*
X21766667Y-140317593D02*
X21700000Y-140284260D01*
X21700000Y-140284260D02*
X21666667Y-140217593D01*
X21666667Y-140217593D02*
X21666667Y-139950926D01*
X21666667Y-139950926D02*
X21700000Y-139884260D01*
X21700000Y-139884260D02*
X21766667Y-139850926D01*
X21766667Y-139850926D02*
X21900000Y-139850926D01*
X21900000Y-139850926D02*
X21966667Y-139884260D01*
X21966667Y-139884260D02*
X22000000Y-139950926D01*
X22000000Y-139950926D02*
X22000000Y-140017593D01*
X22000000Y-140017593D02*
X21666667Y-140084260D01*
X22300000Y-140317593D02*
X22300000Y-139850926D01*
X22300000Y-139984260D02*
X22333334Y-139917593D01*
X22333334Y-139917593D02*
X22366667Y-139884260D01*
X22366667Y-139884260D02*
X22433334Y-139850926D01*
X22433334Y-139850926D02*
X22500000Y-139850926D01*
X23266666Y-140317593D02*
X23266666Y-139617593D01*
X23266666Y-139884260D02*
X23333333Y-139850926D01*
X23333333Y-139850926D02*
X23466666Y-139850926D01*
X23466666Y-139850926D02*
X23533333Y-139884260D01*
X23533333Y-139884260D02*
X23566666Y-139917593D01*
X23566666Y-139917593D02*
X23600000Y-139984260D01*
X23600000Y-139984260D02*
X23600000Y-140184260D01*
X23600000Y-140184260D02*
X23566666Y-140250926D01*
X23566666Y-140250926D02*
X23533333Y-140284260D01*
X23533333Y-140284260D02*
X23466666Y-140317593D01*
X23466666Y-140317593D02*
X23333333Y-140317593D01*
X23333333Y-140317593D02*
X23266666Y-140284260D01*
X24199999Y-139850926D02*
X24199999Y-140317593D01*
X23899999Y-139850926D02*
X23899999Y-140217593D01*
X23899999Y-140217593D02*
X23933333Y-140284260D01*
X23933333Y-140284260D02*
X23999999Y-140317593D01*
X23999999Y-140317593D02*
X24099999Y-140317593D01*
X24099999Y-140317593D02*
X24166666Y-140284260D01*
X24166666Y-140284260D02*
X24199999Y-140250926D01*
X24433332Y-139850926D02*
X24699999Y-139850926D01*
X24533332Y-139617593D02*
X24533332Y-140217593D01*
X24533332Y-140217593D02*
X24566666Y-140284260D01*
X24566666Y-140284260D02*
X24633332Y-140317593D01*
X24633332Y-140317593D02*
X24699999Y-140317593D01*
X24833332Y-139850926D02*
X25099999Y-139850926D01*
X24933332Y-139617593D02*
X24933332Y-140217593D01*
X24933332Y-140217593D02*
X24966666Y-140284260D01*
X24966666Y-140284260D02*
X25033332Y-140317593D01*
X25033332Y-140317593D02*
X25099999Y-140317593D01*
X25433332Y-140317593D02*
X25366666Y-140284260D01*
X25366666Y-140284260D02*
X25333332Y-140250926D01*
X25333332Y-140250926D02*
X25299999Y-140184260D01*
X25299999Y-140184260D02*
X25299999Y-139984260D01*
X25299999Y-139984260D02*
X25333332Y-139917593D01*
X25333332Y-139917593D02*
X25366666Y-139884260D01*
X25366666Y-139884260D02*
X25433332Y-139850926D01*
X25433332Y-139850926D02*
X25533332Y-139850926D01*
X25533332Y-139850926D02*
X25599999Y-139884260D01*
X25599999Y-139884260D02*
X25633332Y-139917593D01*
X25633332Y-139917593D02*
X25666666Y-139984260D01*
X25666666Y-139984260D02*
X25666666Y-140184260D01*
X25666666Y-140184260D02*
X25633332Y-140250926D01*
X25633332Y-140250926D02*
X25599999Y-140284260D01*
X25599999Y-140284260D02*
X25533332Y-140317593D01*
X25533332Y-140317593D02*
X25433332Y-140317593D01*
X25966665Y-139850926D02*
X25966665Y-140317593D01*
X25966665Y-139917593D02*
X25999999Y-139884260D01*
X25999999Y-139884260D02*
X26066665Y-139850926D01*
X26066665Y-139850926D02*
X26166665Y-139850926D01*
X26166665Y-139850926D02*
X26233332Y-139884260D01*
X26233332Y-139884260D02*
X26266665Y-139950926D01*
X26266665Y-139950926D02*
X26266665Y-140317593D01*
X117483333Y-33750926D02*
X117450000Y-33784260D01*
X117450000Y-33784260D02*
X117350000Y-33817593D01*
X117350000Y-33817593D02*
X117283333Y-33817593D01*
X117283333Y-33817593D02*
X117183333Y-33784260D01*
X117183333Y-33784260D02*
X117116667Y-33717593D01*
X117116667Y-33717593D02*
X117083333Y-33650926D01*
X117083333Y-33650926D02*
X117050000Y-33517593D01*
X117050000Y-33517593D02*
X117050000Y-33417593D01*
X117050000Y-33417593D02*
X117083333Y-33284260D01*
X117083333Y-33284260D02*
X117116667Y-33217593D01*
X117116667Y-33217593D02*
X117183333Y-33150926D01*
X117183333Y-33150926D02*
X117283333Y-33117593D01*
X117283333Y-33117593D02*
X117350000Y-33117593D01*
X117350000Y-33117593D02*
X117450000Y-33150926D01*
X117450000Y-33150926D02*
X117483333Y-33184260D01*
X117916667Y-33117593D02*
X118050000Y-33117593D01*
X118050000Y-33117593D02*
X118116667Y-33150926D01*
X118116667Y-33150926D02*
X118183333Y-33217593D01*
X118183333Y-33217593D02*
X118216667Y-33350926D01*
X118216667Y-33350926D02*
X118216667Y-33584260D01*
X118216667Y-33584260D02*
X118183333Y-33717593D01*
X118183333Y-33717593D02*
X118116667Y-33784260D01*
X118116667Y-33784260D02*
X118050000Y-33817593D01*
X118050000Y-33817593D02*
X117916667Y-33817593D01*
X117916667Y-33817593D02*
X117850000Y-33784260D01*
X117850000Y-33784260D02*
X117783333Y-33717593D01*
X117783333Y-33717593D02*
X117750000Y-33584260D01*
X117750000Y-33584260D02*
X117750000Y-33350926D01*
X117750000Y-33350926D02*
X117783333Y-33217593D01*
X117783333Y-33217593D02*
X117850000Y-33150926D01*
X117850000Y-33150926D02*
X117916667Y-33117593D01*
X118516666Y-33817593D02*
X118516666Y-33117593D01*
X118516666Y-33117593D02*
X118916666Y-33817593D01*
X118916666Y-33817593D02*
X118916666Y-33117593D01*
X117100000Y-129784260D02*
X117200000Y-129817593D01*
X117200000Y-129817593D02*
X117366667Y-129817593D01*
X117366667Y-129817593D02*
X117433333Y-129784260D01*
X117433333Y-129784260D02*
X117466667Y-129750926D01*
X117466667Y-129750926D02*
X117500000Y-129684260D01*
X117500000Y-129684260D02*
X117500000Y-129617593D01*
X117500000Y-129617593D02*
X117466667Y-129550926D01*
X117466667Y-129550926D02*
X117433333Y-129517593D01*
X117433333Y-129517593D02*
X117366667Y-129484260D01*
X117366667Y-129484260D02*
X117233333Y-129450926D01*
X117233333Y-129450926D02*
X117166667Y-129417593D01*
X117166667Y-129417593D02*
X117133333Y-129384260D01*
X117133333Y-129384260D02*
X117100000Y-129317593D01*
X117100000Y-129317593D02*
X117100000Y-129250926D01*
X117100000Y-129250926D02*
X117133333Y-129184260D01*
X117133333Y-129184260D02*
X117166667Y-129150926D01*
X117166667Y-129150926D02*
X117233333Y-129117593D01*
X117233333Y-129117593D02*
X117400000Y-129117593D01*
X117400000Y-129117593D02*
X117500000Y-129150926D01*
X117933334Y-129484260D02*
X117933334Y-129817593D01*
X117700000Y-129117593D02*
X117933334Y-129484260D01*
X117933334Y-129484260D02*
X118166667Y-129117593D01*
X118400000Y-129817593D02*
X118400000Y-129117593D01*
X118400000Y-129117593D02*
X118633334Y-129617593D01*
X118633334Y-129617593D02*
X118866667Y-129117593D01*
X118866667Y-129117593D02*
X118866667Y-129817593D01*
X17333332Y-143361140D02*
X17285713Y-143408760D01*
X17285713Y-143408760D02*
X17142856Y-143456379D01*
X17142856Y-143456379D02*
X17047618Y-143456379D01*
X17047618Y-143456379D02*
X16904761Y-143408760D01*
X16904761Y-143408760D02*
X16809523Y-143313521D01*
X16809523Y-143313521D02*
X16761904Y-143218283D01*
X16761904Y-143218283D02*
X16714285Y-143027807D01*
X16714285Y-143027807D02*
X16714285Y-142884950D01*
X16714285Y-142884950D02*
X16761904Y-142694474D01*
X16761904Y-142694474D02*
X16809523Y-142599236D01*
X16809523Y-142599236D02*
X16904761Y-142503998D01*
X16904761Y-142503998D02*
X17047618Y-142456379D01*
X17047618Y-142456379D02*
X17142856Y-142456379D01*
X17142856Y-142456379D02*
X17285713Y-142503998D01*
X17285713Y-142503998D02*
X17333332Y-142551617D01*
X17761904Y-143456379D02*
X17761904Y-142456379D01*
X17761904Y-142456379D02*
X18095237Y-143170664D01*
X18095237Y-143170664D02*
X18428570Y-142456379D01*
X18428570Y-142456379D02*
X18428570Y-143456379D01*
X19238094Y-142932569D02*
X18904761Y-142932569D01*
X18904761Y-143456379D02*
X18904761Y-142456379D01*
X18904761Y-142456379D02*
X19380951Y-142456379D01*
X19761904Y-143456379D02*
X19761904Y-142456379D01*
X19761904Y-142456379D02*
X19999999Y-142456379D01*
X19999999Y-142456379D02*
X20142856Y-142503998D01*
X20142856Y-142503998D02*
X20238094Y-142599236D01*
X20238094Y-142599236D02*
X20285713Y-142694474D01*
X20285713Y-142694474D02*
X20333332Y-142884950D01*
X20333332Y-142884950D02*
X20333332Y-143027807D01*
X20333332Y-143027807D02*
X20285713Y-143218283D01*
X20285713Y-143218283D02*
X20238094Y-143313521D01*
X20238094Y-143313521D02*
X20142856Y-143408760D01*
X20142856Y-143408760D02*
X19999999Y-143456379D01*
X19999999Y-143456379D02*
X19761904Y-143456379D01*
X21857142Y-142932569D02*
X21999999Y-142980188D01*
X21999999Y-142980188D02*
X22047618Y-143027807D01*
X22047618Y-143027807D02*
X22095237Y-143123045D01*
X22095237Y-143123045D02*
X22095237Y-143265902D01*
X22095237Y-143265902D02*
X22047618Y-143361140D01*
X22047618Y-143361140D02*
X21999999Y-143408760D01*
X21999999Y-143408760D02*
X21904761Y-143456379D01*
X21904761Y-143456379D02*
X21523809Y-143456379D01*
X21523809Y-143456379D02*
X21523809Y-142456379D01*
X21523809Y-142456379D02*
X21857142Y-142456379D01*
X21857142Y-142456379D02*
X21952380Y-142503998D01*
X21952380Y-142503998D02*
X21999999Y-142551617D01*
X21999999Y-142551617D02*
X22047618Y-142646855D01*
X22047618Y-142646855D02*
X22047618Y-142742093D01*
X22047618Y-142742093D02*
X21999999Y-142837331D01*
X21999999Y-142837331D02*
X21952380Y-142884950D01*
X21952380Y-142884950D02*
X21857142Y-142932569D01*
X21857142Y-142932569D02*
X21523809Y-142932569D01*
X22523809Y-142932569D02*
X22857142Y-142932569D01*
X22999999Y-143456379D02*
X22523809Y-143456379D01*
X22523809Y-143456379D02*
X22523809Y-142456379D01*
X22523809Y-142456379D02*
X22999999Y-142456379D01*
X23333333Y-142456379D02*
X23999999Y-142456379D01*
X23999999Y-142456379D02*
X23333333Y-143456379D01*
X23333333Y-143456379D02*
X23999999Y-143456379D01*
X24380952Y-142932569D02*
X24714285Y-142932569D01*
X24857142Y-143456379D02*
X24380952Y-143456379D01*
X24380952Y-143456379D02*
X24380952Y-142456379D01*
X24380952Y-142456379D02*
X24857142Y-142456379D01*
X25761904Y-143456379D02*
X25285714Y-143456379D01*
X25285714Y-143456379D02*
X25285714Y-142456379D01*
X26809524Y-143170664D02*
X27285714Y-143170664D01*
X26714286Y-143456379D02*
X27047619Y-142456379D01*
X27047619Y-142456379D02*
X27380952Y-143456379D01*
D11*
X136407200Y-117011904D02*
X136454819Y-116869047D01*
X136454819Y-116869047D02*
X136454819Y-116630952D01*
X136454819Y-116630952D02*
X136407200Y-116535714D01*
X136407200Y-116535714D02*
X136359580Y-116488095D01*
X136359580Y-116488095D02*
X136264342Y-116440476D01*
X136264342Y-116440476D02*
X136169104Y-116440476D01*
X136169104Y-116440476D02*
X136073866Y-116488095D01*
X136073866Y-116488095D02*
X136026247Y-116535714D01*
X136026247Y-116535714D02*
X135978628Y-116630952D01*
X135978628Y-116630952D02*
X135931009Y-116821428D01*
X135931009Y-116821428D02*
X135883390Y-116916666D01*
X135883390Y-116916666D02*
X135835771Y-116964285D01*
X135835771Y-116964285D02*
X135740533Y-117011904D01*
X135740533Y-117011904D02*
X135645295Y-117011904D01*
X135645295Y-117011904D02*
X135550057Y-116964285D01*
X135550057Y-116964285D02*
X135502438Y-116916666D01*
X135502438Y-116916666D02*
X135454819Y-116821428D01*
X135454819Y-116821428D02*
X135454819Y-116583333D01*
X135454819Y-116583333D02*
X135502438Y-116440476D01*
X135454819Y-115583333D02*
X135454819Y-115773809D01*
X135454819Y-115773809D02*
X135502438Y-115869047D01*
X135502438Y-115869047D02*
X135550057Y-115916666D01*
X135550057Y-115916666D02*
X135692914Y-116011904D01*
X135692914Y-116011904D02*
X135883390Y-116059523D01*
X135883390Y-116059523D02*
X136264342Y-116059523D01*
X136264342Y-116059523D02*
X136359580Y-116011904D01*
X136359580Y-116011904D02*
X136407200Y-115964285D01*
X136407200Y-115964285D02*
X136454819Y-115869047D01*
X136454819Y-115869047D02*
X136454819Y-115678571D01*
X136454819Y-115678571D02*
X136407200Y-115583333D01*
X136407200Y-115583333D02*
X136359580Y-115535714D01*
X136359580Y-115535714D02*
X136264342Y-115488095D01*
X136264342Y-115488095D02*
X136026247Y-115488095D01*
X136026247Y-115488095D02*
X135931009Y-115535714D01*
X135931009Y-115535714D02*
X135883390Y-115583333D01*
X135883390Y-115583333D02*
X135835771Y-115678571D01*
X135835771Y-115678571D02*
X135835771Y-115869047D01*
X135835771Y-115869047D02*
X135883390Y-115964285D01*
X135883390Y-115964285D02*
X135931009Y-116011904D01*
X135931009Y-116011904D02*
X136026247Y-116059523D01*
X139166666Y-110074819D02*
X139166666Y-110789104D01*
X139166666Y-110789104D02*
X139119047Y-110931961D01*
X139119047Y-110931961D02*
X139023809Y-111027200D01*
X139023809Y-111027200D02*
X138880952Y-111074819D01*
X138880952Y-111074819D02*
X138785714Y-111074819D01*
X140071428Y-110074819D02*
X139880952Y-110074819D01*
X139880952Y-110074819D02*
X139785714Y-110122438D01*
X139785714Y-110122438D02*
X139738095Y-110170057D01*
X139738095Y-110170057D02*
X139642857Y-110312914D01*
X139642857Y-110312914D02*
X139595238Y-110503390D01*
X139595238Y-110503390D02*
X139595238Y-110884342D01*
X139595238Y-110884342D02*
X139642857Y-110979580D01*
X139642857Y-110979580D02*
X139690476Y-111027200D01*
X139690476Y-111027200D02*
X139785714Y-111074819D01*
X139785714Y-111074819D02*
X139976190Y-111074819D01*
X139976190Y-111074819D02*
X140071428Y-111027200D01*
X140071428Y-111027200D02*
X140119047Y-110979580D01*
X140119047Y-110979580D02*
X140166666Y-110884342D01*
X140166666Y-110884342D02*
X140166666Y-110646247D01*
X140166666Y-110646247D02*
X140119047Y-110551009D01*
X140119047Y-110551009D02*
X140071428Y-110503390D01*
X140071428Y-110503390D02*
X139976190Y-110455771D01*
X139976190Y-110455771D02*
X139785714Y-110455771D01*
X139785714Y-110455771D02*
X139690476Y-110503390D01*
X139690476Y-110503390D02*
X139642857Y-110551009D01*
X139642857Y-110551009D02*
X139595238Y-110646247D01*
X89488095Y-136407200D02*
X89630952Y-136454819D01*
X89630952Y-136454819D02*
X89869047Y-136454819D01*
X89869047Y-136454819D02*
X89964285Y-136407200D01*
X89964285Y-136407200D02*
X90011904Y-136359580D01*
X90011904Y-136359580D02*
X90059523Y-136264342D01*
X90059523Y-136264342D02*
X90059523Y-136169104D01*
X90059523Y-136169104D02*
X90011904Y-136073866D01*
X90011904Y-136073866D02*
X89964285Y-136026247D01*
X89964285Y-136026247D02*
X89869047Y-135978628D01*
X89869047Y-135978628D02*
X89678571Y-135931009D01*
X89678571Y-135931009D02*
X89583333Y-135883390D01*
X89583333Y-135883390D02*
X89535714Y-135835771D01*
X89535714Y-135835771D02*
X89488095Y-135740533D01*
X89488095Y-135740533D02*
X89488095Y-135645295D01*
X89488095Y-135645295D02*
X89535714Y-135550057D01*
X89535714Y-135550057D02*
X89583333Y-135502438D01*
X89583333Y-135502438D02*
X89678571Y-135454819D01*
X89678571Y-135454819D02*
X89916666Y-135454819D01*
X89916666Y-135454819D02*
X90059523Y-135502438D01*
X90916666Y-135788152D02*
X90916666Y-136454819D01*
X90678571Y-135407200D02*
X90440476Y-136121485D01*
X90440476Y-136121485D02*
X91059523Y-136121485D01*
X34190476Y-5574819D02*
X34190476Y-6289104D01*
X34190476Y-6289104D02*
X34142857Y-6431961D01*
X34142857Y-6431961D02*
X34047619Y-6527200D01*
X34047619Y-6527200D02*
X33904762Y-6574819D01*
X33904762Y-6574819D02*
X33809524Y-6574819D01*
X35190476Y-6574819D02*
X34619048Y-6574819D01*
X34904762Y-6574819D02*
X34904762Y-5574819D01*
X34904762Y-5574819D02*
X34809524Y-5717676D01*
X34809524Y-5717676D02*
X34714286Y-5812914D01*
X34714286Y-5812914D02*
X34619048Y-5860533D01*
X36095238Y-5574819D02*
X35619048Y-5574819D01*
X35619048Y-5574819D02*
X35571429Y-6051009D01*
X35571429Y-6051009D02*
X35619048Y-6003390D01*
X35619048Y-6003390D02*
X35714286Y-5955771D01*
X35714286Y-5955771D02*
X35952381Y-5955771D01*
X35952381Y-5955771D02*
X36047619Y-6003390D01*
X36047619Y-6003390D02*
X36095238Y-6051009D01*
X36095238Y-6051009D02*
X36142857Y-6146247D01*
X36142857Y-6146247D02*
X36142857Y-6384342D01*
X36142857Y-6384342D02*
X36095238Y-6479580D01*
X36095238Y-6479580D02*
X36047619Y-6527200D01*
X36047619Y-6527200D02*
X35952381Y-6574819D01*
X35952381Y-6574819D02*
X35714286Y-6574819D01*
X35714286Y-6574819D02*
X35619048Y-6527200D01*
X35619048Y-6527200D02*
X35571429Y-6479580D01*
X76011905Y-12407200D02*
X76154762Y-12454819D01*
X76154762Y-12454819D02*
X76392857Y-12454819D01*
X76392857Y-12454819D02*
X76488095Y-12407200D01*
X76488095Y-12407200D02*
X76535714Y-12359580D01*
X76535714Y-12359580D02*
X76583333Y-12264342D01*
X76583333Y-12264342D02*
X76583333Y-12169104D01*
X76583333Y-12169104D02*
X76535714Y-12073866D01*
X76535714Y-12073866D02*
X76488095Y-12026247D01*
X76488095Y-12026247D02*
X76392857Y-11978628D01*
X76392857Y-11978628D02*
X76202381Y-11931009D01*
X76202381Y-11931009D02*
X76107143Y-11883390D01*
X76107143Y-11883390D02*
X76059524Y-11835771D01*
X76059524Y-11835771D02*
X76011905Y-11740533D01*
X76011905Y-11740533D02*
X76011905Y-11645295D01*
X76011905Y-11645295D02*
X76059524Y-11550057D01*
X76059524Y-11550057D02*
X76107143Y-11502438D01*
X76107143Y-11502438D02*
X76202381Y-11454819D01*
X76202381Y-11454819D02*
X76440476Y-11454819D01*
X76440476Y-11454819D02*
X76583333Y-11502438D01*
X77535714Y-12454819D02*
X76964286Y-12454819D01*
X77250000Y-12454819D02*
X77250000Y-11454819D01*
X77250000Y-11454819D02*
X77154762Y-11597676D01*
X77154762Y-11597676D02*
X77059524Y-11692914D01*
X77059524Y-11692914D02*
X76964286Y-11740533D01*
X77869048Y-11454819D02*
X78488095Y-11454819D01*
X78488095Y-11454819D02*
X78154762Y-11835771D01*
X78154762Y-11835771D02*
X78297619Y-11835771D01*
X78297619Y-11835771D02*
X78392857Y-11883390D01*
X78392857Y-11883390D02*
X78440476Y-11931009D01*
X78440476Y-11931009D02*
X78488095Y-12026247D01*
X78488095Y-12026247D02*
X78488095Y-12264342D01*
X78488095Y-12264342D02*
X78440476Y-12359580D01*
X78440476Y-12359580D02*
X78392857Y-12407200D01*
X78392857Y-12407200D02*
X78297619Y-12454819D01*
X78297619Y-12454819D02*
X78011905Y-12454819D01*
X78011905Y-12454819D02*
X77916667Y-12407200D01*
X77916667Y-12407200D02*
X77869048Y-12359580D01*
X72238095Y-17074819D02*
X72238095Y-17789104D01*
X72238095Y-17789104D02*
X72190476Y-17931961D01*
X72190476Y-17931961D02*
X72095238Y-18027200D01*
X72095238Y-18027200D02*
X71952381Y-18074819D01*
X71952381Y-18074819D02*
X71857143Y-18074819D01*
X72476191Y-18170057D02*
X73238095Y-18170057D01*
X74000000Y-17122438D02*
X73904762Y-17074819D01*
X73904762Y-17074819D02*
X73761905Y-17074819D01*
X73761905Y-17074819D02*
X73619048Y-17122438D01*
X73619048Y-17122438D02*
X73523810Y-17217676D01*
X73523810Y-17217676D02*
X73476191Y-17312914D01*
X73476191Y-17312914D02*
X73428572Y-17503390D01*
X73428572Y-17503390D02*
X73428572Y-17646247D01*
X73428572Y-17646247D02*
X73476191Y-17836723D01*
X73476191Y-17836723D02*
X73523810Y-17931961D01*
X73523810Y-17931961D02*
X73619048Y-18027200D01*
X73619048Y-18027200D02*
X73761905Y-18074819D01*
X73761905Y-18074819D02*
X73857143Y-18074819D01*
X73857143Y-18074819D02*
X74000000Y-18027200D01*
X74000000Y-18027200D02*
X74047619Y-17979580D01*
X74047619Y-17979580D02*
X74047619Y-17646247D01*
X74047619Y-17646247D02*
X73857143Y-17646247D01*
X74476191Y-18074819D02*
X74476191Y-17074819D01*
X74476191Y-17074819D02*
X75047619Y-18074819D01*
X75047619Y-18074819D02*
X75047619Y-17074819D01*
X75523810Y-18074819D02*
X75523810Y-17074819D01*
X75523810Y-17074819D02*
X75761905Y-17074819D01*
X75761905Y-17074819D02*
X75904762Y-17122438D01*
X75904762Y-17122438D02*
X76000000Y-17217676D01*
X76000000Y-17217676D02*
X76047619Y-17312914D01*
X76047619Y-17312914D02*
X76095238Y-17503390D01*
X76095238Y-17503390D02*
X76095238Y-17646247D01*
X76095238Y-17646247D02*
X76047619Y-17836723D01*
X76047619Y-17836723D02*
X76000000Y-17931961D01*
X76000000Y-17931961D02*
X75904762Y-18027200D01*
X75904762Y-18027200D02*
X75761905Y-18074819D01*
X75761905Y-18074819D02*
X75523810Y-18074819D01*
X73190476Y-5574819D02*
X73190476Y-6289104D01*
X73190476Y-6289104D02*
X73142857Y-6431961D01*
X73142857Y-6431961D02*
X73047619Y-6527200D01*
X73047619Y-6527200D02*
X72904762Y-6574819D01*
X72904762Y-6574819D02*
X72809524Y-6574819D01*
X74190476Y-6574819D02*
X73619048Y-6574819D01*
X73904762Y-6574819D02*
X73904762Y-5574819D01*
X73904762Y-5574819D02*
X73809524Y-5717676D01*
X73809524Y-5717676D02*
X73714286Y-5812914D01*
X73714286Y-5812914D02*
X73619048Y-5860533D01*
X74523810Y-5574819D02*
X75142857Y-5574819D01*
X75142857Y-5574819D02*
X74809524Y-5955771D01*
X74809524Y-5955771D02*
X74952381Y-5955771D01*
X74952381Y-5955771D02*
X75047619Y-6003390D01*
X75047619Y-6003390D02*
X75095238Y-6051009D01*
X75095238Y-6051009D02*
X75142857Y-6146247D01*
X75142857Y-6146247D02*
X75142857Y-6384342D01*
X75142857Y-6384342D02*
X75095238Y-6479580D01*
X75095238Y-6479580D02*
X75047619Y-6527200D01*
X75047619Y-6527200D02*
X74952381Y-6574819D01*
X74952381Y-6574819D02*
X74666667Y-6574819D01*
X74666667Y-6574819D02*
X74571429Y-6527200D01*
X74571429Y-6527200D02*
X74523810Y-6479580D01*
X12407200Y-52488094D02*
X12454819Y-52345237D01*
X12454819Y-52345237D02*
X12454819Y-52107142D01*
X12454819Y-52107142D02*
X12407200Y-52011904D01*
X12407200Y-52011904D02*
X12359580Y-51964285D01*
X12359580Y-51964285D02*
X12264342Y-51916666D01*
X12264342Y-51916666D02*
X12169104Y-51916666D01*
X12169104Y-51916666D02*
X12073866Y-51964285D01*
X12073866Y-51964285D02*
X12026247Y-52011904D01*
X12026247Y-52011904D02*
X11978628Y-52107142D01*
X11978628Y-52107142D02*
X11931009Y-52297618D01*
X11931009Y-52297618D02*
X11883390Y-52392856D01*
X11883390Y-52392856D02*
X11835771Y-52440475D01*
X11835771Y-52440475D02*
X11740533Y-52488094D01*
X11740533Y-52488094D02*
X11645295Y-52488094D01*
X11645295Y-52488094D02*
X11550057Y-52440475D01*
X11550057Y-52440475D02*
X11502438Y-52392856D01*
X11502438Y-52392856D02*
X11454819Y-52297618D01*
X11454819Y-52297618D02*
X11454819Y-52059523D01*
X11454819Y-52059523D02*
X11502438Y-51916666D01*
X12454819Y-50964285D02*
X12454819Y-51535713D01*
X12454819Y-51249999D02*
X11454819Y-51249999D01*
X11454819Y-51249999D02*
X11597676Y-51345237D01*
X11597676Y-51345237D02*
X11692914Y-51440475D01*
X11692914Y-51440475D02*
X11740533Y-51535713D01*
X11454819Y-50630951D02*
X11454819Y-49964285D01*
X11454819Y-49964285D02*
X12454819Y-50392856D01*
X7690476Y-110074819D02*
X7690476Y-110789104D01*
X7690476Y-110789104D02*
X7642857Y-110931961D01*
X7642857Y-110931961D02*
X7547619Y-111027200D01*
X7547619Y-111027200D02*
X7404762Y-111074819D01*
X7404762Y-111074819D02*
X7309524Y-111074819D01*
X8119048Y-110170057D02*
X8166667Y-110122438D01*
X8166667Y-110122438D02*
X8261905Y-110074819D01*
X8261905Y-110074819D02*
X8500000Y-110074819D01*
X8500000Y-110074819D02*
X8595238Y-110122438D01*
X8595238Y-110122438D02*
X8642857Y-110170057D01*
X8642857Y-110170057D02*
X8690476Y-110265295D01*
X8690476Y-110265295D02*
X8690476Y-110360533D01*
X8690476Y-110360533D02*
X8642857Y-110503390D01*
X8642857Y-110503390D02*
X8071429Y-111074819D01*
X8071429Y-111074819D02*
X8690476Y-111074819D01*
X9309524Y-110074819D02*
X9404762Y-110074819D01*
X9404762Y-110074819D02*
X9500000Y-110122438D01*
X9500000Y-110122438D02*
X9547619Y-110170057D01*
X9547619Y-110170057D02*
X9595238Y-110265295D01*
X9595238Y-110265295D02*
X9642857Y-110455771D01*
X9642857Y-110455771D02*
X9642857Y-110693866D01*
X9642857Y-110693866D02*
X9595238Y-110884342D01*
X9595238Y-110884342D02*
X9547619Y-110979580D01*
X9547619Y-110979580D02*
X9500000Y-111027200D01*
X9500000Y-111027200D02*
X9404762Y-111074819D01*
X9404762Y-111074819D02*
X9309524Y-111074819D01*
X9309524Y-111074819D02*
X9214286Y-111027200D01*
X9214286Y-111027200D02*
X9166667Y-110979580D01*
X9166667Y-110979580D02*
X9119048Y-110884342D01*
X9119048Y-110884342D02*
X9071429Y-110693866D01*
X9071429Y-110693866D02*
X9071429Y-110455771D01*
X9071429Y-110455771D02*
X9119048Y-110265295D01*
X9119048Y-110265295D02*
X9166667Y-110170057D01*
X9166667Y-110170057D02*
X9214286Y-110122438D01*
X9214286Y-110122438D02*
X9309524Y-110074819D01*
X131238095Y-12304819D02*
X131238095Y-11304819D01*
X131238095Y-11781009D02*
X131809523Y-11781009D01*
X131809523Y-12304819D02*
X131809523Y-11304819D01*
X132238095Y-11400057D02*
X132285714Y-11352438D01*
X132285714Y-11352438D02*
X132380952Y-11304819D01*
X132380952Y-11304819D02*
X132619047Y-11304819D01*
X132619047Y-11304819D02*
X132714285Y-11352438D01*
X132714285Y-11352438D02*
X132761904Y-11400057D01*
X132761904Y-11400057D02*
X132809523Y-11495295D01*
X132809523Y-11495295D02*
X132809523Y-11590533D01*
X132809523Y-11590533D02*
X132761904Y-11733390D01*
X132761904Y-11733390D02*
X132190476Y-12304819D01*
X132190476Y-12304819D02*
X132809523Y-12304819D01*
X136407200Y-78011904D02*
X136454819Y-77869047D01*
X136454819Y-77869047D02*
X136454819Y-77630952D01*
X136454819Y-77630952D02*
X136407200Y-77535714D01*
X136407200Y-77535714D02*
X136359580Y-77488095D01*
X136359580Y-77488095D02*
X136264342Y-77440476D01*
X136264342Y-77440476D02*
X136169104Y-77440476D01*
X136169104Y-77440476D02*
X136073866Y-77488095D01*
X136073866Y-77488095D02*
X136026247Y-77535714D01*
X136026247Y-77535714D02*
X135978628Y-77630952D01*
X135978628Y-77630952D02*
X135931009Y-77821428D01*
X135931009Y-77821428D02*
X135883390Y-77916666D01*
X135883390Y-77916666D02*
X135835771Y-77964285D01*
X135835771Y-77964285D02*
X135740533Y-78011904D01*
X135740533Y-78011904D02*
X135645295Y-78011904D01*
X135645295Y-78011904D02*
X135550057Y-77964285D01*
X135550057Y-77964285D02*
X135502438Y-77916666D01*
X135502438Y-77916666D02*
X135454819Y-77821428D01*
X135454819Y-77821428D02*
X135454819Y-77583333D01*
X135454819Y-77583333D02*
X135502438Y-77440476D01*
X135883390Y-76869047D02*
X135835771Y-76964285D01*
X135835771Y-76964285D02*
X135788152Y-77011904D01*
X135788152Y-77011904D02*
X135692914Y-77059523D01*
X135692914Y-77059523D02*
X135645295Y-77059523D01*
X135645295Y-77059523D02*
X135550057Y-77011904D01*
X135550057Y-77011904D02*
X135502438Y-76964285D01*
X135502438Y-76964285D02*
X135454819Y-76869047D01*
X135454819Y-76869047D02*
X135454819Y-76678571D01*
X135454819Y-76678571D02*
X135502438Y-76583333D01*
X135502438Y-76583333D02*
X135550057Y-76535714D01*
X135550057Y-76535714D02*
X135645295Y-76488095D01*
X135645295Y-76488095D02*
X135692914Y-76488095D01*
X135692914Y-76488095D02*
X135788152Y-76535714D01*
X135788152Y-76535714D02*
X135835771Y-76583333D01*
X135835771Y-76583333D02*
X135883390Y-76678571D01*
X135883390Y-76678571D02*
X135883390Y-76869047D01*
X135883390Y-76869047D02*
X135931009Y-76964285D01*
X135931009Y-76964285D02*
X135978628Y-77011904D01*
X135978628Y-77011904D02*
X136073866Y-77059523D01*
X136073866Y-77059523D02*
X136264342Y-77059523D01*
X136264342Y-77059523D02*
X136359580Y-77011904D01*
X136359580Y-77011904D02*
X136407200Y-76964285D01*
X136407200Y-76964285D02*
X136454819Y-76869047D01*
X136454819Y-76869047D02*
X136454819Y-76678571D01*
X136454819Y-76678571D02*
X136407200Y-76583333D01*
X136407200Y-76583333D02*
X136359580Y-76535714D01*
X136359580Y-76535714D02*
X136264342Y-76488095D01*
X136264342Y-76488095D02*
X136073866Y-76488095D01*
X136073866Y-76488095D02*
X135978628Y-76535714D01*
X135978628Y-76535714D02*
X135931009Y-76583333D01*
X135931009Y-76583333D02*
X135883390Y-76678571D01*
X92690476Y-5574819D02*
X92690476Y-6289104D01*
X92690476Y-6289104D02*
X92642857Y-6431961D01*
X92642857Y-6431961D02*
X92547619Y-6527200D01*
X92547619Y-6527200D02*
X92404762Y-6574819D01*
X92404762Y-6574819D02*
X92309524Y-6574819D01*
X93690476Y-6574819D02*
X93119048Y-6574819D01*
X93404762Y-6574819D02*
X93404762Y-5574819D01*
X93404762Y-5574819D02*
X93309524Y-5717676D01*
X93309524Y-5717676D02*
X93214286Y-5812914D01*
X93214286Y-5812914D02*
X93119048Y-5860533D01*
X94071429Y-5670057D02*
X94119048Y-5622438D01*
X94119048Y-5622438D02*
X94214286Y-5574819D01*
X94214286Y-5574819D02*
X94452381Y-5574819D01*
X94452381Y-5574819D02*
X94547619Y-5622438D01*
X94547619Y-5622438D02*
X94595238Y-5670057D01*
X94595238Y-5670057D02*
X94642857Y-5765295D01*
X94642857Y-5765295D02*
X94642857Y-5860533D01*
X94642857Y-5860533D02*
X94595238Y-6003390D01*
X94595238Y-6003390D02*
X94023810Y-6574819D01*
X94023810Y-6574819D02*
X94642857Y-6574819D01*
X69988095Y-136407200D02*
X70130952Y-136454819D01*
X70130952Y-136454819D02*
X70369047Y-136454819D01*
X70369047Y-136454819D02*
X70464285Y-136407200D01*
X70464285Y-136407200D02*
X70511904Y-136359580D01*
X70511904Y-136359580D02*
X70559523Y-136264342D01*
X70559523Y-136264342D02*
X70559523Y-136169104D01*
X70559523Y-136169104D02*
X70511904Y-136073866D01*
X70511904Y-136073866D02*
X70464285Y-136026247D01*
X70464285Y-136026247D02*
X70369047Y-135978628D01*
X70369047Y-135978628D02*
X70178571Y-135931009D01*
X70178571Y-135931009D02*
X70083333Y-135883390D01*
X70083333Y-135883390D02*
X70035714Y-135835771D01*
X70035714Y-135835771D02*
X69988095Y-135740533D01*
X69988095Y-135740533D02*
X69988095Y-135645295D01*
X69988095Y-135645295D02*
X70035714Y-135550057D01*
X70035714Y-135550057D02*
X70083333Y-135502438D01*
X70083333Y-135502438D02*
X70178571Y-135454819D01*
X70178571Y-135454819D02*
X70416666Y-135454819D01*
X70416666Y-135454819D02*
X70559523Y-135502438D01*
X70892857Y-135454819D02*
X71511904Y-135454819D01*
X71511904Y-135454819D02*
X71178571Y-135835771D01*
X71178571Y-135835771D02*
X71321428Y-135835771D01*
X71321428Y-135835771D02*
X71416666Y-135883390D01*
X71416666Y-135883390D02*
X71464285Y-135931009D01*
X71464285Y-135931009D02*
X71511904Y-136026247D01*
X71511904Y-136026247D02*
X71511904Y-136264342D01*
X71511904Y-136264342D02*
X71464285Y-136359580D01*
X71464285Y-136359580D02*
X71416666Y-136407200D01*
X71416666Y-136407200D02*
X71321428Y-136454819D01*
X71321428Y-136454819D02*
X71035714Y-136454819D01*
X71035714Y-136454819D02*
X70940476Y-136407200D01*
X70940476Y-136407200D02*
X70892857Y-136359580D01*
X108988095Y-136407200D02*
X109130952Y-136454819D01*
X109130952Y-136454819D02*
X109369047Y-136454819D01*
X109369047Y-136454819D02*
X109464285Y-136407200D01*
X109464285Y-136407200D02*
X109511904Y-136359580D01*
X109511904Y-136359580D02*
X109559523Y-136264342D01*
X109559523Y-136264342D02*
X109559523Y-136169104D01*
X109559523Y-136169104D02*
X109511904Y-136073866D01*
X109511904Y-136073866D02*
X109464285Y-136026247D01*
X109464285Y-136026247D02*
X109369047Y-135978628D01*
X109369047Y-135978628D02*
X109178571Y-135931009D01*
X109178571Y-135931009D02*
X109083333Y-135883390D01*
X109083333Y-135883390D02*
X109035714Y-135835771D01*
X109035714Y-135835771D02*
X108988095Y-135740533D01*
X108988095Y-135740533D02*
X108988095Y-135645295D01*
X108988095Y-135645295D02*
X109035714Y-135550057D01*
X109035714Y-135550057D02*
X109083333Y-135502438D01*
X109083333Y-135502438D02*
X109178571Y-135454819D01*
X109178571Y-135454819D02*
X109416666Y-135454819D01*
X109416666Y-135454819D02*
X109559523Y-135502438D01*
X110464285Y-135454819D02*
X109988095Y-135454819D01*
X109988095Y-135454819D02*
X109940476Y-135931009D01*
X109940476Y-135931009D02*
X109988095Y-135883390D01*
X109988095Y-135883390D02*
X110083333Y-135835771D01*
X110083333Y-135835771D02*
X110321428Y-135835771D01*
X110321428Y-135835771D02*
X110416666Y-135883390D01*
X110416666Y-135883390D02*
X110464285Y-135931009D01*
X110464285Y-135931009D02*
X110511904Y-136026247D01*
X110511904Y-136026247D02*
X110511904Y-136264342D01*
X110511904Y-136264342D02*
X110464285Y-136359580D01*
X110464285Y-136359580D02*
X110416666Y-136407200D01*
X110416666Y-136407200D02*
X110321428Y-136454819D01*
X110321428Y-136454819D02*
X110083333Y-136454819D01*
X110083333Y-136454819D02*
X109988095Y-136407200D01*
X109988095Y-136407200D02*
X109940476Y-136359580D01*
X37011905Y-12407200D02*
X37154762Y-12454819D01*
X37154762Y-12454819D02*
X37392857Y-12454819D01*
X37392857Y-12454819D02*
X37488095Y-12407200D01*
X37488095Y-12407200D02*
X37535714Y-12359580D01*
X37535714Y-12359580D02*
X37583333Y-12264342D01*
X37583333Y-12264342D02*
X37583333Y-12169104D01*
X37583333Y-12169104D02*
X37535714Y-12073866D01*
X37535714Y-12073866D02*
X37488095Y-12026247D01*
X37488095Y-12026247D02*
X37392857Y-11978628D01*
X37392857Y-11978628D02*
X37202381Y-11931009D01*
X37202381Y-11931009D02*
X37107143Y-11883390D01*
X37107143Y-11883390D02*
X37059524Y-11835771D01*
X37059524Y-11835771D02*
X37011905Y-11740533D01*
X37011905Y-11740533D02*
X37011905Y-11645295D01*
X37011905Y-11645295D02*
X37059524Y-11550057D01*
X37059524Y-11550057D02*
X37107143Y-11502438D01*
X37107143Y-11502438D02*
X37202381Y-11454819D01*
X37202381Y-11454819D02*
X37440476Y-11454819D01*
X37440476Y-11454819D02*
X37583333Y-11502438D01*
X38535714Y-12454819D02*
X37964286Y-12454819D01*
X38250000Y-12454819D02*
X38250000Y-11454819D01*
X38250000Y-11454819D02*
X38154762Y-11597676D01*
X38154762Y-11597676D02*
X38059524Y-11692914D01*
X38059524Y-11692914D02*
X37964286Y-11740533D01*
X39440476Y-11454819D02*
X38964286Y-11454819D01*
X38964286Y-11454819D02*
X38916667Y-11931009D01*
X38916667Y-11931009D02*
X38964286Y-11883390D01*
X38964286Y-11883390D02*
X39059524Y-11835771D01*
X39059524Y-11835771D02*
X39297619Y-11835771D01*
X39297619Y-11835771D02*
X39392857Y-11883390D01*
X39392857Y-11883390D02*
X39440476Y-11931009D01*
X39440476Y-11931009D02*
X39488095Y-12026247D01*
X39488095Y-12026247D02*
X39488095Y-12264342D01*
X39488095Y-12264342D02*
X39440476Y-12359580D01*
X39440476Y-12359580D02*
X39392857Y-12407200D01*
X39392857Y-12407200D02*
X39297619Y-12454819D01*
X39297619Y-12454819D02*
X39059524Y-12454819D01*
X39059524Y-12454819D02*
X38964286Y-12407200D01*
X38964286Y-12407200D02*
X38916667Y-12359580D01*
X112190476Y-5574819D02*
X112190476Y-6289104D01*
X112190476Y-6289104D02*
X112142857Y-6431961D01*
X112142857Y-6431961D02*
X112047619Y-6527200D01*
X112047619Y-6527200D02*
X111904762Y-6574819D01*
X111904762Y-6574819D02*
X111809524Y-6574819D01*
X113190476Y-6574819D02*
X112619048Y-6574819D01*
X112904762Y-6574819D02*
X112904762Y-5574819D01*
X112904762Y-5574819D02*
X112809524Y-5717676D01*
X112809524Y-5717676D02*
X112714286Y-5812914D01*
X112714286Y-5812914D02*
X112619048Y-5860533D01*
X114142857Y-6574819D02*
X113571429Y-6574819D01*
X113857143Y-6574819D02*
X113857143Y-5574819D01*
X113857143Y-5574819D02*
X113761905Y-5717676D01*
X113761905Y-5717676D02*
X113666667Y-5812914D01*
X113666667Y-5812914D02*
X113571429Y-5860533D01*
X95511905Y-12407200D02*
X95654762Y-12454819D01*
X95654762Y-12454819D02*
X95892857Y-12454819D01*
X95892857Y-12454819D02*
X95988095Y-12407200D01*
X95988095Y-12407200D02*
X96035714Y-12359580D01*
X96035714Y-12359580D02*
X96083333Y-12264342D01*
X96083333Y-12264342D02*
X96083333Y-12169104D01*
X96083333Y-12169104D02*
X96035714Y-12073866D01*
X96035714Y-12073866D02*
X95988095Y-12026247D01*
X95988095Y-12026247D02*
X95892857Y-11978628D01*
X95892857Y-11978628D02*
X95702381Y-11931009D01*
X95702381Y-11931009D02*
X95607143Y-11883390D01*
X95607143Y-11883390D02*
X95559524Y-11835771D01*
X95559524Y-11835771D02*
X95511905Y-11740533D01*
X95511905Y-11740533D02*
X95511905Y-11645295D01*
X95511905Y-11645295D02*
X95559524Y-11550057D01*
X95559524Y-11550057D02*
X95607143Y-11502438D01*
X95607143Y-11502438D02*
X95702381Y-11454819D01*
X95702381Y-11454819D02*
X95940476Y-11454819D01*
X95940476Y-11454819D02*
X96083333Y-11502438D01*
X97035714Y-12454819D02*
X96464286Y-12454819D01*
X96750000Y-12454819D02*
X96750000Y-11454819D01*
X96750000Y-11454819D02*
X96654762Y-11597676D01*
X96654762Y-11597676D02*
X96559524Y-11692914D01*
X96559524Y-11692914D02*
X96464286Y-11740533D01*
X97416667Y-11550057D02*
X97464286Y-11502438D01*
X97464286Y-11502438D02*
X97559524Y-11454819D01*
X97559524Y-11454819D02*
X97797619Y-11454819D01*
X97797619Y-11454819D02*
X97892857Y-11502438D01*
X97892857Y-11502438D02*
X97940476Y-11550057D01*
X97940476Y-11550057D02*
X97988095Y-11645295D01*
X97988095Y-11645295D02*
X97988095Y-11740533D01*
X97988095Y-11740533D02*
X97940476Y-11883390D01*
X97940476Y-11883390D02*
X97369048Y-12454819D01*
X97369048Y-12454819D02*
X97988095Y-12454819D01*
X56511905Y-12407200D02*
X56654762Y-12454819D01*
X56654762Y-12454819D02*
X56892857Y-12454819D01*
X56892857Y-12454819D02*
X56988095Y-12407200D01*
X56988095Y-12407200D02*
X57035714Y-12359580D01*
X57035714Y-12359580D02*
X57083333Y-12264342D01*
X57083333Y-12264342D02*
X57083333Y-12169104D01*
X57083333Y-12169104D02*
X57035714Y-12073866D01*
X57035714Y-12073866D02*
X56988095Y-12026247D01*
X56988095Y-12026247D02*
X56892857Y-11978628D01*
X56892857Y-11978628D02*
X56702381Y-11931009D01*
X56702381Y-11931009D02*
X56607143Y-11883390D01*
X56607143Y-11883390D02*
X56559524Y-11835771D01*
X56559524Y-11835771D02*
X56511905Y-11740533D01*
X56511905Y-11740533D02*
X56511905Y-11645295D01*
X56511905Y-11645295D02*
X56559524Y-11550057D01*
X56559524Y-11550057D02*
X56607143Y-11502438D01*
X56607143Y-11502438D02*
X56702381Y-11454819D01*
X56702381Y-11454819D02*
X56940476Y-11454819D01*
X56940476Y-11454819D02*
X57083333Y-11502438D01*
X58035714Y-12454819D02*
X57464286Y-12454819D01*
X57750000Y-12454819D02*
X57750000Y-11454819D01*
X57750000Y-11454819D02*
X57654762Y-11597676D01*
X57654762Y-11597676D02*
X57559524Y-11692914D01*
X57559524Y-11692914D02*
X57464286Y-11740533D01*
X58892857Y-11788152D02*
X58892857Y-12454819D01*
X58654762Y-11407200D02*
X58416667Y-12121485D01*
X58416667Y-12121485D02*
X59035714Y-12121485D01*
X125714285Y-17574819D02*
X125714285Y-18289104D01*
X125714285Y-18289104D02*
X125666666Y-18431961D01*
X125666666Y-18431961D02*
X125571428Y-18527200D01*
X125571428Y-18527200D02*
X125428571Y-18574819D01*
X125428571Y-18574819D02*
X125333333Y-18574819D01*
X125952381Y-18670057D02*
X126714285Y-18670057D01*
X127523809Y-18479580D02*
X127476190Y-18527200D01*
X127476190Y-18527200D02*
X127333333Y-18574819D01*
X127333333Y-18574819D02*
X127238095Y-18574819D01*
X127238095Y-18574819D02*
X127095238Y-18527200D01*
X127095238Y-18527200D02*
X127000000Y-18431961D01*
X127000000Y-18431961D02*
X126952381Y-18336723D01*
X126952381Y-18336723D02*
X126904762Y-18146247D01*
X126904762Y-18146247D02*
X126904762Y-18003390D01*
X126904762Y-18003390D02*
X126952381Y-17812914D01*
X126952381Y-17812914D02*
X127000000Y-17717676D01*
X127000000Y-17717676D02*
X127095238Y-17622438D01*
X127095238Y-17622438D02*
X127238095Y-17574819D01*
X127238095Y-17574819D02*
X127333333Y-17574819D01*
X127333333Y-17574819D02*
X127476190Y-17622438D01*
X127476190Y-17622438D02*
X127523809Y-17670057D01*
X128142857Y-17574819D02*
X128333333Y-17574819D01*
X128333333Y-17574819D02*
X128428571Y-17622438D01*
X128428571Y-17622438D02*
X128523809Y-17717676D01*
X128523809Y-17717676D02*
X128571428Y-17908152D01*
X128571428Y-17908152D02*
X128571428Y-18241485D01*
X128571428Y-18241485D02*
X128523809Y-18431961D01*
X128523809Y-18431961D02*
X128428571Y-18527200D01*
X128428571Y-18527200D02*
X128333333Y-18574819D01*
X128333333Y-18574819D02*
X128142857Y-18574819D01*
X128142857Y-18574819D02*
X128047619Y-18527200D01*
X128047619Y-18527200D02*
X127952381Y-18431961D01*
X127952381Y-18431961D02*
X127904762Y-18241485D01*
X127904762Y-18241485D02*
X127904762Y-17908152D01*
X127904762Y-17908152D02*
X127952381Y-17717676D01*
X127952381Y-17717676D02*
X128047619Y-17622438D01*
X128047619Y-17622438D02*
X128142857Y-17574819D01*
X129000000Y-18574819D02*
X129000000Y-17574819D01*
X129000000Y-17574819D02*
X129571428Y-18574819D01*
X129571428Y-18574819D02*
X129571428Y-17574819D01*
X136407200Y-97511904D02*
X136454819Y-97369047D01*
X136454819Y-97369047D02*
X136454819Y-97130952D01*
X136454819Y-97130952D02*
X136407200Y-97035714D01*
X136407200Y-97035714D02*
X136359580Y-96988095D01*
X136359580Y-96988095D02*
X136264342Y-96940476D01*
X136264342Y-96940476D02*
X136169104Y-96940476D01*
X136169104Y-96940476D02*
X136073866Y-96988095D01*
X136073866Y-96988095D02*
X136026247Y-97035714D01*
X136026247Y-97035714D02*
X135978628Y-97130952D01*
X135978628Y-97130952D02*
X135931009Y-97321428D01*
X135931009Y-97321428D02*
X135883390Y-97416666D01*
X135883390Y-97416666D02*
X135835771Y-97464285D01*
X135835771Y-97464285D02*
X135740533Y-97511904D01*
X135740533Y-97511904D02*
X135645295Y-97511904D01*
X135645295Y-97511904D02*
X135550057Y-97464285D01*
X135550057Y-97464285D02*
X135502438Y-97416666D01*
X135502438Y-97416666D02*
X135454819Y-97321428D01*
X135454819Y-97321428D02*
X135454819Y-97083333D01*
X135454819Y-97083333D02*
X135502438Y-96940476D01*
X135454819Y-96607142D02*
X135454819Y-95940476D01*
X135454819Y-95940476D02*
X136454819Y-96369047D01*
X18880952Y-17574819D02*
X18880952Y-18289104D01*
X18880952Y-18289104D02*
X18833333Y-18431961D01*
X18833333Y-18431961D02*
X18738095Y-18527200D01*
X18738095Y-18527200D02*
X18595238Y-18574819D01*
X18595238Y-18574819D02*
X18500000Y-18574819D01*
X19119048Y-18670057D02*
X19880952Y-18670057D01*
X20452381Y-18051009D02*
X20595238Y-18098628D01*
X20595238Y-18098628D02*
X20642857Y-18146247D01*
X20642857Y-18146247D02*
X20690476Y-18241485D01*
X20690476Y-18241485D02*
X20690476Y-18384342D01*
X20690476Y-18384342D02*
X20642857Y-18479580D01*
X20642857Y-18479580D02*
X20595238Y-18527200D01*
X20595238Y-18527200D02*
X20500000Y-18574819D01*
X20500000Y-18574819D02*
X20119048Y-18574819D01*
X20119048Y-18574819D02*
X20119048Y-17574819D01*
X20119048Y-17574819D02*
X20452381Y-17574819D01*
X20452381Y-17574819D02*
X20547619Y-17622438D01*
X20547619Y-17622438D02*
X20595238Y-17670057D01*
X20595238Y-17670057D02*
X20642857Y-17765295D01*
X20642857Y-17765295D02*
X20642857Y-17860533D01*
X20642857Y-17860533D02*
X20595238Y-17955771D01*
X20595238Y-17955771D02*
X20547619Y-18003390D01*
X20547619Y-18003390D02*
X20452381Y-18051009D01*
X20452381Y-18051009D02*
X20119048Y-18051009D01*
X21690476Y-18574819D02*
X21357143Y-18098628D01*
X21119048Y-18574819D02*
X21119048Y-17574819D01*
X21119048Y-17574819D02*
X21500000Y-17574819D01*
X21500000Y-17574819D02*
X21595238Y-17622438D01*
X21595238Y-17622438D02*
X21642857Y-17670057D01*
X21642857Y-17670057D02*
X21690476Y-17765295D01*
X21690476Y-17765295D02*
X21690476Y-17908152D01*
X21690476Y-17908152D02*
X21642857Y-18003390D01*
X21642857Y-18003390D02*
X21595238Y-18051009D01*
X21595238Y-18051009D02*
X21500000Y-18098628D01*
X21500000Y-18098628D02*
X21119048Y-18098628D01*
X21976191Y-17574819D02*
X22547619Y-17574819D01*
X22261905Y-18574819D02*
X22261905Y-17574819D01*
X27916667Y-24407200D02*
X28059524Y-24454819D01*
X28059524Y-24454819D02*
X28297619Y-24454819D01*
X28297619Y-24454819D02*
X28392857Y-24407200D01*
X28392857Y-24407200D02*
X28440476Y-24359580D01*
X28440476Y-24359580D02*
X28488095Y-24264342D01*
X28488095Y-24264342D02*
X28488095Y-24169104D01*
X28488095Y-24169104D02*
X28440476Y-24073866D01*
X28440476Y-24073866D02*
X28392857Y-24026247D01*
X28392857Y-24026247D02*
X28297619Y-23978628D01*
X28297619Y-23978628D02*
X28107143Y-23931009D01*
X28107143Y-23931009D02*
X28011905Y-23883390D01*
X28011905Y-23883390D02*
X27964286Y-23835771D01*
X27964286Y-23835771D02*
X27916667Y-23740533D01*
X27916667Y-23740533D02*
X27916667Y-23645295D01*
X27916667Y-23645295D02*
X27964286Y-23550057D01*
X27964286Y-23550057D02*
X28011905Y-23502438D01*
X28011905Y-23502438D02*
X28107143Y-23454819D01*
X28107143Y-23454819D02*
X28345238Y-23454819D01*
X28345238Y-23454819D02*
X28488095Y-23502438D01*
X28821429Y-23454819D02*
X29059524Y-24454819D01*
X29059524Y-24454819D02*
X29250000Y-23740533D01*
X29250000Y-23740533D02*
X29440476Y-24454819D01*
X29440476Y-24454819D02*
X29678572Y-23454819D01*
X29964286Y-23454819D02*
X30583333Y-23454819D01*
X30583333Y-23454819D02*
X30250000Y-23835771D01*
X30250000Y-23835771D02*
X30392857Y-23835771D01*
X30392857Y-23835771D02*
X30488095Y-23883390D01*
X30488095Y-23883390D02*
X30535714Y-23931009D01*
X30535714Y-23931009D02*
X30583333Y-24026247D01*
X30583333Y-24026247D02*
X30583333Y-24264342D01*
X30583333Y-24264342D02*
X30535714Y-24359580D01*
X30535714Y-24359580D02*
X30488095Y-24407200D01*
X30488095Y-24407200D02*
X30392857Y-24454819D01*
X30392857Y-24454819D02*
X30107143Y-24454819D01*
X30107143Y-24454819D02*
X30011905Y-24407200D01*
X30011905Y-24407200D02*
X29964286Y-24359580D01*
X30988095Y-136407200D02*
X31130952Y-136454819D01*
X31130952Y-136454819D02*
X31369047Y-136454819D01*
X31369047Y-136454819D02*
X31464285Y-136407200D01*
X31464285Y-136407200D02*
X31511904Y-136359580D01*
X31511904Y-136359580D02*
X31559523Y-136264342D01*
X31559523Y-136264342D02*
X31559523Y-136169104D01*
X31559523Y-136169104D02*
X31511904Y-136073866D01*
X31511904Y-136073866D02*
X31464285Y-136026247D01*
X31464285Y-136026247D02*
X31369047Y-135978628D01*
X31369047Y-135978628D02*
X31178571Y-135931009D01*
X31178571Y-135931009D02*
X31083333Y-135883390D01*
X31083333Y-135883390D02*
X31035714Y-135835771D01*
X31035714Y-135835771D02*
X30988095Y-135740533D01*
X30988095Y-135740533D02*
X30988095Y-135645295D01*
X30988095Y-135645295D02*
X31035714Y-135550057D01*
X31035714Y-135550057D02*
X31083333Y-135502438D01*
X31083333Y-135502438D02*
X31178571Y-135454819D01*
X31178571Y-135454819D02*
X31416666Y-135454819D01*
X31416666Y-135454819D02*
X31559523Y-135502438D01*
X32511904Y-136454819D02*
X31940476Y-136454819D01*
X32226190Y-136454819D02*
X32226190Y-135454819D01*
X32226190Y-135454819D02*
X32130952Y-135597676D01*
X32130952Y-135597676D02*
X32035714Y-135692914D01*
X32035714Y-135692914D02*
X31940476Y-135740533D01*
X125785714Y-124574819D02*
X125785714Y-125289104D01*
X125785714Y-125289104D02*
X125738095Y-125431961D01*
X125738095Y-125431961D02*
X125642857Y-125527200D01*
X125642857Y-125527200D02*
X125500000Y-125574819D01*
X125500000Y-125574819D02*
X125404762Y-125574819D01*
X126023810Y-125670057D02*
X126785714Y-125670057D01*
X126976191Y-125527200D02*
X127119048Y-125574819D01*
X127119048Y-125574819D02*
X127357143Y-125574819D01*
X127357143Y-125574819D02*
X127452381Y-125527200D01*
X127452381Y-125527200D02*
X127500000Y-125479580D01*
X127500000Y-125479580D02*
X127547619Y-125384342D01*
X127547619Y-125384342D02*
X127547619Y-125289104D01*
X127547619Y-125289104D02*
X127500000Y-125193866D01*
X127500000Y-125193866D02*
X127452381Y-125146247D01*
X127452381Y-125146247D02*
X127357143Y-125098628D01*
X127357143Y-125098628D02*
X127166667Y-125051009D01*
X127166667Y-125051009D02*
X127071429Y-125003390D01*
X127071429Y-125003390D02*
X127023810Y-124955771D01*
X127023810Y-124955771D02*
X126976191Y-124860533D01*
X126976191Y-124860533D02*
X126976191Y-124765295D01*
X126976191Y-124765295D02*
X127023810Y-124670057D01*
X127023810Y-124670057D02*
X127071429Y-124622438D01*
X127071429Y-124622438D02*
X127166667Y-124574819D01*
X127166667Y-124574819D02*
X127404762Y-124574819D01*
X127404762Y-124574819D02*
X127547619Y-124622438D01*
X128166667Y-125098628D02*
X128166667Y-125574819D01*
X127833334Y-124574819D02*
X128166667Y-125098628D01*
X128166667Y-125098628D02*
X128500000Y-124574819D01*
X128833334Y-125574819D02*
X128833334Y-124574819D01*
X128833334Y-124574819D02*
X129166667Y-125289104D01*
X129166667Y-125289104D02*
X129500000Y-124574819D01*
X129500000Y-124574819D02*
X129500000Y-125574819D01*
X12407200Y-91488094D02*
X12454819Y-91345237D01*
X12454819Y-91345237D02*
X12454819Y-91107142D01*
X12454819Y-91107142D02*
X12407200Y-91011904D01*
X12407200Y-91011904D02*
X12359580Y-90964285D01*
X12359580Y-90964285D02*
X12264342Y-90916666D01*
X12264342Y-90916666D02*
X12169104Y-90916666D01*
X12169104Y-90916666D02*
X12073866Y-90964285D01*
X12073866Y-90964285D02*
X12026247Y-91011904D01*
X12026247Y-91011904D02*
X11978628Y-91107142D01*
X11978628Y-91107142D02*
X11931009Y-91297618D01*
X11931009Y-91297618D02*
X11883390Y-91392856D01*
X11883390Y-91392856D02*
X11835771Y-91440475D01*
X11835771Y-91440475D02*
X11740533Y-91488094D01*
X11740533Y-91488094D02*
X11645295Y-91488094D01*
X11645295Y-91488094D02*
X11550057Y-91440475D01*
X11550057Y-91440475D02*
X11502438Y-91392856D01*
X11502438Y-91392856D02*
X11454819Y-91297618D01*
X11454819Y-91297618D02*
X11454819Y-91059523D01*
X11454819Y-91059523D02*
X11502438Y-90916666D01*
X12454819Y-89964285D02*
X12454819Y-90535713D01*
X12454819Y-90249999D02*
X11454819Y-90249999D01*
X11454819Y-90249999D02*
X11597676Y-90345237D01*
X11597676Y-90345237D02*
X11692914Y-90440475D01*
X11692914Y-90440475D02*
X11740533Y-90535713D01*
X12454819Y-89488094D02*
X12454819Y-89297618D01*
X12454819Y-89297618D02*
X12407200Y-89202380D01*
X12407200Y-89202380D02*
X12359580Y-89154761D01*
X12359580Y-89154761D02*
X12216723Y-89059523D01*
X12216723Y-89059523D02*
X12026247Y-89011904D01*
X12026247Y-89011904D02*
X11645295Y-89011904D01*
X11645295Y-89011904D02*
X11550057Y-89059523D01*
X11550057Y-89059523D02*
X11502438Y-89107142D01*
X11502438Y-89107142D02*
X11454819Y-89202380D01*
X11454819Y-89202380D02*
X11454819Y-89392856D01*
X11454819Y-89392856D02*
X11502438Y-89488094D01*
X11502438Y-89488094D02*
X11550057Y-89535713D01*
X11550057Y-89535713D02*
X11645295Y-89583332D01*
X11645295Y-89583332D02*
X11883390Y-89583332D01*
X11883390Y-89583332D02*
X11978628Y-89535713D01*
X11978628Y-89535713D02*
X12026247Y-89488094D01*
X12026247Y-89488094D02*
X12073866Y-89392856D01*
X12073866Y-89392856D02*
X12073866Y-89202380D01*
X12073866Y-89202380D02*
X12026247Y-89107142D01*
X12026247Y-89107142D02*
X11978628Y-89059523D01*
X11978628Y-89059523D02*
X11883390Y-89011904D01*
X73666666Y-136574819D02*
X73666666Y-137289104D01*
X73666666Y-137289104D02*
X73619047Y-137431961D01*
X73619047Y-137431961D02*
X73523809Y-137527200D01*
X73523809Y-137527200D02*
X73380952Y-137574819D01*
X73380952Y-137574819D02*
X73285714Y-137574819D01*
X74047619Y-136574819D02*
X74666666Y-136574819D01*
X74666666Y-136574819D02*
X74333333Y-136955771D01*
X74333333Y-136955771D02*
X74476190Y-136955771D01*
X74476190Y-136955771D02*
X74571428Y-137003390D01*
X74571428Y-137003390D02*
X74619047Y-137051009D01*
X74619047Y-137051009D02*
X74666666Y-137146247D01*
X74666666Y-137146247D02*
X74666666Y-137384342D01*
X74666666Y-137384342D02*
X74619047Y-137479580D01*
X74619047Y-137479580D02*
X74571428Y-137527200D01*
X74571428Y-137527200D02*
X74476190Y-137574819D01*
X74476190Y-137574819D02*
X74190476Y-137574819D01*
X74190476Y-137574819D02*
X74095238Y-137527200D01*
X74095238Y-137527200D02*
X74047619Y-137479580D01*
X7690476Y-90574819D02*
X7690476Y-91289104D01*
X7690476Y-91289104D02*
X7642857Y-91431961D01*
X7642857Y-91431961D02*
X7547619Y-91527200D01*
X7547619Y-91527200D02*
X7404762Y-91574819D01*
X7404762Y-91574819D02*
X7309524Y-91574819D01*
X8690476Y-91574819D02*
X8119048Y-91574819D01*
X8404762Y-91574819D02*
X8404762Y-90574819D01*
X8404762Y-90574819D02*
X8309524Y-90717676D01*
X8309524Y-90717676D02*
X8214286Y-90812914D01*
X8214286Y-90812914D02*
X8119048Y-90860533D01*
X9166667Y-91574819D02*
X9357143Y-91574819D01*
X9357143Y-91574819D02*
X9452381Y-91527200D01*
X9452381Y-91527200D02*
X9500000Y-91479580D01*
X9500000Y-91479580D02*
X9595238Y-91336723D01*
X9595238Y-91336723D02*
X9642857Y-91146247D01*
X9642857Y-91146247D02*
X9642857Y-90765295D01*
X9642857Y-90765295D02*
X9595238Y-90670057D01*
X9595238Y-90670057D02*
X9547619Y-90622438D01*
X9547619Y-90622438D02*
X9452381Y-90574819D01*
X9452381Y-90574819D02*
X9261905Y-90574819D01*
X9261905Y-90574819D02*
X9166667Y-90622438D01*
X9166667Y-90622438D02*
X9119048Y-90670057D01*
X9119048Y-90670057D02*
X9071429Y-90765295D01*
X9071429Y-90765295D02*
X9071429Y-91003390D01*
X9071429Y-91003390D02*
X9119048Y-91098628D01*
X9119048Y-91098628D02*
X9166667Y-91146247D01*
X9166667Y-91146247D02*
X9261905Y-91193866D01*
X9261905Y-91193866D02*
X9452381Y-91193866D01*
X9452381Y-91193866D02*
X9547619Y-91146247D01*
X9547619Y-91146247D02*
X9595238Y-91098628D01*
X9595238Y-91098628D02*
X9642857Y-91003390D01*
X136407200Y-39488094D02*
X136454819Y-39345237D01*
X136454819Y-39345237D02*
X136454819Y-39107142D01*
X136454819Y-39107142D02*
X136407200Y-39011904D01*
X136407200Y-39011904D02*
X136359580Y-38964285D01*
X136359580Y-38964285D02*
X136264342Y-38916666D01*
X136264342Y-38916666D02*
X136169104Y-38916666D01*
X136169104Y-38916666D02*
X136073866Y-38964285D01*
X136073866Y-38964285D02*
X136026247Y-39011904D01*
X136026247Y-39011904D02*
X135978628Y-39107142D01*
X135978628Y-39107142D02*
X135931009Y-39297618D01*
X135931009Y-39297618D02*
X135883390Y-39392856D01*
X135883390Y-39392856D02*
X135835771Y-39440475D01*
X135835771Y-39440475D02*
X135740533Y-39488094D01*
X135740533Y-39488094D02*
X135645295Y-39488094D01*
X135645295Y-39488094D02*
X135550057Y-39440475D01*
X135550057Y-39440475D02*
X135502438Y-39392856D01*
X135502438Y-39392856D02*
X135454819Y-39297618D01*
X135454819Y-39297618D02*
X135454819Y-39059523D01*
X135454819Y-39059523D02*
X135502438Y-38916666D01*
X136454819Y-37964285D02*
X136454819Y-38535713D01*
X136454819Y-38249999D02*
X135454819Y-38249999D01*
X135454819Y-38249999D02*
X135597676Y-38345237D01*
X135597676Y-38345237D02*
X135692914Y-38440475D01*
X135692914Y-38440475D02*
X135740533Y-38535713D01*
X135454819Y-37345237D02*
X135454819Y-37249999D01*
X135454819Y-37249999D02*
X135502438Y-37154761D01*
X135502438Y-37154761D02*
X135550057Y-37107142D01*
X135550057Y-37107142D02*
X135645295Y-37059523D01*
X135645295Y-37059523D02*
X135835771Y-37011904D01*
X135835771Y-37011904D02*
X136073866Y-37011904D01*
X136073866Y-37011904D02*
X136264342Y-37059523D01*
X136264342Y-37059523D02*
X136359580Y-37107142D01*
X136359580Y-37107142D02*
X136407200Y-37154761D01*
X136407200Y-37154761D02*
X136454819Y-37249999D01*
X136454819Y-37249999D02*
X136454819Y-37345237D01*
X136454819Y-37345237D02*
X136407200Y-37440475D01*
X136407200Y-37440475D02*
X136359580Y-37488094D01*
X136359580Y-37488094D02*
X136264342Y-37535713D01*
X136264342Y-37535713D02*
X136073866Y-37583332D01*
X136073866Y-37583332D02*
X135835771Y-37583332D01*
X135835771Y-37583332D02*
X135645295Y-37535713D01*
X135645295Y-37535713D02*
X135550057Y-37488094D01*
X135550057Y-37488094D02*
X135502438Y-37440475D01*
X135502438Y-37440475D02*
X135454819Y-37345237D01*
X139166666Y-51574819D02*
X139166666Y-52289104D01*
X139166666Y-52289104D02*
X139119047Y-52431961D01*
X139119047Y-52431961D02*
X139023809Y-52527200D01*
X139023809Y-52527200D02*
X138880952Y-52574819D01*
X138880952Y-52574819D02*
X138785714Y-52574819D01*
X139690476Y-52574819D02*
X139880952Y-52574819D01*
X139880952Y-52574819D02*
X139976190Y-52527200D01*
X139976190Y-52527200D02*
X140023809Y-52479580D01*
X140023809Y-52479580D02*
X140119047Y-52336723D01*
X140119047Y-52336723D02*
X140166666Y-52146247D01*
X140166666Y-52146247D02*
X140166666Y-51765295D01*
X140166666Y-51765295D02*
X140119047Y-51670057D01*
X140119047Y-51670057D02*
X140071428Y-51622438D01*
X140071428Y-51622438D02*
X139976190Y-51574819D01*
X139976190Y-51574819D02*
X139785714Y-51574819D01*
X139785714Y-51574819D02*
X139690476Y-51622438D01*
X139690476Y-51622438D02*
X139642857Y-51670057D01*
X139642857Y-51670057D02*
X139595238Y-51765295D01*
X139595238Y-51765295D02*
X139595238Y-52003390D01*
X139595238Y-52003390D02*
X139642857Y-52098628D01*
X139642857Y-52098628D02*
X139690476Y-52146247D01*
X139690476Y-52146247D02*
X139785714Y-52193866D01*
X139785714Y-52193866D02*
X139976190Y-52193866D01*
X139976190Y-52193866D02*
X140071428Y-52146247D01*
X140071428Y-52146247D02*
X140119047Y-52098628D01*
X140119047Y-52098628D02*
X140166666Y-52003390D01*
X7690476Y-51574819D02*
X7690476Y-52289104D01*
X7690476Y-52289104D02*
X7642857Y-52431961D01*
X7642857Y-52431961D02*
X7547619Y-52527200D01*
X7547619Y-52527200D02*
X7404762Y-52574819D01*
X7404762Y-52574819D02*
X7309524Y-52574819D01*
X8690476Y-52574819D02*
X8119048Y-52574819D01*
X8404762Y-52574819D02*
X8404762Y-51574819D01*
X8404762Y-51574819D02*
X8309524Y-51717676D01*
X8309524Y-51717676D02*
X8214286Y-51812914D01*
X8214286Y-51812914D02*
X8119048Y-51860533D01*
X9023810Y-51574819D02*
X9690476Y-51574819D01*
X9690476Y-51574819D02*
X9261905Y-52574819D01*
X136407200Y-58511904D02*
X136454819Y-58369047D01*
X136454819Y-58369047D02*
X136454819Y-58130952D01*
X136454819Y-58130952D02*
X136407200Y-58035714D01*
X136407200Y-58035714D02*
X136359580Y-57988095D01*
X136359580Y-57988095D02*
X136264342Y-57940476D01*
X136264342Y-57940476D02*
X136169104Y-57940476D01*
X136169104Y-57940476D02*
X136073866Y-57988095D01*
X136073866Y-57988095D02*
X136026247Y-58035714D01*
X136026247Y-58035714D02*
X135978628Y-58130952D01*
X135978628Y-58130952D02*
X135931009Y-58321428D01*
X135931009Y-58321428D02*
X135883390Y-58416666D01*
X135883390Y-58416666D02*
X135835771Y-58464285D01*
X135835771Y-58464285D02*
X135740533Y-58511904D01*
X135740533Y-58511904D02*
X135645295Y-58511904D01*
X135645295Y-58511904D02*
X135550057Y-58464285D01*
X135550057Y-58464285D02*
X135502438Y-58416666D01*
X135502438Y-58416666D02*
X135454819Y-58321428D01*
X135454819Y-58321428D02*
X135454819Y-58083333D01*
X135454819Y-58083333D02*
X135502438Y-57940476D01*
X136454819Y-57464285D02*
X136454819Y-57273809D01*
X136454819Y-57273809D02*
X136407200Y-57178571D01*
X136407200Y-57178571D02*
X136359580Y-57130952D01*
X136359580Y-57130952D02*
X136216723Y-57035714D01*
X136216723Y-57035714D02*
X136026247Y-56988095D01*
X136026247Y-56988095D02*
X135645295Y-56988095D01*
X135645295Y-56988095D02*
X135550057Y-57035714D01*
X135550057Y-57035714D02*
X135502438Y-57083333D01*
X135502438Y-57083333D02*
X135454819Y-57178571D01*
X135454819Y-57178571D02*
X135454819Y-57369047D01*
X135454819Y-57369047D02*
X135502438Y-57464285D01*
X135502438Y-57464285D02*
X135550057Y-57511904D01*
X135550057Y-57511904D02*
X135645295Y-57559523D01*
X135645295Y-57559523D02*
X135883390Y-57559523D01*
X135883390Y-57559523D02*
X135978628Y-57511904D01*
X135978628Y-57511904D02*
X136026247Y-57464285D01*
X136026247Y-57464285D02*
X136073866Y-57369047D01*
X136073866Y-57369047D02*
X136073866Y-57178571D01*
X136073866Y-57178571D02*
X136026247Y-57083333D01*
X136026247Y-57083333D02*
X135978628Y-57035714D01*
X135978628Y-57035714D02*
X135883390Y-56988095D01*
X115011905Y-12407200D02*
X115154762Y-12454819D01*
X115154762Y-12454819D02*
X115392857Y-12454819D01*
X115392857Y-12454819D02*
X115488095Y-12407200D01*
X115488095Y-12407200D02*
X115535714Y-12359580D01*
X115535714Y-12359580D02*
X115583333Y-12264342D01*
X115583333Y-12264342D02*
X115583333Y-12169104D01*
X115583333Y-12169104D02*
X115535714Y-12073866D01*
X115535714Y-12073866D02*
X115488095Y-12026247D01*
X115488095Y-12026247D02*
X115392857Y-11978628D01*
X115392857Y-11978628D02*
X115202381Y-11931009D01*
X115202381Y-11931009D02*
X115107143Y-11883390D01*
X115107143Y-11883390D02*
X115059524Y-11835771D01*
X115059524Y-11835771D02*
X115011905Y-11740533D01*
X115011905Y-11740533D02*
X115011905Y-11645295D01*
X115011905Y-11645295D02*
X115059524Y-11550057D01*
X115059524Y-11550057D02*
X115107143Y-11502438D01*
X115107143Y-11502438D02*
X115202381Y-11454819D01*
X115202381Y-11454819D02*
X115440476Y-11454819D01*
X115440476Y-11454819D02*
X115583333Y-11502438D01*
X116535714Y-12454819D02*
X115964286Y-12454819D01*
X116250000Y-12454819D02*
X116250000Y-11454819D01*
X116250000Y-11454819D02*
X116154762Y-11597676D01*
X116154762Y-11597676D02*
X116059524Y-11692914D01*
X116059524Y-11692914D02*
X115964286Y-11740533D01*
X117488095Y-12454819D02*
X116916667Y-12454819D01*
X117202381Y-12454819D02*
X117202381Y-11454819D01*
X117202381Y-11454819D02*
X117107143Y-11597676D01*
X117107143Y-11597676D02*
X117011905Y-11692914D01*
X117011905Y-11692914D02*
X116916667Y-11740533D01*
X7690476Y-71074819D02*
X7690476Y-71789104D01*
X7690476Y-71789104D02*
X7642857Y-71931961D01*
X7642857Y-71931961D02*
X7547619Y-72027200D01*
X7547619Y-72027200D02*
X7404762Y-72074819D01*
X7404762Y-72074819D02*
X7309524Y-72074819D01*
X8690476Y-72074819D02*
X8119048Y-72074819D01*
X8404762Y-72074819D02*
X8404762Y-71074819D01*
X8404762Y-71074819D02*
X8309524Y-71217676D01*
X8309524Y-71217676D02*
X8214286Y-71312914D01*
X8214286Y-71312914D02*
X8119048Y-71360533D01*
X9261905Y-71503390D02*
X9166667Y-71455771D01*
X9166667Y-71455771D02*
X9119048Y-71408152D01*
X9119048Y-71408152D02*
X9071429Y-71312914D01*
X9071429Y-71312914D02*
X9071429Y-71265295D01*
X9071429Y-71265295D02*
X9119048Y-71170057D01*
X9119048Y-71170057D02*
X9166667Y-71122438D01*
X9166667Y-71122438D02*
X9261905Y-71074819D01*
X9261905Y-71074819D02*
X9452381Y-71074819D01*
X9452381Y-71074819D02*
X9547619Y-71122438D01*
X9547619Y-71122438D02*
X9595238Y-71170057D01*
X9595238Y-71170057D02*
X9642857Y-71265295D01*
X9642857Y-71265295D02*
X9642857Y-71312914D01*
X9642857Y-71312914D02*
X9595238Y-71408152D01*
X9595238Y-71408152D02*
X9547619Y-71455771D01*
X9547619Y-71455771D02*
X9452381Y-71503390D01*
X9452381Y-71503390D02*
X9261905Y-71503390D01*
X9261905Y-71503390D02*
X9166667Y-71551009D01*
X9166667Y-71551009D02*
X9119048Y-71598628D01*
X9119048Y-71598628D02*
X9071429Y-71693866D01*
X9071429Y-71693866D02*
X9071429Y-71884342D01*
X9071429Y-71884342D02*
X9119048Y-71979580D01*
X9119048Y-71979580D02*
X9166667Y-72027200D01*
X9166667Y-72027200D02*
X9261905Y-72074819D01*
X9261905Y-72074819D02*
X9452381Y-72074819D01*
X9452381Y-72074819D02*
X9547619Y-72027200D01*
X9547619Y-72027200D02*
X9595238Y-71979580D01*
X9595238Y-71979580D02*
X9642857Y-71884342D01*
X9642857Y-71884342D02*
X9642857Y-71693866D01*
X9642857Y-71693866D02*
X9595238Y-71598628D01*
X9595238Y-71598628D02*
X9547619Y-71551009D01*
X9547619Y-71551009D02*
X9452381Y-71503390D01*
X53690476Y-5574819D02*
X53690476Y-6289104D01*
X53690476Y-6289104D02*
X53642857Y-6431961D01*
X53642857Y-6431961D02*
X53547619Y-6527200D01*
X53547619Y-6527200D02*
X53404762Y-6574819D01*
X53404762Y-6574819D02*
X53309524Y-6574819D01*
X54690476Y-6574819D02*
X54119048Y-6574819D01*
X54404762Y-6574819D02*
X54404762Y-5574819D01*
X54404762Y-5574819D02*
X54309524Y-5717676D01*
X54309524Y-5717676D02*
X54214286Y-5812914D01*
X54214286Y-5812914D02*
X54119048Y-5860533D01*
X55547619Y-5908152D02*
X55547619Y-6574819D01*
X55309524Y-5527200D02*
X55071429Y-6241485D01*
X55071429Y-6241485D02*
X55690476Y-6241485D01*
X12407200Y-32988094D02*
X12454819Y-32845237D01*
X12454819Y-32845237D02*
X12454819Y-32607142D01*
X12454819Y-32607142D02*
X12407200Y-32511904D01*
X12407200Y-32511904D02*
X12359580Y-32464285D01*
X12359580Y-32464285D02*
X12264342Y-32416666D01*
X12264342Y-32416666D02*
X12169104Y-32416666D01*
X12169104Y-32416666D02*
X12073866Y-32464285D01*
X12073866Y-32464285D02*
X12026247Y-32511904D01*
X12026247Y-32511904D02*
X11978628Y-32607142D01*
X11978628Y-32607142D02*
X11931009Y-32797618D01*
X11931009Y-32797618D02*
X11883390Y-32892856D01*
X11883390Y-32892856D02*
X11835771Y-32940475D01*
X11835771Y-32940475D02*
X11740533Y-32988094D01*
X11740533Y-32988094D02*
X11645295Y-32988094D01*
X11645295Y-32988094D02*
X11550057Y-32940475D01*
X11550057Y-32940475D02*
X11502438Y-32892856D01*
X11502438Y-32892856D02*
X11454819Y-32797618D01*
X11454819Y-32797618D02*
X11454819Y-32559523D01*
X11454819Y-32559523D02*
X11502438Y-32416666D01*
X12454819Y-31464285D02*
X12454819Y-32035713D01*
X12454819Y-31749999D02*
X11454819Y-31749999D01*
X11454819Y-31749999D02*
X11597676Y-31845237D01*
X11597676Y-31845237D02*
X11692914Y-31940475D01*
X11692914Y-31940475D02*
X11740533Y-32035713D01*
X11454819Y-30607142D02*
X11454819Y-30797618D01*
X11454819Y-30797618D02*
X11502438Y-30892856D01*
X11502438Y-30892856D02*
X11550057Y-30940475D01*
X11550057Y-30940475D02*
X11692914Y-31035713D01*
X11692914Y-31035713D02*
X11883390Y-31083332D01*
X11883390Y-31083332D02*
X12264342Y-31083332D01*
X12264342Y-31083332D02*
X12359580Y-31035713D01*
X12359580Y-31035713D02*
X12407200Y-30988094D01*
X12407200Y-30988094D02*
X12454819Y-30892856D01*
X12454819Y-30892856D02*
X12454819Y-30702380D01*
X12454819Y-30702380D02*
X12407200Y-30607142D01*
X12407200Y-30607142D02*
X12359580Y-30559523D01*
X12359580Y-30559523D02*
X12264342Y-30511904D01*
X12264342Y-30511904D02*
X12026247Y-30511904D01*
X12026247Y-30511904D02*
X11931009Y-30559523D01*
X11931009Y-30559523D02*
X11883390Y-30607142D01*
X11883390Y-30607142D02*
X11835771Y-30702380D01*
X11835771Y-30702380D02*
X11835771Y-30892856D01*
X11835771Y-30892856D02*
X11883390Y-30988094D01*
X11883390Y-30988094D02*
X11931009Y-31035713D01*
X11931009Y-31035713D02*
X12026247Y-31083332D01*
X131238095Y-128304819D02*
X131238095Y-127304819D01*
X131238095Y-127781009D02*
X131809523Y-127781009D01*
X131809523Y-128304819D02*
X131809523Y-127304819D01*
X132190476Y-127304819D02*
X132809523Y-127304819D01*
X132809523Y-127304819D02*
X132476190Y-127685771D01*
X132476190Y-127685771D02*
X132619047Y-127685771D01*
X132619047Y-127685771D02*
X132714285Y-127733390D01*
X132714285Y-127733390D02*
X132761904Y-127781009D01*
X132761904Y-127781009D02*
X132809523Y-127876247D01*
X132809523Y-127876247D02*
X132809523Y-128114342D01*
X132809523Y-128114342D02*
X132761904Y-128209580D01*
X132761904Y-128209580D02*
X132714285Y-128257200D01*
X132714285Y-128257200D02*
X132619047Y-128304819D01*
X132619047Y-128304819D02*
X132333333Y-128304819D01*
X132333333Y-128304819D02*
X132238095Y-128257200D01*
X132238095Y-128257200D02*
X132190476Y-128209580D01*
X138690476Y-32074819D02*
X138690476Y-32789104D01*
X138690476Y-32789104D02*
X138642857Y-32931961D01*
X138642857Y-32931961D02*
X138547619Y-33027200D01*
X138547619Y-33027200D02*
X138404762Y-33074819D01*
X138404762Y-33074819D02*
X138309524Y-33074819D01*
X139690476Y-33074819D02*
X139119048Y-33074819D01*
X139404762Y-33074819D02*
X139404762Y-32074819D01*
X139404762Y-32074819D02*
X139309524Y-32217676D01*
X139309524Y-32217676D02*
X139214286Y-32312914D01*
X139214286Y-32312914D02*
X139119048Y-32360533D01*
X140309524Y-32074819D02*
X140404762Y-32074819D01*
X140404762Y-32074819D02*
X140500000Y-32122438D01*
X140500000Y-32122438D02*
X140547619Y-32170057D01*
X140547619Y-32170057D02*
X140595238Y-32265295D01*
X140595238Y-32265295D02*
X140642857Y-32455771D01*
X140642857Y-32455771D02*
X140642857Y-32693866D01*
X140642857Y-32693866D02*
X140595238Y-32884342D01*
X140595238Y-32884342D02*
X140547619Y-32979580D01*
X140547619Y-32979580D02*
X140500000Y-33027200D01*
X140500000Y-33027200D02*
X140404762Y-33074819D01*
X140404762Y-33074819D02*
X140309524Y-33074819D01*
X140309524Y-33074819D02*
X140214286Y-33027200D01*
X140214286Y-33027200D02*
X140166667Y-32979580D01*
X140166667Y-32979580D02*
X140119048Y-32884342D01*
X140119048Y-32884342D02*
X140071429Y-32693866D01*
X140071429Y-32693866D02*
X140071429Y-32455771D01*
X140071429Y-32455771D02*
X140119048Y-32265295D01*
X140119048Y-32265295D02*
X140166667Y-32170057D01*
X140166667Y-32170057D02*
X140214286Y-32122438D01*
X140214286Y-32122438D02*
X140309524Y-32074819D01*
X112666666Y-136574819D02*
X112666666Y-137289104D01*
X112666666Y-137289104D02*
X112619047Y-137431961D01*
X112619047Y-137431961D02*
X112523809Y-137527200D01*
X112523809Y-137527200D02*
X112380952Y-137574819D01*
X112380952Y-137574819D02*
X112285714Y-137574819D01*
X113619047Y-136574819D02*
X113142857Y-136574819D01*
X113142857Y-136574819D02*
X113095238Y-137051009D01*
X113095238Y-137051009D02*
X113142857Y-137003390D01*
X113142857Y-137003390D02*
X113238095Y-136955771D01*
X113238095Y-136955771D02*
X113476190Y-136955771D01*
X113476190Y-136955771D02*
X113571428Y-137003390D01*
X113571428Y-137003390D02*
X113619047Y-137051009D01*
X113619047Y-137051009D02*
X113666666Y-137146247D01*
X113666666Y-137146247D02*
X113666666Y-137384342D01*
X113666666Y-137384342D02*
X113619047Y-137479580D01*
X113619047Y-137479580D02*
X113571428Y-137527200D01*
X113571428Y-137527200D02*
X113476190Y-137574819D01*
X113476190Y-137574819D02*
X113238095Y-137574819D01*
X113238095Y-137574819D02*
X113142857Y-137527200D01*
X113142857Y-137527200D02*
X113095238Y-137479580D01*
X12407200Y-110988094D02*
X12454819Y-110845237D01*
X12454819Y-110845237D02*
X12454819Y-110607142D01*
X12454819Y-110607142D02*
X12407200Y-110511904D01*
X12407200Y-110511904D02*
X12359580Y-110464285D01*
X12359580Y-110464285D02*
X12264342Y-110416666D01*
X12264342Y-110416666D02*
X12169104Y-110416666D01*
X12169104Y-110416666D02*
X12073866Y-110464285D01*
X12073866Y-110464285D02*
X12026247Y-110511904D01*
X12026247Y-110511904D02*
X11978628Y-110607142D01*
X11978628Y-110607142D02*
X11931009Y-110797618D01*
X11931009Y-110797618D02*
X11883390Y-110892856D01*
X11883390Y-110892856D02*
X11835771Y-110940475D01*
X11835771Y-110940475D02*
X11740533Y-110988094D01*
X11740533Y-110988094D02*
X11645295Y-110988094D01*
X11645295Y-110988094D02*
X11550057Y-110940475D01*
X11550057Y-110940475D02*
X11502438Y-110892856D01*
X11502438Y-110892856D02*
X11454819Y-110797618D01*
X11454819Y-110797618D02*
X11454819Y-110559523D01*
X11454819Y-110559523D02*
X11502438Y-110416666D01*
X11550057Y-110035713D02*
X11502438Y-109988094D01*
X11502438Y-109988094D02*
X11454819Y-109892856D01*
X11454819Y-109892856D02*
X11454819Y-109654761D01*
X11454819Y-109654761D02*
X11502438Y-109559523D01*
X11502438Y-109559523D02*
X11550057Y-109511904D01*
X11550057Y-109511904D02*
X11645295Y-109464285D01*
X11645295Y-109464285D02*
X11740533Y-109464285D01*
X11740533Y-109464285D02*
X11883390Y-109511904D01*
X11883390Y-109511904D02*
X12454819Y-110083332D01*
X12454819Y-110083332D02*
X12454819Y-109464285D01*
X11454819Y-108845237D02*
X11454819Y-108749999D01*
X11454819Y-108749999D02*
X11502438Y-108654761D01*
X11502438Y-108654761D02*
X11550057Y-108607142D01*
X11550057Y-108607142D02*
X11645295Y-108559523D01*
X11645295Y-108559523D02*
X11835771Y-108511904D01*
X11835771Y-108511904D02*
X12073866Y-108511904D01*
X12073866Y-108511904D02*
X12264342Y-108559523D01*
X12264342Y-108559523D02*
X12359580Y-108607142D01*
X12359580Y-108607142D02*
X12407200Y-108654761D01*
X12407200Y-108654761D02*
X12454819Y-108749999D01*
X12454819Y-108749999D02*
X12454819Y-108845237D01*
X12454819Y-108845237D02*
X12407200Y-108940475D01*
X12407200Y-108940475D02*
X12359580Y-108988094D01*
X12359580Y-108988094D02*
X12264342Y-109035713D01*
X12264342Y-109035713D02*
X12073866Y-109083332D01*
X12073866Y-109083332D02*
X11835771Y-109083332D01*
X11835771Y-109083332D02*
X11645295Y-109035713D01*
X11645295Y-109035713D02*
X11550057Y-108988094D01*
X11550057Y-108988094D02*
X11502438Y-108940475D01*
X11502438Y-108940475D02*
X11454819Y-108845237D01*
X50488095Y-136407200D02*
X50630952Y-136454819D01*
X50630952Y-136454819D02*
X50869047Y-136454819D01*
X50869047Y-136454819D02*
X50964285Y-136407200D01*
X50964285Y-136407200D02*
X51011904Y-136359580D01*
X51011904Y-136359580D02*
X51059523Y-136264342D01*
X51059523Y-136264342D02*
X51059523Y-136169104D01*
X51059523Y-136169104D02*
X51011904Y-136073866D01*
X51011904Y-136073866D02*
X50964285Y-136026247D01*
X50964285Y-136026247D02*
X50869047Y-135978628D01*
X50869047Y-135978628D02*
X50678571Y-135931009D01*
X50678571Y-135931009D02*
X50583333Y-135883390D01*
X50583333Y-135883390D02*
X50535714Y-135835771D01*
X50535714Y-135835771D02*
X50488095Y-135740533D01*
X50488095Y-135740533D02*
X50488095Y-135645295D01*
X50488095Y-135645295D02*
X50535714Y-135550057D01*
X50535714Y-135550057D02*
X50583333Y-135502438D01*
X50583333Y-135502438D02*
X50678571Y-135454819D01*
X50678571Y-135454819D02*
X50916666Y-135454819D01*
X50916666Y-135454819D02*
X51059523Y-135502438D01*
X51440476Y-135550057D02*
X51488095Y-135502438D01*
X51488095Y-135502438D02*
X51583333Y-135454819D01*
X51583333Y-135454819D02*
X51821428Y-135454819D01*
X51821428Y-135454819D02*
X51916666Y-135502438D01*
X51916666Y-135502438D02*
X51964285Y-135550057D01*
X51964285Y-135550057D02*
X52011904Y-135645295D01*
X52011904Y-135645295D02*
X52011904Y-135740533D01*
X52011904Y-135740533D02*
X51964285Y-135883390D01*
X51964285Y-135883390D02*
X51392857Y-136454819D01*
X51392857Y-136454819D02*
X52011904Y-136454819D01*
X123916667Y-24407200D02*
X124059524Y-24454819D01*
X124059524Y-24454819D02*
X124297619Y-24454819D01*
X124297619Y-24454819D02*
X124392857Y-24407200D01*
X124392857Y-24407200D02*
X124440476Y-24359580D01*
X124440476Y-24359580D02*
X124488095Y-24264342D01*
X124488095Y-24264342D02*
X124488095Y-24169104D01*
X124488095Y-24169104D02*
X124440476Y-24073866D01*
X124440476Y-24073866D02*
X124392857Y-24026247D01*
X124392857Y-24026247D02*
X124297619Y-23978628D01*
X124297619Y-23978628D02*
X124107143Y-23931009D01*
X124107143Y-23931009D02*
X124011905Y-23883390D01*
X124011905Y-23883390D02*
X123964286Y-23835771D01*
X123964286Y-23835771D02*
X123916667Y-23740533D01*
X123916667Y-23740533D02*
X123916667Y-23645295D01*
X123916667Y-23645295D02*
X123964286Y-23550057D01*
X123964286Y-23550057D02*
X124011905Y-23502438D01*
X124011905Y-23502438D02*
X124107143Y-23454819D01*
X124107143Y-23454819D02*
X124345238Y-23454819D01*
X124345238Y-23454819D02*
X124488095Y-23502438D01*
X124821429Y-23454819D02*
X125059524Y-24454819D01*
X125059524Y-24454819D02*
X125250000Y-23740533D01*
X125250000Y-23740533D02*
X125440476Y-24454819D01*
X125440476Y-24454819D02*
X125678572Y-23454819D01*
X126488095Y-23788152D02*
X126488095Y-24454819D01*
X126250000Y-23407200D02*
X126011905Y-24121485D01*
X126011905Y-24121485D02*
X126630952Y-24121485D01*
X139166666Y-90574819D02*
X139166666Y-91289104D01*
X139166666Y-91289104D02*
X139119047Y-91431961D01*
X139119047Y-91431961D02*
X139023809Y-91527200D01*
X139023809Y-91527200D02*
X138880952Y-91574819D01*
X138880952Y-91574819D02*
X138785714Y-91574819D01*
X139547619Y-90574819D02*
X140214285Y-90574819D01*
X140214285Y-90574819D02*
X139785714Y-91574819D01*
X27916667Y-120407200D02*
X28059524Y-120454819D01*
X28059524Y-120454819D02*
X28297619Y-120454819D01*
X28297619Y-120454819D02*
X28392857Y-120407200D01*
X28392857Y-120407200D02*
X28440476Y-120359580D01*
X28440476Y-120359580D02*
X28488095Y-120264342D01*
X28488095Y-120264342D02*
X28488095Y-120169104D01*
X28488095Y-120169104D02*
X28440476Y-120073866D01*
X28440476Y-120073866D02*
X28392857Y-120026247D01*
X28392857Y-120026247D02*
X28297619Y-119978628D01*
X28297619Y-119978628D02*
X28107143Y-119931009D01*
X28107143Y-119931009D02*
X28011905Y-119883390D01*
X28011905Y-119883390D02*
X27964286Y-119835771D01*
X27964286Y-119835771D02*
X27916667Y-119740533D01*
X27916667Y-119740533D02*
X27916667Y-119645295D01*
X27916667Y-119645295D02*
X27964286Y-119550057D01*
X27964286Y-119550057D02*
X28011905Y-119502438D01*
X28011905Y-119502438D02*
X28107143Y-119454819D01*
X28107143Y-119454819D02*
X28345238Y-119454819D01*
X28345238Y-119454819D02*
X28488095Y-119502438D01*
X28821429Y-119454819D02*
X29059524Y-120454819D01*
X29059524Y-120454819D02*
X29250000Y-119740533D01*
X29250000Y-119740533D02*
X29440476Y-120454819D01*
X29440476Y-120454819D02*
X29678572Y-119454819D01*
X30583333Y-120454819D02*
X30011905Y-120454819D01*
X30297619Y-120454819D02*
X30297619Y-119454819D01*
X30297619Y-119454819D02*
X30202381Y-119597676D01*
X30202381Y-119597676D02*
X30107143Y-119692914D01*
X30107143Y-119692914D02*
X30011905Y-119740533D01*
X139166666Y-71074819D02*
X139166666Y-71789104D01*
X139166666Y-71789104D02*
X139119047Y-71931961D01*
X139119047Y-71931961D02*
X139023809Y-72027200D01*
X139023809Y-72027200D02*
X138880952Y-72074819D01*
X138880952Y-72074819D02*
X138785714Y-72074819D01*
X139785714Y-71503390D02*
X139690476Y-71455771D01*
X139690476Y-71455771D02*
X139642857Y-71408152D01*
X139642857Y-71408152D02*
X139595238Y-71312914D01*
X139595238Y-71312914D02*
X139595238Y-71265295D01*
X139595238Y-71265295D02*
X139642857Y-71170057D01*
X139642857Y-71170057D02*
X139690476Y-71122438D01*
X139690476Y-71122438D02*
X139785714Y-71074819D01*
X139785714Y-71074819D02*
X139976190Y-71074819D01*
X139976190Y-71074819D02*
X140071428Y-71122438D01*
X140071428Y-71122438D02*
X140119047Y-71170057D01*
X140119047Y-71170057D02*
X140166666Y-71265295D01*
X140166666Y-71265295D02*
X140166666Y-71312914D01*
X140166666Y-71312914D02*
X140119047Y-71408152D01*
X140119047Y-71408152D02*
X140071428Y-71455771D01*
X140071428Y-71455771D02*
X139976190Y-71503390D01*
X139976190Y-71503390D02*
X139785714Y-71503390D01*
X139785714Y-71503390D02*
X139690476Y-71551009D01*
X139690476Y-71551009D02*
X139642857Y-71598628D01*
X139642857Y-71598628D02*
X139595238Y-71693866D01*
X139595238Y-71693866D02*
X139595238Y-71884342D01*
X139595238Y-71884342D02*
X139642857Y-71979580D01*
X139642857Y-71979580D02*
X139690476Y-72027200D01*
X139690476Y-72027200D02*
X139785714Y-72074819D01*
X139785714Y-72074819D02*
X139976190Y-72074819D01*
X139976190Y-72074819D02*
X140071428Y-72027200D01*
X140071428Y-72027200D02*
X140119047Y-71979580D01*
X140119047Y-71979580D02*
X140166666Y-71884342D01*
X140166666Y-71884342D02*
X140166666Y-71693866D01*
X140166666Y-71693866D02*
X140119047Y-71598628D01*
X140119047Y-71598628D02*
X140071428Y-71551009D01*
X140071428Y-71551009D02*
X139976190Y-71503390D01*
X15238095Y-128304819D02*
X15238095Y-127304819D01*
X15238095Y-127781009D02*
X15809523Y-127781009D01*
X15809523Y-128304819D02*
X15809523Y-127304819D01*
X16714285Y-127638152D02*
X16714285Y-128304819D01*
X16476190Y-127257200D02*
X16238095Y-127971485D01*
X16238095Y-127971485D02*
X16857142Y-127971485D01*
X7690476Y-32074819D02*
X7690476Y-32789104D01*
X7690476Y-32789104D02*
X7642857Y-32931961D01*
X7642857Y-32931961D02*
X7547619Y-33027200D01*
X7547619Y-33027200D02*
X7404762Y-33074819D01*
X7404762Y-33074819D02*
X7309524Y-33074819D01*
X8690476Y-33074819D02*
X8119048Y-33074819D01*
X8404762Y-33074819D02*
X8404762Y-32074819D01*
X8404762Y-32074819D02*
X8309524Y-32217676D01*
X8309524Y-32217676D02*
X8214286Y-32312914D01*
X8214286Y-32312914D02*
X8119048Y-32360533D01*
X9547619Y-32074819D02*
X9357143Y-32074819D01*
X9357143Y-32074819D02*
X9261905Y-32122438D01*
X9261905Y-32122438D02*
X9214286Y-32170057D01*
X9214286Y-32170057D02*
X9119048Y-32312914D01*
X9119048Y-32312914D02*
X9071429Y-32503390D01*
X9071429Y-32503390D02*
X9071429Y-32884342D01*
X9071429Y-32884342D02*
X9119048Y-32979580D01*
X9119048Y-32979580D02*
X9166667Y-33027200D01*
X9166667Y-33027200D02*
X9261905Y-33074819D01*
X9261905Y-33074819D02*
X9452381Y-33074819D01*
X9452381Y-33074819D02*
X9547619Y-33027200D01*
X9547619Y-33027200D02*
X9595238Y-32979580D01*
X9595238Y-32979580D02*
X9642857Y-32884342D01*
X9642857Y-32884342D02*
X9642857Y-32646247D01*
X9642857Y-32646247D02*
X9595238Y-32551009D01*
X9595238Y-32551009D02*
X9547619Y-32503390D01*
X9547619Y-32503390D02*
X9452381Y-32455771D01*
X9452381Y-32455771D02*
X9261905Y-32455771D01*
X9261905Y-32455771D02*
X9166667Y-32503390D01*
X9166667Y-32503390D02*
X9119048Y-32551009D01*
X9119048Y-32551009D02*
X9071429Y-32646247D01*
X54166666Y-136574819D02*
X54166666Y-137289104D01*
X54166666Y-137289104D02*
X54119047Y-137431961D01*
X54119047Y-137431961D02*
X54023809Y-137527200D01*
X54023809Y-137527200D02*
X53880952Y-137574819D01*
X53880952Y-137574819D02*
X53785714Y-137574819D01*
X54595238Y-136670057D02*
X54642857Y-136622438D01*
X54642857Y-136622438D02*
X54738095Y-136574819D01*
X54738095Y-136574819D02*
X54976190Y-136574819D01*
X54976190Y-136574819D02*
X55071428Y-136622438D01*
X55071428Y-136622438D02*
X55119047Y-136670057D01*
X55119047Y-136670057D02*
X55166666Y-136765295D01*
X55166666Y-136765295D02*
X55166666Y-136860533D01*
X55166666Y-136860533D02*
X55119047Y-137003390D01*
X55119047Y-137003390D02*
X54547619Y-137574819D01*
X54547619Y-137574819D02*
X55166666Y-137574819D01*
X34666666Y-136574819D02*
X34666666Y-137289104D01*
X34666666Y-137289104D02*
X34619047Y-137431961D01*
X34619047Y-137431961D02*
X34523809Y-137527200D01*
X34523809Y-137527200D02*
X34380952Y-137574819D01*
X34380952Y-137574819D02*
X34285714Y-137574819D01*
X35666666Y-137574819D02*
X35095238Y-137574819D01*
X35380952Y-137574819D02*
X35380952Y-136574819D01*
X35380952Y-136574819D02*
X35285714Y-136717676D01*
X35285714Y-136717676D02*
X35190476Y-136812914D01*
X35190476Y-136812914D02*
X35095238Y-136860533D01*
X15238095Y-12304819D02*
X15238095Y-11304819D01*
X15238095Y-11781009D02*
X15809523Y-11781009D01*
X15809523Y-12304819D02*
X15809523Y-11304819D01*
X16809523Y-12304819D02*
X16238095Y-12304819D01*
X16523809Y-12304819D02*
X16523809Y-11304819D01*
X16523809Y-11304819D02*
X16428571Y-11447676D01*
X16428571Y-11447676D02*
X16333333Y-11542914D01*
X16333333Y-11542914D02*
X16238095Y-11590533D01*
X123916667Y-120407200D02*
X124059524Y-120454819D01*
X124059524Y-120454819D02*
X124297619Y-120454819D01*
X124297619Y-120454819D02*
X124392857Y-120407200D01*
X124392857Y-120407200D02*
X124440476Y-120359580D01*
X124440476Y-120359580D02*
X124488095Y-120264342D01*
X124488095Y-120264342D02*
X124488095Y-120169104D01*
X124488095Y-120169104D02*
X124440476Y-120073866D01*
X124440476Y-120073866D02*
X124392857Y-120026247D01*
X124392857Y-120026247D02*
X124297619Y-119978628D01*
X124297619Y-119978628D02*
X124107143Y-119931009D01*
X124107143Y-119931009D02*
X124011905Y-119883390D01*
X124011905Y-119883390D02*
X123964286Y-119835771D01*
X123964286Y-119835771D02*
X123916667Y-119740533D01*
X123916667Y-119740533D02*
X123916667Y-119645295D01*
X123916667Y-119645295D02*
X123964286Y-119550057D01*
X123964286Y-119550057D02*
X124011905Y-119502438D01*
X124011905Y-119502438D02*
X124107143Y-119454819D01*
X124107143Y-119454819D02*
X124345238Y-119454819D01*
X124345238Y-119454819D02*
X124488095Y-119502438D01*
X124821429Y-119454819D02*
X125059524Y-120454819D01*
X125059524Y-120454819D02*
X125250000Y-119740533D01*
X125250000Y-119740533D02*
X125440476Y-120454819D01*
X125440476Y-120454819D02*
X125678572Y-119454819D01*
X126011905Y-119550057D02*
X126059524Y-119502438D01*
X126059524Y-119502438D02*
X126154762Y-119454819D01*
X126154762Y-119454819D02*
X126392857Y-119454819D01*
X126392857Y-119454819D02*
X126488095Y-119502438D01*
X126488095Y-119502438D02*
X126535714Y-119550057D01*
X126535714Y-119550057D02*
X126583333Y-119645295D01*
X126583333Y-119645295D02*
X126583333Y-119740533D01*
X126583333Y-119740533D02*
X126535714Y-119883390D01*
X126535714Y-119883390D02*
X125964286Y-120454819D01*
X125964286Y-120454819D02*
X126583333Y-120454819D01*
X18571428Y-124574819D02*
X18571428Y-125289104D01*
X18571428Y-125289104D02*
X18523809Y-125431961D01*
X18523809Y-125431961D02*
X18428571Y-125527200D01*
X18428571Y-125527200D02*
X18285714Y-125574819D01*
X18285714Y-125574819D02*
X18190476Y-125574819D01*
X18809524Y-125670057D02*
X19571428Y-125670057D01*
X20333333Y-124622438D02*
X20238095Y-124574819D01*
X20238095Y-124574819D02*
X20095238Y-124574819D01*
X20095238Y-124574819D02*
X19952381Y-124622438D01*
X19952381Y-124622438D02*
X19857143Y-124717676D01*
X19857143Y-124717676D02*
X19809524Y-124812914D01*
X19809524Y-124812914D02*
X19761905Y-125003390D01*
X19761905Y-125003390D02*
X19761905Y-125146247D01*
X19761905Y-125146247D02*
X19809524Y-125336723D01*
X19809524Y-125336723D02*
X19857143Y-125431961D01*
X19857143Y-125431961D02*
X19952381Y-125527200D01*
X19952381Y-125527200D02*
X20095238Y-125574819D01*
X20095238Y-125574819D02*
X20190476Y-125574819D01*
X20190476Y-125574819D02*
X20333333Y-125527200D01*
X20333333Y-125527200D02*
X20380952Y-125479580D01*
X20380952Y-125479580D02*
X20380952Y-125146247D01*
X20380952Y-125146247D02*
X20190476Y-125146247D01*
X20761905Y-125289104D02*
X21238095Y-125289104D01*
X20666667Y-125574819D02*
X21000000Y-124574819D01*
X21000000Y-124574819D02*
X21333333Y-125574819D01*
X21666667Y-125574819D02*
X21666667Y-124574819D01*
X22142857Y-125574819D02*
X22142857Y-124574819D01*
X22142857Y-124574819D02*
X22714285Y-125574819D01*
X22714285Y-125574819D02*
X22714285Y-124574819D01*
X12407200Y-71988094D02*
X12454819Y-71845237D01*
X12454819Y-71845237D02*
X12454819Y-71607142D01*
X12454819Y-71607142D02*
X12407200Y-71511904D01*
X12407200Y-71511904D02*
X12359580Y-71464285D01*
X12359580Y-71464285D02*
X12264342Y-71416666D01*
X12264342Y-71416666D02*
X12169104Y-71416666D01*
X12169104Y-71416666D02*
X12073866Y-71464285D01*
X12073866Y-71464285D02*
X12026247Y-71511904D01*
X12026247Y-71511904D02*
X11978628Y-71607142D01*
X11978628Y-71607142D02*
X11931009Y-71797618D01*
X11931009Y-71797618D02*
X11883390Y-71892856D01*
X11883390Y-71892856D02*
X11835771Y-71940475D01*
X11835771Y-71940475D02*
X11740533Y-71988094D01*
X11740533Y-71988094D02*
X11645295Y-71988094D01*
X11645295Y-71988094D02*
X11550057Y-71940475D01*
X11550057Y-71940475D02*
X11502438Y-71892856D01*
X11502438Y-71892856D02*
X11454819Y-71797618D01*
X11454819Y-71797618D02*
X11454819Y-71559523D01*
X11454819Y-71559523D02*
X11502438Y-71416666D01*
X12454819Y-70464285D02*
X12454819Y-71035713D01*
X12454819Y-70749999D02*
X11454819Y-70749999D01*
X11454819Y-70749999D02*
X11597676Y-70845237D01*
X11597676Y-70845237D02*
X11692914Y-70940475D01*
X11692914Y-70940475D02*
X11740533Y-71035713D01*
X11883390Y-69892856D02*
X11835771Y-69988094D01*
X11835771Y-69988094D02*
X11788152Y-70035713D01*
X11788152Y-70035713D02*
X11692914Y-70083332D01*
X11692914Y-70083332D02*
X11645295Y-70083332D01*
X11645295Y-70083332D02*
X11550057Y-70035713D01*
X11550057Y-70035713D02*
X11502438Y-69988094D01*
X11502438Y-69988094D02*
X11454819Y-69892856D01*
X11454819Y-69892856D02*
X11454819Y-69702380D01*
X11454819Y-69702380D02*
X11502438Y-69607142D01*
X11502438Y-69607142D02*
X11550057Y-69559523D01*
X11550057Y-69559523D02*
X11645295Y-69511904D01*
X11645295Y-69511904D02*
X11692914Y-69511904D01*
X11692914Y-69511904D02*
X11788152Y-69559523D01*
X11788152Y-69559523D02*
X11835771Y-69607142D01*
X11835771Y-69607142D02*
X11883390Y-69702380D01*
X11883390Y-69702380D02*
X11883390Y-69892856D01*
X11883390Y-69892856D02*
X11931009Y-69988094D01*
X11931009Y-69988094D02*
X11978628Y-70035713D01*
X11978628Y-70035713D02*
X12073866Y-70083332D01*
X12073866Y-70083332D02*
X12264342Y-70083332D01*
X12264342Y-70083332D02*
X12359580Y-70035713D01*
X12359580Y-70035713D02*
X12407200Y-69988094D01*
X12407200Y-69988094D02*
X12454819Y-69892856D01*
X12454819Y-69892856D02*
X12454819Y-69702380D01*
X12454819Y-69702380D02*
X12407200Y-69607142D01*
X12407200Y-69607142D02*
X12359580Y-69559523D01*
X12359580Y-69559523D02*
X12264342Y-69511904D01*
X12264342Y-69511904D02*
X12073866Y-69511904D01*
X12073866Y-69511904D02*
X11978628Y-69559523D01*
X11978628Y-69559523D02*
X11931009Y-69607142D01*
X11931009Y-69607142D02*
X11883390Y-69702380D01*
X93166666Y-136574819D02*
X93166666Y-137289104D01*
X93166666Y-137289104D02*
X93119047Y-137431961D01*
X93119047Y-137431961D02*
X93023809Y-137527200D01*
X93023809Y-137527200D02*
X92880952Y-137574819D01*
X92880952Y-137574819D02*
X92785714Y-137574819D01*
X94071428Y-136908152D02*
X94071428Y-137574819D01*
X93833333Y-136527200D02*
X93595238Y-137241485D01*
X93595238Y-137241485D02*
X94214285Y-137241485D01*
%TO.C,S6*%
D10*
X128500000Y-114000000D02*
X128500000Y-118500000D01*
X131000000Y-119750000D02*
X132500000Y-119750000D01*
X132500000Y-112750000D02*
X131000000Y-112750000D01*
X135000000Y-118500000D02*
X135000000Y-114000000D01*
%TO.C,J6*%
X138120000Y-111620000D02*
X139500000Y-111620000D01*
X138120000Y-113000000D02*
X138120000Y-111620000D01*
X138120000Y-114270000D02*
X138120000Y-114380000D01*
X138120000Y-114270000D02*
X140880000Y-114270000D01*
X138120000Y-114380000D02*
X140880000Y-114380000D01*
X140880000Y-114270000D02*
X140880000Y-114380000D01*
%TO.C,S4*%
X86750000Y-131000000D02*
X86750000Y-132500000D01*
X88000000Y-135000000D02*
X92500000Y-135000000D01*
X92500000Y-128500000D02*
X88000000Y-128500000D01*
X93750000Y-132500000D02*
X93750000Y-131000000D01*
%TO.C,J15*%
X33620000Y-7120000D02*
X35000000Y-7120000D01*
X33620000Y-8500000D02*
X33620000Y-7120000D01*
X33620000Y-9770000D02*
X33620000Y-9880000D01*
X33620000Y-9770000D02*
X36380000Y-9770000D01*
X33620000Y-9880000D02*
X36380000Y-9880000D01*
X36380000Y-9770000D02*
X36380000Y-9880000D01*
%TO.C,S13*%
X73750000Y-15500000D02*
X73750000Y-17000000D01*
X75000000Y-19500000D02*
X79500000Y-19500000D01*
X79500000Y-13000000D02*
X75000000Y-13000000D01*
X80750000Y-17000000D02*
X80750000Y-15500000D01*
%TO.C,J_GND*%
X72620000Y-18620000D02*
X74000000Y-18620000D01*
X72620000Y-20000000D02*
X72620000Y-18620000D01*
X72620000Y-21270000D02*
X72620000Y-23920000D01*
X72620000Y-21270000D02*
X75380000Y-21270000D01*
X72620000Y-23920000D02*
X75380000Y-23920000D01*
X75380000Y-21270000D02*
X75380000Y-23920000D01*
%TO.C,J13*%
X72620000Y-7120000D02*
X74000000Y-7120000D01*
X72620000Y-8500000D02*
X72620000Y-7120000D01*
X72620000Y-9770000D02*
X72620000Y-9880000D01*
X72620000Y-9770000D02*
X75380000Y-9770000D01*
X72620000Y-9880000D02*
X75380000Y-9880000D01*
X75380000Y-9770000D02*
X75380000Y-9880000D01*
%TO.C,S17*%
X13000000Y-49000000D02*
X13000000Y-53500000D01*
X15500000Y-54750000D02*
X17000000Y-54750000D01*
X17000000Y-47750000D02*
X15500000Y-47750000D01*
X19500000Y-53500000D02*
X19500000Y-49000000D01*
%TO.C,J20*%
X7120000Y-111620000D02*
X8500000Y-111620000D01*
X7120000Y-113000000D02*
X7120000Y-111620000D01*
X7120000Y-114270000D02*
X7120000Y-114380000D01*
X7120000Y-114270000D02*
X9880000Y-114270000D01*
X7120000Y-114380000D02*
X9880000Y-114380000D01*
X9880000Y-114270000D02*
X9880000Y-114380000D01*
%TO.C,S8*%
X128500000Y-75000000D02*
X128500000Y-79500000D01*
X131000000Y-80750000D02*
X132500000Y-80750000D01*
X132500000Y-73750000D02*
X131000000Y-73750000D01*
X135000000Y-79500000D02*
X135000000Y-75000000D01*
%TO.C,J12*%
X92120000Y-7120000D02*
X93500000Y-7120000D01*
X92120000Y-8500000D02*
X92120000Y-7120000D01*
X92120000Y-9770000D02*
X92120000Y-9880000D01*
X92120000Y-9770000D02*
X94880000Y-9770000D01*
X92120000Y-9880000D02*
X94880000Y-9880000D01*
X94880000Y-9770000D02*
X94880000Y-9880000D01*
%TO.C,S3*%
X67250000Y-131000000D02*
X67250000Y-132500000D01*
X68500000Y-135000000D02*
X73000000Y-135000000D01*
X73000000Y-128500000D02*
X68500000Y-128500000D01*
X74250000Y-132500000D02*
X74250000Y-131000000D01*
%TO.C,S5*%
X106250000Y-131000000D02*
X106250000Y-132500000D01*
X107500000Y-135000000D02*
X112000000Y-135000000D01*
X112000000Y-128500000D02*
X107500000Y-128500000D01*
X113250000Y-132500000D02*
X113250000Y-131000000D01*
%TO.C,S15*%
X34750000Y-15500000D02*
X34750000Y-17000000D01*
X36000000Y-19500000D02*
X40500000Y-19500000D01*
X40500000Y-13000000D02*
X36000000Y-13000000D01*
X41750000Y-17000000D02*
X41750000Y-15500000D01*
%TO.C,J11*%
X111620000Y-7120000D02*
X113000000Y-7120000D01*
X111620000Y-8500000D02*
X111620000Y-7120000D01*
X111620000Y-9770000D02*
X111620000Y-9880000D01*
X111620000Y-9770000D02*
X114380000Y-9770000D01*
X111620000Y-9880000D02*
X114380000Y-9880000D01*
X114380000Y-9770000D02*
X114380000Y-9880000D01*
%TO.C,S12*%
X93250000Y-15500000D02*
X93250000Y-17000000D01*
X94500000Y-19500000D02*
X99000000Y-19500000D01*
X99000000Y-13000000D02*
X94500000Y-13000000D01*
X100250000Y-17000000D02*
X100250000Y-15500000D01*
%TO.C,S14*%
X54250000Y-15500000D02*
X54250000Y-17000000D01*
X55500000Y-19500000D02*
X60000000Y-19500000D01*
X60000000Y-13000000D02*
X55500000Y-13000000D01*
X61250000Y-17000000D02*
X61250000Y-15500000D01*
%TO.C,J_CON*%
X126120000Y-19120000D02*
X127500000Y-19120000D01*
X126120000Y-20500000D02*
X126120000Y-19120000D01*
X126120000Y-21770000D02*
X126120000Y-21880000D01*
X126120000Y-21770000D02*
X128880000Y-21770000D01*
X126120000Y-21880000D02*
X128880000Y-21880000D01*
X128880000Y-21770000D02*
X128880000Y-21880000D01*
%TO.C,S7*%
X128500000Y-94500000D02*
X128500000Y-99000000D01*
X131000000Y-100250000D02*
X132500000Y-100250000D01*
X132500000Y-93250000D02*
X131000000Y-93250000D01*
X135000000Y-99000000D02*
X135000000Y-94500000D01*
%TO.C,J_BRT*%
X19120000Y-19120000D02*
X20500000Y-19120000D01*
X19120000Y-20500000D02*
X19120000Y-19120000D01*
X19120000Y-21770000D02*
X19120000Y-21880000D01*
X19120000Y-21770000D02*
X21880000Y-21770000D01*
X19120000Y-21880000D02*
X21880000Y-21880000D01*
X21880000Y-21770000D02*
X21880000Y-21880000D01*
%TO.C,SW3*%
X25750000Y-27500000D02*
X25750000Y-29000000D01*
X27000000Y-31500000D02*
X31500000Y-31500000D01*
X31500000Y-25000000D02*
X27000000Y-25000000D01*
X32750000Y-29000000D02*
X32750000Y-27500000D01*
%TO.C,S1*%
X28250000Y-131000000D02*
X28250000Y-132500000D01*
X29500000Y-135000000D02*
X34000000Y-135000000D01*
X34000000Y-128500000D02*
X29500000Y-128500000D01*
X35250000Y-132500000D02*
X35250000Y-131000000D01*
%TO.C,J_SYM*%
X126120000Y-126120000D02*
X127500000Y-126120000D01*
X126120000Y-127500000D02*
X126120000Y-126120000D01*
X126120000Y-128770000D02*
X126120000Y-128880000D01*
X126120000Y-128770000D02*
X128880000Y-128770000D01*
X126120000Y-128880000D02*
X128880000Y-128880000D01*
X128880000Y-128770000D02*
X128880000Y-128880000D01*
%TO.C,S19*%
X13000000Y-88000000D02*
X13000000Y-92500000D01*
X15500000Y-93750000D02*
X17000000Y-93750000D01*
X17000000Y-86750000D02*
X15500000Y-86750000D01*
X19500000Y-92500000D02*
X19500000Y-88000000D01*
%TO.C,J3*%
X72620000Y-138120000D02*
X74000000Y-138120000D01*
X72620000Y-139500000D02*
X72620000Y-138120000D01*
X72620000Y-140770000D02*
X72620000Y-140880000D01*
X72620000Y-140770000D02*
X75380000Y-140770000D01*
X72620000Y-140880000D02*
X75380000Y-140880000D01*
X75380000Y-140770000D02*
X75380000Y-140880000D01*
%TO.C,J19*%
X7120000Y-92120000D02*
X8500000Y-92120000D01*
X7120000Y-93500000D02*
X7120000Y-92120000D01*
X7120000Y-94770000D02*
X7120000Y-94880000D01*
X7120000Y-94770000D02*
X9880000Y-94770000D01*
X7120000Y-94880000D02*
X9880000Y-94880000D01*
X9880000Y-94770000D02*
X9880000Y-94880000D01*
%TO.C,S10*%
X128500000Y-36000000D02*
X128500000Y-40500000D01*
X131000000Y-41750000D02*
X132500000Y-41750000D01*
X132500000Y-34750000D02*
X131000000Y-34750000D01*
X135000000Y-40500000D02*
X135000000Y-36000000D01*
%TO.C,J9*%
X138120000Y-53120000D02*
X139500000Y-53120000D01*
X138120000Y-54500000D02*
X138120000Y-53120000D01*
X138120000Y-55770000D02*
X138120000Y-55880000D01*
X138120000Y-55770000D02*
X140880000Y-55770000D01*
X138120000Y-55880000D02*
X140880000Y-55880000D01*
X140880000Y-55770000D02*
X140880000Y-55880000D01*
%TO.C,J17*%
X7120000Y-53120000D02*
X8500000Y-53120000D01*
X7120000Y-54500000D02*
X7120000Y-53120000D01*
X7120000Y-55770000D02*
X7120000Y-55880000D01*
X7120000Y-55770000D02*
X9880000Y-55770000D01*
X7120000Y-55880000D02*
X9880000Y-55880000D01*
X9880000Y-55770000D02*
X9880000Y-55880000D01*
%TO.C,S9*%
X128500000Y-55500000D02*
X128500000Y-60000000D01*
X131000000Y-61250000D02*
X132500000Y-61250000D01*
X132500000Y-54250000D02*
X131000000Y-54250000D01*
X135000000Y-60000000D02*
X135000000Y-55500000D01*
%TO.C,S11*%
X112750000Y-15500000D02*
X112750000Y-17000000D01*
X114000000Y-19500000D02*
X118500000Y-19500000D01*
X118500000Y-13000000D02*
X114000000Y-13000000D01*
X119750000Y-17000000D02*
X119750000Y-15500000D01*
%TO.C,J18*%
X7120000Y-72620000D02*
X8500000Y-72620000D01*
X7120000Y-74000000D02*
X7120000Y-72620000D01*
X7120000Y-75270000D02*
X7120000Y-75380000D01*
X7120000Y-75270000D02*
X9880000Y-75270000D01*
X7120000Y-75380000D02*
X9880000Y-75380000D01*
X9880000Y-75270000D02*
X9880000Y-75380000D01*
%TO.C,J14*%
X53120000Y-7120000D02*
X54500000Y-7120000D01*
X53120000Y-8500000D02*
X53120000Y-7120000D01*
X53120000Y-9770000D02*
X53120000Y-9880000D01*
X53120000Y-9770000D02*
X55880000Y-9770000D01*
X53120000Y-9880000D02*
X55880000Y-9880000D01*
X55880000Y-9770000D02*
X55880000Y-9880000D01*
%TO.C,S16*%
X13000000Y-29500000D02*
X13000000Y-34000000D01*
X15500000Y-35250000D02*
X17000000Y-35250000D01*
X17000000Y-28250000D02*
X15500000Y-28250000D01*
X19500000Y-34000000D02*
X19500000Y-29500000D01*
%TO.C,J10*%
X138120000Y-33620000D02*
X139500000Y-33620000D01*
X138120000Y-35000000D02*
X138120000Y-33620000D01*
X138120000Y-36270000D02*
X138120000Y-36380000D01*
X138120000Y-36270000D02*
X140880000Y-36270000D01*
X138120000Y-36380000D02*
X140880000Y-36380000D01*
X140880000Y-36270000D02*
X140880000Y-36380000D01*
%TO.C,J5*%
X111620000Y-138120000D02*
X113000000Y-138120000D01*
X111620000Y-139500000D02*
X111620000Y-138120000D01*
X111620000Y-140770000D02*
X111620000Y-140880000D01*
X111620000Y-140770000D02*
X114380000Y-140770000D01*
X111620000Y-140880000D02*
X114380000Y-140880000D01*
X114380000Y-140770000D02*
X114380000Y-140880000D01*
%TO.C,S20*%
X13000000Y-107500000D02*
X13000000Y-112000000D01*
X15500000Y-113250000D02*
X17000000Y-113250000D01*
X17000000Y-106250000D02*
X15500000Y-106250000D01*
X19500000Y-112000000D02*
X19500000Y-107500000D01*
%TO.C,S2*%
X47750000Y-131000000D02*
X47750000Y-132500000D01*
X49000000Y-135000000D02*
X53500000Y-135000000D01*
X53500000Y-128500000D02*
X49000000Y-128500000D01*
X54750000Y-132500000D02*
X54750000Y-131000000D01*
%TO.C,SW4*%
X121750000Y-27500000D02*
X121750000Y-29000000D01*
X123000000Y-31500000D02*
X127500000Y-31500000D01*
X127500000Y-25000000D02*
X123000000Y-25000000D01*
X128750000Y-29000000D02*
X128750000Y-27500000D01*
%TO.C,J7*%
X138120000Y-92120000D02*
X139500000Y-92120000D01*
X138120000Y-93500000D02*
X138120000Y-92120000D01*
X138120000Y-94770000D02*
X138120000Y-94880000D01*
X138120000Y-94770000D02*
X140880000Y-94770000D01*
X138120000Y-94880000D02*
X140880000Y-94880000D01*
X140880000Y-94770000D02*
X140880000Y-94880000D01*
%TO.C,SW1*%
X25750000Y-123500000D02*
X25750000Y-125000000D01*
X27000000Y-127500000D02*
X31500000Y-127500000D01*
X31500000Y-121000000D02*
X27000000Y-121000000D01*
X32750000Y-125000000D02*
X32750000Y-123500000D01*
%TO.C,J8*%
X138120000Y-72620000D02*
X139500000Y-72620000D01*
X138120000Y-74000000D02*
X138120000Y-72620000D01*
X138120000Y-75270000D02*
X138120000Y-75380000D01*
X138120000Y-75270000D02*
X140880000Y-75270000D01*
X138120000Y-75380000D02*
X140880000Y-75380000D01*
X140880000Y-75270000D02*
X140880000Y-75380000D01*
%TO.C,J16*%
X7120000Y-33620000D02*
X8500000Y-33620000D01*
X7120000Y-35000000D02*
X7120000Y-33620000D01*
X7120000Y-36270000D02*
X7120000Y-36380000D01*
X7120000Y-36270000D02*
X9880000Y-36270000D01*
X7120000Y-36380000D02*
X9880000Y-36380000D01*
X9880000Y-36270000D02*
X9880000Y-36380000D01*
%TO.C,J2*%
X53120000Y-138120000D02*
X54500000Y-138120000D01*
X53120000Y-139500000D02*
X53120000Y-138120000D01*
X53120000Y-140770000D02*
X53120000Y-140880000D01*
X53120000Y-140770000D02*
X55880000Y-140770000D01*
X53120000Y-140880000D02*
X55880000Y-140880000D01*
X55880000Y-140770000D02*
X55880000Y-140880000D01*
%TO.C,J1*%
X33620000Y-138120000D02*
X35000000Y-138120000D01*
X33620000Y-139500000D02*
X33620000Y-138120000D01*
X33620000Y-140770000D02*
X33620000Y-140880000D01*
X33620000Y-140770000D02*
X36380000Y-140770000D01*
X33620000Y-140880000D02*
X36380000Y-140880000D01*
X36380000Y-140770000D02*
X36380000Y-140880000D01*
%TO.C,SW2*%
X121750000Y-123500000D02*
X121750000Y-125000000D01*
X123000000Y-127500000D02*
X127500000Y-127500000D01*
X127500000Y-121000000D02*
X123000000Y-121000000D01*
X128750000Y-125000000D02*
X128750000Y-123500000D01*
%TO.C,J_GAIN*%
X19120000Y-126120000D02*
X20500000Y-126120000D01*
X19120000Y-127500000D02*
X19120000Y-126120000D01*
X19120000Y-128770000D02*
X19120000Y-128880000D01*
X19120000Y-128770000D02*
X21880000Y-128770000D01*
X19120000Y-128880000D02*
X21880000Y-128880000D01*
X21880000Y-128770000D02*
X21880000Y-128880000D01*
%TO.C,S18*%
X13000000Y-68500000D02*
X13000000Y-73000000D01*
X15500000Y-74250000D02*
X17000000Y-74250000D01*
X17000000Y-67250000D02*
X15500000Y-67250000D01*
X19500000Y-73000000D02*
X19500000Y-68500000D01*
%TO.C,J4*%
X92120000Y-138120000D02*
X93500000Y-138120000D01*
X92120000Y-139500000D02*
X92120000Y-138120000D01*
X92120000Y-140770000D02*
X92120000Y-140880000D01*
X92120000Y-140770000D02*
X94880000Y-140770000D01*
X92120000Y-140880000D02*
X94880000Y-140880000D01*
X94880000Y-140770000D02*
X94880000Y-140880000D01*
%TD*%
%LPC*%
D12*
%TO.C,S6*%
X134000000Y-113000000D03*
X134000000Y-119500000D03*
X129500000Y-113000000D03*
X129500000Y-119500000D03*
%TD*%
D13*
%TO.C,J6*%
X139500000Y-113000000D03*
%TD*%
D12*
%TO.C,S4*%
X93500000Y-134000000D03*
X87000000Y-134000000D03*
X93500000Y-129500000D03*
X87000000Y-129500000D03*
%TD*%
D13*
%TO.C,J15*%
X35000000Y-8500000D03*
%TD*%
D12*
%TO.C,S13*%
X74000000Y-14000000D03*
X80500000Y-14000000D03*
X74000000Y-18500000D03*
X80500000Y-18500000D03*
%TD*%
D13*
%TO.C,J_GND*%
X74000000Y-20000000D03*
D14*
X74000000Y-22540000D03*
%TD*%
D13*
%TO.C,J13*%
X74000000Y-8500000D03*
%TD*%
D12*
%TO.C,S17*%
X14000000Y-54500000D03*
X14000000Y-48000000D03*
X18500000Y-54500000D03*
X18500000Y-48000000D03*
%TD*%
D13*
%TO.C,J20*%
X8500000Y-113000000D03*
%TD*%
D15*
%TO.C,H2*%
X132000000Y-16000000D03*
%TD*%
D12*
%TO.C,S8*%
X134000000Y-74000000D03*
X134000000Y-80500000D03*
X129500000Y-74000000D03*
X129500000Y-80500000D03*
%TD*%
D13*
%TO.C,J12*%
X93500000Y-8500000D03*
%TD*%
D12*
%TO.C,S3*%
X74000000Y-134000000D03*
X67500000Y-134000000D03*
X74000000Y-129500000D03*
X67500000Y-129500000D03*
%TD*%
%TO.C,S5*%
X113000000Y-134000000D03*
X106500000Y-134000000D03*
X113000000Y-129500000D03*
X106500000Y-129500000D03*
%TD*%
%TO.C,S15*%
X35000000Y-14000000D03*
X41500000Y-14000000D03*
X35000000Y-18500000D03*
X41500000Y-18500000D03*
%TD*%
D13*
%TO.C,J11*%
X113000000Y-8500000D03*
%TD*%
D12*
%TO.C,S12*%
X93500000Y-14000000D03*
X100000000Y-14000000D03*
X93500000Y-18500000D03*
X100000000Y-18500000D03*
%TD*%
%TO.C,S14*%
X54500000Y-14000000D03*
X61000000Y-14000000D03*
X54500000Y-18500000D03*
X61000000Y-18500000D03*
%TD*%
D13*
%TO.C,J_CON*%
X127500000Y-20500000D03*
%TD*%
D12*
%TO.C,S7*%
X134000000Y-93500000D03*
X134000000Y-100000000D03*
X129500000Y-93500000D03*
X129500000Y-100000000D03*
%TD*%
D13*
%TO.C,J_BRT*%
X20500000Y-20500000D03*
%TD*%
D12*
%TO.C,SW3*%
X26000000Y-26000000D03*
X32500000Y-26000000D03*
X26000000Y-30500000D03*
X32500000Y-30500000D03*
%TD*%
%TO.C,S1*%
X35000000Y-134000000D03*
X28500000Y-134000000D03*
X35000000Y-129500000D03*
X28500000Y-129500000D03*
%TD*%
D13*
%TO.C,J_SYM*%
X127500000Y-127500000D03*
%TD*%
D12*
%TO.C,S19*%
X14000000Y-93500000D03*
X14000000Y-87000000D03*
X18500000Y-93500000D03*
X18500000Y-87000000D03*
%TD*%
D13*
%TO.C,J3*%
X74000000Y-139500000D03*
%TD*%
%TO.C,J19*%
X8500000Y-93500000D03*
%TD*%
D12*
%TO.C,S10*%
X134000000Y-35000000D03*
X134000000Y-41500000D03*
X129500000Y-35000000D03*
X129500000Y-41500000D03*
%TD*%
D13*
%TO.C,J9*%
X139500000Y-54500000D03*
%TD*%
%TO.C,J17*%
X8500000Y-54500000D03*
%TD*%
D12*
%TO.C,S9*%
X134000000Y-54500000D03*
X134000000Y-61000000D03*
X129500000Y-54500000D03*
X129500000Y-61000000D03*
%TD*%
%TO.C,S11*%
X113000000Y-14000000D03*
X119500000Y-14000000D03*
X113000000Y-18500000D03*
X119500000Y-18500000D03*
%TD*%
D13*
%TO.C,J18*%
X8500000Y-74000000D03*
%TD*%
%TO.C,J14*%
X54500000Y-8500000D03*
%TD*%
D12*
%TO.C,S16*%
X14000000Y-35000000D03*
X14000000Y-28500000D03*
X18500000Y-35000000D03*
X18500000Y-28500000D03*
%TD*%
D15*
%TO.C,H3*%
X132000000Y-132000000D03*
%TD*%
D13*
%TO.C,J10*%
X139500000Y-35000000D03*
%TD*%
%TO.C,J5*%
X113000000Y-139500000D03*
%TD*%
D12*
%TO.C,S20*%
X14000000Y-113000000D03*
X14000000Y-106500000D03*
X18500000Y-113000000D03*
X18500000Y-106500000D03*
%TD*%
%TO.C,S2*%
X54500000Y-134000000D03*
X48000000Y-134000000D03*
X54500000Y-129500000D03*
X48000000Y-129500000D03*
%TD*%
%TO.C,SW4*%
X122000000Y-26000000D03*
X128500000Y-26000000D03*
X122000000Y-30500000D03*
X128500000Y-30500000D03*
%TD*%
D13*
%TO.C,J7*%
X139500000Y-93500000D03*
%TD*%
D12*
%TO.C,SW1*%
X26000000Y-122000000D03*
X32500000Y-122000000D03*
X26000000Y-126500000D03*
X32500000Y-126500000D03*
%TD*%
D13*
%TO.C,J8*%
X139500000Y-74000000D03*
%TD*%
D15*
%TO.C,H4*%
X16000000Y-132000000D03*
%TD*%
D13*
%TO.C,J16*%
X8500000Y-35000000D03*
%TD*%
%TO.C,J2*%
X54500000Y-139500000D03*
%TD*%
%TO.C,J1*%
X35000000Y-139500000D03*
%TD*%
D15*
%TO.C,H1*%
X16000000Y-16000000D03*
%TD*%
D12*
%TO.C,SW2*%
X122000000Y-122000000D03*
X128500000Y-122000000D03*
X122000000Y-126500000D03*
X128500000Y-126500000D03*
%TD*%
D13*
%TO.C,J_GAIN*%
X20500000Y-127500000D03*
%TD*%
D12*
%TO.C,S18*%
X14000000Y-74000000D03*
X14000000Y-67500000D03*
X18500000Y-74000000D03*
X18500000Y-67500000D03*
%TD*%
D13*
%TO.C,J4*%
X93500000Y-139500000D03*
%TD*%
%LPD*%
M02*
