%TF.GenerationSoftware,KiCad,Pcbnew,10.0.4*%
%TF.CreationDate,2026-07-22T10:10:36-04:00*%
%TF.ProjectId,cmfd-board-a,636d6664-2d62-46f6-9172-642d612e6b69,rev?*%
%TF.SameCoordinates,Original*%
%TF.FileFunction,Copper,L1,Top*%
%TF.FilePolarity,Positive*%
%FSLAX46Y46*%
G04 Gerber Fmt 4.6, Leading zero omitted, Abs format (unit mm)*
G04 Created by KiCad (PCBNEW 10.0.4) date 2026-07-22 10:10:36*
%MOMM*%
%LPD*%
G01*
G04 APERTURE LIST*
%TA.AperFunction,ComponentPad*%
%ADD10C,2.000000*%
%TD*%
%TA.AperFunction,ComponentPad*%
%ADD11R,1.700000X1.700000*%
%TD*%
%TA.AperFunction,ComponentPad*%
%ADD12C,1.700000*%
%TD*%
%TA.AperFunction,Conductor*%
%ADD13C,0.250000*%
%TD*%
%TA.AperFunction,Conductor*%
%ADD14C,0.300000*%
%TD*%
%TA.AperFunction,Conductor*%
%ADD15C,0.400000*%
%TD*%
%TA.AperFunction,Conductor*%
%ADD16C,0.350000*%
%TD*%
G04 APERTURE END LIST*
D10*
%TO.P,S6,1*%
%TO.N,OSB6*%
X134000000Y-113000000D03*
X134000000Y-119500000D03*
%TO.P,S6,2*%
%TO.N,GND*%
X129500000Y-113000000D03*
X129500000Y-119500000D03*
%TD*%
D11*
%TO.P,J6,1*%
%TO.N,OSB6*%
X139500000Y-113000000D03*
%TD*%
D10*
%TO.P,S4,1*%
%TO.N,OSB4*%
X93500000Y-134000000D03*
X87000000Y-134000000D03*
%TO.P,S4,2*%
%TO.N,GND*%
X93500000Y-129500000D03*
X87000000Y-129500000D03*
%TD*%
D11*
%TO.P,J15,1*%
%TO.N,OSB15*%
X35000000Y-8500000D03*
%TD*%
D10*
%TO.P,S13,1*%
%TO.N,OSB13*%
X74000000Y-14000000D03*
X80500000Y-14000000D03*
%TO.P,S13,2*%
%TO.N,GND*%
X74000000Y-18500000D03*
X80500000Y-18500000D03*
%TD*%
D11*
%TO.P,J_GND,1*%
%TO.N,GND*%
X74000000Y-20000000D03*
D12*
%TO.P,J_GND,2*%
X74000000Y-22540000D03*
%TD*%
D11*
%TO.P,J13,1*%
%TO.N,OSB13*%
X74000000Y-8500000D03*
%TD*%
D10*
%TO.P,S17,1*%
%TO.N,OSB17*%
X14000000Y-54500000D03*
X14000000Y-48000000D03*
%TO.P,S17,2*%
%TO.N,GND*%
X18500000Y-54500000D03*
X18500000Y-48000000D03*
%TD*%
D11*
%TO.P,J20,1*%
%TO.N,OSB20*%
X8500000Y-113000000D03*
%TD*%
D10*
%TO.P,S8,1*%
%TO.N,OSB8*%
X134000000Y-74000000D03*
X134000000Y-80500000D03*
%TO.P,S8,2*%
%TO.N,GND*%
X129500000Y-74000000D03*
X129500000Y-80500000D03*
%TD*%
D11*
%TO.P,J12,1*%
%TO.N,OSB12*%
X93500000Y-8500000D03*
%TD*%
D10*
%TO.P,S3,1*%
%TO.N,OSB3*%
X74000000Y-134000000D03*
X67500000Y-134000000D03*
%TO.P,S3,2*%
%TO.N,GND*%
X74000000Y-129500000D03*
X67500000Y-129500000D03*
%TD*%
%TO.P,S5,1*%
%TO.N,OSB5*%
X113000000Y-134000000D03*
X106500000Y-134000000D03*
%TO.P,S5,2*%
%TO.N,GND*%
X113000000Y-129500000D03*
X106500000Y-129500000D03*
%TD*%
%TO.P,S15,1*%
%TO.N,OSB15*%
X35000000Y-14000000D03*
X41500000Y-14000000D03*
%TO.P,S15,2*%
%TO.N,GND*%
X35000000Y-18500000D03*
X41500000Y-18500000D03*
%TD*%
D11*
%TO.P,J11,1*%
%TO.N,OSB11*%
X113000000Y-8500000D03*
%TD*%
D10*
%TO.P,S12,1*%
%TO.N,OSB12*%
X93500000Y-14000000D03*
X100000000Y-14000000D03*
%TO.P,S12,2*%
%TO.N,GND*%
X93500000Y-18500000D03*
X100000000Y-18500000D03*
%TD*%
%TO.P,S14,1*%
%TO.N,OSB14*%
X54500000Y-14000000D03*
X61000000Y-14000000D03*
%TO.P,S14,2*%
%TO.N,GND*%
X54500000Y-18500000D03*
X61000000Y-18500000D03*
%TD*%
D11*
%TO.P,J_CON,1*%
%TO.N,RK_CON*%
X127500000Y-20500000D03*
%TD*%
D10*
%TO.P,S7,1*%
%TO.N,OSB7*%
X134000000Y-93500000D03*
X134000000Y-100000000D03*
%TO.P,S7,2*%
%TO.N,GND*%
X129500000Y-93500000D03*
X129500000Y-100000000D03*
%TD*%
D11*
%TO.P,J_BRT,1*%
%TO.N,RK_BRT*%
X20500000Y-20500000D03*
%TD*%
D10*
%TO.P,SW3,1*%
%TO.N,RK_BRT*%
X26000000Y-26000000D03*
X32500000Y-26000000D03*
%TO.P,SW3,2*%
%TO.N,GND*%
X26000000Y-30500000D03*
X32500000Y-30500000D03*
%TD*%
%TO.P,S1,1*%
%TO.N,OSB1*%
X35000000Y-134000000D03*
X28500000Y-134000000D03*
%TO.P,S1,2*%
%TO.N,GND*%
X35000000Y-129500000D03*
X28500000Y-129500000D03*
%TD*%
D11*
%TO.P,J_SYM,1*%
%TO.N,RK_SYM*%
X127500000Y-127500000D03*
%TD*%
D10*
%TO.P,S19,1*%
%TO.N,OSB19*%
X14000000Y-93500000D03*
X14000000Y-87000000D03*
%TO.P,S19,2*%
%TO.N,GND*%
X18500000Y-93500000D03*
X18500000Y-87000000D03*
%TD*%
D11*
%TO.P,J3,1*%
%TO.N,OSB3*%
X74000000Y-139500000D03*
%TD*%
%TO.P,J19,1*%
%TO.N,OSB19*%
X8500000Y-93500000D03*
%TD*%
D10*
%TO.P,S10,1*%
%TO.N,OSB10*%
X134000000Y-35000000D03*
X134000000Y-41500000D03*
%TO.P,S10,2*%
%TO.N,GND*%
X129500000Y-35000000D03*
X129500000Y-41500000D03*
%TD*%
D11*
%TO.P,J9,1*%
%TO.N,OSB9*%
X139500000Y-54500000D03*
%TD*%
%TO.P,J17,1*%
%TO.N,OSB17*%
X8500000Y-54500000D03*
%TD*%
D10*
%TO.P,S9,1*%
%TO.N,OSB9*%
X134000000Y-54500000D03*
X134000000Y-61000000D03*
%TO.P,S9,2*%
%TO.N,GND*%
X129500000Y-54500000D03*
X129500000Y-61000000D03*
%TD*%
%TO.P,S11,1*%
%TO.N,OSB11*%
X113000000Y-14000000D03*
X119500000Y-14000000D03*
%TO.P,S11,2*%
%TO.N,GND*%
X113000000Y-18500000D03*
X119500000Y-18500000D03*
%TD*%
D11*
%TO.P,J18,1*%
%TO.N,OSB18*%
X8500000Y-74000000D03*
%TD*%
%TO.P,J14,1*%
%TO.N,OSB14*%
X54500000Y-8500000D03*
%TD*%
D10*
%TO.P,S16,1*%
%TO.N,OSB16*%
X14000000Y-35000000D03*
X14000000Y-28500000D03*
%TO.P,S16,2*%
%TO.N,GND*%
X18500000Y-35000000D03*
X18500000Y-28500000D03*
%TD*%
D11*
%TO.P,J10,1*%
%TO.N,OSB10*%
X139500000Y-35000000D03*
%TD*%
%TO.P,J5,1*%
%TO.N,OSB5*%
X113000000Y-139500000D03*
%TD*%
D10*
%TO.P,S20,1*%
%TO.N,OSB20*%
X14000000Y-113000000D03*
X14000000Y-106500000D03*
%TO.P,S20,2*%
%TO.N,GND*%
X18500000Y-113000000D03*
X18500000Y-106500000D03*
%TD*%
%TO.P,S2,1*%
%TO.N,OSB2*%
X54500000Y-134000000D03*
X48000000Y-134000000D03*
%TO.P,S2,2*%
%TO.N,GND*%
X54500000Y-129500000D03*
X48000000Y-129500000D03*
%TD*%
%TO.P,SW4,1*%
%TO.N,RK_CON*%
X122000000Y-26000000D03*
X128500000Y-26000000D03*
%TO.P,SW4,2*%
%TO.N,GND*%
X122000000Y-30500000D03*
X128500000Y-30500000D03*
%TD*%
D11*
%TO.P,J7,1*%
%TO.N,OSB7*%
X139500000Y-93500000D03*
%TD*%
D10*
%TO.P,SW1,1*%
%TO.N,RK_GAIN*%
X26000000Y-122000000D03*
X32500000Y-122000000D03*
%TO.P,SW1,2*%
%TO.N,GND*%
X26000000Y-126500000D03*
X32500000Y-126500000D03*
%TD*%
D11*
%TO.P,J8,1*%
%TO.N,OSB8*%
X139500000Y-74000000D03*
%TD*%
%TO.P,J16,1*%
%TO.N,OSB16*%
X8500000Y-35000000D03*
%TD*%
%TO.P,J2,1*%
%TO.N,OSB2*%
X54500000Y-139500000D03*
%TD*%
%TO.P,J1,1*%
%TO.N,OSB1*%
X35000000Y-139500000D03*
%TD*%
D10*
%TO.P,SW2,1*%
%TO.N,RK_SYM*%
X122000000Y-122000000D03*
X128500000Y-122000000D03*
%TO.P,SW2,2*%
%TO.N,GND*%
X122000000Y-126500000D03*
X128500000Y-126500000D03*
%TD*%
D11*
%TO.P,J_GAIN,1*%
%TO.N,RK_GAIN*%
X20500000Y-127500000D03*
%TD*%
D10*
%TO.P,S18,1*%
%TO.N,OSB18*%
X14000000Y-74000000D03*
X14000000Y-67500000D03*
%TO.P,S18,2*%
%TO.N,GND*%
X18500000Y-74000000D03*
X18500000Y-67500000D03*
%TD*%
D11*
%TO.P,J4,1*%
%TO.N,OSB4*%
X93500000Y-139500000D03*
%TD*%
%TO.N,OSB6*%
D13*
X134000000Y-113000000D02*
X134000000Y-119500000D01*
D14*
X134000000Y-113000000D02*
X139500000Y-113000000D01*
%TO.N,GND*%
D15*
X35000000Y-129500000D02*
X54500000Y-129500000D01*
X74000000Y-129500000D02*
X93500000Y-129500000D01*
D13*
X18500000Y-113000000D02*
X18500000Y-106500000D01*
D15*
X129500000Y-54500000D02*
X129500000Y-35000000D01*
D16*
X26000000Y-30500000D02*
X35000000Y-18500000D01*
D13*
X122000000Y-126500000D02*
X128500000Y-126500000D01*
D15*
X18500000Y-93500000D02*
X18500000Y-74000000D01*
D13*
X122000000Y-30500000D02*
X128500000Y-30500000D01*
X18500000Y-74000000D02*
X18500000Y-67500000D01*
X26000000Y-30500000D02*
X32500000Y-30500000D01*
D15*
X74000000Y-18500000D02*
X93500000Y-18500000D01*
D13*
X18500000Y-35000000D02*
X18500000Y-28500000D01*
D15*
X74000000Y-18500000D02*
X74000000Y-20000000D01*
D13*
X113000000Y-18500000D02*
X119500000Y-18500000D01*
X74000000Y-129500000D02*
X67500000Y-129500000D01*
X74000000Y-18500000D02*
X80500000Y-18500000D01*
X26000000Y-126500000D02*
X32500000Y-126500000D01*
X54500000Y-129500000D02*
X48000000Y-129500000D01*
X129500000Y-93500000D02*
X129500000Y-100000000D01*
D15*
X18500000Y-74000000D02*
X18500000Y-54500000D01*
D13*
X113000000Y-129500000D02*
X106500000Y-129500000D01*
D15*
X93500000Y-18500000D02*
X113000000Y-18500000D01*
D13*
X35000000Y-18500000D02*
X41500000Y-18500000D01*
D15*
X129500000Y-93500000D02*
X129500000Y-74000000D01*
X93500000Y-129500000D02*
X113000000Y-129500000D01*
D13*
X129500000Y-74000000D02*
X129500000Y-80500000D01*
X129500000Y-113000000D02*
X129500000Y-119500000D01*
D15*
X54500000Y-129500000D02*
X74000000Y-129500000D01*
D16*
X122000000Y-30500000D02*
X113000000Y-18500000D01*
D13*
X93500000Y-18500000D02*
X100000000Y-18500000D01*
D15*
X35000000Y-18500000D02*
X54500000Y-18500000D01*
X54500000Y-18500000D02*
X74000000Y-18500000D01*
X129500000Y-113000000D02*
X129500000Y-93500000D01*
D13*
X35000000Y-129500000D02*
X28500000Y-129500000D01*
X93500000Y-129500000D02*
X87000000Y-129500000D01*
X129500000Y-35000000D02*
X129500000Y-41500000D01*
X18500000Y-93500000D02*
X18500000Y-87000000D01*
D15*
X129500000Y-74000000D02*
X129500000Y-54500000D01*
D16*
X26000000Y-126500000D02*
X35000000Y-129500000D01*
X122000000Y-126500000D02*
X113000000Y-129500000D01*
D13*
X18500000Y-54500000D02*
X18500000Y-48000000D01*
X129500000Y-54500000D02*
X129500000Y-61000000D01*
D15*
X18500000Y-54500000D02*
X18500000Y-35000000D01*
D13*
X54500000Y-18500000D02*
X61000000Y-18500000D01*
D15*
X18500000Y-113000000D02*
X18500000Y-93500000D01*
%TO.N,OSB4*%
D13*
X93500000Y-134000000D02*
X87000000Y-134000000D01*
D14*
X93500000Y-134000000D02*
X93500000Y-139500000D01*
%TO.N,OSB15*%
X35000000Y-14000000D02*
X35000000Y-8500000D01*
D13*
X35000000Y-14000000D02*
X41500000Y-14000000D01*
%TO.N,OSB13*%
X74000000Y-14000000D02*
X80500000Y-14000000D01*
D14*
X74000000Y-14000000D02*
X74000000Y-8500000D01*
%TO.N,OSB17*%
X14000000Y-54500000D02*
X8500000Y-54500000D01*
D13*
X14000000Y-54500000D02*
X14000000Y-48000000D01*
%TO.N,OSB20*%
D14*
X14000000Y-113000000D02*
X8500000Y-113000000D01*
D13*
X14000000Y-113000000D02*
X14000000Y-106500000D01*
%TO.N,OSB8*%
X134000000Y-74000000D02*
X134000000Y-80500000D01*
D14*
X134000000Y-74000000D02*
X139500000Y-74000000D01*
%TO.N,OSB12*%
X93500000Y-14000000D02*
X93500000Y-8500000D01*
D13*
X93500000Y-14000000D02*
X100000000Y-14000000D01*
%TO.N,OSB3*%
X74000000Y-134000000D02*
X67500000Y-134000000D01*
D14*
X74000000Y-134000000D02*
X74000000Y-139500000D01*
%TO.N,OSB5*%
D13*
X113000000Y-134000000D02*
X106500000Y-134000000D01*
D14*
X113000000Y-134000000D02*
X113000000Y-139500000D01*
%TO.N,OSB11*%
X113000000Y-14000000D02*
X113000000Y-8500000D01*
D13*
X113000000Y-14000000D02*
X119500000Y-14000000D01*
%TO.N,OSB14*%
D14*
X54500000Y-14000000D02*
X54500000Y-8500000D01*
D13*
X54500000Y-14000000D02*
X61000000Y-14000000D01*
%TO.N,RK_CON*%
X122000000Y-26000000D02*
X128500000Y-26000000D01*
D14*
X128500000Y-26000000D02*
X127500000Y-20500000D01*
%TO.N,OSB7*%
D13*
X134000000Y-93500000D02*
X134000000Y-100000000D01*
D14*
X134000000Y-93500000D02*
X139500000Y-93500000D01*
%TO.N,RK_BRT*%
X26000000Y-26000000D02*
X20500000Y-20500000D01*
D13*
X26000000Y-26000000D02*
X32500000Y-26000000D01*
%TO.N,OSB1*%
D14*
X35000000Y-134000000D02*
X35000000Y-139500000D01*
D13*
X35000000Y-134000000D02*
X28500000Y-134000000D01*
%TO.N,RK_SYM*%
X122000000Y-122000000D02*
X128500000Y-122000000D01*
D14*
X128500000Y-122000000D02*
X127500000Y-127500000D01*
%TO.N,OSB19*%
X14000000Y-93500000D02*
X8500000Y-93500000D01*
D13*
X14000000Y-93500000D02*
X14000000Y-87000000D01*
%TO.N,OSB10*%
X134000000Y-35000000D02*
X134000000Y-41500000D01*
D14*
X134000000Y-35000000D02*
X139500000Y-35000000D01*
%TO.N,OSB9*%
X134000000Y-54500000D02*
X139500000Y-54500000D01*
D13*
X134000000Y-54500000D02*
X134000000Y-61000000D01*
%TO.N,OSB18*%
X14000000Y-74000000D02*
X14000000Y-67500000D01*
D14*
X14000000Y-74000000D02*
X8500000Y-74000000D01*
%TO.N,OSB16*%
D13*
X14000000Y-35000000D02*
X14000000Y-28500000D01*
D14*
X14000000Y-35000000D02*
X8500000Y-35000000D01*
%TO.N,OSB2*%
X54500000Y-134000000D02*
X54500000Y-139500000D01*
D13*
X54500000Y-134000000D02*
X48000000Y-134000000D01*
%TO.N,RK_GAIN*%
D14*
X26000000Y-122000000D02*
X20500000Y-127500000D01*
D13*
X26000000Y-122000000D02*
X32500000Y-122000000D01*
%TD*%
M02*
