M48
; DRILL file KiCad 10.0.4 date 2026-07-22T09:45:03
; FORMAT={-:-/ absolute / metric / decimal}
; #@! TF.CreationDate,2026-07-22T09:45:03-04:00
; #@! TF.GenerationSoftware,Kicad,Pcbnew,10.0.4
; #@! TF.FileFunction,MixedPlating,1,2
FMAT,2
METRIC
; #@! TA.AperFunction,Plated,PTH,ComponentDrill
T1C1.000
; #@! TA.AperFunction,Plated,PTH,ComponentDrill
T2C1.100
; #@! TA.AperFunction,Plated,PTH,ComponentDrill
T3C3.200
%
G90
G05
T1
X78.0Y-30.0
X78.0Y-32.54
X78.0Y-35.08
X78.0Y-37.62
X95.0Y-30.0
X95.0Y-32.54
X95.0Y-35.08
X95.0Y-37.62
X95.0Y-40.16
X95.0Y-42.7
X95.0Y-45.24
X95.0Y-47.78
X95.0Y-50.32
X95.0Y-52.86
X97.54Y-30.0
X97.54Y-32.54
X97.54Y-35.08
X97.54Y-37.62
X97.54Y-40.16
X97.54Y-42.7
X97.54Y-45.24
X97.54Y-47.78
X97.54Y-50.32
X97.54Y-52.86
T2
X13.5Y-34.0
X13.5Y-38.5
X13.5Y-52.0
X13.5Y-56.5
X13.5Y-70.0
X13.5Y-74.5
X13.5Y-88.0
X13.5Y-92.5
X13.5Y-106.0
X13.5Y-110.5
X20.0Y-34.0
X20.0Y-38.5
X20.0Y-52.0
X20.0Y-56.5
X20.0Y-70.0
X20.0Y-74.5
X20.0Y-88.0
X20.0Y-92.5
X20.0Y-106.0
X20.0Y-110.5
X22.0Y-22.0
X22.0Y-26.5
X22.0Y-118.0
X22.0Y-122.5
X28.5Y-22.0
X28.5Y-26.5
X28.5Y-118.0
X28.5Y-122.5
X34.0Y-13.5
X34.0Y-18.0
X34.0Y-126.5
X34.0Y-131.0
X40.5Y-13.5
X40.5Y-18.0
X40.5Y-126.5
X40.5Y-131.0
X52.0Y-13.5
X52.0Y-18.0
X52.0Y-126.5
X52.0Y-131.0
X58.5Y-13.5
X58.5Y-18.0
X58.5Y-126.5
X58.5Y-131.0
X70.0Y-13.5
X70.0Y-18.0
X70.0Y-126.5
X70.0Y-131.0
X76.5Y-13.5
X76.5Y-18.0
X76.5Y-126.5
X76.5Y-131.0
X88.0Y-13.5
X88.0Y-18.0
X88.0Y-126.5
X88.0Y-131.0
X94.5Y-13.5
X94.5Y-18.0
X94.5Y-126.5
X94.5Y-131.0
X106.0Y-13.5
X106.0Y-18.0
X106.0Y-126.5
X106.0Y-131.0
X112.5Y-13.5
X112.5Y-18.0
X112.5Y-126.5
X112.5Y-131.0
X118.0Y-22.0
X118.0Y-26.5
X118.0Y-118.0
X118.0Y-122.5
X124.5Y-22.0
X124.5Y-26.5
X124.5Y-118.0
X124.5Y-122.5
X126.5Y-34.0
X126.5Y-38.5
X126.5Y-52.0
X126.5Y-56.5
X126.5Y-70.0
X126.5Y-74.5
X126.5Y-88.0
X126.5Y-92.5
X126.5Y-106.0
X126.5Y-110.5
X133.0Y-34.0
X133.0Y-38.5
X133.0Y-52.0
X133.0Y-56.5
X133.0Y-70.0
X133.0Y-74.5
X133.0Y-88.0
X133.0Y-92.5
X133.0Y-106.0
X133.0Y-110.5
T3
X7.0Y-7.0
X7.0Y-133.0
X133.0Y-7.0
X133.0Y-133.0
M30
