%TF.GenerationSoftware,KiCad,Pcbnew,10.0.4*%
%TF.CreationDate,2026-07-22T09:45:02-04:00*%
%TF.ProjectId,cmfd-board-a,636d6664-2d62-46f6-9172-642d612e6b69,rev?*%
%TF.SameCoordinates,Original*%
%TF.FileFunction,Legend,Top*%
%TF.FilePolarity,Positive*%
%FSLAX46Y46*%
G04 Gerber Fmt 4.6, Leading zero omitted, Abs format (unit mm)*
G04 Created by KiCad (PCBNEW 10.0.4) date 2026-07-22 09:45:02*
%MOMM*%
%LPD*%
G01*
G04 APERTURE LIST*
G04 Aperture macros list*
%AMRoundRect*
0 Rectangle with rounded corners*
0 $1 Rounding radius*
0 $2 $3 $4 $5 $6 $7 $8 $9 X,Y pos of 4 corners*
0 Add a 4 corners polygon primitive as box body*
4,1,4,$2,$3,$4,$5,$6,$7,$8,$9,$2,$3,0*
0 Add four circle primitives for the rounded corners*
1,1,$1+$1,$2,$3*
1,1,$1+$1,$4,$5*
1,1,$1+$1,$6,$7*
1,1,$1+$1,$8,$9*
0 Add four rect primitives between the rounded corners*
20,1,$1+$1,$2,$3,$4,$5,0*
20,1,$1+$1,$4,$5,$6,$7,0*
20,1,$1+$1,$6,$7,$8,$9,0*
20,1,$1+$1,$8,$9,$2,$3,0*%
G04 Aperture macros list end*
%ADD10C,0.112499*%
%ADD11C,0.135000*%
%ADD12C,0.180000*%
%ADD13C,0.150000*%
%ADD14C,0.120000*%
%ADD15C,2.000000*%
%ADD16RoundRect,0.225000X-0.225000X-0.250000X0.225000X-0.250000X0.225000X0.250000X-0.225000X0.250000X0*%
%ADD17R,1.700000X1.700000*%
%ADD18C,1.700000*%
%ADD19C,6.400000*%
%ADD20RoundRect,0.150000X-0.512500X-0.150000X0.512500X-0.150000X0.512500X0.150000X-0.512500X0.150000X0*%
%ADD21RoundRect,0.075000X-0.662500X-0.075000X0.662500X-0.075000X0.662500X0.075000X-0.662500X0.075000X0*%
%ADD22RoundRect,0.075000X-0.075000X-0.662500X0.075000X-0.662500X0.075000X0.662500X-0.075000X0.662500X0*%
G04 APERTURE END LIST*
D10*
X17892857Y-28948257D02*
X18000000Y-28983971D01*
X18000000Y-28983971D02*
X18035714Y-29019685D01*
X18035714Y-29019685D02*
X18071428Y-29091114D01*
X18071428Y-29091114D02*
X18071428Y-29198257D01*
X18071428Y-29198257D02*
X18035714Y-29269685D01*
X18035714Y-29269685D02*
X18000000Y-29305400D01*
X18000000Y-29305400D02*
X17928571Y-29341114D01*
X17928571Y-29341114D02*
X17642857Y-29341114D01*
X17642857Y-29341114D02*
X17642857Y-28591114D01*
X17642857Y-28591114D02*
X17892857Y-28591114D01*
X17892857Y-28591114D02*
X17964286Y-28626828D01*
X17964286Y-28626828D02*
X18000000Y-28662542D01*
X18000000Y-28662542D02*
X18035714Y-28733971D01*
X18035714Y-28733971D02*
X18035714Y-28805400D01*
X18035714Y-28805400D02*
X18000000Y-28876828D01*
X18000000Y-28876828D02*
X17964286Y-28912542D01*
X17964286Y-28912542D02*
X17892857Y-28948257D01*
X17892857Y-28948257D02*
X17642857Y-28948257D01*
X18821428Y-29341114D02*
X18571428Y-28983971D01*
X18392857Y-29341114D02*
X18392857Y-28591114D01*
X18392857Y-28591114D02*
X18678571Y-28591114D01*
X18678571Y-28591114D02*
X18750000Y-28626828D01*
X18750000Y-28626828D02*
X18785714Y-28662542D01*
X18785714Y-28662542D02*
X18821428Y-28733971D01*
X18821428Y-28733971D02*
X18821428Y-28841114D01*
X18821428Y-28841114D02*
X18785714Y-28912542D01*
X18785714Y-28912542D02*
X18750000Y-28948257D01*
X18750000Y-28948257D02*
X18678571Y-28983971D01*
X18678571Y-28983971D02*
X18392857Y-28983971D01*
X19035714Y-28591114D02*
X19464286Y-28591114D01*
X19250000Y-29341114D02*
X19250000Y-28591114D01*
X17803571Y-124626828D02*
X17732143Y-124591114D01*
X17732143Y-124591114D02*
X17625000Y-124591114D01*
X17625000Y-124591114D02*
X17517857Y-124626828D01*
X17517857Y-124626828D02*
X17446428Y-124698257D01*
X17446428Y-124698257D02*
X17410714Y-124769685D01*
X17410714Y-124769685D02*
X17375000Y-124912542D01*
X17375000Y-124912542D02*
X17375000Y-125019685D01*
X17375000Y-125019685D02*
X17410714Y-125162542D01*
X17410714Y-125162542D02*
X17446428Y-125233971D01*
X17446428Y-125233971D02*
X17517857Y-125305400D01*
X17517857Y-125305400D02*
X17625000Y-125341114D01*
X17625000Y-125341114D02*
X17696428Y-125341114D01*
X17696428Y-125341114D02*
X17803571Y-125305400D01*
X17803571Y-125305400D02*
X17839285Y-125269685D01*
X17839285Y-125269685D02*
X17839285Y-125019685D01*
X17839285Y-125019685D02*
X17696428Y-125019685D01*
X18125000Y-125126828D02*
X18482143Y-125126828D01*
X18053571Y-125341114D02*
X18303571Y-124591114D01*
X18303571Y-124591114D02*
X18553571Y-125341114D01*
X18803571Y-125341114D02*
X18803571Y-124591114D01*
X19160714Y-125341114D02*
X19160714Y-124591114D01*
X19160714Y-124591114D02*
X19589285Y-125341114D01*
X19589285Y-125341114D02*
X19589285Y-124591114D01*
X113946428Y-29269685D02*
X113910714Y-29305400D01*
X113910714Y-29305400D02*
X113803571Y-29341114D01*
X113803571Y-29341114D02*
X113732143Y-29341114D01*
X113732143Y-29341114D02*
X113625000Y-29305400D01*
X113625000Y-29305400D02*
X113553571Y-29233971D01*
X113553571Y-29233971D02*
X113517857Y-29162542D01*
X113517857Y-29162542D02*
X113482143Y-29019685D01*
X113482143Y-29019685D02*
X113482143Y-28912542D01*
X113482143Y-28912542D02*
X113517857Y-28769685D01*
X113517857Y-28769685D02*
X113553571Y-28698257D01*
X113553571Y-28698257D02*
X113625000Y-28626828D01*
X113625000Y-28626828D02*
X113732143Y-28591114D01*
X113732143Y-28591114D02*
X113803571Y-28591114D01*
X113803571Y-28591114D02*
X113910714Y-28626828D01*
X113910714Y-28626828D02*
X113946428Y-28662542D01*
X114410714Y-28591114D02*
X114553571Y-28591114D01*
X114553571Y-28591114D02*
X114625000Y-28626828D01*
X114625000Y-28626828D02*
X114696428Y-28698257D01*
X114696428Y-28698257D02*
X114732143Y-28841114D01*
X114732143Y-28841114D02*
X114732143Y-29091114D01*
X114732143Y-29091114D02*
X114696428Y-29233971D01*
X114696428Y-29233971D02*
X114625000Y-29305400D01*
X114625000Y-29305400D02*
X114553571Y-29341114D01*
X114553571Y-29341114D02*
X114410714Y-29341114D01*
X114410714Y-29341114D02*
X114339286Y-29305400D01*
X114339286Y-29305400D02*
X114267857Y-29233971D01*
X114267857Y-29233971D02*
X114232143Y-29091114D01*
X114232143Y-29091114D02*
X114232143Y-28841114D01*
X114232143Y-28841114D02*
X114267857Y-28698257D01*
X114267857Y-28698257D02*
X114339286Y-28626828D01*
X114339286Y-28626828D02*
X114410714Y-28591114D01*
X115053571Y-29341114D02*
X115053571Y-28591114D01*
X115053571Y-28591114D02*
X115482142Y-29341114D01*
X115482142Y-29341114D02*
X115482142Y-28591114D01*
X113535714Y-125305400D02*
X113642857Y-125341114D01*
X113642857Y-125341114D02*
X113821428Y-125341114D01*
X113821428Y-125341114D02*
X113892857Y-125305400D01*
X113892857Y-125305400D02*
X113928571Y-125269685D01*
X113928571Y-125269685D02*
X113964285Y-125198257D01*
X113964285Y-125198257D02*
X113964285Y-125126828D01*
X113964285Y-125126828D02*
X113928571Y-125055400D01*
X113928571Y-125055400D02*
X113892857Y-125019685D01*
X113892857Y-125019685D02*
X113821428Y-124983971D01*
X113821428Y-124983971D02*
X113678571Y-124948257D01*
X113678571Y-124948257D02*
X113607142Y-124912542D01*
X113607142Y-124912542D02*
X113571428Y-124876828D01*
X113571428Y-124876828D02*
X113535714Y-124805400D01*
X113535714Y-124805400D02*
X113535714Y-124733971D01*
X113535714Y-124733971D02*
X113571428Y-124662542D01*
X113571428Y-124662542D02*
X113607142Y-124626828D01*
X113607142Y-124626828D02*
X113678571Y-124591114D01*
X113678571Y-124591114D02*
X113857142Y-124591114D01*
X113857142Y-124591114D02*
X113964285Y-124626828D01*
X114428571Y-124983971D02*
X114428571Y-125341114D01*
X114178571Y-124591114D02*
X114428571Y-124983971D01*
X114428571Y-124983971D02*
X114678571Y-124591114D01*
X114928571Y-125341114D02*
X114928571Y-124591114D01*
X114928571Y-124591114D02*
X115178571Y-125126828D01*
X115178571Y-125126828D02*
X115428571Y-124591114D01*
X115428571Y-124591114D02*
X115428571Y-125341114D01*
D11*
X-10485714Y-134409337D02*
X-10485714Y-133509337D01*
X-9971428Y-134409337D02*
X-10357142Y-133895051D01*
X-9971428Y-133509337D02*
X-10485714Y-134023622D01*
X-9585714Y-134409337D02*
X-9585714Y-133809337D01*
X-9585714Y-133509337D02*
X-9628571Y-133552194D01*
X-9628571Y-133552194D02*
X-9585714Y-133595051D01*
X-9585714Y-133595051D02*
X-9542857Y-133552194D01*
X-9542857Y-133552194D02*
X-9585714Y-133509337D01*
X-9585714Y-133509337D02*
X-9585714Y-133595051D01*
X-8642857Y-134323622D02*
X-8685714Y-134366480D01*
X-8685714Y-134366480D02*
X-8814286Y-134409337D01*
X-8814286Y-134409337D02*
X-8900000Y-134409337D01*
X-8900000Y-134409337D02*
X-9028571Y-134366480D01*
X-9028571Y-134366480D02*
X-9114286Y-134280765D01*
X-9114286Y-134280765D02*
X-9157143Y-134195051D01*
X-9157143Y-134195051D02*
X-9200000Y-134023622D01*
X-9200000Y-134023622D02*
X-9200000Y-133895051D01*
X-9200000Y-133895051D02*
X-9157143Y-133723622D01*
X-9157143Y-133723622D02*
X-9114286Y-133637908D01*
X-9114286Y-133637908D02*
X-9028571Y-133552194D01*
X-9028571Y-133552194D02*
X-8900000Y-133509337D01*
X-8900000Y-133509337D02*
X-8814286Y-133509337D01*
X-8814286Y-133509337D02*
X-8685714Y-133552194D01*
X-8685714Y-133552194D02*
X-8642857Y-133595051D01*
X-7871429Y-134409337D02*
X-7871429Y-133937908D01*
X-7871429Y-133937908D02*
X-7914286Y-133852194D01*
X-7914286Y-133852194D02*
X-8000000Y-133809337D01*
X-8000000Y-133809337D02*
X-8171429Y-133809337D01*
X-8171429Y-133809337D02*
X-8257143Y-133852194D01*
X-7871429Y-134366480D02*
X-7957143Y-134409337D01*
X-7957143Y-134409337D02*
X-8171429Y-134409337D01*
X-8171429Y-134409337D02*
X-8257143Y-134366480D01*
X-8257143Y-134366480D02*
X-8300000Y-134280765D01*
X-8300000Y-134280765D02*
X-8300000Y-134195051D01*
X-8300000Y-134195051D02*
X-8257143Y-134109337D01*
X-8257143Y-134109337D02*
X-8171429Y-134066480D01*
X-8171429Y-134066480D02*
X-7957143Y-134066480D01*
X-7957143Y-134066480D02*
X-7871429Y-134023622D01*
X-7057143Y-134409337D02*
X-7057143Y-133509337D01*
X-7057143Y-134366480D02*
X-7142857Y-134409337D01*
X-7142857Y-134409337D02*
X-7314285Y-134409337D01*
X-7314285Y-134409337D02*
X-7400000Y-134366480D01*
X-7400000Y-134366480D02*
X-7442857Y-134323622D01*
X-7442857Y-134323622D02*
X-7485714Y-134237908D01*
X-7485714Y-134237908D02*
X-7485714Y-133980765D01*
X-7485714Y-133980765D02*
X-7442857Y-133895051D01*
X-7442857Y-133895051D02*
X-7400000Y-133852194D01*
X-7400000Y-133852194D02*
X-7314285Y-133809337D01*
X-7314285Y-133809337D02*
X-7142857Y-133809337D01*
X-7142857Y-133809337D02*
X-7057143Y-133852194D01*
X-5942857Y-134409337D02*
X-5942857Y-133509337D01*
X-5557143Y-134409337D02*
X-5557143Y-133937908D01*
X-5557143Y-133937908D02*
X-5600000Y-133852194D01*
X-5600000Y-133852194D02*
X-5685714Y-133809337D01*
X-5685714Y-133809337D02*
X-5814285Y-133809337D01*
X-5814285Y-133809337D02*
X-5900000Y-133852194D01*
X-5900000Y-133852194D02*
X-5942857Y-133895051D01*
X-4785714Y-134366480D02*
X-4871428Y-134409337D01*
X-4871428Y-134409337D02*
X-5042857Y-134409337D01*
X-5042857Y-134409337D02*
X-5128571Y-134366480D01*
X-5128571Y-134366480D02*
X-5171428Y-134280765D01*
X-5171428Y-134280765D02*
X-5171428Y-133937908D01*
X-5171428Y-133937908D02*
X-5128571Y-133852194D01*
X-5128571Y-133852194D02*
X-5042857Y-133809337D01*
X-5042857Y-133809337D02*
X-4871428Y-133809337D01*
X-4871428Y-133809337D02*
X-4785714Y-133852194D01*
X-4785714Y-133852194D02*
X-4742857Y-133937908D01*
X-4742857Y-133937908D02*
X-4742857Y-134023622D01*
X-4742857Y-134023622D02*
X-5171428Y-134109337D01*
X-3971428Y-134409337D02*
X-3971428Y-133937908D01*
X-3971428Y-133937908D02*
X-4014285Y-133852194D01*
X-4014285Y-133852194D02*
X-4099999Y-133809337D01*
X-4099999Y-133809337D02*
X-4271428Y-133809337D01*
X-4271428Y-133809337D02*
X-4357142Y-133852194D01*
X-3971428Y-134366480D02*
X-4057142Y-134409337D01*
X-4057142Y-134409337D02*
X-4271428Y-134409337D01*
X-4271428Y-134409337D02*
X-4357142Y-134366480D01*
X-4357142Y-134366480D02*
X-4399999Y-134280765D01*
X-4399999Y-134280765D02*
X-4399999Y-134195051D01*
X-4399999Y-134195051D02*
X-4357142Y-134109337D01*
X-4357142Y-134109337D02*
X-4271428Y-134066480D01*
X-4271428Y-134066480D02*
X-4057142Y-134066480D01*
X-4057142Y-134066480D02*
X-3971428Y-134023622D01*
X-3157142Y-134409337D02*
X-3157142Y-133509337D01*
X-3157142Y-134366480D02*
X-3242856Y-134409337D01*
X-3242856Y-134409337D02*
X-3414284Y-134409337D01*
X-3414284Y-134409337D02*
X-3499999Y-134366480D01*
X-3499999Y-134366480D02*
X-3542856Y-134323622D01*
X-3542856Y-134323622D02*
X-3585713Y-134237908D01*
X-3585713Y-134237908D02*
X-3585713Y-133980765D01*
X-3585713Y-133980765D02*
X-3542856Y-133895051D01*
X-3542856Y-133895051D02*
X-3499999Y-133852194D01*
X-3499999Y-133852194D02*
X-3414284Y-133809337D01*
X-3414284Y-133809337D02*
X-3242856Y-133809337D01*
X-3242856Y-133809337D02*
X-3157142Y-133852194D01*
X-2599998Y-134409337D02*
X-2685713Y-134366480D01*
X-2685713Y-134366480D02*
X-2728570Y-134280765D01*
X-2728570Y-134280765D02*
X-2728570Y-133509337D01*
X-1914284Y-134366480D02*
X-1999998Y-134409337D01*
X-1999998Y-134409337D02*
X-2171427Y-134409337D01*
X-2171427Y-134409337D02*
X-2257141Y-134366480D01*
X-2257141Y-134366480D02*
X-2299998Y-134280765D01*
X-2299998Y-134280765D02*
X-2299998Y-133937908D01*
X-2299998Y-133937908D02*
X-2257141Y-133852194D01*
X-2257141Y-133852194D02*
X-2171427Y-133809337D01*
X-2171427Y-133809337D02*
X-1999998Y-133809337D01*
X-1999998Y-133809337D02*
X-1914284Y-133852194D01*
X-1914284Y-133852194D02*
X-1871427Y-133937908D01*
X-1871427Y-133937908D02*
X-1871427Y-134023622D01*
X-1871427Y-134023622D02*
X-2299998Y-134109337D01*
X-1528569Y-134366480D02*
X-1442855Y-134409337D01*
X-1442855Y-134409337D02*
X-1271426Y-134409337D01*
X-1271426Y-134409337D02*
X-1185712Y-134366480D01*
X-1185712Y-134366480D02*
X-1142855Y-134280765D01*
X-1142855Y-134280765D02*
X-1142855Y-134237908D01*
X-1142855Y-134237908D02*
X-1185712Y-134152194D01*
X-1185712Y-134152194D02*
X-1271426Y-134109337D01*
X-1271426Y-134109337D02*
X-1399998Y-134109337D01*
X-1399998Y-134109337D02*
X-1485712Y-134066480D01*
X-1485712Y-134066480D02*
X-1528569Y-133980765D01*
X-1528569Y-133980765D02*
X-1528569Y-133937908D01*
X-1528569Y-133937908D02*
X-1485712Y-133852194D01*
X-1485712Y-133852194D02*
X-1399998Y-133809337D01*
X-1399998Y-133809337D02*
X-1271426Y-133809337D01*
X-1271426Y-133809337D02*
X-1185712Y-133852194D01*
X-799998Y-134366480D02*
X-714284Y-134409337D01*
X-714284Y-134409337D02*
X-542855Y-134409337D01*
X-542855Y-134409337D02*
X-457141Y-134366480D01*
X-457141Y-134366480D02*
X-414284Y-134280765D01*
X-414284Y-134280765D02*
X-414284Y-134237908D01*
X-414284Y-134237908D02*
X-457141Y-134152194D01*
X-457141Y-134152194D02*
X-542855Y-134109337D01*
X-542855Y-134109337D02*
X-671427Y-134109337D01*
X-671427Y-134109337D02*
X-757141Y-134066480D01*
X-757141Y-134066480D02*
X-799998Y-133980765D01*
X-799998Y-133980765D02*
X-799998Y-133937908D01*
X-799998Y-133937908D02*
X-757141Y-133852194D01*
X-757141Y-133852194D02*
X-671427Y-133809337D01*
X-671427Y-133809337D02*
X-542855Y-133809337D01*
X-542855Y-133809337D02*
X-457141Y-133852194D01*
X785715Y-134023622D02*
X742858Y-134066480D01*
X742858Y-134066480D02*
X785715Y-134109337D01*
X785715Y-134109337D02*
X828572Y-134066480D01*
X828572Y-134066480D02*
X785715Y-134023622D01*
X785715Y-134023622D02*
X785715Y-134109337D01*
X1985714Y-134366480D02*
X2114286Y-134409337D01*
X2114286Y-134409337D02*
X2328571Y-134409337D01*
X2328571Y-134409337D02*
X2414286Y-134366480D01*
X2414286Y-134366480D02*
X2457143Y-134323622D01*
X2457143Y-134323622D02*
X2500000Y-134237908D01*
X2500000Y-134237908D02*
X2500000Y-134152194D01*
X2500000Y-134152194D02*
X2457143Y-134066480D01*
X2457143Y-134066480D02*
X2414286Y-134023622D01*
X2414286Y-134023622D02*
X2328571Y-133980765D01*
X2328571Y-133980765D02*
X2157143Y-133937908D01*
X2157143Y-133937908D02*
X2071428Y-133895051D01*
X2071428Y-133895051D02*
X2028571Y-133852194D01*
X2028571Y-133852194D02*
X1985714Y-133766480D01*
X1985714Y-133766480D02*
X1985714Y-133680765D01*
X1985714Y-133680765D02*
X2028571Y-133595051D01*
X2028571Y-133595051D02*
X2071428Y-133552194D01*
X2071428Y-133552194D02*
X2157143Y-133509337D01*
X2157143Y-133509337D02*
X2371428Y-133509337D01*
X2371428Y-133509337D02*
X2500000Y-133552194D01*
X2757143Y-133509337D02*
X3271429Y-133509337D01*
X3014286Y-134409337D02*
X3014286Y-133509337D01*
X3571428Y-134409337D02*
X3571428Y-133509337D01*
X3571428Y-133509337D02*
X3871428Y-134152194D01*
X3871428Y-134152194D02*
X4171428Y-133509337D01*
X4171428Y-133509337D02*
X4171428Y-134409337D01*
X4514285Y-133509337D02*
X5071428Y-133509337D01*
X5071428Y-133509337D02*
X4771428Y-133852194D01*
X4771428Y-133852194D02*
X4899999Y-133852194D01*
X4899999Y-133852194D02*
X4985714Y-133895051D01*
X4985714Y-133895051D02*
X5028571Y-133937908D01*
X5028571Y-133937908D02*
X5071428Y-134023622D01*
X5071428Y-134023622D02*
X5071428Y-134237908D01*
X5071428Y-134237908D02*
X5028571Y-134323622D01*
X5028571Y-134323622D02*
X4985714Y-134366480D01*
X4985714Y-134366480D02*
X4899999Y-134409337D01*
X4899999Y-134409337D02*
X4642856Y-134409337D01*
X4642856Y-134409337D02*
X4557142Y-134366480D01*
X4557142Y-134366480D02*
X4514285Y-134323622D01*
X5414285Y-133595051D02*
X5457142Y-133552194D01*
X5457142Y-133552194D02*
X5542857Y-133509337D01*
X5542857Y-133509337D02*
X5757142Y-133509337D01*
X5757142Y-133509337D02*
X5842857Y-133552194D01*
X5842857Y-133552194D02*
X5885714Y-133595051D01*
X5885714Y-133595051D02*
X5928571Y-133680765D01*
X5928571Y-133680765D02*
X5928571Y-133766480D01*
X5928571Y-133766480D02*
X5885714Y-133895051D01*
X5885714Y-133895051D02*
X5371428Y-134409337D01*
X5371428Y-134409337D02*
X5928571Y-134409337D01*
X6785714Y-133552194D02*
X6700000Y-133509337D01*
X6700000Y-133509337D02*
X6571428Y-133509337D01*
X6571428Y-133509337D02*
X6442857Y-133552194D01*
X6442857Y-133552194D02*
X6357142Y-133637908D01*
X6357142Y-133637908D02*
X6314285Y-133723622D01*
X6314285Y-133723622D02*
X6271428Y-133895051D01*
X6271428Y-133895051D02*
X6271428Y-134023622D01*
X6271428Y-134023622D02*
X6314285Y-134195051D01*
X6314285Y-134195051D02*
X6357142Y-134280765D01*
X6357142Y-134280765D02*
X6442857Y-134366480D01*
X6442857Y-134366480D02*
X6571428Y-134409337D01*
X6571428Y-134409337D02*
X6657142Y-134409337D01*
X6657142Y-134409337D02*
X6785714Y-134366480D01*
X6785714Y-134366480D02*
X6828571Y-134323622D01*
X6828571Y-134323622D02*
X6828571Y-134023622D01*
X6828571Y-134023622D02*
X6657142Y-134023622D01*
X7600000Y-133809337D02*
X7600000Y-134409337D01*
X7385714Y-133466480D02*
X7171428Y-134109337D01*
X7171428Y-134109337D02*
X7728571Y-134109337D01*
X7985714Y-133509337D02*
X8542857Y-133509337D01*
X8542857Y-133509337D02*
X8242857Y-133852194D01*
X8242857Y-133852194D02*
X8371428Y-133852194D01*
X8371428Y-133852194D02*
X8457143Y-133895051D01*
X8457143Y-133895051D02*
X8500000Y-133937908D01*
X8500000Y-133937908D02*
X8542857Y-134023622D01*
X8542857Y-134023622D02*
X8542857Y-134237908D01*
X8542857Y-134237908D02*
X8500000Y-134323622D01*
X8500000Y-134323622D02*
X8457143Y-134366480D01*
X8457143Y-134366480D02*
X8371428Y-134409337D01*
X8371428Y-134409337D02*
X8114285Y-134409337D01*
X8114285Y-134409337D02*
X8028571Y-134366480D01*
X8028571Y-134366480D02*
X7985714Y-134323622D01*
X9400000Y-134409337D02*
X8885714Y-134409337D01*
X9142857Y-134409337D02*
X9142857Y-133509337D01*
X9142857Y-133509337D02*
X9057143Y-133637908D01*
X9057143Y-133637908D02*
X8971428Y-133723622D01*
X8971428Y-133723622D02*
X8885714Y-133766480D01*
X10600000Y-134023622D02*
X10557143Y-134066480D01*
X10557143Y-134066480D02*
X10600000Y-134109337D01*
X10600000Y-134109337D02*
X10642857Y-134066480D01*
X10642857Y-134066480D02*
X10600000Y-134023622D01*
X10600000Y-134023622D02*
X10600000Y-134109337D01*
X12014285Y-133509337D02*
X12185713Y-133509337D01*
X12185713Y-133509337D02*
X12271428Y-133552194D01*
X12271428Y-133552194D02*
X12357142Y-133637908D01*
X12357142Y-133637908D02*
X12399999Y-133809337D01*
X12399999Y-133809337D02*
X12399999Y-134109337D01*
X12399999Y-134109337D02*
X12357142Y-134280765D01*
X12357142Y-134280765D02*
X12271428Y-134366480D01*
X12271428Y-134366480D02*
X12185713Y-134409337D01*
X12185713Y-134409337D02*
X12014285Y-134409337D01*
X12014285Y-134409337D02*
X11928571Y-134366480D01*
X11928571Y-134366480D02*
X11842856Y-134280765D01*
X11842856Y-134280765D02*
X11799999Y-134109337D01*
X11799999Y-134109337D02*
X11799999Y-133809337D01*
X11799999Y-133809337D02*
X11842856Y-133637908D01*
X11842856Y-133637908D02*
X11928571Y-133552194D01*
X11928571Y-133552194D02*
X12014285Y-133509337D01*
X12742856Y-134366480D02*
X12871428Y-134409337D01*
X12871428Y-134409337D02*
X13085713Y-134409337D01*
X13085713Y-134409337D02*
X13171428Y-134366480D01*
X13171428Y-134366480D02*
X13214285Y-134323622D01*
X13214285Y-134323622D02*
X13257142Y-134237908D01*
X13257142Y-134237908D02*
X13257142Y-134152194D01*
X13257142Y-134152194D02*
X13214285Y-134066480D01*
X13214285Y-134066480D02*
X13171428Y-134023622D01*
X13171428Y-134023622D02*
X13085713Y-133980765D01*
X13085713Y-133980765D02*
X12914285Y-133937908D01*
X12914285Y-133937908D02*
X12828570Y-133895051D01*
X12828570Y-133895051D02*
X12785713Y-133852194D01*
X12785713Y-133852194D02*
X12742856Y-133766480D01*
X12742856Y-133766480D02*
X12742856Y-133680765D01*
X12742856Y-133680765D02*
X12785713Y-133595051D01*
X12785713Y-133595051D02*
X12828570Y-133552194D01*
X12828570Y-133552194D02*
X12914285Y-133509337D01*
X12914285Y-133509337D02*
X13128570Y-133509337D01*
X13128570Y-133509337D02*
X13257142Y-133552194D01*
X13942856Y-133937908D02*
X14071428Y-133980765D01*
X14071428Y-133980765D02*
X14114285Y-134023622D01*
X14114285Y-134023622D02*
X14157142Y-134109337D01*
X14157142Y-134109337D02*
X14157142Y-134237908D01*
X14157142Y-134237908D02*
X14114285Y-134323622D01*
X14114285Y-134323622D02*
X14071428Y-134366480D01*
X14071428Y-134366480D02*
X13985713Y-134409337D01*
X13985713Y-134409337D02*
X13642856Y-134409337D01*
X13642856Y-134409337D02*
X13642856Y-133509337D01*
X13642856Y-133509337D02*
X13942856Y-133509337D01*
X13942856Y-133509337D02*
X14028571Y-133552194D01*
X14028571Y-133552194D02*
X14071428Y-133595051D01*
X14071428Y-133595051D02*
X14114285Y-133680765D01*
X14114285Y-133680765D02*
X14114285Y-133766480D01*
X14114285Y-133766480D02*
X14071428Y-133852194D01*
X14071428Y-133852194D02*
X14028571Y-133895051D01*
X14028571Y-133895051D02*
X13942856Y-133937908D01*
X13942856Y-133937908D02*
X13642856Y-133937908D01*
X15699999Y-134409337D02*
X15185713Y-134409337D01*
X15442856Y-134409337D02*
X15442856Y-133509337D01*
X15442856Y-133509337D02*
X15357142Y-133637908D01*
X15357142Y-133637908D02*
X15271427Y-133723622D01*
X15271427Y-133723622D02*
X15185713Y-133766480D01*
X16085713Y-134066480D02*
X16771428Y-134066480D01*
X17157142Y-133595051D02*
X17199999Y-133552194D01*
X17199999Y-133552194D02*
X17285714Y-133509337D01*
X17285714Y-133509337D02*
X17499999Y-133509337D01*
X17499999Y-133509337D02*
X17585714Y-133552194D01*
X17585714Y-133552194D02*
X17628571Y-133595051D01*
X17628571Y-133595051D02*
X17671428Y-133680765D01*
X17671428Y-133680765D02*
X17671428Y-133766480D01*
X17671428Y-133766480D02*
X17628571Y-133895051D01*
X17628571Y-133895051D02*
X17114285Y-134409337D01*
X17114285Y-134409337D02*
X17671428Y-134409337D01*
X18228571Y-133509337D02*
X18314285Y-133509337D01*
X18314285Y-133509337D02*
X18399999Y-133552194D01*
X18399999Y-133552194D02*
X18442857Y-133595051D01*
X18442857Y-133595051D02*
X18485714Y-133680765D01*
X18485714Y-133680765D02*
X18528571Y-133852194D01*
X18528571Y-133852194D02*
X18528571Y-134066480D01*
X18528571Y-134066480D02*
X18485714Y-134237908D01*
X18485714Y-134237908D02*
X18442857Y-134323622D01*
X18442857Y-134323622D02*
X18399999Y-134366480D01*
X18399999Y-134366480D02*
X18314285Y-134409337D01*
X18314285Y-134409337D02*
X18228571Y-134409337D01*
X18228571Y-134409337D02*
X18142857Y-134366480D01*
X18142857Y-134366480D02*
X18099999Y-134323622D01*
X18099999Y-134323622D02*
X18057142Y-134237908D01*
X18057142Y-134237908D02*
X18014285Y-134066480D01*
X18014285Y-134066480D02*
X18014285Y-133852194D01*
X18014285Y-133852194D02*
X18057142Y-133680765D01*
X18057142Y-133680765D02*
X18099999Y-133595051D01*
X18099999Y-133595051D02*
X18142857Y-133552194D01*
X18142857Y-133552194D02*
X18228571Y-133509337D01*
D12*
X-10885714Y-137431497D02*
X-10942857Y-137488640D01*
X-10942857Y-137488640D02*
X-11114285Y-137545782D01*
X-11114285Y-137545782D02*
X-11228571Y-137545782D01*
X-11228571Y-137545782D02*
X-11400000Y-137488640D01*
X-11400000Y-137488640D02*
X-11514285Y-137374354D01*
X-11514285Y-137374354D02*
X-11571428Y-137260068D01*
X-11571428Y-137260068D02*
X-11628571Y-137031497D01*
X-11628571Y-137031497D02*
X-11628571Y-136860068D01*
X-11628571Y-136860068D02*
X-11571428Y-136631497D01*
X-11571428Y-136631497D02*
X-11514285Y-136517211D01*
X-11514285Y-136517211D02*
X-11400000Y-136402925D01*
X-11400000Y-136402925D02*
X-11228571Y-136345782D01*
X-11228571Y-136345782D02*
X-11114285Y-136345782D01*
X-11114285Y-136345782D02*
X-10942857Y-136402925D01*
X-10942857Y-136402925D02*
X-10885714Y-136460068D01*
X-10371428Y-137545782D02*
X-10371428Y-136345782D01*
X-10371428Y-136345782D02*
X-9971428Y-137202925D01*
X-9971428Y-137202925D02*
X-9571428Y-136345782D01*
X-9571428Y-136345782D02*
X-9571428Y-137545782D01*
X-8599999Y-136917211D02*
X-8999999Y-136917211D01*
X-8999999Y-137545782D02*
X-8999999Y-136345782D01*
X-8999999Y-136345782D02*
X-8428571Y-136345782D01*
X-7971428Y-137545782D02*
X-7971428Y-136345782D01*
X-7971428Y-136345782D02*
X-7685714Y-136345782D01*
X-7685714Y-136345782D02*
X-7514285Y-136402925D01*
X-7514285Y-136402925D02*
X-7400000Y-136517211D01*
X-7400000Y-136517211D02*
X-7342857Y-136631497D01*
X-7342857Y-136631497D02*
X-7285714Y-136860068D01*
X-7285714Y-136860068D02*
X-7285714Y-137031497D01*
X-7285714Y-137031497D02*
X-7342857Y-137260068D01*
X-7342857Y-137260068D02*
X-7400000Y-137374354D01*
X-7400000Y-137374354D02*
X-7514285Y-137488640D01*
X-7514285Y-137488640D02*
X-7685714Y-137545782D01*
X-7685714Y-137545782D02*
X-7971428Y-137545782D01*
X-5457142Y-136917211D02*
X-5285714Y-136974354D01*
X-5285714Y-136974354D02*
X-5228571Y-137031497D01*
X-5228571Y-137031497D02*
X-5171428Y-137145782D01*
X-5171428Y-137145782D02*
X-5171428Y-137317211D01*
X-5171428Y-137317211D02*
X-5228571Y-137431497D01*
X-5228571Y-137431497D02*
X-5285714Y-137488640D01*
X-5285714Y-137488640D02*
X-5399999Y-137545782D01*
X-5399999Y-137545782D02*
X-5857142Y-137545782D01*
X-5857142Y-137545782D02*
X-5857142Y-136345782D01*
X-5857142Y-136345782D02*
X-5457142Y-136345782D01*
X-5457142Y-136345782D02*
X-5342857Y-136402925D01*
X-5342857Y-136402925D02*
X-5285714Y-136460068D01*
X-5285714Y-136460068D02*
X-5228571Y-136574354D01*
X-5228571Y-136574354D02*
X-5228571Y-136688640D01*
X-5228571Y-136688640D02*
X-5285714Y-136802925D01*
X-5285714Y-136802925D02*
X-5342857Y-136860068D01*
X-5342857Y-136860068D02*
X-5457142Y-136917211D01*
X-5457142Y-136917211D02*
X-5857142Y-136917211D01*
X-4428571Y-136345782D02*
X-4199999Y-136345782D01*
X-4199999Y-136345782D02*
X-4085714Y-136402925D01*
X-4085714Y-136402925D02*
X-3971428Y-136517211D01*
X-3971428Y-136517211D02*
X-3914285Y-136745782D01*
X-3914285Y-136745782D02*
X-3914285Y-137145782D01*
X-3914285Y-137145782D02*
X-3971428Y-137374354D01*
X-3971428Y-137374354D02*
X-4085714Y-137488640D01*
X-4085714Y-137488640D02*
X-4199999Y-137545782D01*
X-4199999Y-137545782D02*
X-4428571Y-137545782D01*
X-4428571Y-137545782D02*
X-4542857Y-137488640D01*
X-4542857Y-137488640D02*
X-4657142Y-137374354D01*
X-4657142Y-137374354D02*
X-4714285Y-137145782D01*
X-4714285Y-137145782D02*
X-4714285Y-136745782D01*
X-4714285Y-136745782D02*
X-4657142Y-136517211D01*
X-4657142Y-136517211D02*
X-4542857Y-136402925D01*
X-4542857Y-136402925D02*
X-4428571Y-136345782D01*
X-3457142Y-137202925D02*
X-2885714Y-137202925D01*
X-3571428Y-137545782D02*
X-3171428Y-136345782D01*
X-3171428Y-136345782D02*
X-2771428Y-137545782D01*
X-1685714Y-137545782D02*
X-2085714Y-136974354D01*
X-2371428Y-137545782D02*
X-2371428Y-136345782D01*
X-2371428Y-136345782D02*
X-1914285Y-136345782D01*
X-1914285Y-136345782D02*
X-1800000Y-136402925D01*
X-1800000Y-136402925D02*
X-1742857Y-136460068D01*
X-1742857Y-136460068D02*
X-1685714Y-136574354D01*
X-1685714Y-136574354D02*
X-1685714Y-136745782D01*
X-1685714Y-136745782D02*
X-1742857Y-136860068D01*
X-1742857Y-136860068D02*
X-1800000Y-136917211D01*
X-1800000Y-136917211D02*
X-1914285Y-136974354D01*
X-1914285Y-136974354D02*
X-2371428Y-136974354D01*
X-1171428Y-137545782D02*
X-1171428Y-136345782D01*
X-1171428Y-136345782D02*
X-885714Y-136345782D01*
X-885714Y-136345782D02*
X-714285Y-136402925D01*
X-714285Y-136402925D02*
X-600000Y-136517211D01*
X-600000Y-136517211D02*
X-542857Y-136631497D01*
X-542857Y-136631497D02*
X-485714Y-136860068D01*
X-485714Y-136860068D02*
X-485714Y-137031497D01*
X-485714Y-137031497D02*
X-542857Y-137260068D01*
X-542857Y-137260068D02*
X-600000Y-137374354D01*
X-600000Y-137374354D02*
X-714285Y-137488640D01*
X-714285Y-137488640D02*
X-885714Y-137545782D01*
X-885714Y-137545782D02*
X-1171428Y-137545782D01*
X28571Y-137088640D02*
X942857Y-137088640D01*
X1457142Y-137202925D02*
X2028571Y-137202925D01*
X1342856Y-137545782D02*
X1742856Y-136345782D01*
X1742856Y-136345782D02*
X2142856Y-137545782D01*
X3857142Y-136917211D02*
X4028570Y-136974354D01*
X4028570Y-136974354D02*
X4085713Y-137031497D01*
X4085713Y-137031497D02*
X4142856Y-137145782D01*
X4142856Y-137145782D02*
X4142856Y-137317211D01*
X4142856Y-137317211D02*
X4085713Y-137431497D01*
X4085713Y-137431497D02*
X4028570Y-137488640D01*
X4028570Y-137488640D02*
X3914285Y-137545782D01*
X3914285Y-137545782D02*
X3457142Y-137545782D01*
X3457142Y-137545782D02*
X3457142Y-136345782D01*
X3457142Y-136345782D02*
X3857142Y-136345782D01*
X3857142Y-136345782D02*
X3971428Y-136402925D01*
X3971428Y-136402925D02*
X4028570Y-136460068D01*
X4028570Y-136460068D02*
X4085713Y-136574354D01*
X4085713Y-136574354D02*
X4085713Y-136688640D01*
X4085713Y-136688640D02*
X4028570Y-136802925D01*
X4028570Y-136802925D02*
X3971428Y-136860068D01*
X3971428Y-136860068D02*
X3857142Y-136917211D01*
X3857142Y-136917211D02*
X3457142Y-136917211D01*
X4657142Y-136917211D02*
X5057142Y-136917211D01*
X5228570Y-137545782D02*
X4657142Y-137545782D01*
X4657142Y-137545782D02*
X4657142Y-136345782D01*
X4657142Y-136345782D02*
X5228570Y-136345782D01*
X5628570Y-136345782D02*
X6428570Y-136345782D01*
X6428570Y-136345782D02*
X5628570Y-137545782D01*
X5628570Y-137545782D02*
X6428570Y-137545782D01*
X6885713Y-136917211D02*
X7285713Y-136917211D01*
X7457141Y-137545782D02*
X6885713Y-137545782D01*
X6885713Y-137545782D02*
X6885713Y-136345782D01*
X6885713Y-136345782D02*
X7457141Y-136345782D01*
X8542855Y-137545782D02*
X7971427Y-137545782D01*
X7971427Y-137545782D02*
X7971427Y-136345782D01*
X9857142Y-137545782D02*
X9857142Y-136345782D01*
X9857142Y-136345782D02*
X10257142Y-137202925D01*
X10257142Y-137202925D02*
X10657142Y-136345782D01*
X10657142Y-136345782D02*
X10657142Y-137545782D01*
X11914285Y-137431497D02*
X11857142Y-137488640D01*
X11857142Y-137488640D02*
X11685714Y-137545782D01*
X11685714Y-137545782D02*
X11571428Y-137545782D01*
X11571428Y-137545782D02*
X11399999Y-137488640D01*
X11399999Y-137488640D02*
X11285714Y-137374354D01*
X11285714Y-137374354D02*
X11228571Y-137260068D01*
X11228571Y-137260068D02*
X11171428Y-137031497D01*
X11171428Y-137031497D02*
X11171428Y-136860068D01*
X11171428Y-136860068D02*
X11228571Y-136631497D01*
X11228571Y-136631497D02*
X11285714Y-136517211D01*
X11285714Y-136517211D02*
X11399999Y-136402925D01*
X11399999Y-136402925D02*
X11571428Y-136345782D01*
X11571428Y-136345782D02*
X11685714Y-136345782D01*
X11685714Y-136345782D02*
X11857142Y-136402925D01*
X11857142Y-136402925D02*
X11914285Y-136460068D01*
X12428571Y-136345782D02*
X12428571Y-137317211D01*
X12428571Y-137317211D02*
X12485714Y-137431497D01*
X12485714Y-137431497D02*
X12542857Y-137488640D01*
X12542857Y-137488640D02*
X12657142Y-137545782D01*
X12657142Y-137545782D02*
X12885714Y-137545782D01*
X12885714Y-137545782D02*
X12999999Y-137488640D01*
X12999999Y-137488640D02*
X13057142Y-137431497D01*
X13057142Y-137431497D02*
X13114285Y-137317211D01*
X13114285Y-137317211D02*
X13114285Y-136345782D01*
X15457143Y-136745782D02*
X16314286Y-136745782D01*
X15800000Y-136231497D02*
X15457143Y-137774354D01*
X16200000Y-137260068D02*
X15342857Y-137260068D01*
X15857143Y-137774354D02*
X16200000Y-136231497D01*
X17342857Y-137545782D02*
X16657143Y-137545782D01*
X17000000Y-137545782D02*
X17000000Y-136345782D01*
X17000000Y-136345782D02*
X16885714Y-136517211D01*
X16885714Y-136517211D02*
X16771429Y-136631497D01*
X16771429Y-136631497D02*
X16657143Y-136688640D01*
X17742857Y-136345782D02*
X18485714Y-136345782D01*
X18485714Y-136345782D02*
X18085714Y-136802925D01*
X18085714Y-136802925D02*
X18257143Y-136802925D01*
X18257143Y-136802925D02*
X18371429Y-136860068D01*
X18371429Y-136860068D02*
X18428571Y-136917211D01*
X18428571Y-136917211D02*
X18485714Y-137031497D01*
X18485714Y-137031497D02*
X18485714Y-137317211D01*
X18485714Y-137317211D02*
X18428571Y-137431497D01*
X18428571Y-137431497D02*
X18371429Y-137488640D01*
X18371429Y-137488640D02*
X18257143Y-137545782D01*
X18257143Y-137545782D02*
X17914286Y-137545782D01*
X17914286Y-137545782D02*
X17800000Y-137488640D01*
X17800000Y-137488640D02*
X17742857Y-137431497D01*
X18885714Y-136345782D02*
X19685714Y-136345782D01*
X19685714Y-136345782D02*
X19171428Y-137545782D01*
D13*
X15511905Y-104407200D02*
X15654762Y-104454819D01*
X15654762Y-104454819D02*
X15892857Y-104454819D01*
X15892857Y-104454819D02*
X15988095Y-104407200D01*
X15988095Y-104407200D02*
X16035714Y-104359580D01*
X16035714Y-104359580D02*
X16083333Y-104264342D01*
X16083333Y-104264342D02*
X16083333Y-104169104D01*
X16083333Y-104169104D02*
X16035714Y-104073866D01*
X16035714Y-104073866D02*
X15988095Y-104026247D01*
X15988095Y-104026247D02*
X15892857Y-103978628D01*
X15892857Y-103978628D02*
X15702381Y-103931009D01*
X15702381Y-103931009D02*
X15607143Y-103883390D01*
X15607143Y-103883390D02*
X15559524Y-103835771D01*
X15559524Y-103835771D02*
X15511905Y-103740533D01*
X15511905Y-103740533D02*
X15511905Y-103645295D01*
X15511905Y-103645295D02*
X15559524Y-103550057D01*
X15559524Y-103550057D02*
X15607143Y-103502438D01*
X15607143Y-103502438D02*
X15702381Y-103454819D01*
X15702381Y-103454819D02*
X15940476Y-103454819D01*
X15940476Y-103454819D02*
X16083333Y-103502438D01*
X16464286Y-103550057D02*
X16511905Y-103502438D01*
X16511905Y-103502438D02*
X16607143Y-103454819D01*
X16607143Y-103454819D02*
X16845238Y-103454819D01*
X16845238Y-103454819D02*
X16940476Y-103502438D01*
X16940476Y-103502438D02*
X16988095Y-103550057D01*
X16988095Y-103550057D02*
X17035714Y-103645295D01*
X17035714Y-103645295D02*
X17035714Y-103740533D01*
X17035714Y-103740533D02*
X16988095Y-103883390D01*
X16988095Y-103883390D02*
X16416667Y-104454819D01*
X16416667Y-104454819D02*
X17035714Y-104454819D01*
X17654762Y-103454819D02*
X17750000Y-103454819D01*
X17750000Y-103454819D02*
X17845238Y-103502438D01*
X17845238Y-103502438D02*
X17892857Y-103550057D01*
X17892857Y-103550057D02*
X17940476Y-103645295D01*
X17940476Y-103645295D02*
X17988095Y-103835771D01*
X17988095Y-103835771D02*
X17988095Y-104073866D01*
X17988095Y-104073866D02*
X17940476Y-104264342D01*
X17940476Y-104264342D02*
X17892857Y-104359580D01*
X17892857Y-104359580D02*
X17845238Y-104407200D01*
X17845238Y-104407200D02*
X17750000Y-104454819D01*
X17750000Y-104454819D02*
X17654762Y-104454819D01*
X17654762Y-104454819D02*
X17559524Y-104407200D01*
X17559524Y-104407200D02*
X17511905Y-104359580D01*
X17511905Y-104359580D02*
X17464286Y-104264342D01*
X17464286Y-104264342D02*
X17416667Y-104073866D01*
X17416667Y-104073866D02*
X17416667Y-103835771D01*
X17416667Y-103835771D02*
X17464286Y-103645295D01*
X17464286Y-103645295D02*
X17511905Y-103550057D01*
X17511905Y-103550057D02*
X17559524Y-103502438D01*
X17559524Y-103502438D02*
X17654762Y-103454819D01*
X40833333Y-36929580D02*
X40785714Y-36977200D01*
X40785714Y-36977200D02*
X40642857Y-37024819D01*
X40642857Y-37024819D02*
X40547619Y-37024819D01*
X40547619Y-37024819D02*
X40404762Y-36977200D01*
X40404762Y-36977200D02*
X40309524Y-36881961D01*
X40309524Y-36881961D02*
X40261905Y-36786723D01*
X40261905Y-36786723D02*
X40214286Y-36596247D01*
X40214286Y-36596247D02*
X40214286Y-36453390D01*
X40214286Y-36453390D02*
X40261905Y-36262914D01*
X40261905Y-36262914D02*
X40309524Y-36167676D01*
X40309524Y-36167676D02*
X40404762Y-36072438D01*
X40404762Y-36072438D02*
X40547619Y-36024819D01*
X40547619Y-36024819D02*
X40642857Y-36024819D01*
X40642857Y-36024819D02*
X40785714Y-36072438D01*
X40785714Y-36072438D02*
X40833333Y-36120057D01*
X41214286Y-36120057D02*
X41261905Y-36072438D01*
X41261905Y-36072438D02*
X41357143Y-36024819D01*
X41357143Y-36024819D02*
X41595238Y-36024819D01*
X41595238Y-36024819D02*
X41690476Y-36072438D01*
X41690476Y-36072438D02*
X41738095Y-36120057D01*
X41738095Y-36120057D02*
X41785714Y-36215295D01*
X41785714Y-36215295D02*
X41785714Y-36310533D01*
X41785714Y-36310533D02*
X41738095Y-36453390D01*
X41738095Y-36453390D02*
X41166667Y-37024819D01*
X41166667Y-37024819D02*
X41785714Y-37024819D01*
X95936666Y-27074819D02*
X95936666Y-27789104D01*
X95936666Y-27789104D02*
X95889047Y-27931961D01*
X95889047Y-27931961D02*
X95793809Y-28027200D01*
X95793809Y-28027200D02*
X95650952Y-28074819D01*
X95650952Y-28074819D02*
X95555714Y-28074819D01*
X96936666Y-28074819D02*
X96365238Y-28074819D01*
X96650952Y-28074819D02*
X96650952Y-27074819D01*
X96650952Y-27074819D02*
X96555714Y-27217676D01*
X96555714Y-27217676D02*
X96460476Y-27312914D01*
X96460476Y-27312914D02*
X96365238Y-27360533D01*
X23916667Y-20407200D02*
X24059524Y-20454819D01*
X24059524Y-20454819D02*
X24297619Y-20454819D01*
X24297619Y-20454819D02*
X24392857Y-20407200D01*
X24392857Y-20407200D02*
X24440476Y-20359580D01*
X24440476Y-20359580D02*
X24488095Y-20264342D01*
X24488095Y-20264342D02*
X24488095Y-20169104D01*
X24488095Y-20169104D02*
X24440476Y-20073866D01*
X24440476Y-20073866D02*
X24392857Y-20026247D01*
X24392857Y-20026247D02*
X24297619Y-19978628D01*
X24297619Y-19978628D02*
X24107143Y-19931009D01*
X24107143Y-19931009D02*
X24011905Y-19883390D01*
X24011905Y-19883390D02*
X23964286Y-19835771D01*
X23964286Y-19835771D02*
X23916667Y-19740533D01*
X23916667Y-19740533D02*
X23916667Y-19645295D01*
X23916667Y-19645295D02*
X23964286Y-19550057D01*
X23964286Y-19550057D02*
X24011905Y-19502438D01*
X24011905Y-19502438D02*
X24107143Y-19454819D01*
X24107143Y-19454819D02*
X24345238Y-19454819D01*
X24345238Y-19454819D02*
X24488095Y-19502438D01*
X24821429Y-19454819D02*
X25059524Y-20454819D01*
X25059524Y-20454819D02*
X25250000Y-19740533D01*
X25250000Y-19740533D02*
X25440476Y-20454819D01*
X25440476Y-20454819D02*
X25678572Y-19454819D01*
X25964286Y-19454819D02*
X26583333Y-19454819D01*
X26583333Y-19454819D02*
X26250000Y-19835771D01*
X26250000Y-19835771D02*
X26392857Y-19835771D01*
X26392857Y-19835771D02*
X26488095Y-19883390D01*
X26488095Y-19883390D02*
X26535714Y-19931009D01*
X26535714Y-19931009D02*
X26583333Y-20026247D01*
X26583333Y-20026247D02*
X26583333Y-20264342D01*
X26583333Y-20264342D02*
X26535714Y-20359580D01*
X26535714Y-20359580D02*
X26488095Y-20407200D01*
X26488095Y-20407200D02*
X26392857Y-20454819D01*
X26392857Y-20454819D02*
X26107143Y-20454819D01*
X26107143Y-20454819D02*
X26011905Y-20407200D01*
X26011905Y-20407200D02*
X25964286Y-20359580D01*
X128988095Y-68407200D02*
X129130952Y-68454819D01*
X129130952Y-68454819D02*
X129369047Y-68454819D01*
X129369047Y-68454819D02*
X129464285Y-68407200D01*
X129464285Y-68407200D02*
X129511904Y-68359580D01*
X129511904Y-68359580D02*
X129559523Y-68264342D01*
X129559523Y-68264342D02*
X129559523Y-68169104D01*
X129559523Y-68169104D02*
X129511904Y-68073866D01*
X129511904Y-68073866D02*
X129464285Y-68026247D01*
X129464285Y-68026247D02*
X129369047Y-67978628D01*
X129369047Y-67978628D02*
X129178571Y-67931009D01*
X129178571Y-67931009D02*
X129083333Y-67883390D01*
X129083333Y-67883390D02*
X129035714Y-67835771D01*
X129035714Y-67835771D02*
X128988095Y-67740533D01*
X128988095Y-67740533D02*
X128988095Y-67645295D01*
X128988095Y-67645295D02*
X129035714Y-67550057D01*
X129035714Y-67550057D02*
X129083333Y-67502438D01*
X129083333Y-67502438D02*
X129178571Y-67454819D01*
X129178571Y-67454819D02*
X129416666Y-67454819D01*
X129416666Y-67454819D02*
X129559523Y-67502438D01*
X130130952Y-67883390D02*
X130035714Y-67835771D01*
X130035714Y-67835771D02*
X129988095Y-67788152D01*
X129988095Y-67788152D02*
X129940476Y-67692914D01*
X129940476Y-67692914D02*
X129940476Y-67645295D01*
X129940476Y-67645295D02*
X129988095Y-67550057D01*
X129988095Y-67550057D02*
X130035714Y-67502438D01*
X130035714Y-67502438D02*
X130130952Y-67454819D01*
X130130952Y-67454819D02*
X130321428Y-67454819D01*
X130321428Y-67454819D02*
X130416666Y-67502438D01*
X130416666Y-67502438D02*
X130464285Y-67550057D01*
X130464285Y-67550057D02*
X130511904Y-67645295D01*
X130511904Y-67645295D02*
X130511904Y-67692914D01*
X130511904Y-67692914D02*
X130464285Y-67788152D01*
X130464285Y-67788152D02*
X130416666Y-67835771D01*
X130416666Y-67835771D02*
X130321428Y-67883390D01*
X130321428Y-67883390D02*
X130130952Y-67883390D01*
X130130952Y-67883390D02*
X130035714Y-67931009D01*
X130035714Y-67931009D02*
X129988095Y-67978628D01*
X129988095Y-67978628D02*
X129940476Y-68073866D01*
X129940476Y-68073866D02*
X129940476Y-68264342D01*
X129940476Y-68264342D02*
X129988095Y-68359580D01*
X129988095Y-68359580D02*
X130035714Y-68407200D01*
X130035714Y-68407200D02*
X130130952Y-68454819D01*
X130130952Y-68454819D02*
X130321428Y-68454819D01*
X130321428Y-68454819D02*
X130416666Y-68407200D01*
X130416666Y-68407200D02*
X130464285Y-68359580D01*
X130464285Y-68359580D02*
X130511904Y-68264342D01*
X130511904Y-68264342D02*
X130511904Y-68073866D01*
X130511904Y-68073866D02*
X130464285Y-67978628D01*
X130464285Y-67978628D02*
X130416666Y-67931009D01*
X130416666Y-67931009D02*
X130321428Y-67883390D01*
X54011905Y-11907200D02*
X54154762Y-11954819D01*
X54154762Y-11954819D02*
X54392857Y-11954819D01*
X54392857Y-11954819D02*
X54488095Y-11907200D01*
X54488095Y-11907200D02*
X54535714Y-11859580D01*
X54535714Y-11859580D02*
X54583333Y-11764342D01*
X54583333Y-11764342D02*
X54583333Y-11669104D01*
X54583333Y-11669104D02*
X54535714Y-11573866D01*
X54535714Y-11573866D02*
X54488095Y-11526247D01*
X54488095Y-11526247D02*
X54392857Y-11478628D01*
X54392857Y-11478628D02*
X54202381Y-11431009D01*
X54202381Y-11431009D02*
X54107143Y-11383390D01*
X54107143Y-11383390D02*
X54059524Y-11335771D01*
X54059524Y-11335771D02*
X54011905Y-11240533D01*
X54011905Y-11240533D02*
X54011905Y-11145295D01*
X54011905Y-11145295D02*
X54059524Y-11050057D01*
X54059524Y-11050057D02*
X54107143Y-11002438D01*
X54107143Y-11002438D02*
X54202381Y-10954819D01*
X54202381Y-10954819D02*
X54440476Y-10954819D01*
X54440476Y-10954819D02*
X54583333Y-11002438D01*
X55535714Y-11954819D02*
X54964286Y-11954819D01*
X55250000Y-11954819D02*
X55250000Y-10954819D01*
X55250000Y-10954819D02*
X55154762Y-11097676D01*
X55154762Y-11097676D02*
X55059524Y-11192914D01*
X55059524Y-11192914D02*
X54964286Y-11240533D01*
X56392857Y-11288152D02*
X56392857Y-11954819D01*
X56154762Y-10907200D02*
X55916667Y-11621485D01*
X55916667Y-11621485D02*
X56535714Y-11621485D01*
X108488095Y-124907200D02*
X108630952Y-124954819D01*
X108630952Y-124954819D02*
X108869047Y-124954819D01*
X108869047Y-124954819D02*
X108964285Y-124907200D01*
X108964285Y-124907200D02*
X109011904Y-124859580D01*
X109011904Y-124859580D02*
X109059523Y-124764342D01*
X109059523Y-124764342D02*
X109059523Y-124669104D01*
X109059523Y-124669104D02*
X109011904Y-124573866D01*
X109011904Y-124573866D02*
X108964285Y-124526247D01*
X108964285Y-124526247D02*
X108869047Y-124478628D01*
X108869047Y-124478628D02*
X108678571Y-124431009D01*
X108678571Y-124431009D02*
X108583333Y-124383390D01*
X108583333Y-124383390D02*
X108535714Y-124335771D01*
X108535714Y-124335771D02*
X108488095Y-124240533D01*
X108488095Y-124240533D02*
X108488095Y-124145295D01*
X108488095Y-124145295D02*
X108535714Y-124050057D01*
X108535714Y-124050057D02*
X108583333Y-124002438D01*
X108583333Y-124002438D02*
X108678571Y-123954819D01*
X108678571Y-123954819D02*
X108916666Y-123954819D01*
X108916666Y-123954819D02*
X109059523Y-124002438D01*
X109964285Y-123954819D02*
X109488095Y-123954819D01*
X109488095Y-123954819D02*
X109440476Y-124431009D01*
X109440476Y-124431009D02*
X109488095Y-124383390D01*
X109488095Y-124383390D02*
X109583333Y-124335771D01*
X109583333Y-124335771D02*
X109821428Y-124335771D01*
X109821428Y-124335771D02*
X109916666Y-124383390D01*
X109916666Y-124383390D02*
X109964285Y-124431009D01*
X109964285Y-124431009D02*
X110011904Y-124526247D01*
X110011904Y-124526247D02*
X110011904Y-124764342D01*
X110011904Y-124764342D02*
X109964285Y-124859580D01*
X109964285Y-124859580D02*
X109916666Y-124907200D01*
X109916666Y-124907200D02*
X109821428Y-124954819D01*
X109821428Y-124954819D02*
X109583333Y-124954819D01*
X109583333Y-124954819D02*
X109488095Y-124907200D01*
X109488095Y-124907200D02*
X109440476Y-124859580D01*
X23916667Y-116407200D02*
X24059524Y-116454819D01*
X24059524Y-116454819D02*
X24297619Y-116454819D01*
X24297619Y-116454819D02*
X24392857Y-116407200D01*
X24392857Y-116407200D02*
X24440476Y-116359580D01*
X24440476Y-116359580D02*
X24488095Y-116264342D01*
X24488095Y-116264342D02*
X24488095Y-116169104D01*
X24488095Y-116169104D02*
X24440476Y-116073866D01*
X24440476Y-116073866D02*
X24392857Y-116026247D01*
X24392857Y-116026247D02*
X24297619Y-115978628D01*
X24297619Y-115978628D02*
X24107143Y-115931009D01*
X24107143Y-115931009D02*
X24011905Y-115883390D01*
X24011905Y-115883390D02*
X23964286Y-115835771D01*
X23964286Y-115835771D02*
X23916667Y-115740533D01*
X23916667Y-115740533D02*
X23916667Y-115645295D01*
X23916667Y-115645295D02*
X23964286Y-115550057D01*
X23964286Y-115550057D02*
X24011905Y-115502438D01*
X24011905Y-115502438D02*
X24107143Y-115454819D01*
X24107143Y-115454819D02*
X24345238Y-115454819D01*
X24345238Y-115454819D02*
X24488095Y-115502438D01*
X24821429Y-115454819D02*
X25059524Y-116454819D01*
X25059524Y-116454819D02*
X25250000Y-115740533D01*
X25250000Y-115740533D02*
X25440476Y-116454819D01*
X25440476Y-116454819D02*
X25678572Y-115454819D01*
X26583333Y-116454819D02*
X26011905Y-116454819D01*
X26297619Y-116454819D02*
X26297619Y-115454819D01*
X26297619Y-115454819D02*
X26202381Y-115597676D01*
X26202381Y-115597676D02*
X26107143Y-115692914D01*
X26107143Y-115692914D02*
X26011905Y-115740533D01*
X128988095Y-104407200D02*
X129130952Y-104454819D01*
X129130952Y-104454819D02*
X129369047Y-104454819D01*
X129369047Y-104454819D02*
X129464285Y-104407200D01*
X129464285Y-104407200D02*
X129511904Y-104359580D01*
X129511904Y-104359580D02*
X129559523Y-104264342D01*
X129559523Y-104264342D02*
X129559523Y-104169104D01*
X129559523Y-104169104D02*
X129511904Y-104073866D01*
X129511904Y-104073866D02*
X129464285Y-104026247D01*
X129464285Y-104026247D02*
X129369047Y-103978628D01*
X129369047Y-103978628D02*
X129178571Y-103931009D01*
X129178571Y-103931009D02*
X129083333Y-103883390D01*
X129083333Y-103883390D02*
X129035714Y-103835771D01*
X129035714Y-103835771D02*
X128988095Y-103740533D01*
X128988095Y-103740533D02*
X128988095Y-103645295D01*
X128988095Y-103645295D02*
X129035714Y-103550057D01*
X129035714Y-103550057D02*
X129083333Y-103502438D01*
X129083333Y-103502438D02*
X129178571Y-103454819D01*
X129178571Y-103454819D02*
X129416666Y-103454819D01*
X129416666Y-103454819D02*
X129559523Y-103502438D01*
X130416666Y-103454819D02*
X130226190Y-103454819D01*
X130226190Y-103454819D02*
X130130952Y-103502438D01*
X130130952Y-103502438D02*
X130083333Y-103550057D01*
X130083333Y-103550057D02*
X129988095Y-103692914D01*
X129988095Y-103692914D02*
X129940476Y-103883390D01*
X129940476Y-103883390D02*
X129940476Y-104264342D01*
X129940476Y-104264342D02*
X129988095Y-104359580D01*
X129988095Y-104359580D02*
X130035714Y-104407200D01*
X130035714Y-104407200D02*
X130130952Y-104454819D01*
X130130952Y-104454819D02*
X130321428Y-104454819D01*
X130321428Y-104454819D02*
X130416666Y-104407200D01*
X130416666Y-104407200D02*
X130464285Y-104359580D01*
X130464285Y-104359580D02*
X130511904Y-104264342D01*
X130511904Y-104264342D02*
X130511904Y-104026247D01*
X130511904Y-104026247D02*
X130464285Y-103931009D01*
X130464285Y-103931009D02*
X130416666Y-103883390D01*
X130416666Y-103883390D02*
X130321428Y-103835771D01*
X130321428Y-103835771D02*
X130130952Y-103835771D01*
X130130952Y-103835771D02*
X130035714Y-103883390D01*
X130035714Y-103883390D02*
X129988095Y-103931009D01*
X129988095Y-103931009D02*
X129940476Y-104026247D01*
X108011905Y-11907200D02*
X108154762Y-11954819D01*
X108154762Y-11954819D02*
X108392857Y-11954819D01*
X108392857Y-11954819D02*
X108488095Y-11907200D01*
X108488095Y-11907200D02*
X108535714Y-11859580D01*
X108535714Y-11859580D02*
X108583333Y-11764342D01*
X108583333Y-11764342D02*
X108583333Y-11669104D01*
X108583333Y-11669104D02*
X108535714Y-11573866D01*
X108535714Y-11573866D02*
X108488095Y-11526247D01*
X108488095Y-11526247D02*
X108392857Y-11478628D01*
X108392857Y-11478628D02*
X108202381Y-11431009D01*
X108202381Y-11431009D02*
X108107143Y-11383390D01*
X108107143Y-11383390D02*
X108059524Y-11335771D01*
X108059524Y-11335771D02*
X108011905Y-11240533D01*
X108011905Y-11240533D02*
X108011905Y-11145295D01*
X108011905Y-11145295D02*
X108059524Y-11050057D01*
X108059524Y-11050057D02*
X108107143Y-11002438D01*
X108107143Y-11002438D02*
X108202381Y-10954819D01*
X108202381Y-10954819D02*
X108440476Y-10954819D01*
X108440476Y-10954819D02*
X108583333Y-11002438D01*
X109535714Y-11954819D02*
X108964286Y-11954819D01*
X109250000Y-11954819D02*
X109250000Y-10954819D01*
X109250000Y-10954819D02*
X109154762Y-11097676D01*
X109154762Y-11097676D02*
X109059524Y-11192914D01*
X109059524Y-11192914D02*
X108964286Y-11240533D01*
X110488095Y-11954819D02*
X109916667Y-11954819D01*
X110202381Y-11954819D02*
X110202381Y-10954819D01*
X110202381Y-10954819D02*
X110107143Y-11097676D01*
X110107143Y-11097676D02*
X110011905Y-11192914D01*
X110011905Y-11192914D02*
X109916667Y-11240533D01*
X128988095Y-86407200D02*
X129130952Y-86454819D01*
X129130952Y-86454819D02*
X129369047Y-86454819D01*
X129369047Y-86454819D02*
X129464285Y-86407200D01*
X129464285Y-86407200D02*
X129511904Y-86359580D01*
X129511904Y-86359580D02*
X129559523Y-86264342D01*
X129559523Y-86264342D02*
X129559523Y-86169104D01*
X129559523Y-86169104D02*
X129511904Y-86073866D01*
X129511904Y-86073866D02*
X129464285Y-86026247D01*
X129464285Y-86026247D02*
X129369047Y-85978628D01*
X129369047Y-85978628D02*
X129178571Y-85931009D01*
X129178571Y-85931009D02*
X129083333Y-85883390D01*
X129083333Y-85883390D02*
X129035714Y-85835771D01*
X129035714Y-85835771D02*
X128988095Y-85740533D01*
X128988095Y-85740533D02*
X128988095Y-85645295D01*
X128988095Y-85645295D02*
X129035714Y-85550057D01*
X129035714Y-85550057D02*
X129083333Y-85502438D01*
X129083333Y-85502438D02*
X129178571Y-85454819D01*
X129178571Y-85454819D02*
X129416666Y-85454819D01*
X129416666Y-85454819D02*
X129559523Y-85502438D01*
X129892857Y-85454819D02*
X130559523Y-85454819D01*
X130559523Y-85454819D02*
X130130952Y-86454819D01*
X15511905Y-86407200D02*
X15654762Y-86454819D01*
X15654762Y-86454819D02*
X15892857Y-86454819D01*
X15892857Y-86454819D02*
X15988095Y-86407200D01*
X15988095Y-86407200D02*
X16035714Y-86359580D01*
X16035714Y-86359580D02*
X16083333Y-86264342D01*
X16083333Y-86264342D02*
X16083333Y-86169104D01*
X16083333Y-86169104D02*
X16035714Y-86073866D01*
X16035714Y-86073866D02*
X15988095Y-86026247D01*
X15988095Y-86026247D02*
X15892857Y-85978628D01*
X15892857Y-85978628D02*
X15702381Y-85931009D01*
X15702381Y-85931009D02*
X15607143Y-85883390D01*
X15607143Y-85883390D02*
X15559524Y-85835771D01*
X15559524Y-85835771D02*
X15511905Y-85740533D01*
X15511905Y-85740533D02*
X15511905Y-85645295D01*
X15511905Y-85645295D02*
X15559524Y-85550057D01*
X15559524Y-85550057D02*
X15607143Y-85502438D01*
X15607143Y-85502438D02*
X15702381Y-85454819D01*
X15702381Y-85454819D02*
X15940476Y-85454819D01*
X15940476Y-85454819D02*
X16083333Y-85502438D01*
X17035714Y-86454819D02*
X16464286Y-86454819D01*
X16750000Y-86454819D02*
X16750000Y-85454819D01*
X16750000Y-85454819D02*
X16654762Y-85597676D01*
X16654762Y-85597676D02*
X16559524Y-85692914D01*
X16559524Y-85692914D02*
X16464286Y-85740533D01*
X17511905Y-86454819D02*
X17702381Y-86454819D01*
X17702381Y-86454819D02*
X17797619Y-86407200D01*
X17797619Y-86407200D02*
X17845238Y-86359580D01*
X17845238Y-86359580D02*
X17940476Y-86216723D01*
X17940476Y-86216723D02*
X17988095Y-86026247D01*
X17988095Y-86026247D02*
X17988095Y-85645295D01*
X17988095Y-85645295D02*
X17940476Y-85550057D01*
X17940476Y-85550057D02*
X17892857Y-85502438D01*
X17892857Y-85502438D02*
X17797619Y-85454819D01*
X17797619Y-85454819D02*
X17607143Y-85454819D01*
X17607143Y-85454819D02*
X17511905Y-85502438D01*
X17511905Y-85502438D02*
X17464286Y-85550057D01*
X17464286Y-85550057D02*
X17416667Y-85645295D01*
X17416667Y-85645295D02*
X17416667Y-85883390D01*
X17416667Y-85883390D02*
X17464286Y-85978628D01*
X17464286Y-85978628D02*
X17511905Y-86026247D01*
X17511905Y-86026247D02*
X17607143Y-86073866D01*
X17607143Y-86073866D02*
X17797619Y-86073866D01*
X17797619Y-86073866D02*
X17892857Y-86026247D01*
X17892857Y-86026247D02*
X17940476Y-85978628D01*
X17940476Y-85978628D02*
X17988095Y-85883390D01*
X6238095Y-129304819D02*
X6238095Y-128304819D01*
X6238095Y-128781009D02*
X6809523Y-128781009D01*
X6809523Y-129304819D02*
X6809523Y-128304819D01*
X7714285Y-128638152D02*
X7714285Y-129304819D01*
X7476190Y-128257200D02*
X7238095Y-128971485D01*
X7238095Y-128971485D02*
X7857142Y-128971485D01*
X119916667Y-20407200D02*
X120059524Y-20454819D01*
X120059524Y-20454819D02*
X120297619Y-20454819D01*
X120297619Y-20454819D02*
X120392857Y-20407200D01*
X120392857Y-20407200D02*
X120440476Y-20359580D01*
X120440476Y-20359580D02*
X120488095Y-20264342D01*
X120488095Y-20264342D02*
X120488095Y-20169104D01*
X120488095Y-20169104D02*
X120440476Y-20073866D01*
X120440476Y-20073866D02*
X120392857Y-20026247D01*
X120392857Y-20026247D02*
X120297619Y-19978628D01*
X120297619Y-19978628D02*
X120107143Y-19931009D01*
X120107143Y-19931009D02*
X120011905Y-19883390D01*
X120011905Y-19883390D02*
X119964286Y-19835771D01*
X119964286Y-19835771D02*
X119916667Y-19740533D01*
X119916667Y-19740533D02*
X119916667Y-19645295D01*
X119916667Y-19645295D02*
X119964286Y-19550057D01*
X119964286Y-19550057D02*
X120011905Y-19502438D01*
X120011905Y-19502438D02*
X120107143Y-19454819D01*
X120107143Y-19454819D02*
X120345238Y-19454819D01*
X120345238Y-19454819D02*
X120488095Y-19502438D01*
X120821429Y-19454819D02*
X121059524Y-20454819D01*
X121059524Y-20454819D02*
X121250000Y-19740533D01*
X121250000Y-19740533D02*
X121440476Y-20454819D01*
X121440476Y-20454819D02*
X121678572Y-19454819D01*
X122488095Y-19788152D02*
X122488095Y-20454819D01*
X122250000Y-19407200D02*
X122011905Y-20121485D01*
X122011905Y-20121485D02*
X122630952Y-20121485D01*
X72488095Y-124907200D02*
X72630952Y-124954819D01*
X72630952Y-124954819D02*
X72869047Y-124954819D01*
X72869047Y-124954819D02*
X72964285Y-124907200D01*
X72964285Y-124907200D02*
X73011904Y-124859580D01*
X73011904Y-124859580D02*
X73059523Y-124764342D01*
X73059523Y-124764342D02*
X73059523Y-124669104D01*
X73059523Y-124669104D02*
X73011904Y-124573866D01*
X73011904Y-124573866D02*
X72964285Y-124526247D01*
X72964285Y-124526247D02*
X72869047Y-124478628D01*
X72869047Y-124478628D02*
X72678571Y-124431009D01*
X72678571Y-124431009D02*
X72583333Y-124383390D01*
X72583333Y-124383390D02*
X72535714Y-124335771D01*
X72535714Y-124335771D02*
X72488095Y-124240533D01*
X72488095Y-124240533D02*
X72488095Y-124145295D01*
X72488095Y-124145295D02*
X72535714Y-124050057D01*
X72535714Y-124050057D02*
X72583333Y-124002438D01*
X72583333Y-124002438D02*
X72678571Y-123954819D01*
X72678571Y-123954819D02*
X72916666Y-123954819D01*
X72916666Y-123954819D02*
X73059523Y-124002438D01*
X73392857Y-123954819D02*
X74011904Y-123954819D01*
X74011904Y-123954819D02*
X73678571Y-124335771D01*
X73678571Y-124335771D02*
X73821428Y-124335771D01*
X73821428Y-124335771D02*
X73916666Y-124383390D01*
X73916666Y-124383390D02*
X73964285Y-124431009D01*
X73964285Y-124431009D02*
X74011904Y-124526247D01*
X74011904Y-124526247D02*
X74011904Y-124764342D01*
X74011904Y-124764342D02*
X73964285Y-124859580D01*
X73964285Y-124859580D02*
X73916666Y-124907200D01*
X73916666Y-124907200D02*
X73821428Y-124954819D01*
X73821428Y-124954819D02*
X73535714Y-124954819D01*
X73535714Y-124954819D02*
X73440476Y-124907200D01*
X73440476Y-124907200D02*
X73392857Y-124859580D01*
X6238095Y-3304819D02*
X6238095Y-2304819D01*
X6238095Y-2781009D02*
X6809523Y-2781009D01*
X6809523Y-3304819D02*
X6809523Y-2304819D01*
X7809523Y-3304819D02*
X7238095Y-3304819D01*
X7523809Y-3304819D02*
X7523809Y-2304819D01*
X7523809Y-2304819D02*
X7428571Y-2447676D01*
X7428571Y-2447676D02*
X7333333Y-2542914D01*
X7333333Y-2542914D02*
X7238095Y-2590533D01*
X36833333Y-36929580D02*
X36785714Y-36977200D01*
X36785714Y-36977200D02*
X36642857Y-37024819D01*
X36642857Y-37024819D02*
X36547619Y-37024819D01*
X36547619Y-37024819D02*
X36404762Y-36977200D01*
X36404762Y-36977200D02*
X36309524Y-36881961D01*
X36309524Y-36881961D02*
X36261905Y-36786723D01*
X36261905Y-36786723D02*
X36214286Y-36596247D01*
X36214286Y-36596247D02*
X36214286Y-36453390D01*
X36214286Y-36453390D02*
X36261905Y-36262914D01*
X36261905Y-36262914D02*
X36309524Y-36167676D01*
X36309524Y-36167676D02*
X36404762Y-36072438D01*
X36404762Y-36072438D02*
X36547619Y-36024819D01*
X36547619Y-36024819D02*
X36642857Y-36024819D01*
X36642857Y-36024819D02*
X36785714Y-36072438D01*
X36785714Y-36072438D02*
X36833333Y-36120057D01*
X37785714Y-37024819D02*
X37214286Y-37024819D01*
X37500000Y-37024819D02*
X37500000Y-36024819D01*
X37500000Y-36024819D02*
X37404762Y-36167676D01*
X37404762Y-36167676D02*
X37309524Y-36262914D01*
X37309524Y-36262914D02*
X37214286Y-36310533D01*
X90011905Y-11907200D02*
X90154762Y-11954819D01*
X90154762Y-11954819D02*
X90392857Y-11954819D01*
X90392857Y-11954819D02*
X90488095Y-11907200D01*
X90488095Y-11907200D02*
X90535714Y-11859580D01*
X90535714Y-11859580D02*
X90583333Y-11764342D01*
X90583333Y-11764342D02*
X90583333Y-11669104D01*
X90583333Y-11669104D02*
X90535714Y-11573866D01*
X90535714Y-11573866D02*
X90488095Y-11526247D01*
X90488095Y-11526247D02*
X90392857Y-11478628D01*
X90392857Y-11478628D02*
X90202381Y-11431009D01*
X90202381Y-11431009D02*
X90107143Y-11383390D01*
X90107143Y-11383390D02*
X90059524Y-11335771D01*
X90059524Y-11335771D02*
X90011905Y-11240533D01*
X90011905Y-11240533D02*
X90011905Y-11145295D01*
X90011905Y-11145295D02*
X90059524Y-11050057D01*
X90059524Y-11050057D02*
X90107143Y-11002438D01*
X90107143Y-11002438D02*
X90202381Y-10954819D01*
X90202381Y-10954819D02*
X90440476Y-10954819D01*
X90440476Y-10954819D02*
X90583333Y-11002438D01*
X91535714Y-11954819D02*
X90964286Y-11954819D01*
X91250000Y-11954819D02*
X91250000Y-10954819D01*
X91250000Y-10954819D02*
X91154762Y-11097676D01*
X91154762Y-11097676D02*
X91059524Y-11192914D01*
X91059524Y-11192914D02*
X90964286Y-11240533D01*
X91916667Y-11050057D02*
X91964286Y-11002438D01*
X91964286Y-11002438D02*
X92059524Y-10954819D01*
X92059524Y-10954819D02*
X92297619Y-10954819D01*
X92297619Y-10954819D02*
X92392857Y-11002438D01*
X92392857Y-11002438D02*
X92440476Y-11050057D01*
X92440476Y-11050057D02*
X92488095Y-11145295D01*
X92488095Y-11145295D02*
X92488095Y-11240533D01*
X92488095Y-11240533D02*
X92440476Y-11383390D01*
X92440476Y-11383390D02*
X91869048Y-11954819D01*
X91869048Y-11954819D02*
X92488095Y-11954819D01*
X132238095Y-3304819D02*
X132238095Y-2304819D01*
X132238095Y-2781009D02*
X132809523Y-2781009D01*
X132809523Y-3304819D02*
X132809523Y-2304819D01*
X133238095Y-2400057D02*
X133285714Y-2352438D01*
X133285714Y-2352438D02*
X133380952Y-2304819D01*
X133380952Y-2304819D02*
X133619047Y-2304819D01*
X133619047Y-2304819D02*
X133714285Y-2352438D01*
X133714285Y-2352438D02*
X133761904Y-2400057D01*
X133761904Y-2400057D02*
X133809523Y-2495295D01*
X133809523Y-2495295D02*
X133809523Y-2590533D01*
X133809523Y-2590533D02*
X133761904Y-2733390D01*
X133761904Y-2733390D02*
X133190476Y-3304819D01*
X133190476Y-3304819D02*
X133809523Y-3304819D01*
X36488095Y-124907200D02*
X36630952Y-124954819D01*
X36630952Y-124954819D02*
X36869047Y-124954819D01*
X36869047Y-124954819D02*
X36964285Y-124907200D01*
X36964285Y-124907200D02*
X37011904Y-124859580D01*
X37011904Y-124859580D02*
X37059523Y-124764342D01*
X37059523Y-124764342D02*
X37059523Y-124669104D01*
X37059523Y-124669104D02*
X37011904Y-124573866D01*
X37011904Y-124573866D02*
X36964285Y-124526247D01*
X36964285Y-124526247D02*
X36869047Y-124478628D01*
X36869047Y-124478628D02*
X36678571Y-124431009D01*
X36678571Y-124431009D02*
X36583333Y-124383390D01*
X36583333Y-124383390D02*
X36535714Y-124335771D01*
X36535714Y-124335771D02*
X36488095Y-124240533D01*
X36488095Y-124240533D02*
X36488095Y-124145295D01*
X36488095Y-124145295D02*
X36535714Y-124050057D01*
X36535714Y-124050057D02*
X36583333Y-124002438D01*
X36583333Y-124002438D02*
X36678571Y-123954819D01*
X36678571Y-123954819D02*
X36916666Y-123954819D01*
X36916666Y-123954819D02*
X37059523Y-124002438D01*
X38011904Y-124954819D02*
X37440476Y-124954819D01*
X37726190Y-124954819D02*
X37726190Y-123954819D01*
X37726190Y-123954819D02*
X37630952Y-124097676D01*
X37630952Y-124097676D02*
X37535714Y-124192914D01*
X37535714Y-124192914D02*
X37440476Y-124240533D01*
X15511905Y-68407200D02*
X15654762Y-68454819D01*
X15654762Y-68454819D02*
X15892857Y-68454819D01*
X15892857Y-68454819D02*
X15988095Y-68407200D01*
X15988095Y-68407200D02*
X16035714Y-68359580D01*
X16035714Y-68359580D02*
X16083333Y-68264342D01*
X16083333Y-68264342D02*
X16083333Y-68169104D01*
X16083333Y-68169104D02*
X16035714Y-68073866D01*
X16035714Y-68073866D02*
X15988095Y-68026247D01*
X15988095Y-68026247D02*
X15892857Y-67978628D01*
X15892857Y-67978628D02*
X15702381Y-67931009D01*
X15702381Y-67931009D02*
X15607143Y-67883390D01*
X15607143Y-67883390D02*
X15559524Y-67835771D01*
X15559524Y-67835771D02*
X15511905Y-67740533D01*
X15511905Y-67740533D02*
X15511905Y-67645295D01*
X15511905Y-67645295D02*
X15559524Y-67550057D01*
X15559524Y-67550057D02*
X15607143Y-67502438D01*
X15607143Y-67502438D02*
X15702381Y-67454819D01*
X15702381Y-67454819D02*
X15940476Y-67454819D01*
X15940476Y-67454819D02*
X16083333Y-67502438D01*
X17035714Y-68454819D02*
X16464286Y-68454819D01*
X16750000Y-68454819D02*
X16750000Y-67454819D01*
X16750000Y-67454819D02*
X16654762Y-67597676D01*
X16654762Y-67597676D02*
X16559524Y-67692914D01*
X16559524Y-67692914D02*
X16464286Y-67740533D01*
X17607143Y-67883390D02*
X17511905Y-67835771D01*
X17511905Y-67835771D02*
X17464286Y-67788152D01*
X17464286Y-67788152D02*
X17416667Y-67692914D01*
X17416667Y-67692914D02*
X17416667Y-67645295D01*
X17416667Y-67645295D02*
X17464286Y-67550057D01*
X17464286Y-67550057D02*
X17511905Y-67502438D01*
X17511905Y-67502438D02*
X17607143Y-67454819D01*
X17607143Y-67454819D02*
X17797619Y-67454819D01*
X17797619Y-67454819D02*
X17892857Y-67502438D01*
X17892857Y-67502438D02*
X17940476Y-67550057D01*
X17940476Y-67550057D02*
X17988095Y-67645295D01*
X17988095Y-67645295D02*
X17988095Y-67692914D01*
X17988095Y-67692914D02*
X17940476Y-67788152D01*
X17940476Y-67788152D02*
X17892857Y-67835771D01*
X17892857Y-67835771D02*
X17797619Y-67883390D01*
X17797619Y-67883390D02*
X17607143Y-67883390D01*
X17607143Y-67883390D02*
X17511905Y-67931009D01*
X17511905Y-67931009D02*
X17464286Y-67978628D01*
X17464286Y-67978628D02*
X17416667Y-68073866D01*
X17416667Y-68073866D02*
X17416667Y-68264342D01*
X17416667Y-68264342D02*
X17464286Y-68359580D01*
X17464286Y-68359580D02*
X17511905Y-68407200D01*
X17511905Y-68407200D02*
X17607143Y-68454819D01*
X17607143Y-68454819D02*
X17797619Y-68454819D01*
X17797619Y-68454819D02*
X17892857Y-68407200D01*
X17892857Y-68407200D02*
X17940476Y-68359580D01*
X17940476Y-68359580D02*
X17988095Y-68264342D01*
X17988095Y-68264342D02*
X17988095Y-68073866D01*
X17988095Y-68073866D02*
X17940476Y-67978628D01*
X17940476Y-67978628D02*
X17892857Y-67931009D01*
X17892857Y-67931009D02*
X17797619Y-67883390D01*
X72011905Y-11907200D02*
X72154762Y-11954819D01*
X72154762Y-11954819D02*
X72392857Y-11954819D01*
X72392857Y-11954819D02*
X72488095Y-11907200D01*
X72488095Y-11907200D02*
X72535714Y-11859580D01*
X72535714Y-11859580D02*
X72583333Y-11764342D01*
X72583333Y-11764342D02*
X72583333Y-11669104D01*
X72583333Y-11669104D02*
X72535714Y-11573866D01*
X72535714Y-11573866D02*
X72488095Y-11526247D01*
X72488095Y-11526247D02*
X72392857Y-11478628D01*
X72392857Y-11478628D02*
X72202381Y-11431009D01*
X72202381Y-11431009D02*
X72107143Y-11383390D01*
X72107143Y-11383390D02*
X72059524Y-11335771D01*
X72059524Y-11335771D02*
X72011905Y-11240533D01*
X72011905Y-11240533D02*
X72011905Y-11145295D01*
X72011905Y-11145295D02*
X72059524Y-11050057D01*
X72059524Y-11050057D02*
X72107143Y-11002438D01*
X72107143Y-11002438D02*
X72202381Y-10954819D01*
X72202381Y-10954819D02*
X72440476Y-10954819D01*
X72440476Y-10954819D02*
X72583333Y-11002438D01*
X73535714Y-11954819D02*
X72964286Y-11954819D01*
X73250000Y-11954819D02*
X73250000Y-10954819D01*
X73250000Y-10954819D02*
X73154762Y-11097676D01*
X73154762Y-11097676D02*
X73059524Y-11192914D01*
X73059524Y-11192914D02*
X72964286Y-11240533D01*
X73869048Y-10954819D02*
X74488095Y-10954819D01*
X74488095Y-10954819D02*
X74154762Y-11335771D01*
X74154762Y-11335771D02*
X74297619Y-11335771D01*
X74297619Y-11335771D02*
X74392857Y-11383390D01*
X74392857Y-11383390D02*
X74440476Y-11431009D01*
X74440476Y-11431009D02*
X74488095Y-11526247D01*
X74488095Y-11526247D02*
X74488095Y-11764342D01*
X74488095Y-11764342D02*
X74440476Y-11859580D01*
X74440476Y-11859580D02*
X74392857Y-11907200D01*
X74392857Y-11907200D02*
X74297619Y-11954819D01*
X74297619Y-11954819D02*
X74011905Y-11954819D01*
X74011905Y-11954819D02*
X73916667Y-11907200D01*
X73916667Y-11907200D02*
X73869048Y-11859580D01*
X77666666Y-27074819D02*
X77666666Y-27789104D01*
X77666666Y-27789104D02*
X77619047Y-27931961D01*
X77619047Y-27931961D02*
X77523809Y-28027200D01*
X77523809Y-28027200D02*
X77380952Y-28074819D01*
X77380952Y-28074819D02*
X77285714Y-28074819D01*
X78095238Y-27170057D02*
X78142857Y-27122438D01*
X78142857Y-27122438D02*
X78238095Y-27074819D01*
X78238095Y-27074819D02*
X78476190Y-27074819D01*
X78476190Y-27074819D02*
X78571428Y-27122438D01*
X78571428Y-27122438D02*
X78619047Y-27170057D01*
X78619047Y-27170057D02*
X78666666Y-27265295D01*
X78666666Y-27265295D02*
X78666666Y-27360533D01*
X78666666Y-27360533D02*
X78619047Y-27503390D01*
X78619047Y-27503390D02*
X78047619Y-28074819D01*
X78047619Y-28074819D02*
X78666666Y-28074819D01*
X132238095Y-129304819D02*
X132238095Y-128304819D01*
X132238095Y-128781009D02*
X132809523Y-128781009D01*
X132809523Y-129304819D02*
X132809523Y-128304819D01*
X133190476Y-128304819D02*
X133809523Y-128304819D01*
X133809523Y-128304819D02*
X133476190Y-128685771D01*
X133476190Y-128685771D02*
X133619047Y-128685771D01*
X133619047Y-128685771D02*
X133714285Y-128733390D01*
X133714285Y-128733390D02*
X133761904Y-128781009D01*
X133761904Y-128781009D02*
X133809523Y-128876247D01*
X133809523Y-128876247D02*
X133809523Y-129114342D01*
X133809523Y-129114342D02*
X133761904Y-129209580D01*
X133761904Y-129209580D02*
X133714285Y-129257200D01*
X133714285Y-129257200D02*
X133619047Y-129304819D01*
X133619047Y-129304819D02*
X133333333Y-129304819D01*
X133333333Y-129304819D02*
X133238095Y-129257200D01*
X133238095Y-129257200D02*
X133190476Y-129209580D01*
X15511905Y-32407200D02*
X15654762Y-32454819D01*
X15654762Y-32454819D02*
X15892857Y-32454819D01*
X15892857Y-32454819D02*
X15988095Y-32407200D01*
X15988095Y-32407200D02*
X16035714Y-32359580D01*
X16035714Y-32359580D02*
X16083333Y-32264342D01*
X16083333Y-32264342D02*
X16083333Y-32169104D01*
X16083333Y-32169104D02*
X16035714Y-32073866D01*
X16035714Y-32073866D02*
X15988095Y-32026247D01*
X15988095Y-32026247D02*
X15892857Y-31978628D01*
X15892857Y-31978628D02*
X15702381Y-31931009D01*
X15702381Y-31931009D02*
X15607143Y-31883390D01*
X15607143Y-31883390D02*
X15559524Y-31835771D01*
X15559524Y-31835771D02*
X15511905Y-31740533D01*
X15511905Y-31740533D02*
X15511905Y-31645295D01*
X15511905Y-31645295D02*
X15559524Y-31550057D01*
X15559524Y-31550057D02*
X15607143Y-31502438D01*
X15607143Y-31502438D02*
X15702381Y-31454819D01*
X15702381Y-31454819D02*
X15940476Y-31454819D01*
X15940476Y-31454819D02*
X16083333Y-31502438D01*
X17035714Y-32454819D02*
X16464286Y-32454819D01*
X16750000Y-32454819D02*
X16750000Y-31454819D01*
X16750000Y-31454819D02*
X16654762Y-31597676D01*
X16654762Y-31597676D02*
X16559524Y-31692914D01*
X16559524Y-31692914D02*
X16464286Y-31740533D01*
X17892857Y-31454819D02*
X17702381Y-31454819D01*
X17702381Y-31454819D02*
X17607143Y-31502438D01*
X17607143Y-31502438D02*
X17559524Y-31550057D01*
X17559524Y-31550057D02*
X17464286Y-31692914D01*
X17464286Y-31692914D02*
X17416667Y-31883390D01*
X17416667Y-31883390D02*
X17416667Y-32264342D01*
X17416667Y-32264342D02*
X17464286Y-32359580D01*
X17464286Y-32359580D02*
X17511905Y-32407200D01*
X17511905Y-32407200D02*
X17607143Y-32454819D01*
X17607143Y-32454819D02*
X17797619Y-32454819D01*
X17797619Y-32454819D02*
X17892857Y-32407200D01*
X17892857Y-32407200D02*
X17940476Y-32359580D01*
X17940476Y-32359580D02*
X17988095Y-32264342D01*
X17988095Y-32264342D02*
X17988095Y-32026247D01*
X17988095Y-32026247D02*
X17940476Y-31931009D01*
X17940476Y-31931009D02*
X17892857Y-31883390D01*
X17892857Y-31883390D02*
X17797619Y-31835771D01*
X17797619Y-31835771D02*
X17607143Y-31835771D01*
X17607143Y-31835771D02*
X17511905Y-31883390D01*
X17511905Y-31883390D02*
X17464286Y-31931009D01*
X17464286Y-31931009D02*
X17416667Y-32026247D01*
X128988095Y-50407200D02*
X129130952Y-50454819D01*
X129130952Y-50454819D02*
X129369047Y-50454819D01*
X129369047Y-50454819D02*
X129464285Y-50407200D01*
X129464285Y-50407200D02*
X129511904Y-50359580D01*
X129511904Y-50359580D02*
X129559523Y-50264342D01*
X129559523Y-50264342D02*
X129559523Y-50169104D01*
X129559523Y-50169104D02*
X129511904Y-50073866D01*
X129511904Y-50073866D02*
X129464285Y-50026247D01*
X129464285Y-50026247D02*
X129369047Y-49978628D01*
X129369047Y-49978628D02*
X129178571Y-49931009D01*
X129178571Y-49931009D02*
X129083333Y-49883390D01*
X129083333Y-49883390D02*
X129035714Y-49835771D01*
X129035714Y-49835771D02*
X128988095Y-49740533D01*
X128988095Y-49740533D02*
X128988095Y-49645295D01*
X128988095Y-49645295D02*
X129035714Y-49550057D01*
X129035714Y-49550057D02*
X129083333Y-49502438D01*
X129083333Y-49502438D02*
X129178571Y-49454819D01*
X129178571Y-49454819D02*
X129416666Y-49454819D01*
X129416666Y-49454819D02*
X129559523Y-49502438D01*
X130035714Y-50454819D02*
X130226190Y-50454819D01*
X130226190Y-50454819D02*
X130321428Y-50407200D01*
X130321428Y-50407200D02*
X130369047Y-50359580D01*
X130369047Y-50359580D02*
X130464285Y-50216723D01*
X130464285Y-50216723D02*
X130511904Y-50026247D01*
X130511904Y-50026247D02*
X130511904Y-49645295D01*
X130511904Y-49645295D02*
X130464285Y-49550057D01*
X130464285Y-49550057D02*
X130416666Y-49502438D01*
X130416666Y-49502438D02*
X130321428Y-49454819D01*
X130321428Y-49454819D02*
X130130952Y-49454819D01*
X130130952Y-49454819D02*
X130035714Y-49502438D01*
X130035714Y-49502438D02*
X129988095Y-49550057D01*
X129988095Y-49550057D02*
X129940476Y-49645295D01*
X129940476Y-49645295D02*
X129940476Y-49883390D01*
X129940476Y-49883390D02*
X129988095Y-49978628D01*
X129988095Y-49978628D02*
X130035714Y-50026247D01*
X130035714Y-50026247D02*
X130130952Y-50073866D01*
X130130952Y-50073866D02*
X130321428Y-50073866D01*
X130321428Y-50073866D02*
X130416666Y-50026247D01*
X130416666Y-50026247D02*
X130464285Y-49978628D01*
X130464285Y-49978628D02*
X130511904Y-49883390D01*
X119916667Y-116407200D02*
X120059524Y-116454819D01*
X120059524Y-116454819D02*
X120297619Y-116454819D01*
X120297619Y-116454819D02*
X120392857Y-116407200D01*
X120392857Y-116407200D02*
X120440476Y-116359580D01*
X120440476Y-116359580D02*
X120488095Y-116264342D01*
X120488095Y-116264342D02*
X120488095Y-116169104D01*
X120488095Y-116169104D02*
X120440476Y-116073866D01*
X120440476Y-116073866D02*
X120392857Y-116026247D01*
X120392857Y-116026247D02*
X120297619Y-115978628D01*
X120297619Y-115978628D02*
X120107143Y-115931009D01*
X120107143Y-115931009D02*
X120011905Y-115883390D01*
X120011905Y-115883390D02*
X119964286Y-115835771D01*
X119964286Y-115835771D02*
X119916667Y-115740533D01*
X119916667Y-115740533D02*
X119916667Y-115645295D01*
X119916667Y-115645295D02*
X119964286Y-115550057D01*
X119964286Y-115550057D02*
X120011905Y-115502438D01*
X120011905Y-115502438D02*
X120107143Y-115454819D01*
X120107143Y-115454819D02*
X120345238Y-115454819D01*
X120345238Y-115454819D02*
X120488095Y-115502438D01*
X120821429Y-115454819D02*
X121059524Y-116454819D01*
X121059524Y-116454819D02*
X121250000Y-115740533D01*
X121250000Y-115740533D02*
X121440476Y-116454819D01*
X121440476Y-116454819D02*
X121678572Y-115454819D01*
X122011905Y-115550057D02*
X122059524Y-115502438D01*
X122059524Y-115502438D02*
X122154762Y-115454819D01*
X122154762Y-115454819D02*
X122392857Y-115454819D01*
X122392857Y-115454819D02*
X122488095Y-115502438D01*
X122488095Y-115502438D02*
X122535714Y-115550057D01*
X122535714Y-115550057D02*
X122583333Y-115645295D01*
X122583333Y-115645295D02*
X122583333Y-115740533D01*
X122583333Y-115740533D02*
X122535714Y-115883390D01*
X122535714Y-115883390D02*
X121964286Y-116454819D01*
X121964286Y-116454819D02*
X122583333Y-116454819D01*
X61238095Y-27054819D02*
X61238095Y-27864342D01*
X61238095Y-27864342D02*
X61285714Y-27959580D01*
X61285714Y-27959580D02*
X61333333Y-28007200D01*
X61333333Y-28007200D02*
X61428571Y-28054819D01*
X61428571Y-28054819D02*
X61619047Y-28054819D01*
X61619047Y-28054819D02*
X61714285Y-28007200D01*
X61714285Y-28007200D02*
X61761904Y-27959580D01*
X61761904Y-27959580D02*
X61809523Y-27864342D01*
X61809523Y-27864342D02*
X61809523Y-27054819D01*
X62714285Y-27388152D02*
X62714285Y-28054819D01*
X62476190Y-27007200D02*
X62238095Y-27721485D01*
X62238095Y-27721485D02*
X62857142Y-27721485D01*
X90488095Y-124907200D02*
X90630952Y-124954819D01*
X90630952Y-124954819D02*
X90869047Y-124954819D01*
X90869047Y-124954819D02*
X90964285Y-124907200D01*
X90964285Y-124907200D02*
X91011904Y-124859580D01*
X91011904Y-124859580D02*
X91059523Y-124764342D01*
X91059523Y-124764342D02*
X91059523Y-124669104D01*
X91059523Y-124669104D02*
X91011904Y-124573866D01*
X91011904Y-124573866D02*
X90964285Y-124526247D01*
X90964285Y-124526247D02*
X90869047Y-124478628D01*
X90869047Y-124478628D02*
X90678571Y-124431009D01*
X90678571Y-124431009D02*
X90583333Y-124383390D01*
X90583333Y-124383390D02*
X90535714Y-124335771D01*
X90535714Y-124335771D02*
X90488095Y-124240533D01*
X90488095Y-124240533D02*
X90488095Y-124145295D01*
X90488095Y-124145295D02*
X90535714Y-124050057D01*
X90535714Y-124050057D02*
X90583333Y-124002438D01*
X90583333Y-124002438D02*
X90678571Y-123954819D01*
X90678571Y-123954819D02*
X90916666Y-123954819D01*
X90916666Y-123954819D02*
X91059523Y-124002438D01*
X91916666Y-124288152D02*
X91916666Y-124954819D01*
X91678571Y-123907200D02*
X91440476Y-124621485D01*
X91440476Y-124621485D02*
X92059523Y-124621485D01*
X52833333Y-36929580D02*
X52785714Y-36977200D01*
X52785714Y-36977200D02*
X52642857Y-37024819D01*
X52642857Y-37024819D02*
X52547619Y-37024819D01*
X52547619Y-37024819D02*
X52404762Y-36977200D01*
X52404762Y-36977200D02*
X52309524Y-36881961D01*
X52309524Y-36881961D02*
X52261905Y-36786723D01*
X52261905Y-36786723D02*
X52214286Y-36596247D01*
X52214286Y-36596247D02*
X52214286Y-36453390D01*
X52214286Y-36453390D02*
X52261905Y-36262914D01*
X52261905Y-36262914D02*
X52309524Y-36167676D01*
X52309524Y-36167676D02*
X52404762Y-36072438D01*
X52404762Y-36072438D02*
X52547619Y-36024819D01*
X52547619Y-36024819D02*
X52642857Y-36024819D01*
X52642857Y-36024819D02*
X52785714Y-36072438D01*
X52785714Y-36072438D02*
X52833333Y-36120057D01*
X53738095Y-36024819D02*
X53261905Y-36024819D01*
X53261905Y-36024819D02*
X53214286Y-36501009D01*
X53214286Y-36501009D02*
X53261905Y-36453390D01*
X53261905Y-36453390D02*
X53357143Y-36405771D01*
X53357143Y-36405771D02*
X53595238Y-36405771D01*
X53595238Y-36405771D02*
X53690476Y-36453390D01*
X53690476Y-36453390D02*
X53738095Y-36501009D01*
X53738095Y-36501009D02*
X53785714Y-36596247D01*
X53785714Y-36596247D02*
X53785714Y-36834342D01*
X53785714Y-36834342D02*
X53738095Y-36929580D01*
X53738095Y-36929580D02*
X53690476Y-36977200D01*
X53690476Y-36977200D02*
X53595238Y-37024819D01*
X53595238Y-37024819D02*
X53357143Y-37024819D01*
X53357143Y-37024819D02*
X53261905Y-36977200D01*
X53261905Y-36977200D02*
X53214286Y-36929580D01*
X44238095Y-23604819D02*
X44238095Y-24414342D01*
X44238095Y-24414342D02*
X44285714Y-24509580D01*
X44285714Y-24509580D02*
X44333333Y-24557200D01*
X44333333Y-24557200D02*
X44428571Y-24604819D01*
X44428571Y-24604819D02*
X44619047Y-24604819D01*
X44619047Y-24604819D02*
X44714285Y-24557200D01*
X44714285Y-24557200D02*
X44761904Y-24509580D01*
X44761904Y-24509580D02*
X44809523Y-24414342D01*
X44809523Y-24414342D02*
X44809523Y-23604819D01*
X45809523Y-24604819D02*
X45238095Y-24604819D01*
X45523809Y-24604819D02*
X45523809Y-23604819D01*
X45523809Y-23604819D02*
X45428571Y-23747676D01*
X45428571Y-23747676D02*
X45333333Y-23842914D01*
X45333333Y-23842914D02*
X45238095Y-23890533D01*
X128511905Y-32407200D02*
X128654762Y-32454819D01*
X128654762Y-32454819D02*
X128892857Y-32454819D01*
X128892857Y-32454819D02*
X128988095Y-32407200D01*
X128988095Y-32407200D02*
X129035714Y-32359580D01*
X129035714Y-32359580D02*
X129083333Y-32264342D01*
X129083333Y-32264342D02*
X129083333Y-32169104D01*
X129083333Y-32169104D02*
X129035714Y-32073866D01*
X129035714Y-32073866D02*
X128988095Y-32026247D01*
X128988095Y-32026247D02*
X128892857Y-31978628D01*
X128892857Y-31978628D02*
X128702381Y-31931009D01*
X128702381Y-31931009D02*
X128607143Y-31883390D01*
X128607143Y-31883390D02*
X128559524Y-31835771D01*
X128559524Y-31835771D02*
X128511905Y-31740533D01*
X128511905Y-31740533D02*
X128511905Y-31645295D01*
X128511905Y-31645295D02*
X128559524Y-31550057D01*
X128559524Y-31550057D02*
X128607143Y-31502438D01*
X128607143Y-31502438D02*
X128702381Y-31454819D01*
X128702381Y-31454819D02*
X128940476Y-31454819D01*
X128940476Y-31454819D02*
X129083333Y-31502438D01*
X130035714Y-32454819D02*
X129464286Y-32454819D01*
X129750000Y-32454819D02*
X129750000Y-31454819D01*
X129750000Y-31454819D02*
X129654762Y-31597676D01*
X129654762Y-31597676D02*
X129559524Y-31692914D01*
X129559524Y-31692914D02*
X129464286Y-31740533D01*
X130654762Y-31454819D02*
X130750000Y-31454819D01*
X130750000Y-31454819D02*
X130845238Y-31502438D01*
X130845238Y-31502438D02*
X130892857Y-31550057D01*
X130892857Y-31550057D02*
X130940476Y-31645295D01*
X130940476Y-31645295D02*
X130988095Y-31835771D01*
X130988095Y-31835771D02*
X130988095Y-32073866D01*
X130988095Y-32073866D02*
X130940476Y-32264342D01*
X130940476Y-32264342D02*
X130892857Y-32359580D01*
X130892857Y-32359580D02*
X130845238Y-32407200D01*
X130845238Y-32407200D02*
X130750000Y-32454819D01*
X130750000Y-32454819D02*
X130654762Y-32454819D01*
X130654762Y-32454819D02*
X130559524Y-32407200D01*
X130559524Y-32407200D02*
X130511905Y-32359580D01*
X130511905Y-32359580D02*
X130464286Y-32264342D01*
X130464286Y-32264342D02*
X130416667Y-32073866D01*
X130416667Y-32073866D02*
X130416667Y-31835771D01*
X130416667Y-31835771D02*
X130464286Y-31645295D01*
X130464286Y-31645295D02*
X130511905Y-31550057D01*
X130511905Y-31550057D02*
X130559524Y-31502438D01*
X130559524Y-31502438D02*
X130654762Y-31454819D01*
X48833333Y-36929580D02*
X48785714Y-36977200D01*
X48785714Y-36977200D02*
X48642857Y-37024819D01*
X48642857Y-37024819D02*
X48547619Y-37024819D01*
X48547619Y-37024819D02*
X48404762Y-36977200D01*
X48404762Y-36977200D02*
X48309524Y-36881961D01*
X48309524Y-36881961D02*
X48261905Y-36786723D01*
X48261905Y-36786723D02*
X48214286Y-36596247D01*
X48214286Y-36596247D02*
X48214286Y-36453390D01*
X48214286Y-36453390D02*
X48261905Y-36262914D01*
X48261905Y-36262914D02*
X48309524Y-36167676D01*
X48309524Y-36167676D02*
X48404762Y-36072438D01*
X48404762Y-36072438D02*
X48547619Y-36024819D01*
X48547619Y-36024819D02*
X48642857Y-36024819D01*
X48642857Y-36024819D02*
X48785714Y-36072438D01*
X48785714Y-36072438D02*
X48833333Y-36120057D01*
X49690476Y-36358152D02*
X49690476Y-37024819D01*
X49452381Y-35977200D02*
X49214286Y-36691485D01*
X49214286Y-36691485D02*
X49833333Y-36691485D01*
X36011905Y-11907200D02*
X36154762Y-11954819D01*
X36154762Y-11954819D02*
X36392857Y-11954819D01*
X36392857Y-11954819D02*
X36488095Y-11907200D01*
X36488095Y-11907200D02*
X36535714Y-11859580D01*
X36535714Y-11859580D02*
X36583333Y-11764342D01*
X36583333Y-11764342D02*
X36583333Y-11669104D01*
X36583333Y-11669104D02*
X36535714Y-11573866D01*
X36535714Y-11573866D02*
X36488095Y-11526247D01*
X36488095Y-11526247D02*
X36392857Y-11478628D01*
X36392857Y-11478628D02*
X36202381Y-11431009D01*
X36202381Y-11431009D02*
X36107143Y-11383390D01*
X36107143Y-11383390D02*
X36059524Y-11335771D01*
X36059524Y-11335771D02*
X36011905Y-11240533D01*
X36011905Y-11240533D02*
X36011905Y-11145295D01*
X36011905Y-11145295D02*
X36059524Y-11050057D01*
X36059524Y-11050057D02*
X36107143Y-11002438D01*
X36107143Y-11002438D02*
X36202381Y-10954819D01*
X36202381Y-10954819D02*
X36440476Y-10954819D01*
X36440476Y-10954819D02*
X36583333Y-11002438D01*
X37535714Y-11954819D02*
X36964286Y-11954819D01*
X37250000Y-11954819D02*
X37250000Y-10954819D01*
X37250000Y-10954819D02*
X37154762Y-11097676D01*
X37154762Y-11097676D02*
X37059524Y-11192914D01*
X37059524Y-11192914D02*
X36964286Y-11240533D01*
X38440476Y-10954819D02*
X37964286Y-10954819D01*
X37964286Y-10954819D02*
X37916667Y-11431009D01*
X37916667Y-11431009D02*
X37964286Y-11383390D01*
X37964286Y-11383390D02*
X38059524Y-11335771D01*
X38059524Y-11335771D02*
X38297619Y-11335771D01*
X38297619Y-11335771D02*
X38392857Y-11383390D01*
X38392857Y-11383390D02*
X38440476Y-11431009D01*
X38440476Y-11431009D02*
X38488095Y-11526247D01*
X38488095Y-11526247D02*
X38488095Y-11764342D01*
X38488095Y-11764342D02*
X38440476Y-11859580D01*
X38440476Y-11859580D02*
X38392857Y-11907200D01*
X38392857Y-11907200D02*
X38297619Y-11954819D01*
X38297619Y-11954819D02*
X38059524Y-11954819D01*
X38059524Y-11954819D02*
X37964286Y-11907200D01*
X37964286Y-11907200D02*
X37916667Y-11859580D01*
X44833333Y-36929580D02*
X44785714Y-36977200D01*
X44785714Y-36977200D02*
X44642857Y-37024819D01*
X44642857Y-37024819D02*
X44547619Y-37024819D01*
X44547619Y-37024819D02*
X44404762Y-36977200D01*
X44404762Y-36977200D02*
X44309524Y-36881961D01*
X44309524Y-36881961D02*
X44261905Y-36786723D01*
X44261905Y-36786723D02*
X44214286Y-36596247D01*
X44214286Y-36596247D02*
X44214286Y-36453390D01*
X44214286Y-36453390D02*
X44261905Y-36262914D01*
X44261905Y-36262914D02*
X44309524Y-36167676D01*
X44309524Y-36167676D02*
X44404762Y-36072438D01*
X44404762Y-36072438D02*
X44547619Y-36024819D01*
X44547619Y-36024819D02*
X44642857Y-36024819D01*
X44642857Y-36024819D02*
X44785714Y-36072438D01*
X44785714Y-36072438D02*
X44833333Y-36120057D01*
X45166667Y-36024819D02*
X45785714Y-36024819D01*
X45785714Y-36024819D02*
X45452381Y-36405771D01*
X45452381Y-36405771D02*
X45595238Y-36405771D01*
X45595238Y-36405771D02*
X45690476Y-36453390D01*
X45690476Y-36453390D02*
X45738095Y-36501009D01*
X45738095Y-36501009D02*
X45785714Y-36596247D01*
X45785714Y-36596247D02*
X45785714Y-36834342D01*
X45785714Y-36834342D02*
X45738095Y-36929580D01*
X45738095Y-36929580D02*
X45690476Y-36977200D01*
X45690476Y-36977200D02*
X45595238Y-37024819D01*
X45595238Y-37024819D02*
X45309524Y-37024819D01*
X45309524Y-37024819D02*
X45214286Y-36977200D01*
X45214286Y-36977200D02*
X45166667Y-36929580D01*
X15511905Y-50407200D02*
X15654762Y-50454819D01*
X15654762Y-50454819D02*
X15892857Y-50454819D01*
X15892857Y-50454819D02*
X15988095Y-50407200D01*
X15988095Y-50407200D02*
X16035714Y-50359580D01*
X16035714Y-50359580D02*
X16083333Y-50264342D01*
X16083333Y-50264342D02*
X16083333Y-50169104D01*
X16083333Y-50169104D02*
X16035714Y-50073866D01*
X16035714Y-50073866D02*
X15988095Y-50026247D01*
X15988095Y-50026247D02*
X15892857Y-49978628D01*
X15892857Y-49978628D02*
X15702381Y-49931009D01*
X15702381Y-49931009D02*
X15607143Y-49883390D01*
X15607143Y-49883390D02*
X15559524Y-49835771D01*
X15559524Y-49835771D02*
X15511905Y-49740533D01*
X15511905Y-49740533D02*
X15511905Y-49645295D01*
X15511905Y-49645295D02*
X15559524Y-49550057D01*
X15559524Y-49550057D02*
X15607143Y-49502438D01*
X15607143Y-49502438D02*
X15702381Y-49454819D01*
X15702381Y-49454819D02*
X15940476Y-49454819D01*
X15940476Y-49454819D02*
X16083333Y-49502438D01*
X17035714Y-50454819D02*
X16464286Y-50454819D01*
X16750000Y-50454819D02*
X16750000Y-49454819D01*
X16750000Y-49454819D02*
X16654762Y-49597676D01*
X16654762Y-49597676D02*
X16559524Y-49692914D01*
X16559524Y-49692914D02*
X16464286Y-49740533D01*
X17369048Y-49454819D02*
X18035714Y-49454819D01*
X18035714Y-49454819D02*
X17607143Y-50454819D01*
X54488095Y-124907200D02*
X54630952Y-124954819D01*
X54630952Y-124954819D02*
X54869047Y-124954819D01*
X54869047Y-124954819D02*
X54964285Y-124907200D01*
X54964285Y-124907200D02*
X55011904Y-124859580D01*
X55011904Y-124859580D02*
X55059523Y-124764342D01*
X55059523Y-124764342D02*
X55059523Y-124669104D01*
X55059523Y-124669104D02*
X55011904Y-124573866D01*
X55011904Y-124573866D02*
X54964285Y-124526247D01*
X54964285Y-124526247D02*
X54869047Y-124478628D01*
X54869047Y-124478628D02*
X54678571Y-124431009D01*
X54678571Y-124431009D02*
X54583333Y-124383390D01*
X54583333Y-124383390D02*
X54535714Y-124335771D01*
X54535714Y-124335771D02*
X54488095Y-124240533D01*
X54488095Y-124240533D02*
X54488095Y-124145295D01*
X54488095Y-124145295D02*
X54535714Y-124050057D01*
X54535714Y-124050057D02*
X54583333Y-124002438D01*
X54583333Y-124002438D02*
X54678571Y-123954819D01*
X54678571Y-123954819D02*
X54916666Y-123954819D01*
X54916666Y-123954819D02*
X55059523Y-124002438D01*
X55440476Y-124050057D02*
X55488095Y-124002438D01*
X55488095Y-124002438D02*
X55583333Y-123954819D01*
X55583333Y-123954819D02*
X55821428Y-123954819D01*
X55821428Y-123954819D02*
X55916666Y-124002438D01*
X55916666Y-124002438D02*
X55964285Y-124050057D01*
X55964285Y-124050057D02*
X56011904Y-124145295D01*
X56011904Y-124145295D02*
X56011904Y-124240533D01*
X56011904Y-124240533D02*
X55964285Y-124383390D01*
X55964285Y-124383390D02*
X55392857Y-124954819D01*
X55392857Y-124954819D02*
X56011904Y-124954819D01*
%TO.C,S20*%
D14*
X13250000Y-107500000D02*
X13250000Y-109000000D01*
X14500000Y-111500000D02*
X19000000Y-111500000D01*
X19000000Y-105000000D02*
X14500000Y-105000000D01*
X20250000Y-109000000D02*
X20250000Y-107500000D01*
%TO.C,C2*%
X40859420Y-37490000D02*
X41140580Y-37490000D01*
X40859420Y-38510000D02*
X41140580Y-38510000D01*
%TO.C,J1*%
X93620000Y-28620000D02*
X95000000Y-28620000D01*
X93620000Y-30000000D02*
X93620000Y-28620000D01*
X93620000Y-31270000D02*
X93620000Y-54240000D01*
X93620000Y-31270000D02*
X96270000Y-31270000D01*
X93620000Y-54240000D02*
X98920000Y-54240000D01*
X96270000Y-28620000D02*
X98920000Y-28620000D01*
X96270000Y-31270000D02*
X96270000Y-28620000D01*
X98920000Y-28620000D02*
X98920000Y-54240000D01*
%TO.C,SW3*%
X21750000Y-23500000D02*
X21750000Y-25000000D01*
X23000000Y-27500000D02*
X27500000Y-27500000D01*
X27500000Y-21000000D02*
X23000000Y-21000000D01*
X28750000Y-25000000D02*
X28750000Y-23500000D01*
%TO.C,S8*%
X126250000Y-71500000D02*
X126250000Y-73000000D01*
X127500000Y-75500000D02*
X132000000Y-75500000D01*
X132000000Y-69000000D02*
X127500000Y-69000000D01*
X133250000Y-73000000D02*
X133250000Y-71500000D01*
%TO.C,S14*%
X51750000Y-15000000D02*
X51750000Y-16500000D01*
X53000000Y-19000000D02*
X57500000Y-19000000D01*
X57500000Y-12500000D02*
X53000000Y-12500000D01*
X58750000Y-16500000D02*
X58750000Y-15000000D01*
%TO.C,S5*%
X105750000Y-128000000D02*
X105750000Y-129500000D01*
X107000000Y-132000000D02*
X111500000Y-132000000D01*
X111500000Y-125500000D02*
X107000000Y-125500000D01*
X112750000Y-129500000D02*
X112750000Y-128000000D01*
%TO.C,SW1*%
X21750000Y-119500000D02*
X21750000Y-121000000D01*
X23000000Y-123500000D02*
X27500000Y-123500000D01*
X27500000Y-117000000D02*
X23000000Y-117000000D01*
X28750000Y-121000000D02*
X28750000Y-119500000D01*
%TO.C,S6*%
X126250000Y-107500000D02*
X126250000Y-109000000D01*
X127500000Y-111500000D02*
X132000000Y-111500000D01*
X132000000Y-105000000D02*
X127500000Y-105000000D01*
X133250000Y-109000000D02*
X133250000Y-107500000D01*
%TO.C,S11*%
X105750000Y-15000000D02*
X105750000Y-16500000D01*
X107000000Y-19000000D02*
X111500000Y-19000000D01*
X111500000Y-12500000D02*
X107000000Y-12500000D01*
X112750000Y-16500000D02*
X112750000Y-15000000D01*
%TO.C,S7*%
X126250000Y-89500000D02*
X126250000Y-91000000D01*
X127500000Y-93500000D02*
X132000000Y-93500000D01*
X132000000Y-87000000D02*
X127500000Y-87000000D01*
X133250000Y-91000000D02*
X133250000Y-89500000D01*
%TO.C,S19*%
X13250000Y-89500000D02*
X13250000Y-91000000D01*
X14500000Y-93500000D02*
X19000000Y-93500000D01*
X19000000Y-87000000D02*
X14500000Y-87000000D01*
X20250000Y-91000000D02*
X20250000Y-89500000D01*
%TO.C,SW4*%
X117750000Y-23500000D02*
X117750000Y-25000000D01*
X119000000Y-27500000D02*
X123500000Y-27500000D01*
X123500000Y-21000000D02*
X119000000Y-21000000D01*
X124750000Y-25000000D02*
X124750000Y-23500000D01*
%TO.C,S3*%
X69750000Y-128000000D02*
X69750000Y-129500000D01*
X71000000Y-132000000D02*
X75500000Y-132000000D01*
X75500000Y-125500000D02*
X71000000Y-125500000D01*
X76750000Y-129500000D02*
X76750000Y-128000000D01*
%TO.C,C1*%
X36859420Y-37490000D02*
X37140580Y-37490000D01*
X36859420Y-38510000D02*
X37140580Y-38510000D01*
%TO.C,S12*%
X87750000Y-15000000D02*
X87750000Y-16500000D01*
X89000000Y-19000000D02*
X93500000Y-19000000D01*
X93500000Y-12500000D02*
X89000000Y-12500000D01*
X94750000Y-16500000D02*
X94750000Y-15000000D01*
%TO.C,S1*%
X33750000Y-128000000D02*
X33750000Y-129500000D01*
X35000000Y-132000000D02*
X39500000Y-132000000D01*
X39500000Y-125500000D02*
X35000000Y-125500000D01*
X40750000Y-129500000D02*
X40750000Y-128000000D01*
%TO.C,S18*%
X13250000Y-71500000D02*
X13250000Y-73000000D01*
X14500000Y-75500000D02*
X19000000Y-75500000D01*
X19000000Y-69000000D02*
X14500000Y-69000000D01*
X20250000Y-73000000D02*
X20250000Y-71500000D01*
%TO.C,S13*%
X69750000Y-15000000D02*
X69750000Y-16500000D01*
X71000000Y-19000000D02*
X75500000Y-19000000D01*
X75500000Y-12500000D02*
X71000000Y-12500000D01*
X76750000Y-16500000D02*
X76750000Y-15000000D01*
%TO.C,J2*%
X76620000Y-28620000D02*
X78000000Y-28620000D01*
X76620000Y-30000000D02*
X76620000Y-28620000D01*
X76620000Y-31270000D02*
X76620000Y-39000000D01*
X76620000Y-31270000D02*
X79380000Y-31270000D01*
X76620000Y-39000000D02*
X79380000Y-39000000D01*
X79380000Y-31270000D02*
X79380000Y-39000000D01*
%TO.C,S16*%
X13250000Y-35500000D02*
X13250000Y-37000000D01*
X14500000Y-39500000D02*
X19000000Y-39500000D01*
X19000000Y-33000000D02*
X14500000Y-33000000D01*
X20250000Y-37000000D02*
X20250000Y-35500000D01*
%TO.C,S9*%
X126250000Y-53500000D02*
X126250000Y-55000000D01*
X127500000Y-57500000D02*
X132000000Y-57500000D01*
X132000000Y-51000000D02*
X127500000Y-51000000D01*
X133250000Y-55000000D02*
X133250000Y-53500000D01*
%TO.C,SW2*%
X117750000Y-119500000D02*
X117750000Y-121000000D01*
X119000000Y-123500000D02*
X123500000Y-123500000D01*
X123500000Y-117000000D02*
X119000000Y-117000000D01*
X124750000Y-121000000D02*
X124750000Y-119500000D01*
%TO.C,U4*%
X61090000Y-28440000D02*
X62910000Y-28440000D01*
X61090000Y-28490000D02*
X61090000Y-28440000D01*
X61090000Y-31560000D02*
X61090000Y-31510000D01*
X62910000Y-28440000D02*
X62910000Y-28490000D01*
X62910000Y-29610000D02*
X62910000Y-30390000D01*
X62910000Y-31510000D02*
X62910000Y-31560000D01*
X62910000Y-31560000D02*
X61090000Y-31560000D01*
X60550000Y-28490000D02*
X60310000Y-28160000D01*
X60790000Y-28160000D01*
X60550000Y-28490000D01*
G36*
X60550000Y-28490000D02*
G01*
X60310000Y-28160000D01*
X60790000Y-28160000D01*
X60550000Y-28490000D01*
G37*
%TO.C,S4*%
X87750000Y-128000000D02*
X87750000Y-129500000D01*
X89000000Y-132000000D02*
X93500000Y-132000000D01*
X93500000Y-125500000D02*
X89000000Y-125500000D01*
X94750000Y-129500000D02*
X94750000Y-128000000D01*
%TO.C,C5*%
X52859420Y-37490000D02*
X53140580Y-37490000D01*
X52859420Y-38510000D02*
X53140580Y-38510000D01*
%TO.C,U1*%
X41390000Y-26390000D02*
X41840000Y-26390000D01*
X41390000Y-26840000D02*
X41390000Y-26390000D01*
X41390000Y-33610000D02*
X41390000Y-33160000D01*
X41840000Y-33610000D02*
X41390000Y-33610000D01*
X48160000Y-26390000D02*
X48610000Y-26390000D01*
X48610000Y-26390000D02*
X48610000Y-26840000D01*
X48610000Y-33160000D02*
X48610000Y-33610000D01*
X48610000Y-33610000D02*
X48160000Y-33610000D01*
X40750000Y-26840000D02*
X40410000Y-26370000D01*
X41090000Y-26370000D01*
X40750000Y-26840000D01*
G36*
X40750000Y-26840000D02*
G01*
X40410000Y-26370000D01*
X41090000Y-26370000D01*
X40750000Y-26840000D01*
G37*
%TO.C,S10*%
X126250000Y-35500000D02*
X126250000Y-37000000D01*
X127500000Y-39500000D02*
X132000000Y-39500000D01*
X132000000Y-33000000D02*
X127500000Y-33000000D01*
X133250000Y-37000000D02*
X133250000Y-35500000D01*
%TO.C,C4*%
X48859420Y-37490000D02*
X49140580Y-37490000D01*
X48859420Y-38510000D02*
X49140580Y-38510000D01*
%TO.C,S15*%
X33750000Y-15000000D02*
X33750000Y-16500000D01*
X35000000Y-19000000D02*
X39500000Y-19000000D01*
X39500000Y-12500000D02*
X35000000Y-12500000D01*
X40750000Y-16500000D02*
X40750000Y-15000000D01*
%TO.C,C3*%
X44859420Y-37490000D02*
X45140580Y-37490000D01*
X44859420Y-38510000D02*
X45140580Y-38510000D01*
%TO.C,S17*%
X13250000Y-53500000D02*
X13250000Y-55000000D01*
X14500000Y-57500000D02*
X19000000Y-57500000D01*
X19000000Y-51000000D02*
X14500000Y-51000000D01*
X20250000Y-55000000D02*
X20250000Y-53500000D01*
%TO.C,S2*%
X51750000Y-128000000D02*
X51750000Y-129500000D01*
X53000000Y-132000000D02*
X57500000Y-132000000D01*
X57500000Y-125500000D02*
X53000000Y-125500000D01*
X58750000Y-129500000D02*
X58750000Y-128000000D01*
%TD*%
%LPC*%
D15*
%TO.C,S20*%
X13500000Y-106000000D03*
X20000000Y-106000000D03*
X13500000Y-110500000D03*
X20000000Y-110500000D03*
%TD*%
D16*
%TO.C,C2*%
X40225000Y-38000000D03*
X41775000Y-38000000D03*
%TD*%
D17*
%TO.C,J1*%
X95000000Y-30000000D03*
D18*
X97540000Y-30000000D03*
X95000000Y-32540000D03*
X97540000Y-32540000D03*
X95000000Y-35080000D03*
X97540000Y-35080000D03*
X95000000Y-37620000D03*
X97540000Y-37620000D03*
X95000000Y-40160000D03*
X97540000Y-40160000D03*
X95000000Y-42700000D03*
X97540000Y-42700000D03*
X95000000Y-45240000D03*
X97540000Y-45240000D03*
X95000000Y-47780000D03*
X97540000Y-47780000D03*
X95000000Y-50320000D03*
X97540000Y-50320000D03*
X95000000Y-52860000D03*
X97540000Y-52860000D03*
%TD*%
D15*
%TO.C,SW3*%
X22000000Y-22000000D03*
X28500000Y-22000000D03*
X22000000Y-26500000D03*
X28500000Y-26500000D03*
%TD*%
%TO.C,S8*%
X126500000Y-70000000D03*
X133000000Y-70000000D03*
X126500000Y-74500000D03*
X133000000Y-74500000D03*
%TD*%
%TO.C,S14*%
X52000000Y-13500000D03*
X58500000Y-13500000D03*
X52000000Y-18000000D03*
X58500000Y-18000000D03*
%TD*%
%TO.C,S5*%
X106000000Y-126500000D03*
X112500000Y-126500000D03*
X106000000Y-131000000D03*
X112500000Y-131000000D03*
%TD*%
%TO.C,SW1*%
X22000000Y-118000000D03*
X28500000Y-118000000D03*
X22000000Y-122500000D03*
X28500000Y-122500000D03*
%TD*%
%TO.C,S6*%
X126500000Y-106000000D03*
X133000000Y-106000000D03*
X126500000Y-110500000D03*
X133000000Y-110500000D03*
%TD*%
%TO.C,S11*%
X106000000Y-13500000D03*
X112500000Y-13500000D03*
X106000000Y-18000000D03*
X112500000Y-18000000D03*
%TD*%
%TO.C,S7*%
X126500000Y-88000000D03*
X133000000Y-88000000D03*
X126500000Y-92500000D03*
X133000000Y-92500000D03*
%TD*%
%TO.C,S19*%
X13500000Y-88000000D03*
X20000000Y-88000000D03*
X13500000Y-92500000D03*
X20000000Y-92500000D03*
%TD*%
D19*
%TO.C,H4*%
X7000000Y-133000000D03*
%TD*%
D15*
%TO.C,SW4*%
X118000000Y-22000000D03*
X124500000Y-22000000D03*
X118000000Y-26500000D03*
X124500000Y-26500000D03*
%TD*%
%TO.C,S3*%
X70000000Y-126500000D03*
X76500000Y-126500000D03*
X70000000Y-131000000D03*
X76500000Y-131000000D03*
%TD*%
D19*
%TO.C,H1*%
X7000000Y-7000000D03*
%TD*%
D16*
%TO.C,C1*%
X36225000Y-38000000D03*
X37775000Y-38000000D03*
%TD*%
D15*
%TO.C,S12*%
X88000000Y-13500000D03*
X94500000Y-13500000D03*
X88000000Y-18000000D03*
X94500000Y-18000000D03*
%TD*%
D19*
%TO.C,H2*%
X133000000Y-7000000D03*
%TD*%
D15*
%TO.C,S1*%
X34000000Y-126500000D03*
X40500000Y-126500000D03*
X34000000Y-131000000D03*
X40500000Y-131000000D03*
%TD*%
%TO.C,S18*%
X13500000Y-70000000D03*
X20000000Y-70000000D03*
X13500000Y-74500000D03*
X20000000Y-74500000D03*
%TD*%
%TO.C,S13*%
X70000000Y-13500000D03*
X76500000Y-13500000D03*
X70000000Y-18000000D03*
X76500000Y-18000000D03*
%TD*%
D17*
%TO.C,J2*%
X78000000Y-30000000D03*
D18*
X78000000Y-32540000D03*
X78000000Y-35080000D03*
X78000000Y-37620000D03*
%TD*%
D19*
%TO.C,H3*%
X133000000Y-133000000D03*
%TD*%
D15*
%TO.C,S16*%
X13500000Y-34000000D03*
X20000000Y-34000000D03*
X13500000Y-38500000D03*
X20000000Y-38500000D03*
%TD*%
%TO.C,S9*%
X126500000Y-52000000D03*
X133000000Y-52000000D03*
X126500000Y-56500000D03*
X133000000Y-56500000D03*
%TD*%
%TO.C,SW2*%
X118000000Y-118000000D03*
X124500000Y-118000000D03*
X118000000Y-122500000D03*
X124500000Y-122500000D03*
%TD*%
D20*
%TO.C,U4*%
X60862500Y-29050000D03*
X60862500Y-30000000D03*
X60862500Y-30950000D03*
X63137500Y-30950000D03*
X63137500Y-29050000D03*
%TD*%
D15*
%TO.C,S4*%
X88000000Y-126500000D03*
X94500000Y-126500000D03*
X88000000Y-131000000D03*
X94500000Y-131000000D03*
%TD*%
D16*
%TO.C,C5*%
X52225000Y-38000000D03*
X53775000Y-38000000D03*
%TD*%
D21*
%TO.C,U1*%
X40837500Y-27250000D03*
X40837500Y-27750000D03*
X40837500Y-28250000D03*
X40837500Y-28750000D03*
X40837500Y-29250000D03*
X40837500Y-29750000D03*
X40837500Y-30250000D03*
X40837500Y-30750000D03*
X40837500Y-31250000D03*
X40837500Y-31750000D03*
X40837500Y-32250000D03*
X40837500Y-32750000D03*
D22*
X42250000Y-34162500D03*
X42750000Y-34162500D03*
X43250000Y-34162500D03*
X43750000Y-34162500D03*
X44250000Y-34162500D03*
X44750000Y-34162500D03*
X45250000Y-34162500D03*
X45750000Y-34162500D03*
X46250000Y-34162500D03*
X46750000Y-34162500D03*
X47250000Y-34162500D03*
X47750000Y-34162500D03*
D21*
X49162500Y-32750000D03*
X49162500Y-32250000D03*
X49162500Y-31750000D03*
X49162500Y-31250000D03*
X49162500Y-30750000D03*
X49162500Y-30250000D03*
X49162500Y-29750000D03*
X49162500Y-29250000D03*
X49162500Y-28750000D03*
X49162500Y-28250000D03*
X49162500Y-27750000D03*
X49162500Y-27250000D03*
D22*
X47750000Y-25837500D03*
X47250000Y-25837500D03*
X46750000Y-25837500D03*
X46250000Y-25837500D03*
X45750000Y-25837500D03*
X45250000Y-25837500D03*
X44750000Y-25837500D03*
X44250000Y-25837500D03*
X43750000Y-25837500D03*
X43250000Y-25837500D03*
X42750000Y-25837500D03*
X42250000Y-25837500D03*
%TD*%
D15*
%TO.C,S10*%
X126500000Y-34000000D03*
X133000000Y-34000000D03*
X126500000Y-38500000D03*
X133000000Y-38500000D03*
%TD*%
D16*
%TO.C,C4*%
X48225000Y-38000000D03*
X49775000Y-38000000D03*
%TD*%
D15*
%TO.C,S15*%
X34000000Y-13500000D03*
X40500000Y-13500000D03*
X34000000Y-18000000D03*
X40500000Y-18000000D03*
%TD*%
D16*
%TO.C,C3*%
X44225000Y-38000000D03*
X45775000Y-38000000D03*
%TD*%
D15*
%TO.C,S17*%
X13500000Y-52000000D03*
X20000000Y-52000000D03*
X13500000Y-56500000D03*
X20000000Y-56500000D03*
%TD*%
%TO.C,S2*%
X52000000Y-126500000D03*
X58500000Y-126500000D03*
X52000000Y-131000000D03*
X58500000Y-131000000D03*
%TD*%
%LPD*%
M02*
