%TF.GenerationSoftware,KiCad,Pcbnew,10.0.4*%
%TF.CreationDate,2026-07-22T09:45:02-04:00*%
%TF.ProjectId,cmfd-board-a,636d6664-2d62-46f6-9172-642d612e6b69,rev?*%
%TF.SameCoordinates,Original*%
%TF.FileFunction,Soldermask,Top*%
%TF.FilePolarity,Negative*%
%FSLAX46Y46*%
G04 Gerber Fmt 4.6, Leading zero omitted, Abs format (unit mm)*
G04 Created by KiCad (PCBNEW 10.0.4) date 2026-07-22 09:45:02*
%MOMM*%
%LPD*%
G01*
G04 APERTURE LIST*
G04 Aperture macros list*
%AMRoundRect*
0 Rectangle with rounded corners*
0 $1 Rounding radius*
0 $2 $3 $4 $5 $6 $7 $8 $9 X,Y pos of 4 corners*
0 Add a 4 corners polygon primitive as box body*
4,1,4,$2,$3,$4,$5,$6,$7,$8,$9,$2,$3,0*
0 Add four circle primitives for the rounded corners*
1,1,$1+$1,$2,$3*
1,1,$1+$1,$4,$5*
1,1,$1+$1,$6,$7*
1,1,$1+$1,$8,$9*
0 Add four rect primitives between the rounded corners*
20,1,$1+$1,$2,$3,$4,$5,0*
20,1,$1+$1,$4,$5,$6,$7,0*
20,1,$1+$1,$6,$7,$8,$9,0*
20,1,$1+$1,$8,$9,$2,$3,0*%
G04 Aperture macros list end*
%ADD10C,2.000000*%
%ADD11RoundRect,0.225000X-0.225000X-0.250000X0.225000X-0.250000X0.225000X0.250000X-0.225000X0.250000X0*%
%ADD12R,1.700000X1.700000*%
%ADD13C,1.700000*%
%ADD14C,6.400000*%
%ADD15RoundRect,0.150000X-0.512500X-0.150000X0.512500X-0.150000X0.512500X0.150000X-0.512500X0.150000X0*%
%ADD16RoundRect,0.075000X-0.662500X-0.075000X0.662500X-0.075000X0.662500X0.075000X-0.662500X0.075000X0*%
%ADD17RoundRect,0.075000X-0.075000X-0.662500X0.075000X-0.662500X0.075000X0.662500X-0.075000X0.662500X0*%
G04 APERTURE END LIST*
D10*
%TO.C,S20*%
X13500000Y-106000000D03*
X20000000Y-106000000D03*
X13500000Y-110500000D03*
X20000000Y-110500000D03*
%TD*%
D11*
%TO.C,C2*%
X40225000Y-38000000D03*
X41775000Y-38000000D03*
%TD*%
D12*
%TO.C,J1*%
X95000000Y-30000000D03*
D13*
X97540000Y-30000000D03*
X95000000Y-32540000D03*
X97540000Y-32540000D03*
X95000000Y-35080000D03*
X97540000Y-35080000D03*
X95000000Y-37620000D03*
X97540000Y-37620000D03*
X95000000Y-40160000D03*
X97540000Y-40160000D03*
X95000000Y-42700000D03*
X97540000Y-42700000D03*
X95000000Y-45240000D03*
X97540000Y-45240000D03*
X95000000Y-47780000D03*
X97540000Y-47780000D03*
X95000000Y-50320000D03*
X97540000Y-50320000D03*
X95000000Y-52860000D03*
X97540000Y-52860000D03*
%TD*%
D10*
%TO.C,SW3*%
X22000000Y-22000000D03*
X28500000Y-22000000D03*
X22000000Y-26500000D03*
X28500000Y-26500000D03*
%TD*%
%TO.C,S8*%
X126500000Y-70000000D03*
X133000000Y-70000000D03*
X126500000Y-74500000D03*
X133000000Y-74500000D03*
%TD*%
%TO.C,S14*%
X52000000Y-13500000D03*
X58500000Y-13500000D03*
X52000000Y-18000000D03*
X58500000Y-18000000D03*
%TD*%
%TO.C,S5*%
X106000000Y-126500000D03*
X112500000Y-126500000D03*
X106000000Y-131000000D03*
X112500000Y-131000000D03*
%TD*%
%TO.C,SW1*%
X22000000Y-118000000D03*
X28500000Y-118000000D03*
X22000000Y-122500000D03*
X28500000Y-122500000D03*
%TD*%
%TO.C,S6*%
X126500000Y-106000000D03*
X133000000Y-106000000D03*
X126500000Y-110500000D03*
X133000000Y-110500000D03*
%TD*%
%TO.C,S11*%
X106000000Y-13500000D03*
X112500000Y-13500000D03*
X106000000Y-18000000D03*
X112500000Y-18000000D03*
%TD*%
%TO.C,S7*%
X126500000Y-88000000D03*
X133000000Y-88000000D03*
X126500000Y-92500000D03*
X133000000Y-92500000D03*
%TD*%
%TO.C,S19*%
X13500000Y-88000000D03*
X20000000Y-88000000D03*
X13500000Y-92500000D03*
X20000000Y-92500000D03*
%TD*%
D14*
%TO.C,H4*%
X7000000Y-133000000D03*
%TD*%
D10*
%TO.C,SW4*%
X118000000Y-22000000D03*
X124500000Y-22000000D03*
X118000000Y-26500000D03*
X124500000Y-26500000D03*
%TD*%
%TO.C,S3*%
X70000000Y-126500000D03*
X76500000Y-126500000D03*
X70000000Y-131000000D03*
X76500000Y-131000000D03*
%TD*%
D14*
%TO.C,H1*%
X7000000Y-7000000D03*
%TD*%
D11*
%TO.C,C1*%
X36225000Y-38000000D03*
X37775000Y-38000000D03*
%TD*%
D10*
%TO.C,S12*%
X88000000Y-13500000D03*
X94500000Y-13500000D03*
X88000000Y-18000000D03*
X94500000Y-18000000D03*
%TD*%
D14*
%TO.C,H2*%
X133000000Y-7000000D03*
%TD*%
D10*
%TO.C,S1*%
X34000000Y-126500000D03*
X40500000Y-126500000D03*
X34000000Y-131000000D03*
X40500000Y-131000000D03*
%TD*%
%TO.C,S18*%
X13500000Y-70000000D03*
X20000000Y-70000000D03*
X13500000Y-74500000D03*
X20000000Y-74500000D03*
%TD*%
%TO.C,S13*%
X70000000Y-13500000D03*
X76500000Y-13500000D03*
X70000000Y-18000000D03*
X76500000Y-18000000D03*
%TD*%
D12*
%TO.C,J2*%
X78000000Y-30000000D03*
D13*
X78000000Y-32540000D03*
X78000000Y-35080000D03*
X78000000Y-37620000D03*
%TD*%
D14*
%TO.C,H3*%
X133000000Y-133000000D03*
%TD*%
D10*
%TO.C,S16*%
X13500000Y-34000000D03*
X20000000Y-34000000D03*
X13500000Y-38500000D03*
X20000000Y-38500000D03*
%TD*%
%TO.C,S9*%
X126500000Y-52000000D03*
X133000000Y-52000000D03*
X126500000Y-56500000D03*
X133000000Y-56500000D03*
%TD*%
%TO.C,SW2*%
X118000000Y-118000000D03*
X124500000Y-118000000D03*
X118000000Y-122500000D03*
X124500000Y-122500000D03*
%TD*%
D15*
%TO.C,U4*%
X60862500Y-29050000D03*
X60862500Y-30000000D03*
X60862500Y-30950000D03*
X63137500Y-30950000D03*
X63137500Y-29050000D03*
%TD*%
D10*
%TO.C,S4*%
X88000000Y-126500000D03*
X94500000Y-126500000D03*
X88000000Y-131000000D03*
X94500000Y-131000000D03*
%TD*%
D11*
%TO.C,C5*%
X52225000Y-38000000D03*
X53775000Y-38000000D03*
%TD*%
D16*
%TO.C,U1*%
X40837500Y-27250000D03*
X40837500Y-27750000D03*
X40837500Y-28250000D03*
X40837500Y-28750000D03*
X40837500Y-29250000D03*
X40837500Y-29750000D03*
X40837500Y-30250000D03*
X40837500Y-30750000D03*
X40837500Y-31250000D03*
X40837500Y-31750000D03*
X40837500Y-32250000D03*
X40837500Y-32750000D03*
D17*
X42250000Y-34162500D03*
X42750000Y-34162500D03*
X43250000Y-34162500D03*
X43750000Y-34162500D03*
X44250000Y-34162500D03*
X44750000Y-34162500D03*
X45250000Y-34162500D03*
X45750000Y-34162500D03*
X46250000Y-34162500D03*
X46750000Y-34162500D03*
X47250000Y-34162500D03*
X47750000Y-34162500D03*
D16*
X49162500Y-32750000D03*
X49162500Y-32250000D03*
X49162500Y-31750000D03*
X49162500Y-31250000D03*
X49162500Y-30750000D03*
X49162500Y-30250000D03*
X49162500Y-29750000D03*
X49162500Y-29250000D03*
X49162500Y-28750000D03*
X49162500Y-28250000D03*
X49162500Y-27750000D03*
X49162500Y-27250000D03*
D17*
X47750000Y-25837500D03*
X47250000Y-25837500D03*
X46750000Y-25837500D03*
X46250000Y-25837500D03*
X45750000Y-25837500D03*
X45250000Y-25837500D03*
X44750000Y-25837500D03*
X44250000Y-25837500D03*
X43750000Y-25837500D03*
X43250000Y-25837500D03*
X42750000Y-25837500D03*
X42250000Y-25837500D03*
%TD*%
D10*
%TO.C,S10*%
X126500000Y-34000000D03*
X133000000Y-34000000D03*
X126500000Y-38500000D03*
X133000000Y-38500000D03*
%TD*%
D11*
%TO.C,C4*%
X48225000Y-38000000D03*
X49775000Y-38000000D03*
%TD*%
D10*
%TO.C,S15*%
X34000000Y-13500000D03*
X40500000Y-13500000D03*
X34000000Y-18000000D03*
X40500000Y-18000000D03*
%TD*%
D11*
%TO.C,C3*%
X44225000Y-38000000D03*
X45775000Y-38000000D03*
%TD*%
D10*
%TO.C,S17*%
X13500000Y-52000000D03*
X20000000Y-52000000D03*
X13500000Y-56500000D03*
X20000000Y-56500000D03*
%TD*%
%TO.C,S2*%
X52000000Y-126500000D03*
X58500000Y-126500000D03*
X52000000Y-131000000D03*
X58500000Y-131000000D03*
%TD*%
M02*
