%TF.GenerationSoftware,KiCad,Pcbnew,10.0.4*%
%TF.CreationDate,2026-07-22T10:10:38-04:00*%
%TF.ProjectId,cmfd-board-b,636d6664-2d62-46f6-9172-642d622e6b69,rev?*%
%TF.SameCoordinates,Original*%
%TF.FileFunction,Copper,L2,Bot*%
%TF.FilePolarity,Positive*%
%FSLAX46Y46*%
G04 Gerber Fmt 4.6, Leading zero omitted, Abs format (unit mm)*
G04 Created by KiCad (PCBNEW 10.0.4) date 2026-07-22 10:10:38*
%MOMM*%
%LPD*%
G01*
G04 APERTURE LIST*
%TA.AperFunction,ComponentPad*%
%ADD10R,1.700000X1.700000*%
%TD*%
%TA.AperFunction,ComponentPad*%
%ADD11C,1.700000*%
%TD*%
%TA.AperFunction,ComponentPad*%
%ADD12R,1.500000X1.500000*%
%TD*%
%TA.AperFunction,ComponentPad*%
%ADD13C,1.500000*%
%TD*%
%TA.AperFunction,ComponentPad*%
%ADD14C,2.300000*%
%TD*%
%TA.AperFunction,ComponentPad*%
%ADD15O,1.000000X2.100000*%
%TD*%
%TA.AperFunction,ComponentPad*%
%ADD16O,1.000000X1.800000*%
%TD*%
G04 APERTURE END LIST*
D10*
%TO.P,J10,1*%
%TO.N,N/C*%
X30000000Y-45000000D03*
D11*
%TO.P,J10,2*%
X32540000Y-45000000D03*
%TO.P,J10,3*%
X30000000Y-47540000D03*
%TO.P,J10,4*%
X32540000Y-47540000D03*
%TO.P,J10,5*%
X30000000Y-50080000D03*
%TO.P,J10,6*%
X32540000Y-50080000D03*
%TO.P,J10,7*%
X30000000Y-52620000D03*
%TO.P,J10,8*%
X32540000Y-52620000D03*
%TO.P,J10,9*%
X30000000Y-55160000D03*
%TO.P,J10,10*%
X32540000Y-55160000D03*
%TO.P,J10,11*%
X30000000Y-57700000D03*
%TO.P,J10,12*%
X32540000Y-57700000D03*
%TO.P,J10,13*%
X30000000Y-60240000D03*
%TO.P,J10,14*%
X32540000Y-60240000D03*
%TO.P,J10,15*%
X30000000Y-62780000D03*
%TO.P,J10,16*%
X32540000Y-62780000D03*
%TO.P,J10,17*%
X30000000Y-65320000D03*
%TO.P,J10,18*%
X32540000Y-65320000D03*
%TO.P,J10,19*%
X30000000Y-67860000D03*
%TO.P,J10,20*%
X32540000Y-67860000D03*
%TD*%
D10*
%TO.P,J11,1*%
%TO.N,N/C*%
X30000000Y-62000000D03*
D11*
%TO.P,J11,2*%
X32540000Y-62000000D03*
%TO.P,J11,3*%
X30000000Y-64540000D03*
%TO.P,J11,4*%
X32540000Y-64540000D03*
%TO.P,J11,5*%
X30000000Y-67080000D03*
%TO.P,J11,6*%
X32540000Y-67080000D03*
%TO.P,J11,7*%
X30000000Y-69620000D03*
%TO.P,J11,8*%
X32540000Y-69620000D03*
%TO.P,J11,9*%
X30000000Y-72160000D03*
%TO.P,J11,10*%
X32540000Y-72160000D03*
%TO.P,J11,11*%
X30000000Y-74700000D03*
%TO.P,J11,12*%
X32540000Y-74700000D03*
%TO.P,J11,13*%
X30000000Y-77240000D03*
%TO.P,J11,14*%
X32540000Y-77240000D03*
%TO.P,J11,15*%
X30000000Y-79780000D03*
%TO.P,J11,16*%
X32540000Y-79780000D03*
%TO.P,J11,17*%
X30000000Y-82320000D03*
%TO.P,J11,18*%
X32540000Y-82320000D03*
%TO.P,J11,19*%
X30000000Y-84860000D03*
%TO.P,J11,20*%
X32540000Y-84860000D03*
%TD*%
D10*
%TO.P,J_GND,1*%
%TO.N,N/C*%
X110000000Y-18000000D03*
D11*
%TO.P,J_GND,2*%
X110000000Y-20540000D03*
%TD*%
D10*
%TO.P,J_BEZEL,1*%
%TO.N,N/C*%
X55000000Y-18000000D03*
D11*
%TO.P,J_BEZEL,2*%
X55000000Y-20540000D03*
%TO.P,J_BEZEL,3*%
X55000000Y-23080000D03*
%TO.P,J_BEZEL,4*%
X55000000Y-25620000D03*
%TO.P,J_BEZEL,5*%
X55000000Y-28160000D03*
%TO.P,J_BEZEL,6*%
X55000000Y-30700000D03*
%TO.P,J_BEZEL,7*%
X55000000Y-33240000D03*
%TO.P,J_BEZEL,8*%
X55000000Y-35780000D03*
%TO.P,J_BEZEL,9*%
X55000000Y-38320000D03*
%TO.P,J_BEZEL,10*%
X55000000Y-40860000D03*
%TO.P,J_BEZEL,11*%
X55000000Y-43400000D03*
%TO.P,J_BEZEL,12*%
X55000000Y-45940000D03*
%TO.P,J_BEZEL,13*%
X55000000Y-48480000D03*
%TO.P,J_BEZEL,14*%
X55000000Y-51020000D03*
%TO.P,J_BEZEL,15*%
X55000000Y-53560000D03*
%TO.P,J_BEZEL,16*%
X55000000Y-56100000D03*
%TO.P,J_BEZEL,17*%
X55000000Y-58640000D03*
%TO.P,J_BEZEL,18*%
X55000000Y-61180000D03*
%TO.P,J_BEZEL,19*%
X55000000Y-63720000D03*
%TO.P,J_BEZEL,20*%
X55000000Y-66260000D03*
%TD*%
D12*
%TO.P,J5,1*%
%TO.N,N/C*%
X95000000Y-70000000D03*
D13*
%TO.P,J5,2*%
X96016000Y-71780000D03*
%TO.P,J5,3*%
X97032000Y-70000000D03*
%TO.P,J5,4*%
X98048000Y-71780000D03*
%TO.P,J5,5*%
X99064000Y-70000000D03*
%TO.P,J5,6*%
X100080000Y-71780000D03*
%TO.P,J5,7*%
X101096000Y-70000000D03*
%TO.P,J5,8*%
X102112000Y-71780000D03*
D14*
%TO.P,J5,SH*%
X90430000Y-70890000D03*
X106690000Y-70890000D03*
%TD*%
D10*
%TO.P,J_RK,1*%
%TO.N,N/C*%
X100000000Y-18000000D03*
D11*
%TO.P,J_RK,2*%
X100000000Y-20540000D03*
%TO.P,J_RK,3*%
X100000000Y-23080000D03*
%TO.P,J_RK,4*%
X100000000Y-25620000D03*
%TD*%
D15*
%TO.P,J3,SH*%
%TO.N,N/C*%
X70680000Y-46895000D03*
D16*
X70680000Y-51075000D03*
D15*
X79320000Y-46895000D03*
D16*
X79320000Y-51075000D03*
%TD*%
M02*
