%TF.GenerationSoftware,KiCad,Pcbnew,10.0.4*%
%TF.CreationDate,2026-07-22T10:10:38-04:00*%
%TF.ProjectId,cmfd-board-b,636d6664-2d62-46f6-9172-642d622e6b69,rev?*%
%TF.SameCoordinates,Original*%
%TF.FileFunction,Legend,Top*%
%TF.FilePolarity,Positive*%
%FSLAX46Y46*%
G04 Gerber Fmt 4.6, Leading zero omitted, Abs format (unit mm)*
G04 Created by KiCad (PCBNEW 10.0.4) date 2026-07-22 10:10:38*
%MOMM*%
%LPD*%
G01*
G04 APERTURE LIST*
G04 Aperture macros list*
%AMRoundRect*
0 Rectangle with rounded corners*
0 $1 Rounding radius*
0 $2 $3 $4 $5 $6 $7 $8 $9 X,Y pos of 4 corners*
0 Add a 4 corners polygon primitive as box body*
4,1,4,$2,$3,$4,$5,$6,$7,$8,$9,$2,$3,0*
0 Add four circle primitives for the rounded corners*
1,1,$1+$1,$2,$3*
1,1,$1+$1,$4,$5*
1,1,$1+$1,$6,$7*
1,1,$1+$1,$8,$9*
0 Add four rect primitives between the rounded corners*
20,1,$1+$1,$2,$3,$4,$5,0*
20,1,$1+$1,$4,$5,$6,$7,0*
20,1,$1+$1,$6,$7,$8,$9,0*
20,1,$1+$1,$8,$9,$2,$3,0*%
G04 Aperture macros list end*
%ADD10C,0.120000*%
%ADD11C,0.132000*%
%ADD12C,0.150000*%
%ADD13RoundRect,0.225000X-0.225000X-0.250000X0.225000X-0.250000X0.225000X0.250000X-0.225000X0.250000X0*%
%ADD14R,1.700000X1.700000*%
%ADD15C,1.700000*%
%ADD16C,3.200000*%
%ADD17RoundRect,0.150000X-0.512500X-0.150000X0.512500X-0.150000X0.512500X0.150000X-0.512500X0.150000X0*%
%ADD18C,3.250000*%
%ADD19R,1.500000X1.500000*%
%ADD20C,1.500000*%
%ADD21C,2.300000*%
%ADD22C,0.650000*%
%ADD23RoundRect,0.150000X-0.150000X-0.425000X0.150000X-0.425000X0.150000X0.425000X-0.150000X0.425000X0*%
%ADD24RoundRect,0.075000X-0.075000X-0.500000X0.075000X-0.500000X0.075000X0.500000X-0.075000X0.500000X0*%
%ADD25O,1.000000X2.100000*%
%ADD26O,1.000000X1.800000*%
G04 APERTURE END LIST*
D10*
X-9733329Y-84284260D02*
X-9633329Y-84317593D01*
X-9633329Y-84317593D02*
X-9466663Y-84317593D01*
X-9466663Y-84317593D02*
X-9399996Y-84284260D01*
X-9399996Y-84284260D02*
X-9366663Y-84250926D01*
X-9366663Y-84250926D02*
X-9333329Y-84184260D01*
X-9333329Y-84184260D02*
X-9333329Y-84117593D01*
X-9333329Y-84117593D02*
X-9366663Y-84050926D01*
X-9366663Y-84050926D02*
X-9399996Y-84017593D01*
X-9399996Y-84017593D02*
X-9466663Y-83984260D01*
X-9466663Y-83984260D02*
X-9599996Y-83950926D01*
X-9599996Y-83950926D02*
X-9666663Y-83917593D01*
X-9666663Y-83917593D02*
X-9699996Y-83884260D01*
X-9699996Y-83884260D02*
X-9733329Y-83817593D01*
X-9733329Y-83817593D02*
X-9733329Y-83750926D01*
X-9733329Y-83750926D02*
X-9699996Y-83684260D01*
X-9699996Y-83684260D02*
X-9666663Y-83650926D01*
X-9666663Y-83650926D02*
X-9599996Y-83617593D01*
X-9599996Y-83617593D02*
X-9433329Y-83617593D01*
X-9433329Y-83617593D02*
X-9333329Y-83650926D01*
X-8933329Y-84317593D02*
X-8999996Y-84284260D01*
X-8999996Y-84284260D02*
X-9033329Y-84250926D01*
X-9033329Y-84250926D02*
X-9066662Y-84184260D01*
X-9066662Y-84184260D02*
X-9066662Y-83984260D01*
X-9066662Y-83984260D02*
X-9033329Y-83917593D01*
X-9033329Y-83917593D02*
X-8999996Y-83884260D01*
X-8999996Y-83884260D02*
X-8933329Y-83850926D01*
X-8933329Y-83850926D02*
X-8833329Y-83850926D01*
X-8833329Y-83850926D02*
X-8766662Y-83884260D01*
X-8766662Y-83884260D02*
X-8733329Y-83917593D01*
X-8733329Y-83917593D02*
X-8699996Y-83984260D01*
X-8699996Y-83984260D02*
X-8699996Y-84184260D01*
X-8699996Y-84184260D02*
X-8733329Y-84250926D01*
X-8733329Y-84250926D02*
X-8766662Y-84284260D01*
X-8766662Y-84284260D02*
X-8833329Y-84317593D01*
X-8833329Y-84317593D02*
X-8933329Y-84317593D01*
X-8399996Y-84317593D02*
X-8399996Y-83617593D01*
X-8399996Y-83617593D02*
X-8166663Y-84117593D01*
X-8166663Y-84117593D02*
X-7933329Y-83617593D01*
X-7933329Y-83617593D02*
X-7933329Y-84317593D01*
X-6566663Y-83584260D02*
X-7166663Y-84484260D01*
X-5799997Y-83617593D02*
X-5799997Y-84184260D01*
X-5799997Y-84184260D02*
X-5766664Y-84250926D01*
X-5766664Y-84250926D02*
X-5733330Y-84284260D01*
X-5733330Y-84284260D02*
X-5666664Y-84317593D01*
X-5666664Y-84317593D02*
X-5533330Y-84317593D01*
X-5533330Y-84317593D02*
X-5466664Y-84284260D01*
X-5466664Y-84284260D02*
X-5433330Y-84250926D01*
X-5433330Y-84250926D02*
X-5399997Y-84184260D01*
X-5399997Y-84184260D02*
X-5399997Y-83617593D01*
X-5099997Y-84284260D02*
X-4999997Y-84317593D01*
X-4999997Y-84317593D02*
X-4833331Y-84317593D01*
X-4833331Y-84317593D02*
X-4766664Y-84284260D01*
X-4766664Y-84284260D02*
X-4733331Y-84250926D01*
X-4733331Y-84250926D02*
X-4699997Y-84184260D01*
X-4699997Y-84184260D02*
X-4699997Y-84117593D01*
X-4699997Y-84117593D02*
X-4733331Y-84050926D01*
X-4733331Y-84050926D02*
X-4766664Y-84017593D01*
X-4766664Y-84017593D02*
X-4833331Y-83984260D01*
X-4833331Y-83984260D02*
X-4966664Y-83950926D01*
X-4966664Y-83950926D02*
X-5033331Y-83917593D01*
X-5033331Y-83917593D02*
X-5066664Y-83884260D01*
X-5066664Y-83884260D02*
X-5099997Y-83817593D01*
X-5099997Y-83817593D02*
X-5099997Y-83750926D01*
X-5099997Y-83750926D02*
X-5066664Y-83684260D01*
X-5066664Y-83684260D02*
X-5033331Y-83650926D01*
X-5033331Y-83650926D02*
X-4966664Y-83617593D01*
X-4966664Y-83617593D02*
X-4799997Y-83617593D01*
X-4799997Y-83617593D02*
X-4699997Y-83650926D01*
X-4166664Y-83950926D02*
X-4066664Y-83984260D01*
X-4066664Y-83984260D02*
X-4033330Y-84017593D01*
X-4033330Y-84017593D02*
X-3999997Y-84084260D01*
X-3999997Y-84084260D02*
X-3999997Y-84184260D01*
X-3999997Y-84184260D02*
X-4033330Y-84250926D01*
X-4033330Y-84250926D02*
X-4066664Y-84284260D01*
X-4066664Y-84284260D02*
X-4133330Y-84317593D01*
X-4133330Y-84317593D02*
X-4399997Y-84317593D01*
X-4399997Y-84317593D02*
X-4399997Y-83617593D01*
X-4399997Y-83617593D02*
X-4166664Y-83617593D01*
X-4166664Y-83617593D02*
X-4099997Y-83650926D01*
X-4099997Y-83650926D02*
X-4066664Y-83684260D01*
X-4066664Y-83684260D02*
X-4033330Y-83750926D01*
X-4033330Y-83750926D02*
X-4033330Y-83817593D01*
X-4033330Y-83817593D02*
X-4066664Y-83884260D01*
X-4066664Y-83884260D02*
X-4099997Y-83917593D01*
X-4099997Y-83917593D02*
X-4166664Y-83950926D01*
X-4166664Y-83950926D02*
X-4399997Y-83950926D01*
X-3699997Y-84050926D02*
X-3166664Y-84050926D01*
X-2433330Y-84250926D02*
X-2466663Y-84284260D01*
X-2466663Y-84284260D02*
X-2566663Y-84317593D01*
X-2566663Y-84317593D02*
X-2633330Y-84317593D01*
X-2633330Y-84317593D02*
X-2733330Y-84284260D01*
X-2733330Y-84284260D02*
X-2799997Y-84217593D01*
X-2799997Y-84217593D02*
X-2833330Y-84150926D01*
X-2833330Y-84150926D02*
X-2866663Y-84017593D01*
X-2866663Y-84017593D02*
X-2866663Y-83917593D01*
X-2866663Y-83917593D02*
X-2833330Y-83784260D01*
X-2833330Y-83784260D02*
X-2799997Y-83717593D01*
X-2799997Y-83717593D02*
X-2733330Y-83650926D01*
X-2733330Y-83650926D02*
X-2633330Y-83617593D01*
X-2633330Y-83617593D02*
X-2566663Y-83617593D01*
X-2566663Y-83617593D02*
X-2466663Y-83650926D01*
X-2466663Y-83650926D02*
X-2433330Y-83684260D01*
X-1099997Y-83584260D02*
X-1699997Y-84484260D01*
X-333331Y-83850926D02*
X-333331Y-84550926D01*
X-333331Y-83884260D02*
X-266664Y-83850926D01*
X-266664Y-83850926D02*
X-133331Y-83850926D01*
X-133331Y-83850926D02*
X-66664Y-83884260D01*
X-66664Y-83884260D02*
X-33331Y-83917593D01*
X-33331Y-83917593D02*
X1Y-83984260D01*
X1Y-83984260D02*
X1Y-84184260D01*
X1Y-84184260D02*
X-33331Y-84250926D01*
X-33331Y-84250926D02*
X-66664Y-84284260D01*
X-66664Y-84284260D02*
X-133331Y-84317593D01*
X-133331Y-84317593D02*
X-266664Y-84317593D01*
X-266664Y-84317593D02*
X-333331Y-84284260D01*
X400001Y-84317593D02*
X333335Y-84284260D01*
X333335Y-84284260D02*
X300001Y-84250926D01*
X300001Y-84250926D02*
X266668Y-84184260D01*
X266668Y-84184260D02*
X266668Y-83984260D01*
X266668Y-83984260D02*
X300001Y-83917593D01*
X300001Y-83917593D02*
X333335Y-83884260D01*
X333335Y-83884260D02*
X400001Y-83850926D01*
X400001Y-83850926D02*
X500001Y-83850926D01*
X500001Y-83850926D02*
X566668Y-83884260D01*
X566668Y-83884260D02*
X600001Y-83917593D01*
X600001Y-83917593D02*
X633335Y-83984260D01*
X633335Y-83984260D02*
X633335Y-84184260D01*
X633335Y-84184260D02*
X600001Y-84250926D01*
X600001Y-84250926D02*
X566668Y-84284260D01*
X566668Y-84284260D02*
X500001Y-84317593D01*
X500001Y-84317593D02*
X400001Y-84317593D01*
X933334Y-84317593D02*
X933334Y-83850926D01*
X933334Y-83984260D02*
X966668Y-83917593D01*
X966668Y-83917593D02*
X1000001Y-83884260D01*
X1000001Y-83884260D02*
X1066668Y-83850926D01*
X1066668Y-83850926D02*
X1133334Y-83850926D01*
X1266667Y-83850926D02*
X1533334Y-83850926D01*
X1366667Y-83617593D02*
X1366667Y-84217593D01*
X1366667Y-84217593D02*
X1400001Y-84284260D01*
X1400001Y-84284260D02*
X1466667Y-84317593D01*
X1466667Y-84317593D02*
X1533334Y-84317593D01*
X1733334Y-84284260D02*
X1800001Y-84317593D01*
X1800001Y-84317593D02*
X1933334Y-84317593D01*
X1933334Y-84317593D02*
X2000001Y-84284260D01*
X2000001Y-84284260D02*
X2033334Y-84217593D01*
X2033334Y-84217593D02*
X2033334Y-84184260D01*
X2033334Y-84184260D02*
X2000001Y-84117593D01*
X2000001Y-84117593D02*
X1933334Y-84084260D01*
X1933334Y-84084260D02*
X1833334Y-84084260D01*
X1833334Y-84084260D02*
X1766667Y-84050926D01*
X1766667Y-84050926D02*
X1733334Y-83984260D01*
X1733334Y-83984260D02*
X1733334Y-83950926D01*
X1733334Y-83950926D02*
X1766667Y-83884260D01*
X1766667Y-83884260D02*
X1833334Y-83850926D01*
X1833334Y-83850926D02*
X1933334Y-83850926D01*
X1933334Y-83850926D02*
X2000001Y-83884260D01*
X3566667Y-84550926D02*
X3566667Y-83550926D01*
X5066667Y-83850926D02*
X5200000Y-84317593D01*
X5200000Y-84317593D02*
X5333333Y-83984260D01*
X5333333Y-83984260D02*
X5466667Y-84317593D01*
X5466667Y-84317593D02*
X5600000Y-83850926D01*
X5866666Y-84317593D02*
X5866666Y-83850926D01*
X5866666Y-83617593D02*
X5833333Y-83650926D01*
X5833333Y-83650926D02*
X5866666Y-83684260D01*
X5866666Y-83684260D02*
X5900000Y-83650926D01*
X5900000Y-83650926D02*
X5866666Y-83617593D01*
X5866666Y-83617593D02*
X5866666Y-83684260D01*
X6199999Y-84317593D02*
X6199999Y-83850926D01*
X6199999Y-83984260D02*
X6233333Y-83917593D01*
X6233333Y-83917593D02*
X6266666Y-83884260D01*
X6266666Y-83884260D02*
X6333333Y-83850926D01*
X6333333Y-83850926D02*
X6399999Y-83850926D01*
X6899999Y-84284260D02*
X6833332Y-84317593D01*
X6833332Y-84317593D02*
X6699999Y-84317593D01*
X6699999Y-84317593D02*
X6633332Y-84284260D01*
X6633332Y-84284260D02*
X6599999Y-84217593D01*
X6599999Y-84217593D02*
X6599999Y-83950926D01*
X6599999Y-83950926D02*
X6633332Y-83884260D01*
X6633332Y-83884260D02*
X6699999Y-83850926D01*
X6699999Y-83850926D02*
X6833332Y-83850926D01*
X6833332Y-83850926D02*
X6899999Y-83884260D01*
X6899999Y-83884260D02*
X6933332Y-83950926D01*
X6933332Y-83950926D02*
X6933332Y-84017593D01*
X6933332Y-84017593D02*
X6599999Y-84084260D01*
X7766665Y-84317593D02*
X7766665Y-83617593D01*
X7766665Y-83884260D02*
X7833332Y-83850926D01*
X7833332Y-83850926D02*
X7966665Y-83850926D01*
X7966665Y-83850926D02*
X8033332Y-83884260D01*
X8033332Y-83884260D02*
X8066665Y-83917593D01*
X8066665Y-83917593D02*
X8099999Y-83984260D01*
X8099999Y-83984260D02*
X8099999Y-84184260D01*
X8099999Y-84184260D02*
X8066665Y-84250926D01*
X8066665Y-84250926D02*
X8033332Y-84284260D01*
X8033332Y-84284260D02*
X7966665Y-84317593D01*
X7966665Y-84317593D02*
X7833332Y-84317593D01*
X7833332Y-84317593D02*
X7766665Y-84284260D01*
X8666665Y-84284260D02*
X8599998Y-84317593D01*
X8599998Y-84317593D02*
X8466665Y-84317593D01*
X8466665Y-84317593D02*
X8399998Y-84284260D01*
X8399998Y-84284260D02*
X8366665Y-84217593D01*
X8366665Y-84217593D02*
X8366665Y-83950926D01*
X8366665Y-83950926D02*
X8399998Y-83884260D01*
X8399998Y-83884260D02*
X8466665Y-83850926D01*
X8466665Y-83850926D02*
X8599998Y-83850926D01*
X8599998Y-83850926D02*
X8666665Y-83884260D01*
X8666665Y-83884260D02*
X8699998Y-83950926D01*
X8699998Y-83950926D02*
X8699998Y-84017593D01*
X8699998Y-84017593D02*
X8366665Y-84084260D01*
X8933332Y-83850926D02*
X9299998Y-83850926D01*
X9299998Y-83850926D02*
X8933332Y-84317593D01*
X8933332Y-84317593D02*
X9299998Y-84317593D01*
X9833332Y-84284260D02*
X9766665Y-84317593D01*
X9766665Y-84317593D02*
X9633332Y-84317593D01*
X9633332Y-84317593D02*
X9566665Y-84284260D01*
X9566665Y-84284260D02*
X9533332Y-84217593D01*
X9533332Y-84217593D02*
X9533332Y-83950926D01*
X9533332Y-83950926D02*
X9566665Y-83884260D01*
X9566665Y-83884260D02*
X9633332Y-83850926D01*
X9633332Y-83850926D02*
X9766665Y-83850926D01*
X9766665Y-83850926D02*
X9833332Y-83884260D01*
X9833332Y-83884260D02*
X9866665Y-83950926D01*
X9866665Y-83950926D02*
X9866665Y-84017593D01*
X9866665Y-84017593D02*
X9533332Y-84084260D01*
X10266665Y-84317593D02*
X10199999Y-84284260D01*
X10199999Y-84284260D02*
X10166665Y-84217593D01*
X10166665Y-84217593D02*
X10166665Y-83617593D01*
X11066665Y-83850926D02*
X11066665Y-84550926D01*
X11066665Y-83884260D02*
X11133332Y-83850926D01*
X11133332Y-83850926D02*
X11266665Y-83850926D01*
X11266665Y-83850926D02*
X11333332Y-83884260D01*
X11333332Y-83884260D02*
X11366665Y-83917593D01*
X11366665Y-83917593D02*
X11399999Y-83984260D01*
X11399999Y-83984260D02*
X11399999Y-84184260D01*
X11399999Y-84184260D02*
X11366665Y-84250926D01*
X11366665Y-84250926D02*
X11333332Y-84284260D01*
X11333332Y-84284260D02*
X11266665Y-84317593D01*
X11266665Y-84317593D02*
X11133332Y-84317593D01*
X11133332Y-84317593D02*
X11066665Y-84284260D01*
X11699998Y-84317593D02*
X11699998Y-83850926D01*
X11699998Y-83617593D02*
X11666665Y-83650926D01*
X11666665Y-83650926D02*
X11699998Y-83684260D01*
X11699998Y-83684260D02*
X11733332Y-83650926D01*
X11733332Y-83650926D02*
X11699998Y-83617593D01*
X11699998Y-83617593D02*
X11699998Y-83684260D01*
X12033331Y-83850926D02*
X12033331Y-84317593D01*
X12033331Y-83917593D02*
X12066665Y-83884260D01*
X12066665Y-83884260D02*
X12133331Y-83850926D01*
X12133331Y-83850926D02*
X12233331Y-83850926D01*
X12233331Y-83850926D02*
X12299998Y-83884260D01*
X12299998Y-83884260D02*
X12333331Y-83950926D01*
X12333331Y-83950926D02*
X12333331Y-84317593D01*
X12633331Y-84284260D02*
X12699998Y-84317593D01*
X12699998Y-84317593D02*
X12833331Y-84317593D01*
X12833331Y-84317593D02*
X12899998Y-84284260D01*
X12899998Y-84284260D02*
X12933331Y-84217593D01*
X12933331Y-84217593D02*
X12933331Y-84184260D01*
X12933331Y-84184260D02*
X12899998Y-84117593D01*
X12899998Y-84117593D02*
X12833331Y-84084260D01*
X12833331Y-84084260D02*
X12733331Y-84084260D01*
X12733331Y-84084260D02*
X12666664Y-84050926D01*
X12666664Y-84050926D02*
X12633331Y-83984260D01*
X12633331Y-83984260D02*
X12633331Y-83950926D01*
X12633331Y-83950926D02*
X12666664Y-83884260D01*
X12666664Y-83884260D02*
X12733331Y-83850926D01*
X12733331Y-83850926D02*
X12833331Y-83850926D01*
X12833331Y-83850926D02*
X12899998Y-83884260D01*
X13766664Y-84317593D02*
X13766664Y-83617593D01*
X14066664Y-84317593D02*
X14066664Y-83950926D01*
X14066664Y-83950926D02*
X14033331Y-83884260D01*
X14033331Y-83884260D02*
X13966664Y-83850926D01*
X13966664Y-83850926D02*
X13866664Y-83850926D01*
X13866664Y-83850926D02*
X13799998Y-83884260D01*
X13799998Y-83884260D02*
X13766664Y-83917593D01*
X14666664Y-84284260D02*
X14599997Y-84317593D01*
X14599997Y-84317593D02*
X14466664Y-84317593D01*
X14466664Y-84317593D02*
X14399997Y-84284260D01*
X14399997Y-84284260D02*
X14366664Y-84217593D01*
X14366664Y-84217593D02*
X14366664Y-83950926D01*
X14366664Y-83950926D02*
X14399997Y-83884260D01*
X14399997Y-83884260D02*
X14466664Y-83850926D01*
X14466664Y-83850926D02*
X14599997Y-83850926D01*
X14599997Y-83850926D02*
X14666664Y-83884260D01*
X14666664Y-83884260D02*
X14699997Y-83950926D01*
X14699997Y-83950926D02*
X14699997Y-84017593D01*
X14699997Y-84017593D02*
X14366664Y-84084260D01*
X14999997Y-84317593D02*
X14999997Y-83850926D01*
X14999997Y-83984260D02*
X15033331Y-83917593D01*
X15033331Y-83917593D02*
X15066664Y-83884260D01*
X15066664Y-83884260D02*
X15133331Y-83850926D01*
X15133331Y-83850926D02*
X15199997Y-83850926D01*
X15699997Y-84284260D02*
X15633330Y-84317593D01*
X15633330Y-84317593D02*
X15499997Y-84317593D01*
X15499997Y-84317593D02*
X15433330Y-84284260D01*
X15433330Y-84284260D02*
X15399997Y-84217593D01*
X15399997Y-84217593D02*
X15399997Y-83950926D01*
X15399997Y-83950926D02*
X15433330Y-83884260D01*
X15433330Y-83884260D02*
X15499997Y-83850926D01*
X15499997Y-83850926D02*
X15633330Y-83850926D01*
X15633330Y-83850926D02*
X15699997Y-83884260D01*
X15699997Y-83884260D02*
X15733330Y-83950926D01*
X15733330Y-83950926D02*
X15733330Y-84017593D01*
X15733330Y-84017593D02*
X15399997Y-84084260D01*
D11*
X-6926189Y-87397255D02*
X-6978570Y-87449636D01*
X-6978570Y-87449636D02*
X-7135713Y-87502016D01*
X-7135713Y-87502016D02*
X-7240475Y-87502016D01*
X-7240475Y-87502016D02*
X-7397618Y-87449636D01*
X-7397618Y-87449636D02*
X-7502380Y-87344874D01*
X-7502380Y-87344874D02*
X-7554761Y-87240112D01*
X-7554761Y-87240112D02*
X-7607142Y-87030588D01*
X-7607142Y-87030588D02*
X-7607142Y-86873445D01*
X-7607142Y-86873445D02*
X-7554761Y-86663921D01*
X-7554761Y-86663921D02*
X-7502380Y-86559159D01*
X-7502380Y-86559159D02*
X-7397618Y-86454397D01*
X-7397618Y-86454397D02*
X-7240475Y-86402016D01*
X-7240475Y-86402016D02*
X-7135713Y-86402016D01*
X-7135713Y-86402016D02*
X-6978570Y-86454397D01*
X-6978570Y-86454397D02*
X-6926189Y-86506778D01*
X-6454761Y-87502016D02*
X-6454761Y-86402016D01*
X-6454761Y-86402016D02*
X-6088094Y-87187731D01*
X-6088094Y-87187731D02*
X-5721427Y-86402016D01*
X-5721427Y-86402016D02*
X-5721427Y-87502016D01*
X-4830951Y-86925826D02*
X-5197618Y-86925826D01*
X-5197618Y-87502016D02*
X-5197618Y-86402016D01*
X-5197618Y-86402016D02*
X-4673808Y-86402016D01*
X-4254761Y-87502016D02*
X-4254761Y-86402016D01*
X-4254761Y-86402016D02*
X-3992856Y-86402016D01*
X-3992856Y-86402016D02*
X-3835713Y-86454397D01*
X-3835713Y-86454397D02*
X-3730951Y-86559159D01*
X-3730951Y-86559159D02*
X-3678570Y-86663921D01*
X-3678570Y-86663921D02*
X-3626189Y-86873445D01*
X-3626189Y-86873445D02*
X-3626189Y-87030588D01*
X-3626189Y-87030588D02*
X-3678570Y-87240112D01*
X-3678570Y-87240112D02*
X-3730951Y-87344874D01*
X-3730951Y-87344874D02*
X-3835713Y-87449636D01*
X-3835713Y-87449636D02*
X-3992856Y-87502016D01*
X-3992856Y-87502016D02*
X-4254761Y-87502016D01*
X-1949999Y-86925826D02*
X-1792856Y-86978207D01*
X-1792856Y-86978207D02*
X-1740475Y-87030588D01*
X-1740475Y-87030588D02*
X-1688094Y-87135350D01*
X-1688094Y-87135350D02*
X-1688094Y-87292493D01*
X-1688094Y-87292493D02*
X-1740475Y-87397255D01*
X-1740475Y-87397255D02*
X-1792856Y-87449636D01*
X-1792856Y-87449636D02*
X-1897618Y-87502016D01*
X-1897618Y-87502016D02*
X-2316666Y-87502016D01*
X-2316666Y-87502016D02*
X-2316666Y-86402016D01*
X-2316666Y-86402016D02*
X-1949999Y-86402016D01*
X-1949999Y-86402016D02*
X-1845237Y-86454397D01*
X-1845237Y-86454397D02*
X-1792856Y-86506778D01*
X-1792856Y-86506778D02*
X-1740475Y-86611540D01*
X-1740475Y-86611540D02*
X-1740475Y-86716302D01*
X-1740475Y-86716302D02*
X-1792856Y-86821064D01*
X-1792856Y-86821064D02*
X-1845237Y-86873445D01*
X-1845237Y-86873445D02*
X-1949999Y-86925826D01*
X-1949999Y-86925826D02*
X-2316666Y-86925826D01*
X-1007142Y-86402016D02*
X-797618Y-86402016D01*
X-797618Y-86402016D02*
X-692856Y-86454397D01*
X-692856Y-86454397D02*
X-588094Y-86559159D01*
X-588094Y-86559159D02*
X-535713Y-86768683D01*
X-535713Y-86768683D02*
X-535713Y-87135350D01*
X-535713Y-87135350D02*
X-588094Y-87344874D01*
X-588094Y-87344874D02*
X-692856Y-87449636D01*
X-692856Y-87449636D02*
X-797618Y-87502016D01*
X-797618Y-87502016D02*
X-1007142Y-87502016D01*
X-1007142Y-87502016D02*
X-1111904Y-87449636D01*
X-1111904Y-87449636D02*
X-1216666Y-87344874D01*
X-1216666Y-87344874D02*
X-1269047Y-87135350D01*
X-1269047Y-87135350D02*
X-1269047Y-86768683D01*
X-1269047Y-86768683D02*
X-1216666Y-86559159D01*
X-1216666Y-86559159D02*
X-1111904Y-86454397D01*
X-1111904Y-86454397D02*
X-1007142Y-86402016D01*
X-116666Y-87187731D02*
X407143Y-87187731D01*
X-221428Y-87502016D02*
X145238Y-86402016D01*
X145238Y-86402016D02*
X511905Y-87502016D01*
X1507143Y-87502016D02*
X1140476Y-86978207D01*
X878571Y-87502016D02*
X878571Y-86402016D01*
X878571Y-86402016D02*
X1297619Y-86402016D01*
X1297619Y-86402016D02*
X1402381Y-86454397D01*
X1402381Y-86454397D02*
X1454762Y-86506778D01*
X1454762Y-86506778D02*
X1507143Y-86611540D01*
X1507143Y-86611540D02*
X1507143Y-86768683D01*
X1507143Y-86768683D02*
X1454762Y-86873445D01*
X1454762Y-86873445D02*
X1402381Y-86925826D01*
X1402381Y-86925826D02*
X1297619Y-86978207D01*
X1297619Y-86978207D02*
X878571Y-86978207D01*
X1978571Y-87502016D02*
X1978571Y-86402016D01*
X1978571Y-86402016D02*
X2240476Y-86402016D01*
X2240476Y-86402016D02*
X2397619Y-86454397D01*
X2397619Y-86454397D02*
X2502381Y-86559159D01*
X2502381Y-86559159D02*
X2554762Y-86663921D01*
X2554762Y-86663921D02*
X2607143Y-86873445D01*
X2607143Y-86873445D02*
X2607143Y-87030588D01*
X2607143Y-87030588D02*
X2554762Y-87240112D01*
X2554762Y-87240112D02*
X2502381Y-87344874D01*
X2502381Y-87344874D02*
X2397619Y-87449636D01*
X2397619Y-87449636D02*
X2240476Y-87502016D01*
X2240476Y-87502016D02*
X1978571Y-87502016D01*
X3078571Y-87082969D02*
X3916667Y-87082969D01*
X4807143Y-86925826D02*
X4964286Y-86978207D01*
X4964286Y-86978207D02*
X5016667Y-87030588D01*
X5016667Y-87030588D02*
X5069048Y-87135350D01*
X5069048Y-87135350D02*
X5069048Y-87292493D01*
X5069048Y-87292493D02*
X5016667Y-87397255D01*
X5016667Y-87397255D02*
X4964286Y-87449636D01*
X4964286Y-87449636D02*
X4859524Y-87502016D01*
X4859524Y-87502016D02*
X4440476Y-87502016D01*
X4440476Y-87502016D02*
X4440476Y-86402016D01*
X4440476Y-86402016D02*
X4807143Y-86402016D01*
X4807143Y-86402016D02*
X4911905Y-86454397D01*
X4911905Y-86454397D02*
X4964286Y-86506778D01*
X4964286Y-86506778D02*
X5016667Y-86611540D01*
X5016667Y-86611540D02*
X5016667Y-86716302D01*
X5016667Y-86716302D02*
X4964286Y-86821064D01*
X4964286Y-86821064D02*
X4911905Y-86873445D01*
X4911905Y-86873445D02*
X4807143Y-86925826D01*
X4807143Y-86925826D02*
X4440476Y-86925826D01*
X7845238Y-87397255D02*
X7792857Y-87449636D01*
X7792857Y-87449636D02*
X7635714Y-87502016D01*
X7635714Y-87502016D02*
X7530952Y-87502016D01*
X7530952Y-87502016D02*
X7373809Y-87449636D01*
X7373809Y-87449636D02*
X7269047Y-87344874D01*
X7269047Y-87344874D02*
X7216666Y-87240112D01*
X7216666Y-87240112D02*
X7164285Y-87030588D01*
X7164285Y-87030588D02*
X7164285Y-86873445D01*
X7164285Y-86873445D02*
X7216666Y-86663921D01*
X7216666Y-86663921D02*
X7269047Y-86559159D01*
X7269047Y-86559159D02*
X7373809Y-86454397D01*
X7373809Y-86454397D02*
X7530952Y-86402016D01*
X7530952Y-86402016D02*
X7635714Y-86402016D01*
X7635714Y-86402016D02*
X7792857Y-86454397D01*
X7792857Y-86454397D02*
X7845238Y-86506778D01*
X8264285Y-87187731D02*
X8788095Y-87187731D01*
X8159523Y-87502016D02*
X8526190Y-86402016D01*
X8526190Y-86402016D02*
X8892857Y-87502016D01*
X9888095Y-87502016D02*
X9521428Y-86978207D01*
X9259523Y-87502016D02*
X9259523Y-86402016D01*
X9259523Y-86402016D02*
X9678571Y-86402016D01*
X9678571Y-86402016D02*
X9783333Y-86454397D01*
X9783333Y-86454397D02*
X9835714Y-86506778D01*
X9835714Y-86506778D02*
X9888095Y-86611540D01*
X9888095Y-86611540D02*
X9888095Y-86768683D01*
X9888095Y-86768683D02*
X9835714Y-86873445D01*
X9835714Y-86873445D02*
X9783333Y-86925826D01*
X9783333Y-86925826D02*
X9678571Y-86978207D01*
X9678571Y-86978207D02*
X9259523Y-86978207D01*
X10988095Y-87502016D02*
X10621428Y-86978207D01*
X10359523Y-87502016D02*
X10359523Y-86402016D01*
X10359523Y-86402016D02*
X10778571Y-86402016D01*
X10778571Y-86402016D02*
X10883333Y-86454397D01*
X10883333Y-86454397D02*
X10935714Y-86506778D01*
X10935714Y-86506778D02*
X10988095Y-86611540D01*
X10988095Y-86611540D02*
X10988095Y-86768683D01*
X10988095Y-86768683D02*
X10935714Y-86873445D01*
X10935714Y-86873445D02*
X10883333Y-86925826D01*
X10883333Y-86925826D02*
X10778571Y-86978207D01*
X10778571Y-86978207D02*
X10359523Y-86978207D01*
X11459523Y-87502016D02*
X11459523Y-86402016D01*
X11983333Y-86925826D02*
X12350000Y-86925826D01*
X12507143Y-87502016D02*
X11983333Y-87502016D01*
X11983333Y-87502016D02*
X11983333Y-86402016D01*
X11983333Y-86402016D02*
X12507143Y-86402016D01*
X13607143Y-87502016D02*
X13240476Y-86978207D01*
X12978571Y-87502016D02*
X12978571Y-86402016D01*
X12978571Y-86402016D02*
X13397619Y-86402016D01*
X13397619Y-86402016D02*
X13502381Y-86454397D01*
X13502381Y-86454397D02*
X13554762Y-86506778D01*
X13554762Y-86506778D02*
X13607143Y-86611540D01*
X13607143Y-86611540D02*
X13607143Y-86768683D01*
X13607143Y-86768683D02*
X13554762Y-86873445D01*
X13554762Y-86873445D02*
X13502381Y-86925826D01*
X13502381Y-86925826D02*
X13397619Y-86978207D01*
X13397619Y-86978207D02*
X12978571Y-86978207D01*
D12*
X62833333Y-78929580D02*
X62785714Y-78977200D01*
X62785714Y-78977200D02*
X62642857Y-79024819D01*
X62642857Y-79024819D02*
X62547619Y-79024819D01*
X62547619Y-79024819D02*
X62404762Y-78977200D01*
X62404762Y-78977200D02*
X62309524Y-78881961D01*
X62309524Y-78881961D02*
X62261905Y-78786723D01*
X62261905Y-78786723D02*
X62214286Y-78596247D01*
X62214286Y-78596247D02*
X62214286Y-78453390D01*
X62214286Y-78453390D02*
X62261905Y-78262914D01*
X62261905Y-78262914D02*
X62309524Y-78167676D01*
X62309524Y-78167676D02*
X62404762Y-78072438D01*
X62404762Y-78072438D02*
X62547619Y-78024819D01*
X62547619Y-78024819D02*
X62642857Y-78024819D01*
X62642857Y-78024819D02*
X62785714Y-78072438D01*
X62785714Y-78072438D02*
X62833333Y-78120057D01*
X63166667Y-78024819D02*
X63785714Y-78024819D01*
X63785714Y-78024819D02*
X63452381Y-78405771D01*
X63452381Y-78405771D02*
X63595238Y-78405771D01*
X63595238Y-78405771D02*
X63690476Y-78453390D01*
X63690476Y-78453390D02*
X63738095Y-78501009D01*
X63738095Y-78501009D02*
X63785714Y-78596247D01*
X63785714Y-78596247D02*
X63785714Y-78834342D01*
X63785714Y-78834342D02*
X63738095Y-78929580D01*
X63738095Y-78929580D02*
X63690476Y-78977200D01*
X63690476Y-78977200D02*
X63595238Y-79024819D01*
X63595238Y-79024819D02*
X63309524Y-79024819D01*
X63309524Y-79024819D02*
X63214286Y-78977200D01*
X63214286Y-78977200D02*
X63166667Y-78929580D01*
X30460476Y-42074819D02*
X30460476Y-42789104D01*
X30460476Y-42789104D02*
X30412857Y-42931961D01*
X30412857Y-42931961D02*
X30317619Y-43027200D01*
X30317619Y-43027200D02*
X30174762Y-43074819D01*
X30174762Y-43074819D02*
X30079524Y-43074819D01*
X31460476Y-43074819D02*
X30889048Y-43074819D01*
X31174762Y-43074819D02*
X31174762Y-42074819D01*
X31174762Y-42074819D02*
X31079524Y-42217676D01*
X31079524Y-42217676D02*
X30984286Y-42312914D01*
X30984286Y-42312914D02*
X30889048Y-42360533D01*
X32079524Y-42074819D02*
X32174762Y-42074819D01*
X32174762Y-42074819D02*
X32270000Y-42122438D01*
X32270000Y-42122438D02*
X32317619Y-42170057D01*
X32317619Y-42170057D02*
X32365238Y-42265295D01*
X32365238Y-42265295D02*
X32412857Y-42455771D01*
X32412857Y-42455771D02*
X32412857Y-42693866D01*
X32412857Y-42693866D02*
X32365238Y-42884342D01*
X32365238Y-42884342D02*
X32317619Y-42979580D01*
X32317619Y-42979580D02*
X32270000Y-43027200D01*
X32270000Y-43027200D02*
X32174762Y-43074819D01*
X32174762Y-43074819D02*
X32079524Y-43074819D01*
X32079524Y-43074819D02*
X31984286Y-43027200D01*
X31984286Y-43027200D02*
X31936667Y-42979580D01*
X31936667Y-42979580D02*
X31889048Y-42884342D01*
X31889048Y-42884342D02*
X31841429Y-42693866D01*
X31841429Y-42693866D02*
X31841429Y-42455771D01*
X31841429Y-42455771D02*
X31889048Y-42265295D01*
X31889048Y-42265295D02*
X31936667Y-42170057D01*
X31936667Y-42170057D02*
X31984286Y-42122438D01*
X31984286Y-42122438D02*
X32079524Y-42074819D01*
X7238095Y-4304819D02*
X7238095Y-3304819D01*
X7238095Y-3781009D02*
X7809523Y-3781009D01*
X7809523Y-4304819D02*
X7809523Y-3304819D01*
X8809523Y-4304819D02*
X8238095Y-4304819D01*
X8523809Y-4304819D02*
X8523809Y-3304819D01*
X8523809Y-3304819D02*
X8428571Y-3447676D01*
X8428571Y-3447676D02*
X8333333Y-3542914D01*
X8333333Y-3542914D02*
X8238095Y-3590533D01*
X30460476Y-59074819D02*
X30460476Y-59789104D01*
X30460476Y-59789104D02*
X30412857Y-59931961D01*
X30412857Y-59931961D02*
X30317619Y-60027200D01*
X30317619Y-60027200D02*
X30174762Y-60074819D01*
X30174762Y-60074819D02*
X30079524Y-60074819D01*
X31460476Y-60074819D02*
X30889048Y-60074819D01*
X31174762Y-60074819D02*
X31174762Y-59074819D01*
X31174762Y-59074819D02*
X31079524Y-59217676D01*
X31079524Y-59217676D02*
X30984286Y-59312914D01*
X30984286Y-59312914D02*
X30889048Y-59360533D01*
X32412857Y-60074819D02*
X31841429Y-60074819D01*
X32127143Y-60074819D02*
X32127143Y-59074819D01*
X32127143Y-59074819D02*
X32031905Y-59217676D01*
X32031905Y-59217676D02*
X31936667Y-59312914D01*
X31936667Y-59312914D02*
X31841429Y-59360533D01*
X54833333Y-78929580D02*
X54785714Y-78977200D01*
X54785714Y-78977200D02*
X54642857Y-79024819D01*
X54642857Y-79024819D02*
X54547619Y-79024819D01*
X54547619Y-79024819D02*
X54404762Y-78977200D01*
X54404762Y-78977200D02*
X54309524Y-78881961D01*
X54309524Y-78881961D02*
X54261905Y-78786723D01*
X54261905Y-78786723D02*
X54214286Y-78596247D01*
X54214286Y-78596247D02*
X54214286Y-78453390D01*
X54214286Y-78453390D02*
X54261905Y-78262914D01*
X54261905Y-78262914D02*
X54309524Y-78167676D01*
X54309524Y-78167676D02*
X54404762Y-78072438D01*
X54404762Y-78072438D02*
X54547619Y-78024819D01*
X54547619Y-78024819D02*
X54642857Y-78024819D01*
X54642857Y-78024819D02*
X54785714Y-78072438D01*
X54785714Y-78072438D02*
X54833333Y-78120057D01*
X55785714Y-79024819D02*
X55214286Y-79024819D01*
X55500000Y-79024819D02*
X55500000Y-78024819D01*
X55500000Y-78024819D02*
X55404762Y-78167676D01*
X55404762Y-78167676D02*
X55309524Y-78262914D01*
X55309524Y-78262914D02*
X55214286Y-78310533D01*
X108238095Y-15074819D02*
X108238095Y-15789104D01*
X108238095Y-15789104D02*
X108190476Y-15931961D01*
X108190476Y-15931961D02*
X108095238Y-16027200D01*
X108095238Y-16027200D02*
X107952381Y-16074819D01*
X107952381Y-16074819D02*
X107857143Y-16074819D01*
X108476191Y-16170057D02*
X109238095Y-16170057D01*
X110000000Y-15122438D02*
X109904762Y-15074819D01*
X109904762Y-15074819D02*
X109761905Y-15074819D01*
X109761905Y-15074819D02*
X109619048Y-15122438D01*
X109619048Y-15122438D02*
X109523810Y-15217676D01*
X109523810Y-15217676D02*
X109476191Y-15312914D01*
X109476191Y-15312914D02*
X109428572Y-15503390D01*
X109428572Y-15503390D02*
X109428572Y-15646247D01*
X109428572Y-15646247D02*
X109476191Y-15836723D01*
X109476191Y-15836723D02*
X109523810Y-15931961D01*
X109523810Y-15931961D02*
X109619048Y-16027200D01*
X109619048Y-16027200D02*
X109761905Y-16074819D01*
X109761905Y-16074819D02*
X109857143Y-16074819D01*
X109857143Y-16074819D02*
X110000000Y-16027200D01*
X110000000Y-16027200D02*
X110047619Y-15979580D01*
X110047619Y-15979580D02*
X110047619Y-15646247D01*
X110047619Y-15646247D02*
X109857143Y-15646247D01*
X110476191Y-16074819D02*
X110476191Y-15074819D01*
X110476191Y-15074819D02*
X111047619Y-16074819D01*
X111047619Y-16074819D02*
X111047619Y-15074819D01*
X111523810Y-16074819D02*
X111523810Y-15074819D01*
X111523810Y-15074819D02*
X111761905Y-15074819D01*
X111761905Y-15074819D02*
X111904762Y-15122438D01*
X111904762Y-15122438D02*
X112000000Y-15217676D01*
X112000000Y-15217676D02*
X112047619Y-15312914D01*
X112047619Y-15312914D02*
X112095238Y-15503390D01*
X112095238Y-15503390D02*
X112095238Y-15646247D01*
X112095238Y-15646247D02*
X112047619Y-15836723D01*
X112047619Y-15836723D02*
X112000000Y-15931961D01*
X112000000Y-15931961D02*
X111904762Y-16027200D01*
X111904762Y-16027200D02*
X111761905Y-16074819D01*
X111761905Y-16074819D02*
X111523810Y-16074819D01*
X111238095Y-78304819D02*
X111238095Y-77304819D01*
X111238095Y-77781009D02*
X111809523Y-77781009D01*
X111809523Y-78304819D02*
X111809523Y-77304819D01*
X112190476Y-77304819D02*
X112809523Y-77304819D01*
X112809523Y-77304819D02*
X112476190Y-77685771D01*
X112476190Y-77685771D02*
X112619047Y-77685771D01*
X112619047Y-77685771D02*
X112714285Y-77733390D01*
X112714285Y-77733390D02*
X112761904Y-77781009D01*
X112761904Y-77781009D02*
X112809523Y-77876247D01*
X112809523Y-77876247D02*
X112809523Y-78114342D01*
X112809523Y-78114342D02*
X112761904Y-78209580D01*
X112761904Y-78209580D02*
X112714285Y-78257200D01*
X112714285Y-78257200D02*
X112619047Y-78304819D01*
X112619047Y-78304819D02*
X112333333Y-78304819D01*
X112333333Y-78304819D02*
X112238095Y-78257200D01*
X112238095Y-78257200D02*
X112190476Y-78209580D01*
X7238095Y-78304819D02*
X7238095Y-77304819D01*
X7238095Y-77781009D02*
X7809523Y-77781009D01*
X7809523Y-78304819D02*
X7809523Y-77304819D01*
X8714285Y-77638152D02*
X8714285Y-78304819D01*
X8476190Y-77257200D02*
X8238095Y-77971485D01*
X8238095Y-77971485D02*
X8857142Y-77971485D01*
X52476190Y-15074819D02*
X52476190Y-15789104D01*
X52476190Y-15789104D02*
X52428571Y-15931961D01*
X52428571Y-15931961D02*
X52333333Y-16027200D01*
X52333333Y-16027200D02*
X52190476Y-16074819D01*
X52190476Y-16074819D02*
X52095238Y-16074819D01*
X52714286Y-16170057D02*
X53476190Y-16170057D01*
X54047619Y-15551009D02*
X54190476Y-15598628D01*
X54190476Y-15598628D02*
X54238095Y-15646247D01*
X54238095Y-15646247D02*
X54285714Y-15741485D01*
X54285714Y-15741485D02*
X54285714Y-15884342D01*
X54285714Y-15884342D02*
X54238095Y-15979580D01*
X54238095Y-15979580D02*
X54190476Y-16027200D01*
X54190476Y-16027200D02*
X54095238Y-16074819D01*
X54095238Y-16074819D02*
X53714286Y-16074819D01*
X53714286Y-16074819D02*
X53714286Y-15074819D01*
X53714286Y-15074819D02*
X54047619Y-15074819D01*
X54047619Y-15074819D02*
X54142857Y-15122438D01*
X54142857Y-15122438D02*
X54190476Y-15170057D01*
X54190476Y-15170057D02*
X54238095Y-15265295D01*
X54238095Y-15265295D02*
X54238095Y-15360533D01*
X54238095Y-15360533D02*
X54190476Y-15455771D01*
X54190476Y-15455771D02*
X54142857Y-15503390D01*
X54142857Y-15503390D02*
X54047619Y-15551009D01*
X54047619Y-15551009D02*
X53714286Y-15551009D01*
X54714286Y-15551009D02*
X55047619Y-15551009D01*
X55190476Y-16074819D02*
X54714286Y-16074819D01*
X54714286Y-16074819D02*
X54714286Y-15074819D01*
X54714286Y-15074819D02*
X55190476Y-15074819D01*
X55523810Y-15074819D02*
X56190476Y-15074819D01*
X56190476Y-15074819D02*
X55523810Y-16074819D01*
X55523810Y-16074819D02*
X56190476Y-16074819D01*
X56571429Y-15551009D02*
X56904762Y-15551009D01*
X57047619Y-16074819D02*
X56571429Y-16074819D01*
X56571429Y-16074819D02*
X56571429Y-15074819D01*
X56571429Y-15074819D02*
X57047619Y-15074819D01*
X57952381Y-16074819D02*
X57476191Y-16074819D01*
X57476191Y-16074819D02*
X57476191Y-15074819D01*
X68761905Y-69054819D02*
X68761905Y-69864342D01*
X68761905Y-69864342D02*
X68809524Y-69959580D01*
X68809524Y-69959580D02*
X68857143Y-70007200D01*
X68857143Y-70007200D02*
X68952381Y-70054819D01*
X68952381Y-70054819D02*
X69142857Y-70054819D01*
X69142857Y-70054819D02*
X69238095Y-70007200D01*
X69238095Y-70007200D02*
X69285714Y-69959580D01*
X69285714Y-69959580D02*
X69333333Y-69864342D01*
X69333333Y-69864342D02*
X69333333Y-69054819D01*
X70333333Y-70054819D02*
X69761905Y-70054819D01*
X70047619Y-70054819D02*
X70047619Y-69054819D01*
X70047619Y-69054819D02*
X69952381Y-69197676D01*
X69952381Y-69197676D02*
X69857143Y-69292914D01*
X69857143Y-69292914D02*
X69761905Y-69340533D01*
X71285714Y-70054819D02*
X70714286Y-70054819D01*
X71000000Y-70054819D02*
X71000000Y-69054819D01*
X71000000Y-69054819D02*
X70904762Y-69197676D01*
X70904762Y-69197676D02*
X70809524Y-69292914D01*
X70809524Y-69292914D02*
X70714286Y-69340533D01*
X98226666Y-59954819D02*
X98226666Y-60669104D01*
X98226666Y-60669104D02*
X98179047Y-60811961D01*
X98179047Y-60811961D02*
X98083809Y-60907200D01*
X98083809Y-60907200D02*
X97940952Y-60954819D01*
X97940952Y-60954819D02*
X97845714Y-60954819D01*
X99179047Y-59954819D02*
X98702857Y-59954819D01*
X98702857Y-59954819D02*
X98655238Y-60431009D01*
X98655238Y-60431009D02*
X98702857Y-60383390D01*
X98702857Y-60383390D02*
X98798095Y-60335771D01*
X98798095Y-60335771D02*
X99036190Y-60335771D01*
X99036190Y-60335771D02*
X99131428Y-60383390D01*
X99131428Y-60383390D02*
X99179047Y-60431009D01*
X99179047Y-60431009D02*
X99226666Y-60526247D01*
X99226666Y-60526247D02*
X99226666Y-60764342D01*
X99226666Y-60764342D02*
X99179047Y-60859580D01*
X99179047Y-60859580D02*
X99131428Y-60907200D01*
X99131428Y-60907200D02*
X99036190Y-60954819D01*
X99036190Y-60954819D02*
X98798095Y-60954819D01*
X98798095Y-60954819D02*
X98702857Y-60907200D01*
X98702857Y-60907200D02*
X98655238Y-60859580D01*
X111238095Y-4304819D02*
X111238095Y-3304819D01*
X111238095Y-3781009D02*
X111809523Y-3781009D01*
X111809523Y-4304819D02*
X111809523Y-3304819D01*
X112238095Y-3400057D02*
X112285714Y-3352438D01*
X112285714Y-3352438D02*
X112380952Y-3304819D01*
X112380952Y-3304819D02*
X112619047Y-3304819D01*
X112619047Y-3304819D02*
X112714285Y-3352438D01*
X112714285Y-3352438D02*
X112761904Y-3400057D01*
X112761904Y-3400057D02*
X112809523Y-3495295D01*
X112809523Y-3495295D02*
X112809523Y-3590533D01*
X112809523Y-3590533D02*
X112761904Y-3733390D01*
X112761904Y-3733390D02*
X112190476Y-4304819D01*
X112190476Y-4304819D02*
X112809523Y-4304819D01*
X98761904Y-15074819D02*
X98761904Y-15789104D01*
X98761904Y-15789104D02*
X98714285Y-15931961D01*
X98714285Y-15931961D02*
X98619047Y-16027200D01*
X98619047Y-16027200D02*
X98476190Y-16074819D01*
X98476190Y-16074819D02*
X98380952Y-16074819D01*
X99000000Y-16170057D02*
X99761904Y-16170057D01*
X100571428Y-16074819D02*
X100238095Y-15598628D01*
X100000000Y-16074819D02*
X100000000Y-15074819D01*
X100000000Y-15074819D02*
X100380952Y-15074819D01*
X100380952Y-15074819D02*
X100476190Y-15122438D01*
X100476190Y-15122438D02*
X100523809Y-15170057D01*
X100523809Y-15170057D02*
X100571428Y-15265295D01*
X100571428Y-15265295D02*
X100571428Y-15408152D01*
X100571428Y-15408152D02*
X100523809Y-15503390D01*
X100523809Y-15503390D02*
X100476190Y-15551009D01*
X100476190Y-15551009D02*
X100380952Y-15598628D01*
X100380952Y-15598628D02*
X100000000Y-15598628D01*
X101000000Y-16074819D02*
X101000000Y-15074819D01*
X101571428Y-16074819D02*
X101142857Y-15503390D01*
X101571428Y-15074819D02*
X101000000Y-15646247D01*
X74666666Y-43954819D02*
X74666666Y-44669104D01*
X74666666Y-44669104D02*
X74619047Y-44811961D01*
X74619047Y-44811961D02*
X74523809Y-44907200D01*
X74523809Y-44907200D02*
X74380952Y-44954819D01*
X74380952Y-44954819D02*
X74285714Y-44954819D01*
X75047619Y-43954819D02*
X75666666Y-43954819D01*
X75666666Y-43954819D02*
X75333333Y-44335771D01*
X75333333Y-44335771D02*
X75476190Y-44335771D01*
X75476190Y-44335771D02*
X75571428Y-44383390D01*
X75571428Y-44383390D02*
X75619047Y-44431009D01*
X75619047Y-44431009D02*
X75666666Y-44526247D01*
X75666666Y-44526247D02*
X75666666Y-44764342D01*
X75666666Y-44764342D02*
X75619047Y-44859580D01*
X75619047Y-44859580D02*
X75571428Y-44907200D01*
X75571428Y-44907200D02*
X75476190Y-44954819D01*
X75476190Y-44954819D02*
X75190476Y-44954819D01*
X75190476Y-44954819D02*
X75095238Y-44907200D01*
X75095238Y-44907200D02*
X75047619Y-44859580D01*
X66833333Y-78929580D02*
X66785714Y-78977200D01*
X66785714Y-78977200D02*
X66642857Y-79024819D01*
X66642857Y-79024819D02*
X66547619Y-79024819D01*
X66547619Y-79024819D02*
X66404762Y-78977200D01*
X66404762Y-78977200D02*
X66309524Y-78881961D01*
X66309524Y-78881961D02*
X66261905Y-78786723D01*
X66261905Y-78786723D02*
X66214286Y-78596247D01*
X66214286Y-78596247D02*
X66214286Y-78453390D01*
X66214286Y-78453390D02*
X66261905Y-78262914D01*
X66261905Y-78262914D02*
X66309524Y-78167676D01*
X66309524Y-78167676D02*
X66404762Y-78072438D01*
X66404762Y-78072438D02*
X66547619Y-78024819D01*
X66547619Y-78024819D02*
X66642857Y-78024819D01*
X66642857Y-78024819D02*
X66785714Y-78072438D01*
X66785714Y-78072438D02*
X66833333Y-78120057D01*
X67690476Y-78358152D02*
X67690476Y-79024819D01*
X67452381Y-77977200D02*
X67214286Y-78691485D01*
X67214286Y-78691485D02*
X67833333Y-78691485D01*
X58833333Y-78929580D02*
X58785714Y-78977200D01*
X58785714Y-78977200D02*
X58642857Y-79024819D01*
X58642857Y-79024819D02*
X58547619Y-79024819D01*
X58547619Y-79024819D02*
X58404762Y-78977200D01*
X58404762Y-78977200D02*
X58309524Y-78881961D01*
X58309524Y-78881961D02*
X58261905Y-78786723D01*
X58261905Y-78786723D02*
X58214286Y-78596247D01*
X58214286Y-78596247D02*
X58214286Y-78453390D01*
X58214286Y-78453390D02*
X58261905Y-78262914D01*
X58261905Y-78262914D02*
X58309524Y-78167676D01*
X58309524Y-78167676D02*
X58404762Y-78072438D01*
X58404762Y-78072438D02*
X58547619Y-78024819D01*
X58547619Y-78024819D02*
X58642857Y-78024819D01*
X58642857Y-78024819D02*
X58785714Y-78072438D01*
X58785714Y-78072438D02*
X58833333Y-78120057D01*
X59214286Y-78120057D02*
X59261905Y-78072438D01*
X59261905Y-78072438D02*
X59357143Y-78024819D01*
X59357143Y-78024819D02*
X59595238Y-78024819D01*
X59595238Y-78024819D02*
X59690476Y-78072438D01*
X59690476Y-78072438D02*
X59738095Y-78120057D01*
X59738095Y-78120057D02*
X59785714Y-78215295D01*
X59785714Y-78215295D02*
X59785714Y-78310533D01*
X59785714Y-78310533D02*
X59738095Y-78453390D01*
X59738095Y-78453390D02*
X59166667Y-79024819D01*
X59166667Y-79024819D02*
X59785714Y-79024819D01*
%TO.C,C3*%
D10*
X62859420Y-79490000D02*
X63140580Y-79490000D01*
X62859420Y-80510000D02*
X63140580Y-80510000D01*
%TO.C,J10*%
X28620000Y-43620000D02*
X30000000Y-43620000D01*
X28620000Y-45000000D02*
X28620000Y-43620000D01*
X28620000Y-46270000D02*
X28620000Y-69240000D01*
X28620000Y-46270000D02*
X31270000Y-46270000D01*
X28620000Y-69240000D02*
X33920000Y-69240000D01*
X31270000Y-43620000D02*
X33920000Y-43620000D01*
X31270000Y-46270000D02*
X31270000Y-43620000D01*
X33920000Y-43620000D02*
X33920000Y-69240000D01*
%TO.C,J11*%
X28620000Y-60620000D02*
X30000000Y-60620000D01*
X28620000Y-62000000D02*
X28620000Y-60620000D01*
X28620000Y-63270000D02*
X28620000Y-86240000D01*
X28620000Y-63270000D02*
X31270000Y-63270000D01*
X28620000Y-86240000D02*
X33920000Y-86240000D01*
X31270000Y-60620000D02*
X33920000Y-60620000D01*
X31270000Y-63270000D02*
X31270000Y-60620000D01*
X33920000Y-60620000D02*
X33920000Y-86240000D01*
%TO.C,C1*%
X54859420Y-79490000D02*
X55140580Y-79490000D01*
X54859420Y-80510000D02*
X55140580Y-80510000D01*
%TO.C,J_GND*%
X108620000Y-16620000D02*
X110000000Y-16620000D01*
X108620000Y-18000000D02*
X108620000Y-16620000D01*
X108620000Y-19270000D02*
X108620000Y-21920000D01*
X108620000Y-19270000D02*
X111380000Y-19270000D01*
X108620000Y-21920000D02*
X111380000Y-21920000D01*
X111380000Y-19270000D02*
X111380000Y-21920000D01*
%TO.C,J_BEZEL*%
X53620000Y-16620000D02*
X55000000Y-16620000D01*
X53620000Y-18000000D02*
X53620000Y-16620000D01*
X53620000Y-19270000D02*
X53620000Y-67640000D01*
X53620000Y-19270000D02*
X56380000Y-19270000D01*
X53620000Y-67640000D02*
X56380000Y-67640000D01*
X56380000Y-19270000D02*
X56380000Y-67640000D01*
%TO.C,U11*%
X69090000Y-70440000D02*
X70910000Y-70440000D01*
X69090000Y-70490000D02*
X69090000Y-70440000D01*
X69090000Y-73560000D02*
X69090000Y-73510000D01*
X70910000Y-70440000D02*
X70910000Y-70490000D01*
X70910000Y-71610000D02*
X70910000Y-72390000D01*
X70910000Y-73510000D02*
X70910000Y-73560000D01*
X70910000Y-73560000D02*
X69090000Y-73560000D01*
X68550000Y-70490000D02*
X68310000Y-70160000D01*
X68790000Y-70160000D01*
X68550000Y-70490000D01*
G36*
X68550000Y-70490000D02*
G01*
X68310000Y-70160000D01*
X68790000Y-70160000D01*
X68550000Y-70490000D01*
G37*
%TO.C,J5*%
X89500000Y-68800000D02*
X90000000Y-69300000D01*
X89500000Y-69800000D02*
X89500000Y-68800000D01*
X90000000Y-69300000D02*
X89500000Y-69800000D01*
X90195000Y-61890000D02*
X90195000Y-69500000D01*
X90195000Y-77860000D02*
X90195000Y-72300000D01*
X90240000Y-61890000D02*
X106880000Y-61890000D01*
X90240000Y-77860000D02*
X106925000Y-77860000D01*
X106925000Y-61890000D02*
X106925000Y-69500000D01*
X106925000Y-77860000D02*
X106925000Y-72300000D01*
%TO.C,J_RK*%
X98620000Y-16620000D02*
X100000000Y-16620000D01*
X98620000Y-18000000D02*
X98620000Y-16620000D01*
X98620000Y-19270000D02*
X98620000Y-27000000D01*
X98620000Y-19270000D02*
X101380000Y-19270000D01*
X98620000Y-27000000D02*
X101380000Y-27000000D01*
X101380000Y-19270000D02*
X101380000Y-27000000D01*
%TO.C,J3*%
X70330000Y-49900000D02*
X70330000Y-48200000D01*
X79670000Y-49900000D02*
X79670000Y-48200000D01*
%TO.C,C4*%
X66859420Y-79490000D02*
X67140580Y-79490000D01*
X66859420Y-80510000D02*
X67140580Y-80510000D01*
%TO.C,C2*%
X58859420Y-79490000D02*
X59140580Y-79490000D01*
X58859420Y-80510000D02*
X59140580Y-80510000D01*
%TD*%
%LPC*%
D13*
%TO.C,C3*%
X62225000Y-80000000D03*
X63775000Y-80000000D03*
%TD*%
D14*
%TO.C,J10*%
X30000000Y-45000000D03*
D15*
X32540000Y-45000000D03*
X30000000Y-47540000D03*
X32540000Y-47540000D03*
X30000000Y-50080000D03*
X32540000Y-50080000D03*
X30000000Y-52620000D03*
X32540000Y-52620000D03*
X30000000Y-55160000D03*
X32540000Y-55160000D03*
X30000000Y-57700000D03*
X32540000Y-57700000D03*
X30000000Y-60240000D03*
X32540000Y-60240000D03*
X30000000Y-62780000D03*
X32540000Y-62780000D03*
X30000000Y-65320000D03*
X32540000Y-65320000D03*
X30000000Y-67860000D03*
X32540000Y-67860000D03*
%TD*%
D16*
%TO.C,H1*%
X8000000Y-8000000D03*
%TD*%
D14*
%TO.C,J11*%
X30000000Y-62000000D03*
D15*
X32540000Y-62000000D03*
X30000000Y-64540000D03*
X32540000Y-64540000D03*
X30000000Y-67080000D03*
X32540000Y-67080000D03*
X30000000Y-69620000D03*
X32540000Y-69620000D03*
X30000000Y-72160000D03*
X32540000Y-72160000D03*
X30000000Y-74700000D03*
X32540000Y-74700000D03*
X30000000Y-77240000D03*
X32540000Y-77240000D03*
X30000000Y-79780000D03*
X32540000Y-79780000D03*
X30000000Y-82320000D03*
X32540000Y-82320000D03*
X30000000Y-84860000D03*
X32540000Y-84860000D03*
%TD*%
D13*
%TO.C,C1*%
X54225000Y-80000000D03*
X55775000Y-80000000D03*
%TD*%
D14*
%TO.C,J_GND*%
X110000000Y-18000000D03*
D15*
X110000000Y-20540000D03*
%TD*%
D16*
%TO.C,H3*%
X112000000Y-82000000D03*
%TD*%
%TO.C,H4*%
X8000000Y-82000000D03*
%TD*%
D14*
%TO.C,J_BEZEL*%
X55000000Y-18000000D03*
D15*
X55000000Y-20540000D03*
X55000000Y-23080000D03*
X55000000Y-25620000D03*
X55000000Y-28160000D03*
X55000000Y-30700000D03*
X55000000Y-33240000D03*
X55000000Y-35780000D03*
X55000000Y-38320000D03*
X55000000Y-40860000D03*
X55000000Y-43400000D03*
X55000000Y-45940000D03*
X55000000Y-48480000D03*
X55000000Y-51020000D03*
X55000000Y-53560000D03*
X55000000Y-56100000D03*
X55000000Y-58640000D03*
X55000000Y-61180000D03*
X55000000Y-63720000D03*
X55000000Y-66260000D03*
%TD*%
D17*
%TO.C,U11*%
X68862500Y-71050000D03*
X68862500Y-72000000D03*
X68862500Y-72950000D03*
X71137500Y-72950000D03*
X71137500Y-71050000D03*
%TD*%
D18*
%TO.C,J5*%
X92210000Y-67460000D03*
X104910000Y-67460000D03*
D19*
X95000000Y-70000000D03*
D20*
X96016000Y-71780000D03*
X97032000Y-70000000D03*
X98048000Y-71780000D03*
X99064000Y-70000000D03*
X100080000Y-71780000D03*
X101096000Y-70000000D03*
X102112000Y-71780000D03*
D21*
X90430000Y-70890000D03*
X106690000Y-70890000D03*
%TD*%
D16*
%TO.C,H2*%
X112000000Y-8000000D03*
%TD*%
D14*
%TO.C,J_RK*%
X100000000Y-18000000D03*
D15*
X100000000Y-20540000D03*
X100000000Y-23080000D03*
X100000000Y-25620000D03*
%TD*%
D22*
%TO.C,J3*%
X72110000Y-47395000D03*
X77890000Y-47395000D03*
D23*
X71800000Y-46320000D03*
X72600000Y-46320000D03*
D24*
X73750000Y-46320000D03*
X74750000Y-46320000D03*
X75250000Y-46320000D03*
X76250000Y-46320000D03*
D23*
X77400000Y-46320000D03*
X78200000Y-46320000D03*
X78200000Y-46320000D03*
X77400000Y-46320000D03*
D24*
X76750000Y-46320000D03*
X75750000Y-46320000D03*
X74250000Y-46320000D03*
X73250000Y-46320000D03*
D23*
X72600000Y-46320000D03*
X71800000Y-46320000D03*
D25*
X70680000Y-46895000D03*
D26*
X70680000Y-51075000D03*
D25*
X79320000Y-46895000D03*
D26*
X79320000Y-51075000D03*
%TD*%
D13*
%TO.C,C4*%
X66225000Y-80000000D03*
X67775000Y-80000000D03*
%TD*%
%TO.C,C2*%
X58225000Y-80000000D03*
X59775000Y-80000000D03*
%TD*%
%LPD*%
M02*
