%TF.GenerationSoftware,KiCad,Pcbnew,10.0.4*%
%TF.CreationDate,2026-07-22T09:59:53-04:00*%
%TF.ProjectId,cmfd-board-b,636d6664-2d62-46f6-9172-642d622e6b69,rev?*%
%TF.SameCoordinates,Original*%
%TF.FileFunction,Soldermask,Top*%
%TF.FilePolarity,Negative*%
%FSLAX46Y46*%
G04 Gerber Fmt 4.6, Leading zero omitted, Abs format (unit mm)*
G04 Created by KiCad (PCBNEW 10.0.4) date 2026-07-22 09:59:53*
%MOMM*%
%LPD*%
G01*
G04 APERTURE LIST*
G04 Aperture macros list*
%AMRoundRect*
0 Rectangle with rounded corners*
0 $1 Rounding radius*
0 $2 $3 $4 $5 $6 $7 $8 $9 X,Y pos of 4 corners*
0 Add a 4 corners polygon primitive as box body*
4,1,4,$2,$3,$4,$5,$6,$7,$8,$9,$2,$3,0*
0 Add four circle primitives for the rounded corners*
1,1,$1+$1,$2,$3*
1,1,$1+$1,$4,$5*
1,1,$1+$1,$6,$7*
1,1,$1+$1,$8,$9*
0 Add four rect primitives between the rounded corners*
20,1,$1+$1,$2,$3,$4,$5,0*
20,1,$1+$1,$4,$5,$6,$7,0*
20,1,$1+$1,$6,$7,$8,$9,0*
20,1,$1+$1,$8,$9,$2,$3,0*%
G04 Aperture macros list end*
%ADD10RoundRect,0.225000X-0.225000X-0.250000X0.225000X-0.250000X0.225000X0.250000X-0.225000X0.250000X0*%
%ADD11C,6.400000*%
%ADD12R,1.700000X1.700000*%
%ADD13C,1.700000*%
%ADD14C,0.650000*%
%ADD15RoundRect,0.150000X-0.150000X-0.425000X0.150000X-0.425000X0.150000X0.425000X-0.150000X0.425000X0*%
%ADD16RoundRect,0.075000X-0.075000X-0.500000X0.075000X-0.500000X0.075000X0.500000X-0.075000X0.500000X0*%
%ADD17O,1.000000X2.100000*%
%ADD18O,1.000000X1.800000*%
%ADD19RoundRect,0.150000X-0.512500X-0.150000X0.512500X-0.150000X0.512500X0.150000X-0.512500X0.150000X0*%
%ADD20C,3.250000*%
%ADD21R,1.500000X1.500000*%
%ADD22C,1.500000*%
%ADD23C,2.300000*%
%ADD24RoundRect,0.150000X-0.825000X-0.150000X0.825000X-0.150000X0.825000X0.150000X-0.825000X0.150000X0*%
G04 APERTURE END LIST*
D10*
%TO.C,C1*%
X69225000Y-80000000D03*
X70775000Y-80000000D03*
%TD*%
%TO.C,C5*%
X85225000Y-80000000D03*
X86775000Y-80000000D03*
%TD*%
%TO.C,C6*%
X89225000Y-80000000D03*
X90775000Y-80000000D03*
%TD*%
D11*
%TO.C,H2*%
X114000000Y-6000000D03*
%TD*%
D10*
%TO.C,C4*%
X81225000Y-80000000D03*
X82775000Y-80000000D03*
%TD*%
D12*
%TO.C,J6*%
X95000000Y-18000000D03*
D13*
X97540000Y-18000000D03*
X95000000Y-20540000D03*
X97540000Y-20540000D03*
X95000000Y-23080000D03*
X97540000Y-23080000D03*
X95000000Y-25620000D03*
X97540000Y-25620000D03*
X95000000Y-28160000D03*
X97540000Y-28160000D03*
%TD*%
D12*
%TO.C,J11*%
X28000000Y-58000000D03*
D13*
X30540000Y-58000000D03*
X28000000Y-60540000D03*
X30540000Y-60540000D03*
X28000000Y-63080000D03*
X30540000Y-63080000D03*
X28000000Y-65620000D03*
X30540000Y-65620000D03*
X28000000Y-68160000D03*
X30540000Y-68160000D03*
X28000000Y-70700000D03*
X30540000Y-70700000D03*
X28000000Y-73240000D03*
X30540000Y-73240000D03*
X28000000Y-75780000D03*
X30540000Y-75780000D03*
X28000000Y-78320000D03*
X30540000Y-78320000D03*
X28000000Y-80860000D03*
X30540000Y-80860000D03*
%TD*%
D12*
%TO.C,J7*%
X110000000Y-18000000D03*
D13*
X110000000Y-20540000D03*
X110000000Y-23080000D03*
X110000000Y-25620000D03*
%TD*%
D12*
%TO.C,J2*%
X75000000Y-48000000D03*
D13*
X77540000Y-48000000D03*
X75000000Y-50540000D03*
X77540000Y-50540000D03*
X75000000Y-53080000D03*
X77540000Y-53080000D03*
X75000000Y-55620000D03*
X77540000Y-55620000D03*
X75000000Y-58160000D03*
X77540000Y-58160000D03*
X75000000Y-60700000D03*
X77540000Y-60700000D03*
X75000000Y-63240000D03*
X77540000Y-63240000D03*
X75000000Y-65780000D03*
X77540000Y-65780000D03*
X75000000Y-68320000D03*
X77540000Y-68320000D03*
X75000000Y-70860000D03*
X77540000Y-70860000D03*
%TD*%
D14*
%TO.C,J4*%
X55110000Y-9395000D03*
X60890000Y-9395000D03*
D15*
X54800000Y-8320000D03*
X55600000Y-8320000D03*
D16*
X56750000Y-8320000D03*
X57750000Y-8320000D03*
X58250000Y-8320000D03*
X59250000Y-8320000D03*
D15*
X60400000Y-8320000D03*
X61200000Y-8320000D03*
X61200000Y-8320000D03*
X60400000Y-8320000D03*
D16*
X59750000Y-8320000D03*
X58750000Y-8320000D03*
X57250000Y-8320000D03*
X56250000Y-8320000D03*
D15*
X55600000Y-8320000D03*
X54800000Y-8320000D03*
D17*
X53680000Y-8895000D03*
D18*
X53680000Y-13075000D03*
D17*
X62320000Y-8895000D03*
D18*
X62320000Y-13075000D03*
%TD*%
D10*
%TO.C,C3*%
X77225000Y-80000000D03*
X78775000Y-80000000D03*
%TD*%
D12*
%TO.C,J8*%
X110000000Y-55000000D03*
D13*
X110000000Y-57540000D03*
X110000000Y-60080000D03*
X110000000Y-62620000D03*
%TD*%
D19*
%TO.C,U12*%
X106862500Y-71050000D03*
X106862500Y-72000000D03*
X106862500Y-72950000D03*
X109137500Y-72950000D03*
X109137500Y-71050000D03*
%TD*%
%TO.C,U11*%
X93862500Y-71050000D03*
X93862500Y-72000000D03*
X93862500Y-72950000D03*
X96137500Y-72950000D03*
X96137500Y-71050000D03*
%TD*%
D11*
%TO.C,H4*%
X6000000Y-84000000D03*
%TD*%
D10*
%TO.C,C2*%
X73225000Y-80000000D03*
X74775000Y-80000000D03*
%TD*%
D14*
%TO.C,J3*%
X19110000Y-9395000D03*
X24890000Y-9395000D03*
D15*
X18800000Y-8320000D03*
X19600000Y-8320000D03*
D16*
X20750000Y-8320000D03*
X21750000Y-8320000D03*
X22250000Y-8320000D03*
X23250000Y-8320000D03*
D15*
X24400000Y-8320000D03*
X25200000Y-8320000D03*
X25200000Y-8320000D03*
X24400000Y-8320000D03*
D16*
X23750000Y-8320000D03*
X22750000Y-8320000D03*
X21250000Y-8320000D03*
X20250000Y-8320000D03*
D15*
X19600000Y-8320000D03*
X18800000Y-8320000D03*
D17*
X17680000Y-8895000D03*
D18*
X17680000Y-13075000D03*
D17*
X26320000Y-8895000D03*
D18*
X26320000Y-13075000D03*
%TD*%
D20*
%TO.C,J5*%
X19210000Y-75460000D03*
X31910000Y-75460000D03*
D21*
X22000000Y-78000000D03*
D22*
X23016000Y-79780000D03*
X24032000Y-78000000D03*
X25048000Y-79780000D03*
X26064000Y-78000000D03*
X27080000Y-79780000D03*
X28096000Y-78000000D03*
X29112000Y-79780000D03*
D23*
X17430000Y-78890000D03*
X33690000Y-78890000D03*
%TD*%
D12*
%TO.C,J10*%
X28000000Y-40000000D03*
D13*
X30540000Y-40000000D03*
X28000000Y-42540000D03*
X30540000Y-42540000D03*
X28000000Y-45080000D03*
X30540000Y-45080000D03*
X28000000Y-47620000D03*
X30540000Y-47620000D03*
X28000000Y-50160000D03*
X30540000Y-50160000D03*
X28000000Y-52700000D03*
X30540000Y-52700000D03*
X28000000Y-55240000D03*
X30540000Y-55240000D03*
X28000000Y-57780000D03*
X30540000Y-57780000D03*
X28000000Y-60320000D03*
X30540000Y-60320000D03*
X28000000Y-62860000D03*
X30540000Y-62860000D03*
%TD*%
D24*
%TO.C,U6*%
X92525000Y-38095000D03*
X92525000Y-39365000D03*
X92525000Y-40635000D03*
X92525000Y-41905000D03*
X97475000Y-41905000D03*
X97475000Y-40635000D03*
X97475000Y-39365000D03*
X97475000Y-38095000D03*
%TD*%
D11*
%TO.C,H3*%
X114000000Y-84000000D03*
%TD*%
%TO.C,H1*%
X6000000Y-6000000D03*
%TD*%
M02*
