%TF.GenerationSoftware,KiCad,Pcbnew,10.0.4*%
%TF.CreationDate,2026-07-22T13:49:56-04:00*%
%TF.ProjectId,cmfd-board-b,636d6664-2d62-46f6-9172-642d622e6b69,rev?*%
%TF.SameCoordinates,Original*%
%TF.FileFunction,Soldermask,Top*%
%TF.FilePolarity,Negative*%
%FSLAX46Y46*%
G04 Gerber Fmt 4.6, Leading zero omitted, Abs format (unit mm)*
G04 Created by KiCad (PCBNEW 10.0.4) date 2026-07-22 13:49:56*
%MOMM*%
%LPD*%
G01*
G04 APERTURE LIST*
G04 Aperture macros list*
%AMRoundRect*
0 Rectangle with rounded corners*
0 $1 Rounding radius*
0 $2 $3 $4 $5 $6 $7 $8 $9 X,Y pos of 4 corners*
0 Add a 4 corners polygon primitive as box body*
4,1,4,$2,$3,$4,$5,$6,$7,$8,$9,$2,$3,0*
0 Add four circle primitives for the rounded corners*
1,1,$1+$1,$2,$3*
1,1,$1+$1,$4,$5*
1,1,$1+$1,$6,$7*
1,1,$1+$1,$8,$9*
0 Add four rect primitives between the rounded corners*
20,1,$1+$1,$2,$3,$4,$5,0*
20,1,$1+$1,$4,$5,$6,$7,0*
20,1,$1+$1,$6,$7,$8,$9,0*
20,1,$1+$1,$8,$9,$2,$3,0*%
G04 Aperture macros list end*
%ADD10RoundRect,0.225000X-0.225000X-0.250000X0.225000X-0.250000X0.225000X0.250000X-0.225000X0.250000X0*%
%ADD11C,3.200000*%
%ADD12R,1.700000X1.700000*%
%ADD13C,1.700000*%
%ADD14C,3.250000*%
%ADD15R,1.500000X1.500000*%
%ADD16C,1.500000*%
%ADD17C,2.300000*%
%ADD18RoundRect,0.150000X-0.512500X-0.150000X0.512500X-0.150000X0.512500X0.150000X-0.512500X0.150000X0*%
%ADD19C,0.650000*%
%ADD20RoundRect,0.150000X-0.425000X0.150000X-0.425000X-0.150000X0.425000X-0.150000X0.425000X0.150000X0*%
%ADD21RoundRect,0.075000X-0.500000X0.075000X-0.500000X-0.075000X0.500000X-0.075000X0.500000X0.075000X0*%
%ADD22O,2.100000X1.000000*%
%ADD23O,1.800000X1.000000*%
G04 APERTURE END LIST*
D10*
%TO.C,C3*%
X62225000Y-68000000D03*
X63775000Y-68000000D03*
%TD*%
D11*
%TO.C,H1*%
X8000000Y-8000000D03*
%TD*%
D12*
%TO.C,J6*%
X96000000Y-5000000D03*
D13*
X93460000Y-5000000D03*
X90920000Y-5000000D03*
X88380000Y-5000000D03*
%TD*%
D10*
%TO.C,C1*%
X54225000Y-68000000D03*
X55775000Y-68000000D03*
%TD*%
D11*
%TO.C,H2*%
X112000000Y-8000000D03*
%TD*%
D12*
%TO.C,J11*%
X30000000Y-62000000D03*
D13*
X32540000Y-62000000D03*
X30000000Y-64540000D03*
X32540000Y-64540000D03*
X30000000Y-67080000D03*
X32540000Y-67080000D03*
X30000000Y-69620000D03*
X32540000Y-69620000D03*
X30000000Y-72160000D03*
X32540000Y-72160000D03*
X30000000Y-74700000D03*
X32540000Y-74700000D03*
X30000000Y-77240000D03*
X32540000Y-77240000D03*
X30000000Y-79780000D03*
X32540000Y-79780000D03*
X30000000Y-82320000D03*
X32540000Y-82320000D03*
X30000000Y-84860000D03*
X32540000Y-84860000D03*
%TD*%
D11*
%TO.C,H3*%
X112000000Y-82000000D03*
%TD*%
D12*
%TO.C,J_M12*%
X81000000Y-5000000D03*
D13*
X78460000Y-5000000D03*
X75920000Y-5000000D03*
X73380000Y-5000000D03*
X70840000Y-5000000D03*
X68300000Y-5000000D03*
%TD*%
D12*
%TO.C,J10*%
X30000000Y-45000000D03*
D13*
X32540000Y-45000000D03*
X30000000Y-47540000D03*
X32540000Y-47540000D03*
X30000000Y-50080000D03*
X32540000Y-50080000D03*
X30000000Y-52620000D03*
X32540000Y-52620000D03*
X30000000Y-55160000D03*
X32540000Y-55160000D03*
X30000000Y-57700000D03*
X32540000Y-57700000D03*
X30000000Y-60240000D03*
X32540000Y-60240000D03*
X30000000Y-62780000D03*
X32540000Y-62780000D03*
X30000000Y-65320000D03*
X32540000Y-65320000D03*
X30000000Y-67860000D03*
X32540000Y-67860000D03*
%TD*%
D14*
%TO.C,J5*%
X58540000Y-9210000D03*
X58540000Y-21910000D03*
D15*
X56000000Y-12000000D03*
D16*
X54220000Y-13016000D03*
X56000000Y-14032000D03*
X54220000Y-15048000D03*
X56000000Y-16064000D03*
X54220000Y-17080000D03*
X56000000Y-18096000D03*
X54220000Y-19112000D03*
D17*
X55110000Y-7430000D03*
X55110000Y-23690000D03*
%TD*%
D12*
%TO.C,J_BEZEL*%
X40000000Y-78000000D03*
D13*
X40000000Y-80540000D03*
X40000000Y-83080000D03*
X40000000Y-85620000D03*
X40000000Y-88160000D03*
X40000000Y-90700000D03*
X40000000Y-93240000D03*
X40000000Y-95780000D03*
X40000000Y-98320000D03*
X40000000Y-100860000D03*
X40000000Y-103400000D03*
X40000000Y-105940000D03*
X40000000Y-108480000D03*
X40000000Y-111020000D03*
X40000000Y-113560000D03*
X40000000Y-116100000D03*
X40000000Y-118640000D03*
X40000000Y-121180000D03*
X40000000Y-123720000D03*
X40000000Y-126260000D03*
%TD*%
D12*
%TO.C,J7*%
X108000000Y-5000000D03*
D13*
X105460000Y-5000000D03*
X102920000Y-5000000D03*
%TD*%
D10*
%TO.C,C4*%
X66225000Y-68000000D03*
X67775000Y-68000000D03*
%TD*%
D18*
%TO.C,U11*%
X68862500Y-54050000D03*
X68862500Y-55000000D03*
X68862500Y-55950000D03*
X71137500Y-55950000D03*
X71137500Y-54050000D03*
%TD*%
D12*
%TO.C,J_RK*%
X95000000Y-78000000D03*
D13*
X95000000Y-80540000D03*
X95000000Y-83080000D03*
X95000000Y-85620000D03*
%TD*%
D10*
%TO.C,C2*%
X58225000Y-68000000D03*
X59775000Y-68000000D03*
%TD*%
D19*
%TO.C,J4*%
X36605000Y-3610000D03*
X36605000Y-9390000D03*
D20*
X37680000Y-3300000D03*
X37680000Y-4100000D03*
D21*
X37680000Y-5250000D03*
X37680000Y-6250000D03*
X37680000Y-6750000D03*
X37680000Y-7750000D03*
D20*
X37680000Y-8900000D03*
X37680000Y-9700000D03*
X37680000Y-9700000D03*
X37680000Y-8900000D03*
D21*
X37680000Y-8250000D03*
X37680000Y-7250000D03*
X37680000Y-5750000D03*
X37680000Y-4750000D03*
D20*
X37680000Y-4100000D03*
X37680000Y-3300000D03*
D22*
X37105000Y-2180000D03*
D23*
X32925000Y-2180000D03*
D22*
X37105000Y-10820000D03*
D23*
X32925000Y-10820000D03*
%TD*%
D19*
%TO.C,J3*%
X18605000Y-3610000D03*
X18605000Y-9390000D03*
D20*
X19680000Y-3300000D03*
X19680000Y-4100000D03*
D21*
X19680000Y-5250000D03*
X19680000Y-6250000D03*
X19680000Y-6750000D03*
X19680000Y-7750000D03*
D20*
X19680000Y-8900000D03*
X19680000Y-9700000D03*
X19680000Y-9700000D03*
X19680000Y-8900000D03*
D21*
X19680000Y-8250000D03*
X19680000Y-7250000D03*
X19680000Y-5750000D03*
X19680000Y-4750000D03*
D20*
X19680000Y-4100000D03*
X19680000Y-3300000D03*
D22*
X19105000Y-2180000D03*
D23*
X14925000Y-2180000D03*
D22*
X19105000Y-10820000D03*
D23*
X14925000Y-10820000D03*
%TD*%
D11*
%TO.C,H4*%
X8000000Y-82000000D03*
%TD*%
D12*
%TO.C,J_GND*%
X110000000Y-78000000D03*
D13*
X110000000Y-80540000D03*
%TD*%
M02*
