M48
; DRILL file KiCad 10.0.4 date 2026-07-22T13:49:57
; FORMAT={-:-/ absolute / metric / decimal}
; #@! TF.CreationDate,2026-07-22T13:49:57-04:00
; #@! TF.GenerationSoftware,Kicad,Pcbnew,10.0.4
; #@! TF.FileFunction,MixedPlating,1,2
FMAT,2
METRIC
; #@! TA.AperFunction,Plated,PTH,ComponentDrill
T1C0.600
; #@! TA.AperFunction,Plated,PTH,ComponentDrill
T2C0.890
; #@! TA.AperFunction,Plated,PTH,ComponentDrill
T3C1.000
; #@! TA.AperFunction,Plated,PTH,ComponentDrill
T4C1.570
; #@! TA.AperFunction,NonPlated,NPTH,ComponentDrill
T5C0.650
; #@! TA.AperFunction,NonPlated,NPTH,ComponentDrill
T6C3.200
; #@! TA.AperFunction,NonPlated,NPTH,ComponentDrill
T7C3.250
%
G90
G05
T2
X54.22Y-13.016
X54.22Y-15.048
X54.22Y-17.08
X54.22Y-19.112
X56.0Y-12.0
X56.0Y-14.032
X56.0Y-16.064
X56.0Y-18.096
T3
X30.0Y-45.0
X30.0Y-47.54
X30.0Y-50.08
X30.0Y-52.62
X30.0Y-55.16
X30.0Y-57.7
X30.0Y-60.24
X30.0Y-62.0
X30.0Y-62.78
X30.0Y-64.54
X30.0Y-65.32
X30.0Y-67.08
X30.0Y-67.86
X30.0Y-69.62
X30.0Y-72.16
X30.0Y-74.7
X30.0Y-77.24
X30.0Y-79.78
X30.0Y-82.32
X30.0Y-84.86
X32.54Y-45.0
X32.54Y-47.54
X32.54Y-50.08
X32.54Y-52.62
X32.54Y-55.16
X32.54Y-57.7
X32.54Y-60.24
X32.54Y-62.0
X32.54Y-62.78
X32.54Y-64.54
X32.54Y-65.32
X32.54Y-67.08
X32.54Y-67.86
X32.54Y-69.62
X32.54Y-72.16
X32.54Y-74.7
X32.54Y-77.24
X32.54Y-79.78
X32.54Y-82.32
X32.54Y-84.86
X40.0Y-78.0
X40.0Y-80.54
X40.0Y-83.08
X40.0Y-85.62
X40.0Y-88.16
X40.0Y-90.7
X40.0Y-93.24
X40.0Y-95.78
X40.0Y-98.32
X40.0Y-100.86
X40.0Y-103.4
X40.0Y-105.94
X40.0Y-108.48
X40.0Y-111.02
X40.0Y-113.56
X40.0Y-116.1
X40.0Y-118.64
X40.0Y-121.18
X40.0Y-123.72
X40.0Y-126.26
X68.3Y-5.0
X70.84Y-5.0
X73.38Y-5.0
X75.92Y-5.0
X78.46Y-5.0
X81.0Y-5.0
X88.38Y-5.0
X90.92Y-5.0
X93.46Y-5.0
X95.0Y-78.0
X95.0Y-80.54
X95.0Y-83.08
X95.0Y-85.62
X96.0Y-5.0
X102.92Y-5.0
X105.46Y-5.0
X108.0Y-5.0
X110.0Y-78.0
X110.0Y-80.54
T4
X55.11Y-7.43
X55.11Y-23.69
T5
X18.605Y-3.61
X18.605Y-9.39
X36.605Y-3.61
X36.605Y-9.39
T6
X8.0Y-8.0
X8.0Y-82.0
X112.0Y-8.0
X112.0Y-82.0
T7
X58.54Y-9.21
X58.54Y-21.91
T1
X15.325Y-2.18G85X14.525Y-2.18
G05
X15.325Y-10.82G85X14.525Y-10.82
G05
X19.655Y-2.18G85X18.555Y-2.18
G05
X19.655Y-10.82G85X18.555Y-10.82
G05
X33.325Y-2.18G85X32.525Y-2.18
G05
X33.325Y-10.82G85X32.525Y-10.82
G05
X37.655Y-2.18G85X36.555Y-2.18
G05
X37.655Y-10.82G85X36.555Y-10.82
G05
M30
