M48
; DRILL file KiCad 10.0.4 date 2026-07-22T10:10:39
; FORMAT={-:-/ absolute / metric / decimal}
; #@! TF.CreationDate,2026-07-22T10:10:39-04:00
; #@! TF.GenerationSoftware,Kicad,Pcbnew,10.0.4
; #@! TF.FileFunction,MixedPlating,1,2
FMAT,2
METRIC
; #@! TA.AperFunction,Plated,PTH,ComponentDrill
T1C0.600
; #@! TA.AperFunction,Plated,PTH,ComponentDrill
T2C0.890
; #@! TA.AperFunction,Plated,PTH,ComponentDrill
T3C1.000
; #@! TA.AperFunction,Plated,PTH,ComponentDrill
T4C1.570
; #@! TA.AperFunction,NonPlated,NPTH,ComponentDrill
T5C0.650
; #@! TA.AperFunction,NonPlated,NPTH,ComponentDrill
T6C3.200
; #@! TA.AperFunction,NonPlated,NPTH,ComponentDrill
T7C3.250
%
G90
G05
T2
X95.0Y-70.0
X96.016Y-71.78
X97.032Y-70.0
X98.048Y-71.78
X99.064Y-70.0
X100.08Y-71.78
X101.096Y-70.0
X102.112Y-71.78
T3
X30.0Y-45.0
X30.0Y-47.54
X30.0Y-50.08
X30.0Y-52.62
X30.0Y-55.16
X30.0Y-57.7
X30.0Y-60.24
X30.0Y-62.0
X30.0Y-62.78
X30.0Y-64.54
X30.0Y-65.32
X30.0Y-67.08
X30.0Y-67.86
X30.0Y-69.62
X30.0Y-72.16
X30.0Y-74.7
X30.0Y-77.24
X30.0Y-79.78
X30.0Y-82.32
X30.0Y-84.86
X32.54Y-45.0
X32.54Y-47.54
X32.54Y-50.08
X32.54Y-52.62
X32.54Y-55.16
X32.54Y-57.7
X32.54Y-60.24
X32.54Y-62.0
X32.54Y-62.78
X32.54Y-64.54
X32.54Y-65.32
X32.54Y-67.08
X32.54Y-67.86
X32.54Y-69.62
X32.54Y-72.16
X32.54Y-74.7
X32.54Y-77.24
X32.54Y-79.78
X32.54Y-82.32
X32.54Y-84.86
X55.0Y-18.0
X55.0Y-20.54
X55.0Y-23.08
X55.0Y-25.62
X55.0Y-28.16
X55.0Y-30.7
X55.0Y-33.24
X55.0Y-35.78
X55.0Y-38.32
X55.0Y-40.86
X55.0Y-43.4
X55.0Y-45.94
X55.0Y-48.48
X55.0Y-51.02
X55.0Y-53.56
X55.0Y-56.1
X55.0Y-58.64
X55.0Y-61.18
X55.0Y-63.72
X55.0Y-66.26
X100.0Y-18.0
X100.0Y-20.54
X100.0Y-23.08
X100.0Y-25.62
X110.0Y-18.0
X110.0Y-20.54
T4
X90.43Y-70.89
X106.69Y-70.89
T5
X72.11Y-47.395
X77.89Y-47.395
T6
X8.0Y-8.0
X8.0Y-82.0
X112.0Y-8.0
X112.0Y-82.0
T7
X92.21Y-67.46
X104.91Y-67.46
T1
X70.68Y-46.345G85X70.68Y-47.445
G05
X70.68Y-50.675G85X70.68Y-51.475
G05
X79.32Y-46.345G85X79.32Y-47.445
G05
X79.32Y-50.675G85X79.32Y-51.475
G05
M30
