M48
; DRILL file KiCad 10.0.4 date 2026-07-22T09:59:54
; FORMAT={-:-/ absolute / metric / decimal}
; #@! TF.CreationDate,2026-07-22T09:59:54-04:00
; #@! TF.GenerationSoftware,Kicad,Pcbnew,10.0.4
; #@! TF.FileFunction,MixedPlating,1,2
FMAT,2
METRIC
; #@! TA.AperFunction,Plated,PTH,ComponentDrill
T1C0.600
; #@! TA.AperFunction,Plated,PTH,ComponentDrill
T2C0.890
; #@! TA.AperFunction,Plated,PTH,ComponentDrill
T3C1.000
; #@! TA.AperFunction,Plated,PTH,ComponentDrill
T4C1.570
; #@! TA.AperFunction,Plated,PTH,ComponentDrill
T5C3.200
; #@! TA.AperFunction,NonPlated,NPTH,ComponentDrill
T6C0.650
; #@! TA.AperFunction,NonPlated,NPTH,ComponentDrill
T7C3.250
%
G90
G05
T2
X22.0Y-78.0
X23.016Y-79.78
X24.032Y-78.0
X25.048Y-79.78
X26.064Y-78.0
X27.08Y-79.78
X28.096Y-78.0
X29.112Y-79.78
T3
X28.0Y-40.0
X28.0Y-42.54
X28.0Y-45.08
X28.0Y-47.62
X28.0Y-50.16
X28.0Y-52.7
X28.0Y-55.24
X28.0Y-57.78
X28.0Y-58.0
X28.0Y-60.32
X28.0Y-60.54
X28.0Y-62.86
X28.0Y-63.08
X28.0Y-65.62
X28.0Y-68.16
X28.0Y-70.7
X28.0Y-73.24
X28.0Y-75.78
X28.0Y-78.32
X28.0Y-80.86
X30.54Y-40.0
X30.54Y-42.54
X30.54Y-45.08
X30.54Y-47.62
X30.54Y-50.16
X30.54Y-52.7
X30.54Y-55.24
X30.54Y-57.78
X30.54Y-58.0
X30.54Y-60.32
X30.54Y-60.54
X30.54Y-62.86
X30.54Y-63.08
X30.54Y-65.62
X30.54Y-68.16
X30.54Y-70.7
X30.54Y-73.24
X30.54Y-75.78
X30.54Y-78.32
X30.54Y-80.86
X75.0Y-48.0
X75.0Y-50.54
X75.0Y-53.08
X75.0Y-55.62
X75.0Y-58.16
X75.0Y-60.7
X75.0Y-63.24
X75.0Y-65.78
X75.0Y-68.32
X75.0Y-70.86
X77.54Y-48.0
X77.54Y-50.54
X77.54Y-53.08
X77.54Y-55.62
X77.54Y-58.16
X77.54Y-60.7
X77.54Y-63.24
X77.54Y-65.78
X77.54Y-68.32
X77.54Y-70.86
X95.0Y-18.0
X95.0Y-20.54
X95.0Y-23.08
X95.0Y-25.62
X95.0Y-28.16
X97.54Y-18.0
X97.54Y-20.54
X97.54Y-23.08
X97.54Y-25.62
X97.54Y-28.16
X110.0Y-18.0
X110.0Y-20.54
X110.0Y-23.08
X110.0Y-25.62
X110.0Y-55.0
X110.0Y-57.54
X110.0Y-60.08
X110.0Y-62.62
T4
X17.43Y-78.89
X33.69Y-78.89
T5
X6.0Y-6.0
X6.0Y-84.0
X114.0Y-6.0
X114.0Y-84.0
T6
X19.11Y-9.395
X24.89Y-9.395
X55.11Y-9.395
X60.89Y-9.395
T7
X19.21Y-75.46
X31.91Y-75.46
T1
X17.68Y-8.345G85X17.68Y-9.445
G05
X17.68Y-12.675G85X17.68Y-13.475
G05
X26.32Y-8.345G85X26.32Y-9.445
G05
X26.32Y-12.675G85X26.32Y-13.475
G05
X53.68Y-8.345G85X53.68Y-9.445
G05
X53.68Y-12.675G85X53.68Y-13.475
G05
X62.32Y-8.345G85X62.32Y-9.445
G05
X62.32Y-12.675G85X62.32Y-13.475
G05
M30
