%TF.GenerationSoftware,KiCad,Pcbnew,10.0.4*%
%TF.CreationDate,2026-07-22T09:59:53-04:00*%
%TF.ProjectId,cmfd-board-b,636d6664-2d62-46f6-9172-642d622e6b69,rev?*%
%TF.SameCoordinates,Original*%
%TF.FileFunction,Soldermask,Bot*%
%TF.FilePolarity,Negative*%
%FSLAX46Y46*%
G04 Gerber Fmt 4.6, Leading zero omitted, Abs format (unit mm)*
G04 Created by KiCad (PCBNEW 10.0.4) date 2026-07-22 09:59:53*
%MOMM*%
%LPD*%
G01*
G04 APERTURE LIST*
%ADD10C,6.400000*%
%ADD11R,1.700000X1.700000*%
%ADD12C,1.700000*%
%ADD13C,0.650000*%
%ADD14O,1.000000X2.100000*%
%ADD15O,1.000000X1.800000*%
%ADD16C,3.250000*%
%ADD17R,1.500000X1.500000*%
%ADD18C,1.500000*%
%ADD19C,2.300000*%
G04 APERTURE END LIST*
D10*
%TO.C,H2*%
X114000000Y-6000000D03*
%TD*%
D11*
%TO.C,J6*%
X95000000Y-18000000D03*
D12*
X97540000Y-18000000D03*
X95000000Y-20540000D03*
X97540000Y-20540000D03*
X95000000Y-23080000D03*
X97540000Y-23080000D03*
X95000000Y-25620000D03*
X97540000Y-25620000D03*
X95000000Y-28160000D03*
X97540000Y-28160000D03*
%TD*%
D11*
%TO.C,J11*%
X28000000Y-58000000D03*
D12*
X30540000Y-58000000D03*
X28000000Y-60540000D03*
X30540000Y-60540000D03*
X28000000Y-63080000D03*
X30540000Y-63080000D03*
X28000000Y-65620000D03*
X30540000Y-65620000D03*
X28000000Y-68160000D03*
X30540000Y-68160000D03*
X28000000Y-70700000D03*
X30540000Y-70700000D03*
X28000000Y-73240000D03*
X30540000Y-73240000D03*
X28000000Y-75780000D03*
X30540000Y-75780000D03*
X28000000Y-78320000D03*
X30540000Y-78320000D03*
X28000000Y-80860000D03*
X30540000Y-80860000D03*
%TD*%
D11*
%TO.C,J7*%
X110000000Y-18000000D03*
D12*
X110000000Y-20540000D03*
X110000000Y-23080000D03*
X110000000Y-25620000D03*
%TD*%
D11*
%TO.C,J2*%
X75000000Y-48000000D03*
D12*
X77540000Y-48000000D03*
X75000000Y-50540000D03*
X77540000Y-50540000D03*
X75000000Y-53080000D03*
X77540000Y-53080000D03*
X75000000Y-55620000D03*
X77540000Y-55620000D03*
X75000000Y-58160000D03*
X77540000Y-58160000D03*
X75000000Y-60700000D03*
X77540000Y-60700000D03*
X75000000Y-63240000D03*
X77540000Y-63240000D03*
X75000000Y-65780000D03*
X77540000Y-65780000D03*
X75000000Y-68320000D03*
X77540000Y-68320000D03*
X75000000Y-70860000D03*
X77540000Y-70860000D03*
%TD*%
D13*
%TO.C,J4*%
X55110000Y-9395000D03*
X60890000Y-9395000D03*
D14*
X53680000Y-8895000D03*
D15*
X53680000Y-13075000D03*
D14*
X62320000Y-8895000D03*
D15*
X62320000Y-13075000D03*
%TD*%
D11*
%TO.C,J8*%
X110000000Y-55000000D03*
D12*
X110000000Y-57540000D03*
X110000000Y-60080000D03*
X110000000Y-62620000D03*
%TD*%
D10*
%TO.C,H4*%
X6000000Y-84000000D03*
%TD*%
D13*
%TO.C,J3*%
X19110000Y-9395000D03*
X24890000Y-9395000D03*
D14*
X17680000Y-8895000D03*
D15*
X17680000Y-13075000D03*
D14*
X26320000Y-8895000D03*
D15*
X26320000Y-13075000D03*
%TD*%
D16*
%TO.C,J5*%
X19210000Y-75460000D03*
X31910000Y-75460000D03*
D17*
X22000000Y-78000000D03*
D18*
X23016000Y-79780000D03*
X24032000Y-78000000D03*
X25048000Y-79780000D03*
X26064000Y-78000000D03*
X27080000Y-79780000D03*
X28096000Y-78000000D03*
X29112000Y-79780000D03*
D19*
X17430000Y-78890000D03*
X33690000Y-78890000D03*
%TD*%
D11*
%TO.C,J10*%
X28000000Y-40000000D03*
D12*
X30540000Y-40000000D03*
X28000000Y-42540000D03*
X30540000Y-42540000D03*
X28000000Y-45080000D03*
X30540000Y-45080000D03*
X28000000Y-47620000D03*
X30540000Y-47620000D03*
X28000000Y-50160000D03*
X30540000Y-50160000D03*
X28000000Y-52700000D03*
X30540000Y-52700000D03*
X28000000Y-55240000D03*
X30540000Y-55240000D03*
X28000000Y-57780000D03*
X30540000Y-57780000D03*
X28000000Y-60320000D03*
X30540000Y-60320000D03*
X28000000Y-62860000D03*
X30540000Y-62860000D03*
%TD*%
D10*
%TO.C,H3*%
X114000000Y-84000000D03*
%TD*%
%TO.C,H1*%
X6000000Y-6000000D03*
%TD*%
M02*
