%TF.GenerationSoftware,KiCad,Pcbnew,10.0.4*%
%TF.CreationDate,2026-07-22T09:59:53-04:00*%
%TF.ProjectId,cmfd-board-b,636d6664-2d62-46f6-9172-642d622e6b69,rev?*%
%TF.SameCoordinates,Original*%
%TF.FileFunction,Legend,Top*%
%TF.FilePolarity,Positive*%
%FSLAX46Y46*%
G04 Gerber Fmt 4.6, Leading zero omitted, Abs format (unit mm)*
G04 Created by KiCad (PCBNEW 10.0.4) date 2026-07-22 09:59:53*
%MOMM*%
%LPD*%
G01*
G04 APERTURE LIST*
G04 Aperture macros list*
%AMRoundRect*
0 Rectangle with rounded corners*
0 $1 Rounding radius*
0 $2 $3 $4 $5 $6 $7 $8 $9 X,Y pos of 4 corners*
0 Add a 4 corners polygon primitive as box body*
4,1,4,$2,$3,$4,$5,$6,$7,$8,$9,$2,$3,0*
0 Add four circle primitives for the rounded corners*
1,1,$1+$1,$2,$3*
1,1,$1+$1,$4,$5*
1,1,$1+$1,$6,$7*
1,1,$1+$1,$8,$9*
0 Add four rect primitives between the rounded corners*
20,1,$1+$1,$2,$3,$4,$5,0*
20,1,$1+$1,$4,$5,$6,$7,0*
20,1,$1+$1,$6,$7,$8,$9,0*
20,1,$1+$1,$8,$9,$2,$3,0*%
G04 Aperture macros list end*
%ADD10C,0.120000*%
%ADD11C,0.127500*%
%ADD12C,0.180000*%
%ADD13C,0.150000*%
%ADD14RoundRect,0.225000X-0.225000X-0.250000X0.225000X-0.250000X0.225000X0.250000X-0.225000X0.250000X0*%
%ADD15C,6.400000*%
%ADD16R,1.700000X1.700000*%
%ADD17C,1.700000*%
%ADD18C,0.650000*%
%ADD19RoundRect,0.150000X-0.150000X-0.425000X0.150000X-0.425000X0.150000X0.425000X-0.150000X0.425000X0*%
%ADD20RoundRect,0.075000X-0.075000X-0.500000X0.075000X-0.500000X0.075000X0.500000X-0.075000X0.500000X0*%
%ADD21O,1.000000X2.100000*%
%ADD22O,1.000000X1.800000*%
%ADD23RoundRect,0.150000X-0.512500X-0.150000X0.512500X-0.150000X0.512500X0.150000X-0.512500X0.150000X0*%
%ADD24C,3.250000*%
%ADD25R,1.500000X1.500000*%
%ADD26C,1.500000*%
%ADD27C,2.300000*%
%ADD28RoundRect,0.150000X-0.825000X-0.150000X0.825000X-0.150000X0.825000X0.150000X-0.825000X0.150000X0*%
G04 APERTURE END LIST*
D10*
X-1447620Y-68363855D02*
X-1447620Y-67563855D01*
X-1447620Y-67563855D02*
X-1180954Y-68135283D01*
X-1180954Y-68135283D02*
X-914287Y-67563855D01*
X-914287Y-67563855D02*
X-914287Y-68363855D01*
X-380953Y-67563855D02*
X-228572Y-67563855D01*
X-228572Y-67563855D02*
X-152382Y-67601950D01*
X-152382Y-67601950D02*
X-76191Y-67678140D01*
X-76191Y-67678140D02*
X-38096Y-67830521D01*
X-38096Y-67830521D02*
X-38096Y-68097188D01*
X-38096Y-68097188D02*
X-76191Y-68249569D01*
X-76191Y-68249569D02*
X-152382Y-68325760D01*
X-152382Y-68325760D02*
X-228572Y-68363855D01*
X-228572Y-68363855D02*
X-380953Y-68363855D01*
X-380953Y-68363855D02*
X-457144Y-68325760D01*
X-457144Y-68325760D02*
X-533334Y-68249569D01*
X-533334Y-68249569D02*
X-571430Y-68097188D01*
X-571430Y-68097188D02*
X-571430Y-67830521D01*
X-571430Y-67830521D02*
X-533334Y-67678140D01*
X-533334Y-67678140D02*
X-457144Y-67601950D01*
X-457144Y-67601950D02*
X-380953Y-67563855D01*
X304760Y-68363855D02*
X304760Y-67563855D01*
X304760Y-67563855D02*
X495236Y-67563855D01*
X495236Y-67563855D02*
X609522Y-67601950D01*
X609522Y-67601950D02*
X685712Y-67678140D01*
X685712Y-67678140D02*
X723807Y-67754331D01*
X723807Y-67754331D02*
X761903Y-67906712D01*
X761903Y-67906712D02*
X761903Y-68020998D01*
X761903Y-68020998D02*
X723807Y-68173379D01*
X723807Y-68173379D02*
X685712Y-68249569D01*
X685712Y-68249569D02*
X609522Y-68325760D01*
X609522Y-68325760D02*
X495236Y-68363855D01*
X495236Y-68363855D02*
X304760Y-68363855D01*
X1523807Y-68363855D02*
X1066664Y-68363855D01*
X1295236Y-68363855D02*
X1295236Y-67563855D01*
X1295236Y-67563855D02*
X1219045Y-67678140D01*
X1219045Y-67678140D02*
X1142855Y-67754331D01*
X1142855Y-67754331D02*
X1066664Y-67792426D01*
X2438093Y-68325760D02*
X2552379Y-68363855D01*
X2552379Y-68363855D02*
X2742855Y-68363855D01*
X2742855Y-68363855D02*
X2819046Y-68325760D01*
X2819046Y-68325760D02*
X2857141Y-68287664D01*
X2857141Y-68287664D02*
X2895236Y-68211474D01*
X2895236Y-68211474D02*
X2895236Y-68135283D01*
X2895236Y-68135283D02*
X2857141Y-68059093D01*
X2857141Y-68059093D02*
X2819046Y-68020998D01*
X2819046Y-68020998D02*
X2742855Y-67982902D01*
X2742855Y-67982902D02*
X2590474Y-67944807D01*
X2590474Y-67944807D02*
X2514284Y-67906712D01*
X2514284Y-67906712D02*
X2476189Y-67868617D01*
X2476189Y-67868617D02*
X2438093Y-67792426D01*
X2438093Y-67792426D02*
X2438093Y-67716236D01*
X2438093Y-67716236D02*
X2476189Y-67640045D01*
X2476189Y-67640045D02*
X2514284Y-67601950D01*
X2514284Y-67601950D02*
X2590474Y-67563855D01*
X2590474Y-67563855D02*
X2780951Y-67563855D01*
X2780951Y-67563855D02*
X2895236Y-67601950D01*
X3352379Y-68363855D02*
X3276189Y-68325760D01*
X3276189Y-68325760D02*
X3238094Y-68287664D01*
X3238094Y-68287664D02*
X3199998Y-68211474D01*
X3199998Y-68211474D02*
X3199998Y-67982902D01*
X3199998Y-67982902D02*
X3238094Y-67906712D01*
X3238094Y-67906712D02*
X3276189Y-67868617D01*
X3276189Y-67868617D02*
X3352379Y-67830521D01*
X3352379Y-67830521D02*
X3466665Y-67830521D01*
X3466665Y-67830521D02*
X3542856Y-67868617D01*
X3542856Y-67868617D02*
X3580951Y-67906712D01*
X3580951Y-67906712D02*
X3619046Y-67982902D01*
X3619046Y-67982902D02*
X3619046Y-68211474D01*
X3619046Y-68211474D02*
X3580951Y-68287664D01*
X3580951Y-68287664D02*
X3542856Y-68325760D01*
X3542856Y-68325760D02*
X3466665Y-68363855D01*
X3466665Y-68363855D02*
X3352379Y-68363855D01*
X3961904Y-68363855D02*
X3961904Y-67563855D01*
X3961904Y-67563855D02*
X4228570Y-68135283D01*
X4228570Y-68135283D02*
X4495237Y-67563855D01*
X4495237Y-67563855D02*
X4495237Y-68363855D01*
X5485714Y-68363855D02*
X5485714Y-67830521D01*
X5485714Y-67906712D02*
X5523809Y-67868617D01*
X5523809Y-67868617D02*
X5599999Y-67830521D01*
X5599999Y-67830521D02*
X5714285Y-67830521D01*
X5714285Y-67830521D02*
X5790476Y-67868617D01*
X5790476Y-67868617D02*
X5828571Y-67944807D01*
X5828571Y-67944807D02*
X5828571Y-68363855D01*
X5828571Y-67944807D02*
X5866666Y-67868617D01*
X5866666Y-67868617D02*
X5942857Y-67830521D01*
X5942857Y-67830521D02*
X6057142Y-67830521D01*
X6057142Y-67830521D02*
X6133333Y-67868617D01*
X6133333Y-67868617D02*
X6171428Y-67944807D01*
X6171428Y-67944807D02*
X6171428Y-68363855D01*
X6857143Y-68325760D02*
X6780952Y-68363855D01*
X6780952Y-68363855D02*
X6628571Y-68363855D01*
X6628571Y-68363855D02*
X6552381Y-68325760D01*
X6552381Y-68325760D02*
X6514285Y-68249569D01*
X6514285Y-68249569D02*
X6514285Y-67944807D01*
X6514285Y-67944807D02*
X6552381Y-67868617D01*
X6552381Y-67868617D02*
X6628571Y-67830521D01*
X6628571Y-67830521D02*
X6780952Y-67830521D01*
X6780952Y-67830521D02*
X6857143Y-67868617D01*
X6857143Y-67868617D02*
X6895238Y-67944807D01*
X6895238Y-67944807D02*
X6895238Y-68020998D01*
X6895238Y-68020998D02*
X6514285Y-68097188D01*
X7161904Y-67830521D02*
X7580952Y-67830521D01*
X7580952Y-67830521D02*
X7161904Y-68363855D01*
X7161904Y-68363855D02*
X7580952Y-68363855D01*
X7809523Y-67830521D02*
X8228571Y-67830521D01*
X8228571Y-67830521D02*
X7809523Y-68363855D01*
X7809523Y-68363855D02*
X8228571Y-68363855D01*
X8876190Y-68363855D02*
X8876190Y-67944807D01*
X8876190Y-67944807D02*
X8838095Y-67868617D01*
X8838095Y-67868617D02*
X8761904Y-67830521D01*
X8761904Y-67830521D02*
X8609523Y-67830521D01*
X8609523Y-67830521D02*
X8533333Y-67868617D01*
X8876190Y-68325760D02*
X8799999Y-68363855D01*
X8799999Y-68363855D02*
X8609523Y-68363855D01*
X8609523Y-68363855D02*
X8533333Y-68325760D01*
X8533333Y-68325760D02*
X8495237Y-68249569D01*
X8495237Y-68249569D02*
X8495237Y-68173379D01*
X8495237Y-68173379D02*
X8533333Y-68097188D01*
X8533333Y-68097188D02*
X8609523Y-68059093D01*
X8609523Y-68059093D02*
X8799999Y-68059093D01*
X8799999Y-68059093D02*
X8876190Y-68020998D01*
X9257143Y-67830521D02*
X9257143Y-68363855D01*
X9257143Y-67906712D02*
X9295238Y-67868617D01*
X9295238Y-67868617D02*
X9371428Y-67830521D01*
X9371428Y-67830521D02*
X9485714Y-67830521D01*
X9485714Y-67830521D02*
X9561905Y-67868617D01*
X9561905Y-67868617D02*
X9600000Y-67944807D01*
X9600000Y-67944807D02*
X9600000Y-68363855D01*
X9980953Y-68363855D02*
X9980953Y-67830521D01*
X9980953Y-67563855D02*
X9942857Y-67601950D01*
X9942857Y-67601950D02*
X9980953Y-67640045D01*
X9980953Y-67640045D02*
X10019048Y-67601950D01*
X10019048Y-67601950D02*
X9980953Y-67563855D01*
X9980953Y-67563855D02*
X9980953Y-67640045D01*
X10361905Y-67830521D02*
X10361905Y-68363855D01*
X10361905Y-67906712D02*
X10400000Y-67868617D01*
X10400000Y-67868617D02*
X10476190Y-67830521D01*
X10476190Y-67830521D02*
X10590476Y-67830521D01*
X10590476Y-67830521D02*
X10666667Y-67868617D01*
X10666667Y-67868617D02*
X10704762Y-67944807D01*
X10704762Y-67944807D02*
X10704762Y-68363855D01*
X11390477Y-68325760D02*
X11314286Y-68363855D01*
X11314286Y-68363855D02*
X11161905Y-68363855D01*
X11161905Y-68363855D02*
X11085715Y-68325760D01*
X11085715Y-68325760D02*
X11047619Y-68249569D01*
X11047619Y-68249569D02*
X11047619Y-67944807D01*
X11047619Y-67944807D02*
X11085715Y-67868617D01*
X11085715Y-67868617D02*
X11161905Y-67830521D01*
X11161905Y-67830521D02*
X11314286Y-67830521D01*
X11314286Y-67830521D02*
X11390477Y-67868617D01*
X11390477Y-67868617D02*
X11428572Y-67944807D01*
X11428572Y-67944807D02*
X11428572Y-68020998D01*
X11428572Y-68020998D02*
X11047619Y-68097188D01*
X12609524Y-68668617D02*
X12571429Y-68630521D01*
X12571429Y-68630521D02*
X12495238Y-68516236D01*
X12495238Y-68516236D02*
X12457143Y-68440045D01*
X12457143Y-68440045D02*
X12419048Y-68325760D01*
X12419048Y-68325760D02*
X12380953Y-68135283D01*
X12380953Y-68135283D02*
X12380953Y-67982902D01*
X12380953Y-67982902D02*
X12419048Y-67792426D01*
X12419048Y-67792426D02*
X12457143Y-67678140D01*
X12457143Y-67678140D02*
X12495238Y-67601950D01*
X12495238Y-67601950D02*
X12571429Y-67487664D01*
X12571429Y-67487664D02*
X12609524Y-67449569D01*
X13371429Y-68363855D02*
X13104762Y-67982902D01*
X12914286Y-68363855D02*
X12914286Y-67563855D01*
X12914286Y-67563855D02*
X13219048Y-67563855D01*
X13219048Y-67563855D02*
X13295238Y-67601950D01*
X13295238Y-67601950D02*
X13333333Y-67640045D01*
X13333333Y-67640045D02*
X13371429Y-67716236D01*
X13371429Y-67716236D02*
X13371429Y-67830521D01*
X13371429Y-67830521D02*
X13333333Y-67906712D01*
X13333333Y-67906712D02*
X13295238Y-67944807D01*
X13295238Y-67944807D02*
X13219048Y-67982902D01*
X13219048Y-67982902D02*
X12914286Y-67982902D01*
X13714286Y-68363855D02*
X13714286Y-67563855D01*
X14171429Y-68363855D02*
X13828571Y-67906712D01*
X14171429Y-67563855D02*
X13714286Y-68020998D01*
X14438095Y-67563855D02*
X14933333Y-67563855D01*
X14933333Y-67563855D02*
X14666667Y-67868617D01*
X14666667Y-67868617D02*
X14780952Y-67868617D01*
X14780952Y-67868617D02*
X14857143Y-67906712D01*
X14857143Y-67906712D02*
X14895238Y-67944807D01*
X14895238Y-67944807D02*
X14933333Y-68020998D01*
X14933333Y-68020998D02*
X14933333Y-68211474D01*
X14933333Y-68211474D02*
X14895238Y-68287664D01*
X14895238Y-68287664D02*
X14857143Y-68325760D01*
X14857143Y-68325760D02*
X14780952Y-68363855D01*
X14780952Y-68363855D02*
X14552381Y-68363855D01*
X14552381Y-68363855D02*
X14476190Y-68325760D01*
X14476190Y-68325760D02*
X14438095Y-68287664D01*
X15657143Y-67563855D02*
X15276191Y-67563855D01*
X15276191Y-67563855D02*
X15238095Y-67944807D01*
X15238095Y-67944807D02*
X15276191Y-67906712D01*
X15276191Y-67906712D02*
X15352381Y-67868617D01*
X15352381Y-67868617D02*
X15542857Y-67868617D01*
X15542857Y-67868617D02*
X15619048Y-67906712D01*
X15619048Y-67906712D02*
X15657143Y-67944807D01*
X15657143Y-67944807D02*
X15695238Y-68020998D01*
X15695238Y-68020998D02*
X15695238Y-68211474D01*
X15695238Y-68211474D02*
X15657143Y-68287664D01*
X15657143Y-68287664D02*
X15619048Y-68325760D01*
X15619048Y-68325760D02*
X15542857Y-68363855D01*
X15542857Y-68363855D02*
X15352381Y-68363855D01*
X15352381Y-68363855D02*
X15276191Y-68325760D01*
X15276191Y-68325760D02*
X15238095Y-68287664D01*
X16380953Y-67563855D02*
X16228572Y-67563855D01*
X16228572Y-67563855D02*
X16152381Y-67601950D01*
X16152381Y-67601950D02*
X16114286Y-67640045D01*
X16114286Y-67640045D02*
X16038096Y-67754331D01*
X16038096Y-67754331D02*
X16000000Y-67906712D01*
X16000000Y-67906712D02*
X16000000Y-68211474D01*
X16000000Y-68211474D02*
X16038096Y-68287664D01*
X16038096Y-68287664D02*
X16076191Y-68325760D01*
X16076191Y-68325760D02*
X16152381Y-68363855D01*
X16152381Y-68363855D02*
X16304762Y-68363855D01*
X16304762Y-68363855D02*
X16380953Y-68325760D01*
X16380953Y-68325760D02*
X16419048Y-68287664D01*
X16419048Y-68287664D02*
X16457143Y-68211474D01*
X16457143Y-68211474D02*
X16457143Y-68020998D01*
X16457143Y-68020998D02*
X16419048Y-67944807D01*
X16419048Y-67944807D02*
X16380953Y-67906712D01*
X16380953Y-67906712D02*
X16304762Y-67868617D01*
X16304762Y-67868617D02*
X16152381Y-67868617D01*
X16152381Y-67868617D02*
X16076191Y-67906712D01*
X16076191Y-67906712D02*
X16038096Y-67944807D01*
X16038096Y-67944807D02*
X16000000Y-68020998D01*
X17142858Y-67563855D02*
X16990477Y-67563855D01*
X16990477Y-67563855D02*
X16914286Y-67601950D01*
X16914286Y-67601950D02*
X16876191Y-67640045D01*
X16876191Y-67640045D02*
X16800001Y-67754331D01*
X16800001Y-67754331D02*
X16761905Y-67906712D01*
X16761905Y-67906712D02*
X16761905Y-68211474D01*
X16761905Y-68211474D02*
X16800001Y-68287664D01*
X16800001Y-68287664D02*
X16838096Y-68325760D01*
X16838096Y-68325760D02*
X16914286Y-68363855D01*
X16914286Y-68363855D02*
X17066667Y-68363855D01*
X17066667Y-68363855D02*
X17142858Y-68325760D01*
X17142858Y-68325760D02*
X17180953Y-68287664D01*
X17180953Y-68287664D02*
X17219048Y-68211474D01*
X17219048Y-68211474D02*
X17219048Y-68020998D01*
X17219048Y-68020998D02*
X17180953Y-67944807D01*
X17180953Y-67944807D02*
X17142858Y-67906712D01*
X17142858Y-67906712D02*
X17066667Y-67868617D01*
X17066667Y-67868617D02*
X16914286Y-67868617D01*
X16914286Y-67868617D02*
X16838096Y-67906712D01*
X16838096Y-67906712D02*
X16800001Y-67944807D01*
X16800001Y-67944807D02*
X16761905Y-68020998D01*
X18514287Y-68325760D02*
X18438096Y-68363855D01*
X18438096Y-68363855D02*
X18285715Y-68363855D01*
X18285715Y-68363855D02*
X18209525Y-68325760D01*
X18209525Y-68325760D02*
X18171430Y-68287664D01*
X18171430Y-68287664D02*
X18133334Y-68211474D01*
X18133334Y-68211474D02*
X18133334Y-67982902D01*
X18133334Y-67982902D02*
X18171430Y-67906712D01*
X18171430Y-67906712D02*
X18209525Y-67868617D01*
X18209525Y-67868617D02*
X18285715Y-67830521D01*
X18285715Y-67830521D02*
X18438096Y-67830521D01*
X18438096Y-67830521D02*
X18514287Y-67868617D01*
X18971429Y-68363855D02*
X18895239Y-68325760D01*
X18895239Y-68325760D02*
X18857144Y-68249569D01*
X18857144Y-68249569D02*
X18857144Y-67563855D01*
X19619049Y-68363855D02*
X19619049Y-67944807D01*
X19619049Y-67944807D02*
X19580954Y-67868617D01*
X19580954Y-67868617D02*
X19504763Y-67830521D01*
X19504763Y-67830521D02*
X19352382Y-67830521D01*
X19352382Y-67830521D02*
X19276192Y-67868617D01*
X19619049Y-68325760D02*
X19542858Y-68363855D01*
X19542858Y-68363855D02*
X19352382Y-68363855D01*
X19352382Y-68363855D02*
X19276192Y-68325760D01*
X19276192Y-68325760D02*
X19238096Y-68249569D01*
X19238096Y-68249569D02*
X19238096Y-68173379D01*
X19238096Y-68173379D02*
X19276192Y-68097188D01*
X19276192Y-68097188D02*
X19352382Y-68059093D01*
X19352382Y-68059093D02*
X19542858Y-68059093D01*
X19542858Y-68059093D02*
X19619049Y-68020998D01*
X19961906Y-68325760D02*
X20038097Y-68363855D01*
X20038097Y-68363855D02*
X20190478Y-68363855D01*
X20190478Y-68363855D02*
X20266668Y-68325760D01*
X20266668Y-68325760D02*
X20304764Y-68249569D01*
X20304764Y-68249569D02*
X20304764Y-68211474D01*
X20304764Y-68211474D02*
X20266668Y-68135283D01*
X20266668Y-68135283D02*
X20190478Y-68097188D01*
X20190478Y-68097188D02*
X20076192Y-68097188D01*
X20076192Y-68097188D02*
X20000002Y-68059093D01*
X20000002Y-68059093D02*
X19961906Y-67982902D01*
X19961906Y-67982902D02*
X19961906Y-67944807D01*
X19961906Y-67944807D02*
X20000002Y-67868617D01*
X20000002Y-67868617D02*
X20076192Y-67830521D01*
X20076192Y-67830521D02*
X20190478Y-67830521D01*
X20190478Y-67830521D02*
X20266668Y-67868617D01*
X20609525Y-68325760D02*
X20685716Y-68363855D01*
X20685716Y-68363855D02*
X20838097Y-68363855D01*
X20838097Y-68363855D02*
X20914287Y-68325760D01*
X20914287Y-68325760D02*
X20952383Y-68249569D01*
X20952383Y-68249569D02*
X20952383Y-68211474D01*
X20952383Y-68211474D02*
X20914287Y-68135283D01*
X20914287Y-68135283D02*
X20838097Y-68097188D01*
X20838097Y-68097188D02*
X20723811Y-68097188D01*
X20723811Y-68097188D02*
X20647621Y-68059093D01*
X20647621Y-68059093D02*
X20609525Y-67982902D01*
X20609525Y-67982902D02*
X20609525Y-67944807D01*
X20609525Y-67944807D02*
X20647621Y-67868617D01*
X20647621Y-67868617D02*
X20723811Y-67830521D01*
X20723811Y-67830521D02*
X20838097Y-67830521D01*
X20838097Y-67830521D02*
X20914287Y-67868617D01*
X21219049Y-68668617D02*
X21257144Y-68630521D01*
X21257144Y-68630521D02*
X21333335Y-68516236D01*
X21333335Y-68516236D02*
X21371430Y-68440045D01*
X21371430Y-68440045D02*
X21409525Y-68325760D01*
X21409525Y-68325760D02*
X21447621Y-68135283D01*
X21447621Y-68135283D02*
X21447621Y-67982902D01*
X21447621Y-67982902D02*
X21409525Y-67792426D01*
X21409525Y-67792426D02*
X21371430Y-67678140D01*
X21371430Y-67678140D02*
X21333335Y-67601950D01*
X21333335Y-67601950D02*
X21257144Y-67487664D01*
X21257144Y-67487664D02*
X21219049Y-67449569D01*
D11*
X-14647619Y-83536597D02*
X-14647619Y-84224692D01*
X-14647619Y-84224692D02*
X-14607142Y-84305644D01*
X-14607142Y-84305644D02*
X-14566666Y-84346121D01*
X-14566666Y-84346121D02*
X-14485714Y-84386597D01*
X-14485714Y-84386597D02*
X-14323809Y-84386597D01*
X-14323809Y-84386597D02*
X-14242857Y-84346121D01*
X-14242857Y-84346121D02*
X-14202380Y-84305644D01*
X-14202380Y-84305644D02*
X-14161904Y-84224692D01*
X-14161904Y-84224692D02*
X-14161904Y-83536597D01*
X-13797619Y-84346121D02*
X-13676190Y-84386597D01*
X-13676190Y-84386597D02*
X-13473809Y-84386597D01*
X-13473809Y-84386597D02*
X-13392857Y-84346121D01*
X-13392857Y-84346121D02*
X-13352381Y-84305644D01*
X-13352381Y-84305644D02*
X-13311904Y-84224692D01*
X-13311904Y-84224692D02*
X-13311904Y-84143740D01*
X-13311904Y-84143740D02*
X-13352381Y-84062787D01*
X-13352381Y-84062787D02*
X-13392857Y-84022311D01*
X-13392857Y-84022311D02*
X-13473809Y-83981835D01*
X-13473809Y-83981835D02*
X-13635714Y-83941359D01*
X-13635714Y-83941359D02*
X-13716666Y-83900882D01*
X-13716666Y-83900882D02*
X-13757143Y-83860406D01*
X-13757143Y-83860406D02*
X-13797619Y-83779454D01*
X-13797619Y-83779454D02*
X-13797619Y-83698501D01*
X-13797619Y-83698501D02*
X-13757143Y-83617549D01*
X-13757143Y-83617549D02*
X-13716666Y-83577073D01*
X-13716666Y-83577073D02*
X-13635714Y-83536597D01*
X-13635714Y-83536597D02*
X-13433333Y-83536597D01*
X-13433333Y-83536597D02*
X-13311904Y-83577073D01*
X-12664285Y-83941359D02*
X-12542857Y-83981835D01*
X-12542857Y-83981835D02*
X-12502380Y-84022311D01*
X-12502380Y-84022311D02*
X-12461904Y-84103263D01*
X-12461904Y-84103263D02*
X-12461904Y-84224692D01*
X-12461904Y-84224692D02*
X-12502380Y-84305644D01*
X-12502380Y-84305644D02*
X-12542857Y-84346121D01*
X-12542857Y-84346121D02*
X-12623809Y-84386597D01*
X-12623809Y-84386597D02*
X-12947619Y-84386597D01*
X-12947619Y-84386597D02*
X-12947619Y-83536597D01*
X-12947619Y-83536597D02*
X-12664285Y-83536597D01*
X-12664285Y-83536597D02*
X-12583333Y-83577073D01*
X-12583333Y-83577073D02*
X-12542857Y-83617549D01*
X-12542857Y-83617549D02*
X-12502380Y-83698501D01*
X-12502380Y-83698501D02*
X-12502380Y-83779454D01*
X-12502380Y-83779454D02*
X-12542857Y-83860406D01*
X-12542857Y-83860406D02*
X-12583333Y-83900882D01*
X-12583333Y-83900882D02*
X-12664285Y-83941359D01*
X-12664285Y-83941359D02*
X-12947619Y-83941359D01*
X-12097619Y-84062787D02*
X-11450000Y-84062787D01*
X-10559523Y-84305644D02*
X-10599999Y-84346121D01*
X-10599999Y-84346121D02*
X-10721428Y-84386597D01*
X-10721428Y-84386597D02*
X-10802380Y-84386597D01*
X-10802380Y-84386597D02*
X-10923809Y-84346121D01*
X-10923809Y-84346121D02*
X-11004761Y-84265168D01*
X-11004761Y-84265168D02*
X-11045238Y-84184216D01*
X-11045238Y-84184216D02*
X-11085714Y-84022311D01*
X-11085714Y-84022311D02*
X-11085714Y-83900882D01*
X-11085714Y-83900882D02*
X-11045238Y-83738978D01*
X-11045238Y-83738978D02*
X-11004761Y-83658025D01*
X-11004761Y-83658025D02*
X-10923809Y-83577073D01*
X-10923809Y-83577073D02*
X-10802380Y-83536597D01*
X-10802380Y-83536597D02*
X-10721428Y-83536597D01*
X-10721428Y-83536597D02*
X-10599999Y-83577073D01*
X-10599999Y-83577073D02*
X-10559523Y-83617549D01*
X-9426190Y-84022311D02*
X-9466666Y-84062787D01*
X-9466666Y-84062787D02*
X-9426190Y-84103263D01*
X-9426190Y-84103263D02*
X-9385714Y-84062787D01*
X-9385714Y-84062787D02*
X-9426190Y-84022311D01*
X-9426190Y-84022311D02*
X-9426190Y-84103263D01*
X-8252381Y-83941359D02*
X-7969047Y-83941359D01*
X-7847619Y-84386597D02*
X-8252381Y-84386597D01*
X-8252381Y-84386597D02*
X-8252381Y-83536597D01*
X-8252381Y-83536597D02*
X-7847619Y-83536597D01*
X-7604761Y-83819930D02*
X-7280952Y-83819930D01*
X-7483333Y-83536597D02*
X-7483333Y-84265168D01*
X-7483333Y-84265168D02*
X-7442856Y-84346121D01*
X-7442856Y-84346121D02*
X-7361904Y-84386597D01*
X-7361904Y-84386597D02*
X-7280952Y-84386597D01*
X-6997619Y-84386597D02*
X-6997619Y-83536597D01*
X-6633333Y-84386597D02*
X-6633333Y-83941359D01*
X-6633333Y-83941359D02*
X-6673809Y-83860406D01*
X-6673809Y-83860406D02*
X-6754761Y-83819930D01*
X-6754761Y-83819930D02*
X-6876190Y-83819930D01*
X-6876190Y-83819930D02*
X-6957142Y-83860406D01*
X-6957142Y-83860406D02*
X-6997619Y-83900882D01*
X-5459523Y-84022311D02*
X-5499999Y-84062787D01*
X-5499999Y-84062787D02*
X-5459523Y-84103263D01*
X-5459523Y-84103263D02*
X-5419047Y-84062787D01*
X-5419047Y-84062787D02*
X-5459523Y-84022311D01*
X-5459523Y-84022311D02*
X-5459523Y-84103263D01*
X-3799999Y-84305644D02*
X-3840475Y-84346121D01*
X-3840475Y-84346121D02*
X-3961904Y-84386597D01*
X-3961904Y-84386597D02*
X-4042856Y-84386597D01*
X-4042856Y-84386597D02*
X-4164285Y-84346121D01*
X-4164285Y-84346121D02*
X-4245237Y-84265168D01*
X-4245237Y-84265168D02*
X-4285714Y-84184216D01*
X-4285714Y-84184216D02*
X-4326190Y-84022311D01*
X-4326190Y-84022311D02*
X-4326190Y-83900882D01*
X-4326190Y-83900882D02*
X-4285714Y-83738978D01*
X-4285714Y-83738978D02*
X-4245237Y-83658025D01*
X-4245237Y-83658025D02*
X-4164285Y-83577073D01*
X-4164285Y-83577073D02*
X-4042856Y-83536597D01*
X-4042856Y-83536597D02*
X-3961904Y-83536597D01*
X-3961904Y-83536597D02*
X-3840475Y-83577073D01*
X-3840475Y-83577073D02*
X-3799999Y-83617549D01*
X-3476190Y-84143740D02*
X-3071428Y-84143740D01*
X-3557142Y-84386597D02*
X-3273809Y-83536597D01*
X-3273809Y-83536597D02*
X-2990475Y-84386597D01*
X-2707143Y-84386597D02*
X-2707143Y-83536597D01*
X-2707143Y-83536597D02*
X-2221428Y-84386597D01*
X-2221428Y-84386597D02*
X-2221428Y-83536597D01*
X-1047619Y-84022311D02*
X-1088095Y-84062787D01*
X-1088095Y-84062787D02*
X-1047619Y-84103263D01*
X-1047619Y-84103263D02*
X-1007143Y-84062787D01*
X-1007143Y-84062787D02*
X-1047619Y-84022311D01*
X-1047619Y-84022311D02*
X-1047619Y-84103263D01*
X126189Y-83536597D02*
X126189Y-84224692D01*
X126189Y-84224692D02*
X166666Y-84305644D01*
X166666Y-84305644D02*
X207142Y-84346121D01*
X207142Y-84346121D02*
X288094Y-84386597D01*
X288094Y-84386597D02*
X449999Y-84386597D01*
X449999Y-84386597D02*
X530951Y-84346121D01*
X530951Y-84346121D02*
X571428Y-84305644D01*
X571428Y-84305644D02*
X611904Y-84224692D01*
X611904Y-84224692D02*
X611904Y-83536597D01*
X976189Y-84143740D02*
X1380951Y-84143740D01*
X895237Y-84386597D02*
X1178570Y-83536597D01*
X1178570Y-83536597D02*
X1461904Y-84386597D01*
X2230951Y-84386597D02*
X1947617Y-83981835D01*
X1745236Y-84386597D02*
X1745236Y-83536597D01*
X1745236Y-83536597D02*
X2069046Y-83536597D01*
X2069046Y-83536597D02*
X2149998Y-83577073D01*
X2149998Y-83577073D02*
X2190475Y-83617549D01*
X2190475Y-83617549D02*
X2230951Y-83698501D01*
X2230951Y-83698501D02*
X2230951Y-83819930D01*
X2230951Y-83819930D02*
X2190475Y-83900882D01*
X2190475Y-83900882D02*
X2149998Y-83941359D01*
X2149998Y-83941359D02*
X2069046Y-83981835D01*
X2069046Y-83981835D02*
X1745236Y-83981835D01*
X2473808Y-83536597D02*
X2959522Y-83536597D01*
X2716665Y-84386597D02*
X2716665Y-83536597D01*
X4011903Y-84022311D02*
X3971427Y-84062787D01*
X3971427Y-84062787D02*
X4011903Y-84103263D01*
X4011903Y-84103263D02*
X4052379Y-84062787D01*
X4052379Y-84062787D02*
X4011903Y-84022311D01*
X4011903Y-84022311D02*
X4011903Y-84103263D01*
X5630951Y-84386597D02*
X5145236Y-84386597D01*
X5388093Y-84386597D02*
X5388093Y-83536597D01*
X5388093Y-83536597D02*
X5307141Y-83658025D01*
X5307141Y-83658025D02*
X5226189Y-83738978D01*
X5226189Y-83738978D02*
X5145236Y-83779454D01*
X6116665Y-83900882D02*
X6035713Y-83860406D01*
X6035713Y-83860406D02*
X5995236Y-83819930D01*
X5995236Y-83819930D02*
X5954760Y-83738978D01*
X5954760Y-83738978D02*
X5954760Y-83698501D01*
X5954760Y-83698501D02*
X5995236Y-83617549D01*
X5995236Y-83617549D02*
X6035713Y-83577073D01*
X6035713Y-83577073D02*
X6116665Y-83536597D01*
X6116665Y-83536597D02*
X6278570Y-83536597D01*
X6278570Y-83536597D02*
X6359522Y-83577073D01*
X6359522Y-83577073D02*
X6399998Y-83617549D01*
X6399998Y-83617549D02*
X6440475Y-83698501D01*
X6440475Y-83698501D02*
X6440475Y-83738978D01*
X6440475Y-83738978D02*
X6399998Y-83819930D01*
X6399998Y-83819930D02*
X6359522Y-83860406D01*
X6359522Y-83860406D02*
X6278570Y-83900882D01*
X6278570Y-83900882D02*
X6116665Y-83900882D01*
X6116665Y-83900882D02*
X6035713Y-83941359D01*
X6035713Y-83941359D02*
X5995236Y-83981835D01*
X5995236Y-83981835D02*
X5954760Y-84062787D01*
X5954760Y-84062787D02*
X5954760Y-84224692D01*
X5954760Y-84224692D02*
X5995236Y-84305644D01*
X5995236Y-84305644D02*
X6035713Y-84346121D01*
X6035713Y-84346121D02*
X6116665Y-84386597D01*
X6116665Y-84386597D02*
X6278570Y-84386597D01*
X6278570Y-84386597D02*
X6359522Y-84346121D01*
X6359522Y-84346121D02*
X6399998Y-84305644D01*
X6399998Y-84305644D02*
X6440475Y-84224692D01*
X6440475Y-84224692D02*
X6440475Y-84062787D01*
X6440475Y-84062787D02*
X6399998Y-83981835D01*
X6399998Y-83981835D02*
X6359522Y-83941359D01*
X6359522Y-83941359D02*
X6278570Y-83900882D01*
X7169046Y-83536597D02*
X7007141Y-83536597D01*
X7007141Y-83536597D02*
X6926189Y-83577073D01*
X6926189Y-83577073D02*
X6885713Y-83617549D01*
X6885713Y-83617549D02*
X6804760Y-83738978D01*
X6804760Y-83738978D02*
X6764284Y-83900882D01*
X6764284Y-83900882D02*
X6764284Y-84224692D01*
X6764284Y-84224692D02*
X6804760Y-84305644D01*
X6804760Y-84305644D02*
X6845237Y-84346121D01*
X6845237Y-84346121D02*
X6926189Y-84386597D01*
X6926189Y-84386597D02*
X7088094Y-84386597D01*
X7088094Y-84386597D02*
X7169046Y-84346121D01*
X7169046Y-84346121D02*
X7209522Y-84305644D01*
X7209522Y-84305644D02*
X7249999Y-84224692D01*
X7249999Y-84224692D02*
X7249999Y-84022311D01*
X7249999Y-84022311D02*
X7209522Y-83941359D01*
X7209522Y-83941359D02*
X7169046Y-83900882D01*
X7169046Y-83900882D02*
X7088094Y-83860406D01*
X7088094Y-83860406D02*
X6926189Y-83860406D01*
X6926189Y-83860406D02*
X6845237Y-83900882D01*
X6845237Y-83900882D02*
X6804760Y-83941359D01*
X6804760Y-83941359D02*
X6764284Y-84022311D01*
X8019046Y-83536597D02*
X7614284Y-83536597D01*
X7614284Y-83536597D02*
X7573808Y-83941359D01*
X7573808Y-83941359D02*
X7614284Y-83900882D01*
X7614284Y-83900882D02*
X7695237Y-83860406D01*
X7695237Y-83860406D02*
X7897618Y-83860406D01*
X7897618Y-83860406D02*
X7978570Y-83900882D01*
X7978570Y-83900882D02*
X8019046Y-83941359D01*
X8019046Y-83941359D02*
X8059523Y-84022311D01*
X8059523Y-84022311D02*
X8059523Y-84224692D01*
X8059523Y-84224692D02*
X8019046Y-84305644D01*
X8019046Y-84305644D02*
X7978570Y-84346121D01*
X7978570Y-84346121D02*
X7897618Y-84386597D01*
X7897618Y-84386597D02*
X7695237Y-84386597D01*
X7695237Y-84386597D02*
X7614284Y-84346121D01*
X7614284Y-84346121D02*
X7573808Y-84305644D01*
X8585713Y-83536597D02*
X8666666Y-83536597D01*
X8666666Y-83536597D02*
X8747618Y-83577073D01*
X8747618Y-83577073D02*
X8788094Y-83617549D01*
X8788094Y-83617549D02*
X8828570Y-83698501D01*
X8828570Y-83698501D02*
X8869047Y-83860406D01*
X8869047Y-83860406D02*
X8869047Y-84062787D01*
X8869047Y-84062787D02*
X8828570Y-84224692D01*
X8828570Y-84224692D02*
X8788094Y-84305644D01*
X8788094Y-84305644D02*
X8747618Y-84346121D01*
X8747618Y-84346121D02*
X8666666Y-84386597D01*
X8666666Y-84386597D02*
X8585713Y-84386597D01*
X8585713Y-84386597D02*
X8504761Y-84346121D01*
X8504761Y-84346121D02*
X8464285Y-84305644D01*
X8464285Y-84305644D02*
X8423808Y-84224692D01*
X8423808Y-84224692D02*
X8383332Y-84062787D01*
X8383332Y-84062787D02*
X8383332Y-83860406D01*
X8383332Y-83860406D02*
X8423808Y-83698501D01*
X8423808Y-83698501D02*
X8464285Y-83617549D01*
X8464285Y-83617549D02*
X8504761Y-83577073D01*
X8504761Y-83577073D02*
X8585713Y-83536597D01*
X10002380Y-84022311D02*
X9961904Y-84062787D01*
X9961904Y-84062787D02*
X10002380Y-84103263D01*
X10002380Y-84103263D02*
X10042856Y-84062787D01*
X10042856Y-84062787D02*
X10002380Y-84022311D01*
X10002380Y-84022311D02*
X10002380Y-84103263D01*
X11176189Y-84386597D02*
X11176189Y-83536597D01*
X11661904Y-84386597D02*
X11297618Y-83900882D01*
X11661904Y-83536597D02*
X11176189Y-84022311D01*
X12026189Y-84386597D02*
X12026189Y-83819930D01*
X12026189Y-83536597D02*
X11985713Y-83577073D01*
X11985713Y-83577073D02*
X12026189Y-83617549D01*
X12026189Y-83617549D02*
X12066666Y-83577073D01*
X12066666Y-83577073D02*
X12026189Y-83536597D01*
X12026189Y-83536597D02*
X12026189Y-83617549D01*
X12916666Y-84305644D02*
X12876190Y-84346121D01*
X12876190Y-84346121D02*
X12754761Y-84386597D01*
X12754761Y-84386597D02*
X12673809Y-84386597D01*
X12673809Y-84386597D02*
X12552380Y-84346121D01*
X12552380Y-84346121D02*
X12471428Y-84265168D01*
X12471428Y-84265168D02*
X12430951Y-84184216D01*
X12430951Y-84184216D02*
X12390475Y-84022311D01*
X12390475Y-84022311D02*
X12390475Y-83900882D01*
X12390475Y-83900882D02*
X12430951Y-83738978D01*
X12430951Y-83738978D02*
X12471428Y-83658025D01*
X12471428Y-83658025D02*
X12552380Y-83577073D01*
X12552380Y-83577073D02*
X12673809Y-83536597D01*
X12673809Y-83536597D02*
X12754761Y-83536597D01*
X12754761Y-83536597D02*
X12876190Y-83577073D01*
X12876190Y-83577073D02*
X12916666Y-83617549D01*
X13645237Y-84386597D02*
X13645237Y-83941359D01*
X13645237Y-83941359D02*
X13604761Y-83860406D01*
X13604761Y-83860406D02*
X13523809Y-83819930D01*
X13523809Y-83819930D02*
X13361904Y-83819930D01*
X13361904Y-83819930D02*
X13280951Y-83860406D01*
X13645237Y-84346121D02*
X13564285Y-84386597D01*
X13564285Y-84386597D02*
X13361904Y-84386597D01*
X13361904Y-84386597D02*
X13280951Y-84346121D01*
X13280951Y-84346121D02*
X13240475Y-84265168D01*
X13240475Y-84265168D02*
X13240475Y-84184216D01*
X13240475Y-84184216D02*
X13280951Y-84103263D01*
X13280951Y-84103263D02*
X13361904Y-84062787D01*
X13361904Y-84062787D02*
X13564285Y-84062787D01*
X13564285Y-84062787D02*
X13645237Y-84022311D01*
X14414285Y-84386597D02*
X14414285Y-83536597D01*
X14414285Y-84346121D02*
X14333333Y-84386597D01*
X14333333Y-84386597D02*
X14171428Y-84386597D01*
X14171428Y-84386597D02*
X14090476Y-84346121D01*
X14090476Y-84346121D02*
X14049999Y-84305644D01*
X14049999Y-84305644D02*
X14009523Y-84224692D01*
X14009523Y-84224692D02*
X14009523Y-83981835D01*
X14009523Y-83981835D02*
X14049999Y-83900882D01*
X14049999Y-83900882D02*
X14090476Y-83860406D01*
X14090476Y-83860406D02*
X14171428Y-83819930D01*
X14171428Y-83819930D02*
X14333333Y-83819930D01*
X14333333Y-83819930D02*
X14414285Y-83860406D01*
X15466666Y-84386597D02*
X15466666Y-83536597D01*
X15830952Y-84386597D02*
X15830952Y-83941359D01*
X15830952Y-83941359D02*
X15790476Y-83860406D01*
X15790476Y-83860406D02*
X15709524Y-83819930D01*
X15709524Y-83819930D02*
X15588095Y-83819930D01*
X15588095Y-83819930D02*
X15507143Y-83860406D01*
X15507143Y-83860406D02*
X15466666Y-83900882D01*
X16559524Y-84346121D02*
X16478572Y-84386597D01*
X16478572Y-84386597D02*
X16316667Y-84386597D01*
X16316667Y-84386597D02*
X16235714Y-84346121D01*
X16235714Y-84346121D02*
X16195238Y-84265168D01*
X16195238Y-84265168D02*
X16195238Y-83941359D01*
X16195238Y-83941359D02*
X16235714Y-83860406D01*
X16235714Y-83860406D02*
X16316667Y-83819930D01*
X16316667Y-83819930D02*
X16478572Y-83819930D01*
X16478572Y-83819930D02*
X16559524Y-83860406D01*
X16559524Y-83860406D02*
X16600000Y-83941359D01*
X16600000Y-83941359D02*
X16600000Y-84022311D01*
X16600000Y-84022311D02*
X16195238Y-84103263D01*
X17328571Y-84386597D02*
X17328571Y-83941359D01*
X17328571Y-83941359D02*
X17288095Y-83860406D01*
X17288095Y-83860406D02*
X17207143Y-83819930D01*
X17207143Y-83819930D02*
X17045238Y-83819930D01*
X17045238Y-83819930D02*
X16964285Y-83860406D01*
X17328571Y-84346121D02*
X17247619Y-84386597D01*
X17247619Y-84386597D02*
X17045238Y-84386597D01*
X17045238Y-84386597D02*
X16964285Y-84346121D01*
X16964285Y-84346121D02*
X16923809Y-84265168D01*
X16923809Y-84265168D02*
X16923809Y-84184216D01*
X16923809Y-84184216D02*
X16964285Y-84103263D01*
X16964285Y-84103263D02*
X17045238Y-84062787D01*
X17045238Y-84062787D02*
X17247619Y-84062787D01*
X17247619Y-84062787D02*
X17328571Y-84022311D01*
X18097619Y-84386597D02*
X18097619Y-83536597D01*
X18097619Y-84346121D02*
X18016667Y-84386597D01*
X18016667Y-84386597D02*
X17854762Y-84386597D01*
X17854762Y-84386597D02*
X17773810Y-84346121D01*
X17773810Y-84346121D02*
X17733333Y-84305644D01*
X17733333Y-84305644D02*
X17692857Y-84224692D01*
X17692857Y-84224692D02*
X17692857Y-83981835D01*
X17692857Y-83981835D02*
X17733333Y-83900882D01*
X17733333Y-83900882D02*
X17773810Y-83860406D01*
X17773810Y-83860406D02*
X17854762Y-83819930D01*
X17854762Y-83819930D02*
X18016667Y-83819930D01*
X18016667Y-83819930D02*
X18097619Y-83860406D01*
X18623810Y-84386597D02*
X18542858Y-84346121D01*
X18542858Y-84346121D02*
X18502381Y-84265168D01*
X18502381Y-84265168D02*
X18502381Y-83536597D01*
X19271429Y-84346121D02*
X19190477Y-84386597D01*
X19190477Y-84386597D02*
X19028572Y-84386597D01*
X19028572Y-84386597D02*
X18947619Y-84346121D01*
X18947619Y-84346121D02*
X18907143Y-84265168D01*
X18907143Y-84265168D02*
X18907143Y-83941359D01*
X18907143Y-83941359D02*
X18947619Y-83860406D01*
X18947619Y-83860406D02*
X19028572Y-83819930D01*
X19028572Y-83819930D02*
X19190477Y-83819930D01*
X19190477Y-83819930D02*
X19271429Y-83860406D01*
X19271429Y-83860406D02*
X19311905Y-83941359D01*
X19311905Y-83941359D02*
X19311905Y-84022311D01*
X19311905Y-84022311D02*
X18907143Y-84103263D01*
X19635714Y-84346121D02*
X19716667Y-84386597D01*
X19716667Y-84386597D02*
X19878571Y-84386597D01*
X19878571Y-84386597D02*
X19959524Y-84346121D01*
X19959524Y-84346121D02*
X20000000Y-84265168D01*
X20000000Y-84265168D02*
X20000000Y-84224692D01*
X20000000Y-84224692D02*
X19959524Y-84143740D01*
X19959524Y-84143740D02*
X19878571Y-84103263D01*
X19878571Y-84103263D02*
X19757143Y-84103263D01*
X19757143Y-84103263D02*
X19676190Y-84062787D01*
X19676190Y-84062787D02*
X19635714Y-83981835D01*
X19635714Y-83981835D02*
X19635714Y-83941359D01*
X19635714Y-83941359D02*
X19676190Y-83860406D01*
X19676190Y-83860406D02*
X19757143Y-83819930D01*
X19757143Y-83819930D02*
X19878571Y-83819930D01*
X19878571Y-83819930D02*
X19959524Y-83860406D01*
X20323809Y-84346121D02*
X20404762Y-84386597D01*
X20404762Y-84386597D02*
X20566666Y-84386597D01*
X20566666Y-84386597D02*
X20647619Y-84346121D01*
X20647619Y-84346121D02*
X20688095Y-84265168D01*
X20688095Y-84265168D02*
X20688095Y-84224692D01*
X20688095Y-84224692D02*
X20647619Y-84143740D01*
X20647619Y-84143740D02*
X20566666Y-84103263D01*
X20566666Y-84103263D02*
X20445238Y-84103263D01*
X20445238Y-84103263D02*
X20364285Y-84062787D01*
X20364285Y-84062787D02*
X20323809Y-83981835D01*
X20323809Y-83981835D02*
X20323809Y-83941359D01*
X20323809Y-83941359D02*
X20364285Y-83860406D01*
X20364285Y-83860406D02*
X20445238Y-83819930D01*
X20445238Y-83819930D02*
X20566666Y-83819930D01*
X20566666Y-83819930D02*
X20647619Y-83860406D01*
D12*
X-14057142Y-87431497D02*
X-14114285Y-87488640D01*
X-14114285Y-87488640D02*
X-14285713Y-87545782D01*
X-14285713Y-87545782D02*
X-14399999Y-87545782D01*
X-14399999Y-87545782D02*
X-14571428Y-87488640D01*
X-14571428Y-87488640D02*
X-14685713Y-87374354D01*
X-14685713Y-87374354D02*
X-14742856Y-87260068D01*
X-14742856Y-87260068D02*
X-14799999Y-87031497D01*
X-14799999Y-87031497D02*
X-14799999Y-86860068D01*
X-14799999Y-86860068D02*
X-14742856Y-86631497D01*
X-14742856Y-86631497D02*
X-14685713Y-86517211D01*
X-14685713Y-86517211D02*
X-14571428Y-86402925D01*
X-14571428Y-86402925D02*
X-14399999Y-86345782D01*
X-14399999Y-86345782D02*
X-14285713Y-86345782D01*
X-14285713Y-86345782D02*
X-14114285Y-86402925D01*
X-14114285Y-86402925D02*
X-14057142Y-86460068D01*
X-13542856Y-87545782D02*
X-13542856Y-86345782D01*
X-13542856Y-86345782D02*
X-13142856Y-87202925D01*
X-13142856Y-87202925D02*
X-12742856Y-86345782D01*
X-12742856Y-86345782D02*
X-12742856Y-87545782D01*
X-11771427Y-86917211D02*
X-12171427Y-86917211D01*
X-12171427Y-87545782D02*
X-12171427Y-86345782D01*
X-12171427Y-86345782D02*
X-11599999Y-86345782D01*
X-11142856Y-87545782D02*
X-11142856Y-86345782D01*
X-11142856Y-86345782D02*
X-10857142Y-86345782D01*
X-10857142Y-86345782D02*
X-10685713Y-86402925D01*
X-10685713Y-86402925D02*
X-10571428Y-86517211D01*
X-10571428Y-86517211D02*
X-10514285Y-86631497D01*
X-10514285Y-86631497D02*
X-10457142Y-86860068D01*
X-10457142Y-86860068D02*
X-10457142Y-87031497D01*
X-10457142Y-87031497D02*
X-10514285Y-87260068D01*
X-10514285Y-87260068D02*
X-10571428Y-87374354D01*
X-10571428Y-87374354D02*
X-10685713Y-87488640D01*
X-10685713Y-87488640D02*
X-10857142Y-87545782D01*
X-10857142Y-87545782D02*
X-11142856Y-87545782D01*
X-8628570Y-86917211D02*
X-8457142Y-86974354D01*
X-8457142Y-86974354D02*
X-8399999Y-87031497D01*
X-8399999Y-87031497D02*
X-8342856Y-87145782D01*
X-8342856Y-87145782D02*
X-8342856Y-87317211D01*
X-8342856Y-87317211D02*
X-8399999Y-87431497D01*
X-8399999Y-87431497D02*
X-8457142Y-87488640D01*
X-8457142Y-87488640D02*
X-8571427Y-87545782D01*
X-8571427Y-87545782D02*
X-9028570Y-87545782D01*
X-9028570Y-87545782D02*
X-9028570Y-86345782D01*
X-9028570Y-86345782D02*
X-8628570Y-86345782D01*
X-8628570Y-86345782D02*
X-8514285Y-86402925D01*
X-8514285Y-86402925D02*
X-8457142Y-86460068D01*
X-8457142Y-86460068D02*
X-8399999Y-86574354D01*
X-8399999Y-86574354D02*
X-8399999Y-86688640D01*
X-8399999Y-86688640D02*
X-8457142Y-86802925D01*
X-8457142Y-86802925D02*
X-8514285Y-86860068D01*
X-8514285Y-86860068D02*
X-8628570Y-86917211D01*
X-8628570Y-86917211D02*
X-9028570Y-86917211D01*
X-7599999Y-86345782D02*
X-7371427Y-86345782D01*
X-7371427Y-86345782D02*
X-7257142Y-86402925D01*
X-7257142Y-86402925D02*
X-7142856Y-86517211D01*
X-7142856Y-86517211D02*
X-7085713Y-86745782D01*
X-7085713Y-86745782D02*
X-7085713Y-87145782D01*
X-7085713Y-87145782D02*
X-7142856Y-87374354D01*
X-7142856Y-87374354D02*
X-7257142Y-87488640D01*
X-7257142Y-87488640D02*
X-7371427Y-87545782D01*
X-7371427Y-87545782D02*
X-7599999Y-87545782D01*
X-7599999Y-87545782D02*
X-7714285Y-87488640D01*
X-7714285Y-87488640D02*
X-7828570Y-87374354D01*
X-7828570Y-87374354D02*
X-7885713Y-87145782D01*
X-7885713Y-87145782D02*
X-7885713Y-86745782D01*
X-7885713Y-86745782D02*
X-7828570Y-86517211D01*
X-7828570Y-86517211D02*
X-7714285Y-86402925D01*
X-7714285Y-86402925D02*
X-7599999Y-86345782D01*
X-6628570Y-87202925D02*
X-6057142Y-87202925D01*
X-6742856Y-87545782D02*
X-6342856Y-86345782D01*
X-6342856Y-86345782D02*
X-5942856Y-87545782D01*
X-4857142Y-87545782D02*
X-5257142Y-86974354D01*
X-5542856Y-87545782D02*
X-5542856Y-86345782D01*
X-5542856Y-86345782D02*
X-5085713Y-86345782D01*
X-5085713Y-86345782D02*
X-4971428Y-86402925D01*
X-4971428Y-86402925D02*
X-4914285Y-86460068D01*
X-4914285Y-86460068D02*
X-4857142Y-86574354D01*
X-4857142Y-86574354D02*
X-4857142Y-86745782D01*
X-4857142Y-86745782D02*
X-4914285Y-86860068D01*
X-4914285Y-86860068D02*
X-4971428Y-86917211D01*
X-4971428Y-86917211D02*
X-5085713Y-86974354D01*
X-5085713Y-86974354D02*
X-5542856Y-86974354D01*
X-4342856Y-87545782D02*
X-4342856Y-86345782D01*
X-4342856Y-86345782D02*
X-4057142Y-86345782D01*
X-4057142Y-86345782D02*
X-3885713Y-86402925D01*
X-3885713Y-86402925D02*
X-3771428Y-86517211D01*
X-3771428Y-86517211D02*
X-3714285Y-86631497D01*
X-3714285Y-86631497D02*
X-3657142Y-86860068D01*
X-3657142Y-86860068D02*
X-3657142Y-87031497D01*
X-3657142Y-87031497D02*
X-3714285Y-87260068D01*
X-3714285Y-87260068D02*
X-3771428Y-87374354D01*
X-3771428Y-87374354D02*
X-3885713Y-87488640D01*
X-3885713Y-87488640D02*
X-4057142Y-87545782D01*
X-4057142Y-87545782D02*
X-4342856Y-87545782D01*
X-3142856Y-87088640D02*
X-2228571Y-87088640D01*
X-1257142Y-86917211D02*
X-1085714Y-86974354D01*
X-1085714Y-86974354D02*
X-1028571Y-87031497D01*
X-1028571Y-87031497D02*
X-971428Y-87145782D01*
X-971428Y-87145782D02*
X-971428Y-87317211D01*
X-971428Y-87317211D02*
X-1028571Y-87431497D01*
X-1028571Y-87431497D02*
X-1085714Y-87488640D01*
X-1085714Y-87488640D02*
X-1199999Y-87545782D01*
X-1199999Y-87545782D02*
X-1657142Y-87545782D01*
X-1657142Y-87545782D02*
X-1657142Y-86345782D01*
X-1657142Y-86345782D02*
X-1257142Y-86345782D01*
X-1257142Y-86345782D02*
X-1142857Y-86402925D01*
X-1142857Y-86402925D02*
X-1085714Y-86460068D01*
X-1085714Y-86460068D02*
X-1028571Y-86574354D01*
X-1028571Y-86574354D02*
X-1028571Y-86688640D01*
X-1028571Y-86688640D02*
X-1085714Y-86802925D01*
X-1085714Y-86802925D02*
X-1142857Y-86860068D01*
X-1142857Y-86860068D02*
X-1257142Y-86917211D01*
X-1257142Y-86917211D02*
X-1657142Y-86917211D01*
X1142857Y-87431497D02*
X1085714Y-87488640D01*
X1085714Y-87488640D02*
X914286Y-87545782D01*
X914286Y-87545782D02*
X800000Y-87545782D01*
X800000Y-87545782D02*
X628571Y-87488640D01*
X628571Y-87488640D02*
X514286Y-87374354D01*
X514286Y-87374354D02*
X457143Y-87260068D01*
X457143Y-87260068D02*
X400000Y-87031497D01*
X400000Y-87031497D02*
X400000Y-86860068D01*
X400000Y-86860068D02*
X457143Y-86631497D01*
X457143Y-86631497D02*
X514286Y-86517211D01*
X514286Y-86517211D02*
X628571Y-86402925D01*
X628571Y-86402925D02*
X800000Y-86345782D01*
X800000Y-86345782D02*
X914286Y-86345782D01*
X914286Y-86345782D02*
X1085714Y-86402925D01*
X1085714Y-86402925D02*
X1142857Y-86460068D01*
X1600000Y-87202925D02*
X2171429Y-87202925D01*
X1485714Y-87545782D02*
X1885714Y-86345782D01*
X1885714Y-86345782D02*
X2285714Y-87545782D01*
X3371428Y-87545782D02*
X2971428Y-86974354D01*
X2685714Y-87545782D02*
X2685714Y-86345782D01*
X2685714Y-86345782D02*
X3142857Y-86345782D01*
X3142857Y-86345782D02*
X3257142Y-86402925D01*
X3257142Y-86402925D02*
X3314285Y-86460068D01*
X3314285Y-86460068D02*
X3371428Y-86574354D01*
X3371428Y-86574354D02*
X3371428Y-86745782D01*
X3371428Y-86745782D02*
X3314285Y-86860068D01*
X3314285Y-86860068D02*
X3257142Y-86917211D01*
X3257142Y-86917211D02*
X3142857Y-86974354D01*
X3142857Y-86974354D02*
X2685714Y-86974354D01*
X4571428Y-87545782D02*
X4171428Y-86974354D01*
X3885714Y-87545782D02*
X3885714Y-86345782D01*
X3885714Y-86345782D02*
X4342857Y-86345782D01*
X4342857Y-86345782D02*
X4457142Y-86402925D01*
X4457142Y-86402925D02*
X4514285Y-86460068D01*
X4514285Y-86460068D02*
X4571428Y-86574354D01*
X4571428Y-86574354D02*
X4571428Y-86745782D01*
X4571428Y-86745782D02*
X4514285Y-86860068D01*
X4514285Y-86860068D02*
X4457142Y-86917211D01*
X4457142Y-86917211D02*
X4342857Y-86974354D01*
X4342857Y-86974354D02*
X3885714Y-86974354D01*
X5085714Y-87545782D02*
X5085714Y-86345782D01*
X5657143Y-86917211D02*
X6057143Y-86917211D01*
X6228571Y-87545782D02*
X5657143Y-87545782D01*
X5657143Y-87545782D02*
X5657143Y-86345782D01*
X5657143Y-86345782D02*
X6228571Y-86345782D01*
X7428571Y-87545782D02*
X7028571Y-86974354D01*
X6742857Y-87545782D02*
X6742857Y-86345782D01*
X6742857Y-86345782D02*
X7200000Y-86345782D01*
X7200000Y-86345782D02*
X7314285Y-86402925D01*
X7314285Y-86402925D02*
X7371428Y-86460068D01*
X7371428Y-86460068D02*
X7428571Y-86574354D01*
X7428571Y-86574354D02*
X7428571Y-86745782D01*
X7428571Y-86745782D02*
X7371428Y-86860068D01*
X7371428Y-86860068D02*
X7314285Y-86917211D01*
X7314285Y-86917211D02*
X7200000Y-86974354D01*
X7200000Y-86974354D02*
X6742857Y-86974354D01*
X8857143Y-87088640D02*
X9771429Y-87088640D01*
X9314286Y-87545782D02*
X9314286Y-86631497D01*
X11200000Y-87488640D02*
X11371429Y-87545782D01*
X11371429Y-87545782D02*
X11657143Y-87545782D01*
X11657143Y-87545782D02*
X11771429Y-87488640D01*
X11771429Y-87488640D02*
X11828571Y-87431497D01*
X11828571Y-87431497D02*
X11885714Y-87317211D01*
X11885714Y-87317211D02*
X11885714Y-87202925D01*
X11885714Y-87202925D02*
X11828571Y-87088640D01*
X11828571Y-87088640D02*
X11771429Y-87031497D01*
X11771429Y-87031497D02*
X11657143Y-86974354D01*
X11657143Y-86974354D02*
X11428571Y-86917211D01*
X11428571Y-86917211D02*
X11314286Y-86860068D01*
X11314286Y-86860068D02*
X11257143Y-86802925D01*
X11257143Y-86802925D02*
X11200000Y-86688640D01*
X11200000Y-86688640D02*
X11200000Y-86574354D01*
X11200000Y-86574354D02*
X11257143Y-86460068D01*
X11257143Y-86460068D02*
X11314286Y-86402925D01*
X11314286Y-86402925D02*
X11428571Y-86345782D01*
X11428571Y-86345782D02*
X11714286Y-86345782D01*
X11714286Y-86345782D02*
X11885714Y-86402925D01*
X12571428Y-87545782D02*
X12457143Y-87488640D01*
X12457143Y-87488640D02*
X12400000Y-87431497D01*
X12400000Y-87431497D02*
X12342857Y-87317211D01*
X12342857Y-87317211D02*
X12342857Y-86974354D01*
X12342857Y-86974354D02*
X12400000Y-86860068D01*
X12400000Y-86860068D02*
X12457143Y-86802925D01*
X12457143Y-86802925D02*
X12571428Y-86745782D01*
X12571428Y-86745782D02*
X12742857Y-86745782D01*
X12742857Y-86745782D02*
X12857143Y-86802925D01*
X12857143Y-86802925D02*
X12914286Y-86860068D01*
X12914286Y-86860068D02*
X12971428Y-86974354D01*
X12971428Y-86974354D02*
X12971428Y-87317211D01*
X12971428Y-87317211D02*
X12914286Y-87431497D01*
X12914286Y-87431497D02*
X12857143Y-87488640D01*
X12857143Y-87488640D02*
X12742857Y-87545782D01*
X12742857Y-87545782D02*
X12571428Y-87545782D01*
X13485714Y-87545782D02*
X13485714Y-86345782D01*
X13485714Y-86345782D02*
X13885714Y-87202925D01*
X13885714Y-87202925D02*
X14285714Y-86345782D01*
X14285714Y-86345782D02*
X14285714Y-87545782D01*
X16628572Y-86745782D02*
X17485715Y-86745782D01*
X16971429Y-86231497D02*
X16628572Y-87774354D01*
X17371429Y-87260068D02*
X16514286Y-87260068D01*
X17028572Y-87774354D02*
X17371429Y-86231497D01*
X18514286Y-87545782D02*
X17828572Y-87545782D01*
X18171429Y-87545782D02*
X18171429Y-86345782D01*
X18171429Y-86345782D02*
X18057143Y-86517211D01*
X18057143Y-86517211D02*
X17942858Y-86631497D01*
X17942858Y-86631497D02*
X17828572Y-86688640D01*
X18914286Y-86345782D02*
X19657143Y-86345782D01*
X19657143Y-86345782D02*
X19257143Y-86802925D01*
X19257143Y-86802925D02*
X19428572Y-86802925D01*
X19428572Y-86802925D02*
X19542858Y-86860068D01*
X19542858Y-86860068D02*
X19600000Y-86917211D01*
X19600000Y-86917211D02*
X19657143Y-87031497D01*
X19657143Y-87031497D02*
X19657143Y-87317211D01*
X19657143Y-87317211D02*
X19600000Y-87431497D01*
X19600000Y-87431497D02*
X19542858Y-87488640D01*
X19542858Y-87488640D02*
X19428572Y-87545782D01*
X19428572Y-87545782D02*
X19085715Y-87545782D01*
X19085715Y-87545782D02*
X18971429Y-87488640D01*
X18971429Y-87488640D02*
X18914286Y-87431497D01*
X20057143Y-86345782D02*
X20857143Y-86345782D01*
X20857143Y-86345782D02*
X20342857Y-87545782D01*
D13*
X69833333Y-78929580D02*
X69785714Y-78977200D01*
X69785714Y-78977200D02*
X69642857Y-79024819D01*
X69642857Y-79024819D02*
X69547619Y-79024819D01*
X69547619Y-79024819D02*
X69404762Y-78977200D01*
X69404762Y-78977200D02*
X69309524Y-78881961D01*
X69309524Y-78881961D02*
X69261905Y-78786723D01*
X69261905Y-78786723D02*
X69214286Y-78596247D01*
X69214286Y-78596247D02*
X69214286Y-78453390D01*
X69214286Y-78453390D02*
X69261905Y-78262914D01*
X69261905Y-78262914D02*
X69309524Y-78167676D01*
X69309524Y-78167676D02*
X69404762Y-78072438D01*
X69404762Y-78072438D02*
X69547619Y-78024819D01*
X69547619Y-78024819D02*
X69642857Y-78024819D01*
X69642857Y-78024819D02*
X69785714Y-78072438D01*
X69785714Y-78072438D02*
X69833333Y-78120057D01*
X70785714Y-79024819D02*
X70214286Y-79024819D01*
X70500000Y-79024819D02*
X70500000Y-78024819D01*
X70500000Y-78024819D02*
X70404762Y-78167676D01*
X70404762Y-78167676D02*
X70309524Y-78262914D01*
X70309524Y-78262914D02*
X70214286Y-78310533D01*
X85833333Y-78929580D02*
X85785714Y-78977200D01*
X85785714Y-78977200D02*
X85642857Y-79024819D01*
X85642857Y-79024819D02*
X85547619Y-79024819D01*
X85547619Y-79024819D02*
X85404762Y-78977200D01*
X85404762Y-78977200D02*
X85309524Y-78881961D01*
X85309524Y-78881961D02*
X85261905Y-78786723D01*
X85261905Y-78786723D02*
X85214286Y-78596247D01*
X85214286Y-78596247D02*
X85214286Y-78453390D01*
X85214286Y-78453390D02*
X85261905Y-78262914D01*
X85261905Y-78262914D02*
X85309524Y-78167676D01*
X85309524Y-78167676D02*
X85404762Y-78072438D01*
X85404762Y-78072438D02*
X85547619Y-78024819D01*
X85547619Y-78024819D02*
X85642857Y-78024819D01*
X85642857Y-78024819D02*
X85785714Y-78072438D01*
X85785714Y-78072438D02*
X85833333Y-78120057D01*
X86738095Y-78024819D02*
X86261905Y-78024819D01*
X86261905Y-78024819D02*
X86214286Y-78501009D01*
X86214286Y-78501009D02*
X86261905Y-78453390D01*
X86261905Y-78453390D02*
X86357143Y-78405771D01*
X86357143Y-78405771D02*
X86595238Y-78405771D01*
X86595238Y-78405771D02*
X86690476Y-78453390D01*
X86690476Y-78453390D02*
X86738095Y-78501009D01*
X86738095Y-78501009D02*
X86785714Y-78596247D01*
X86785714Y-78596247D02*
X86785714Y-78834342D01*
X86785714Y-78834342D02*
X86738095Y-78929580D01*
X86738095Y-78929580D02*
X86690476Y-78977200D01*
X86690476Y-78977200D02*
X86595238Y-79024819D01*
X86595238Y-79024819D02*
X86357143Y-79024819D01*
X86357143Y-79024819D02*
X86261905Y-78977200D01*
X86261905Y-78977200D02*
X86214286Y-78929580D01*
X89833333Y-78929580D02*
X89785714Y-78977200D01*
X89785714Y-78977200D02*
X89642857Y-79024819D01*
X89642857Y-79024819D02*
X89547619Y-79024819D01*
X89547619Y-79024819D02*
X89404762Y-78977200D01*
X89404762Y-78977200D02*
X89309524Y-78881961D01*
X89309524Y-78881961D02*
X89261905Y-78786723D01*
X89261905Y-78786723D02*
X89214286Y-78596247D01*
X89214286Y-78596247D02*
X89214286Y-78453390D01*
X89214286Y-78453390D02*
X89261905Y-78262914D01*
X89261905Y-78262914D02*
X89309524Y-78167676D01*
X89309524Y-78167676D02*
X89404762Y-78072438D01*
X89404762Y-78072438D02*
X89547619Y-78024819D01*
X89547619Y-78024819D02*
X89642857Y-78024819D01*
X89642857Y-78024819D02*
X89785714Y-78072438D01*
X89785714Y-78072438D02*
X89833333Y-78120057D01*
X90690476Y-78024819D02*
X90500000Y-78024819D01*
X90500000Y-78024819D02*
X90404762Y-78072438D01*
X90404762Y-78072438D02*
X90357143Y-78120057D01*
X90357143Y-78120057D02*
X90261905Y-78262914D01*
X90261905Y-78262914D02*
X90214286Y-78453390D01*
X90214286Y-78453390D02*
X90214286Y-78834342D01*
X90214286Y-78834342D02*
X90261905Y-78929580D01*
X90261905Y-78929580D02*
X90309524Y-78977200D01*
X90309524Y-78977200D02*
X90404762Y-79024819D01*
X90404762Y-79024819D02*
X90595238Y-79024819D01*
X90595238Y-79024819D02*
X90690476Y-78977200D01*
X90690476Y-78977200D02*
X90738095Y-78929580D01*
X90738095Y-78929580D02*
X90785714Y-78834342D01*
X90785714Y-78834342D02*
X90785714Y-78596247D01*
X90785714Y-78596247D02*
X90738095Y-78501009D01*
X90738095Y-78501009D02*
X90690476Y-78453390D01*
X90690476Y-78453390D02*
X90595238Y-78405771D01*
X90595238Y-78405771D02*
X90404762Y-78405771D01*
X90404762Y-78405771D02*
X90309524Y-78453390D01*
X90309524Y-78453390D02*
X90261905Y-78501009D01*
X90261905Y-78501009D02*
X90214286Y-78596247D01*
X113238095Y-2304819D02*
X113238095Y-1304819D01*
X113238095Y-1781009D02*
X113809523Y-1781009D01*
X113809523Y-2304819D02*
X113809523Y-1304819D01*
X114238095Y-1400057D02*
X114285714Y-1352438D01*
X114285714Y-1352438D02*
X114380952Y-1304819D01*
X114380952Y-1304819D02*
X114619047Y-1304819D01*
X114619047Y-1304819D02*
X114714285Y-1352438D01*
X114714285Y-1352438D02*
X114761904Y-1400057D01*
X114761904Y-1400057D02*
X114809523Y-1495295D01*
X114809523Y-1495295D02*
X114809523Y-1590533D01*
X114809523Y-1590533D02*
X114761904Y-1733390D01*
X114761904Y-1733390D02*
X114190476Y-2304819D01*
X114190476Y-2304819D02*
X114809523Y-2304819D01*
X81833333Y-78929580D02*
X81785714Y-78977200D01*
X81785714Y-78977200D02*
X81642857Y-79024819D01*
X81642857Y-79024819D02*
X81547619Y-79024819D01*
X81547619Y-79024819D02*
X81404762Y-78977200D01*
X81404762Y-78977200D02*
X81309524Y-78881961D01*
X81309524Y-78881961D02*
X81261905Y-78786723D01*
X81261905Y-78786723D02*
X81214286Y-78596247D01*
X81214286Y-78596247D02*
X81214286Y-78453390D01*
X81214286Y-78453390D02*
X81261905Y-78262914D01*
X81261905Y-78262914D02*
X81309524Y-78167676D01*
X81309524Y-78167676D02*
X81404762Y-78072438D01*
X81404762Y-78072438D02*
X81547619Y-78024819D01*
X81547619Y-78024819D02*
X81642857Y-78024819D01*
X81642857Y-78024819D02*
X81785714Y-78072438D01*
X81785714Y-78072438D02*
X81833333Y-78120057D01*
X82690476Y-78358152D02*
X82690476Y-79024819D01*
X82452381Y-77977200D02*
X82214286Y-78691485D01*
X82214286Y-78691485D02*
X82833333Y-78691485D01*
X95936666Y-15074819D02*
X95936666Y-15789104D01*
X95936666Y-15789104D02*
X95889047Y-15931961D01*
X95889047Y-15931961D02*
X95793809Y-16027200D01*
X95793809Y-16027200D02*
X95650952Y-16074819D01*
X95650952Y-16074819D02*
X95555714Y-16074819D01*
X96841428Y-15074819D02*
X96650952Y-15074819D01*
X96650952Y-15074819D02*
X96555714Y-15122438D01*
X96555714Y-15122438D02*
X96508095Y-15170057D01*
X96508095Y-15170057D02*
X96412857Y-15312914D01*
X96412857Y-15312914D02*
X96365238Y-15503390D01*
X96365238Y-15503390D02*
X96365238Y-15884342D01*
X96365238Y-15884342D02*
X96412857Y-15979580D01*
X96412857Y-15979580D02*
X96460476Y-16027200D01*
X96460476Y-16027200D02*
X96555714Y-16074819D01*
X96555714Y-16074819D02*
X96746190Y-16074819D01*
X96746190Y-16074819D02*
X96841428Y-16027200D01*
X96841428Y-16027200D02*
X96889047Y-15979580D01*
X96889047Y-15979580D02*
X96936666Y-15884342D01*
X96936666Y-15884342D02*
X96936666Y-15646247D01*
X96936666Y-15646247D02*
X96889047Y-15551009D01*
X96889047Y-15551009D02*
X96841428Y-15503390D01*
X96841428Y-15503390D02*
X96746190Y-15455771D01*
X96746190Y-15455771D02*
X96555714Y-15455771D01*
X96555714Y-15455771D02*
X96460476Y-15503390D01*
X96460476Y-15503390D02*
X96412857Y-15551009D01*
X96412857Y-15551009D02*
X96365238Y-15646247D01*
X28460476Y-55074819D02*
X28460476Y-55789104D01*
X28460476Y-55789104D02*
X28412857Y-55931961D01*
X28412857Y-55931961D02*
X28317619Y-56027200D01*
X28317619Y-56027200D02*
X28174762Y-56074819D01*
X28174762Y-56074819D02*
X28079524Y-56074819D01*
X29460476Y-56074819D02*
X28889048Y-56074819D01*
X29174762Y-56074819D02*
X29174762Y-55074819D01*
X29174762Y-55074819D02*
X29079524Y-55217676D01*
X29079524Y-55217676D02*
X28984286Y-55312914D01*
X28984286Y-55312914D02*
X28889048Y-55360533D01*
X30412857Y-56074819D02*
X29841429Y-56074819D01*
X30127143Y-56074819D02*
X30127143Y-55074819D01*
X30127143Y-55074819D02*
X30031905Y-55217676D01*
X30031905Y-55217676D02*
X29936667Y-55312914D01*
X29936667Y-55312914D02*
X29841429Y-55360533D01*
X109666666Y-15074819D02*
X109666666Y-15789104D01*
X109666666Y-15789104D02*
X109619047Y-15931961D01*
X109619047Y-15931961D02*
X109523809Y-16027200D01*
X109523809Y-16027200D02*
X109380952Y-16074819D01*
X109380952Y-16074819D02*
X109285714Y-16074819D01*
X110047619Y-15074819D02*
X110714285Y-15074819D01*
X110714285Y-15074819D02*
X110285714Y-16074819D01*
X75936666Y-45074819D02*
X75936666Y-45789104D01*
X75936666Y-45789104D02*
X75889047Y-45931961D01*
X75889047Y-45931961D02*
X75793809Y-46027200D01*
X75793809Y-46027200D02*
X75650952Y-46074819D01*
X75650952Y-46074819D02*
X75555714Y-46074819D01*
X76365238Y-45170057D02*
X76412857Y-45122438D01*
X76412857Y-45122438D02*
X76508095Y-45074819D01*
X76508095Y-45074819D02*
X76746190Y-45074819D01*
X76746190Y-45074819D02*
X76841428Y-45122438D01*
X76841428Y-45122438D02*
X76889047Y-45170057D01*
X76889047Y-45170057D02*
X76936666Y-45265295D01*
X76936666Y-45265295D02*
X76936666Y-45360533D01*
X76936666Y-45360533D02*
X76889047Y-45503390D01*
X76889047Y-45503390D02*
X76317619Y-46074819D01*
X76317619Y-46074819D02*
X76936666Y-46074819D01*
X57666666Y-5954819D02*
X57666666Y-6669104D01*
X57666666Y-6669104D02*
X57619047Y-6811961D01*
X57619047Y-6811961D02*
X57523809Y-6907200D01*
X57523809Y-6907200D02*
X57380952Y-6954819D01*
X57380952Y-6954819D02*
X57285714Y-6954819D01*
X58571428Y-6288152D02*
X58571428Y-6954819D01*
X58333333Y-5907200D02*
X58095238Y-6621485D01*
X58095238Y-6621485D02*
X58714285Y-6621485D01*
X77833333Y-78929580D02*
X77785714Y-78977200D01*
X77785714Y-78977200D02*
X77642857Y-79024819D01*
X77642857Y-79024819D02*
X77547619Y-79024819D01*
X77547619Y-79024819D02*
X77404762Y-78977200D01*
X77404762Y-78977200D02*
X77309524Y-78881961D01*
X77309524Y-78881961D02*
X77261905Y-78786723D01*
X77261905Y-78786723D02*
X77214286Y-78596247D01*
X77214286Y-78596247D02*
X77214286Y-78453390D01*
X77214286Y-78453390D02*
X77261905Y-78262914D01*
X77261905Y-78262914D02*
X77309524Y-78167676D01*
X77309524Y-78167676D02*
X77404762Y-78072438D01*
X77404762Y-78072438D02*
X77547619Y-78024819D01*
X77547619Y-78024819D02*
X77642857Y-78024819D01*
X77642857Y-78024819D02*
X77785714Y-78072438D01*
X77785714Y-78072438D02*
X77833333Y-78120057D01*
X78166667Y-78024819D02*
X78785714Y-78024819D01*
X78785714Y-78024819D02*
X78452381Y-78405771D01*
X78452381Y-78405771D02*
X78595238Y-78405771D01*
X78595238Y-78405771D02*
X78690476Y-78453390D01*
X78690476Y-78453390D02*
X78738095Y-78501009D01*
X78738095Y-78501009D02*
X78785714Y-78596247D01*
X78785714Y-78596247D02*
X78785714Y-78834342D01*
X78785714Y-78834342D02*
X78738095Y-78929580D01*
X78738095Y-78929580D02*
X78690476Y-78977200D01*
X78690476Y-78977200D02*
X78595238Y-79024819D01*
X78595238Y-79024819D02*
X78309524Y-79024819D01*
X78309524Y-79024819D02*
X78214286Y-78977200D01*
X78214286Y-78977200D02*
X78166667Y-78929580D01*
X109666666Y-52074819D02*
X109666666Y-52789104D01*
X109666666Y-52789104D02*
X109619047Y-52931961D01*
X109619047Y-52931961D02*
X109523809Y-53027200D01*
X109523809Y-53027200D02*
X109380952Y-53074819D01*
X109380952Y-53074819D02*
X109285714Y-53074819D01*
X110285714Y-52503390D02*
X110190476Y-52455771D01*
X110190476Y-52455771D02*
X110142857Y-52408152D01*
X110142857Y-52408152D02*
X110095238Y-52312914D01*
X110095238Y-52312914D02*
X110095238Y-52265295D01*
X110095238Y-52265295D02*
X110142857Y-52170057D01*
X110142857Y-52170057D02*
X110190476Y-52122438D01*
X110190476Y-52122438D02*
X110285714Y-52074819D01*
X110285714Y-52074819D02*
X110476190Y-52074819D01*
X110476190Y-52074819D02*
X110571428Y-52122438D01*
X110571428Y-52122438D02*
X110619047Y-52170057D01*
X110619047Y-52170057D02*
X110666666Y-52265295D01*
X110666666Y-52265295D02*
X110666666Y-52312914D01*
X110666666Y-52312914D02*
X110619047Y-52408152D01*
X110619047Y-52408152D02*
X110571428Y-52455771D01*
X110571428Y-52455771D02*
X110476190Y-52503390D01*
X110476190Y-52503390D02*
X110285714Y-52503390D01*
X110285714Y-52503390D02*
X110190476Y-52551009D01*
X110190476Y-52551009D02*
X110142857Y-52598628D01*
X110142857Y-52598628D02*
X110095238Y-52693866D01*
X110095238Y-52693866D02*
X110095238Y-52884342D01*
X110095238Y-52884342D02*
X110142857Y-52979580D01*
X110142857Y-52979580D02*
X110190476Y-53027200D01*
X110190476Y-53027200D02*
X110285714Y-53074819D01*
X110285714Y-53074819D02*
X110476190Y-53074819D01*
X110476190Y-53074819D02*
X110571428Y-53027200D01*
X110571428Y-53027200D02*
X110619047Y-52979580D01*
X110619047Y-52979580D02*
X110666666Y-52884342D01*
X110666666Y-52884342D02*
X110666666Y-52693866D01*
X110666666Y-52693866D02*
X110619047Y-52598628D01*
X110619047Y-52598628D02*
X110571428Y-52551009D01*
X110571428Y-52551009D02*
X110476190Y-52503390D01*
X106761905Y-69054819D02*
X106761905Y-69864342D01*
X106761905Y-69864342D02*
X106809524Y-69959580D01*
X106809524Y-69959580D02*
X106857143Y-70007200D01*
X106857143Y-70007200D02*
X106952381Y-70054819D01*
X106952381Y-70054819D02*
X107142857Y-70054819D01*
X107142857Y-70054819D02*
X107238095Y-70007200D01*
X107238095Y-70007200D02*
X107285714Y-69959580D01*
X107285714Y-69959580D02*
X107333333Y-69864342D01*
X107333333Y-69864342D02*
X107333333Y-69054819D01*
X108333333Y-70054819D02*
X107761905Y-70054819D01*
X108047619Y-70054819D02*
X108047619Y-69054819D01*
X108047619Y-69054819D02*
X107952381Y-69197676D01*
X107952381Y-69197676D02*
X107857143Y-69292914D01*
X107857143Y-69292914D02*
X107761905Y-69340533D01*
X108714286Y-69150057D02*
X108761905Y-69102438D01*
X108761905Y-69102438D02*
X108857143Y-69054819D01*
X108857143Y-69054819D02*
X109095238Y-69054819D01*
X109095238Y-69054819D02*
X109190476Y-69102438D01*
X109190476Y-69102438D02*
X109238095Y-69150057D01*
X109238095Y-69150057D02*
X109285714Y-69245295D01*
X109285714Y-69245295D02*
X109285714Y-69340533D01*
X109285714Y-69340533D02*
X109238095Y-69483390D01*
X109238095Y-69483390D02*
X108666667Y-70054819D01*
X108666667Y-70054819D02*
X109285714Y-70054819D01*
X93761905Y-69054819D02*
X93761905Y-69864342D01*
X93761905Y-69864342D02*
X93809524Y-69959580D01*
X93809524Y-69959580D02*
X93857143Y-70007200D01*
X93857143Y-70007200D02*
X93952381Y-70054819D01*
X93952381Y-70054819D02*
X94142857Y-70054819D01*
X94142857Y-70054819D02*
X94238095Y-70007200D01*
X94238095Y-70007200D02*
X94285714Y-69959580D01*
X94285714Y-69959580D02*
X94333333Y-69864342D01*
X94333333Y-69864342D02*
X94333333Y-69054819D01*
X95333333Y-70054819D02*
X94761905Y-70054819D01*
X95047619Y-70054819D02*
X95047619Y-69054819D01*
X95047619Y-69054819D02*
X94952381Y-69197676D01*
X94952381Y-69197676D02*
X94857143Y-69292914D01*
X94857143Y-69292914D02*
X94761905Y-69340533D01*
X96285714Y-70054819D02*
X95714286Y-70054819D01*
X96000000Y-70054819D02*
X96000000Y-69054819D01*
X96000000Y-69054819D02*
X95904762Y-69197676D01*
X95904762Y-69197676D02*
X95809524Y-69292914D01*
X95809524Y-69292914D02*
X95714286Y-69340533D01*
X5238095Y-80304819D02*
X5238095Y-79304819D01*
X5238095Y-79781009D02*
X5809523Y-79781009D01*
X5809523Y-80304819D02*
X5809523Y-79304819D01*
X6714285Y-79638152D02*
X6714285Y-80304819D01*
X6476190Y-79257200D02*
X6238095Y-79971485D01*
X6238095Y-79971485D02*
X6857142Y-79971485D01*
X73833333Y-78929580D02*
X73785714Y-78977200D01*
X73785714Y-78977200D02*
X73642857Y-79024819D01*
X73642857Y-79024819D02*
X73547619Y-79024819D01*
X73547619Y-79024819D02*
X73404762Y-78977200D01*
X73404762Y-78977200D02*
X73309524Y-78881961D01*
X73309524Y-78881961D02*
X73261905Y-78786723D01*
X73261905Y-78786723D02*
X73214286Y-78596247D01*
X73214286Y-78596247D02*
X73214286Y-78453390D01*
X73214286Y-78453390D02*
X73261905Y-78262914D01*
X73261905Y-78262914D02*
X73309524Y-78167676D01*
X73309524Y-78167676D02*
X73404762Y-78072438D01*
X73404762Y-78072438D02*
X73547619Y-78024819D01*
X73547619Y-78024819D02*
X73642857Y-78024819D01*
X73642857Y-78024819D02*
X73785714Y-78072438D01*
X73785714Y-78072438D02*
X73833333Y-78120057D01*
X74214286Y-78120057D02*
X74261905Y-78072438D01*
X74261905Y-78072438D02*
X74357143Y-78024819D01*
X74357143Y-78024819D02*
X74595238Y-78024819D01*
X74595238Y-78024819D02*
X74690476Y-78072438D01*
X74690476Y-78072438D02*
X74738095Y-78120057D01*
X74738095Y-78120057D02*
X74785714Y-78215295D01*
X74785714Y-78215295D02*
X74785714Y-78310533D01*
X74785714Y-78310533D02*
X74738095Y-78453390D01*
X74738095Y-78453390D02*
X74166667Y-79024819D01*
X74166667Y-79024819D02*
X74785714Y-79024819D01*
X21666666Y-5954819D02*
X21666666Y-6669104D01*
X21666666Y-6669104D02*
X21619047Y-6811961D01*
X21619047Y-6811961D02*
X21523809Y-6907200D01*
X21523809Y-6907200D02*
X21380952Y-6954819D01*
X21380952Y-6954819D02*
X21285714Y-6954819D01*
X22047619Y-5954819D02*
X22666666Y-5954819D01*
X22666666Y-5954819D02*
X22333333Y-6335771D01*
X22333333Y-6335771D02*
X22476190Y-6335771D01*
X22476190Y-6335771D02*
X22571428Y-6383390D01*
X22571428Y-6383390D02*
X22619047Y-6431009D01*
X22619047Y-6431009D02*
X22666666Y-6526247D01*
X22666666Y-6526247D02*
X22666666Y-6764342D01*
X22666666Y-6764342D02*
X22619047Y-6859580D01*
X22619047Y-6859580D02*
X22571428Y-6907200D01*
X22571428Y-6907200D02*
X22476190Y-6954819D01*
X22476190Y-6954819D02*
X22190476Y-6954819D01*
X22190476Y-6954819D02*
X22095238Y-6907200D01*
X22095238Y-6907200D02*
X22047619Y-6859580D01*
X25226666Y-67954819D02*
X25226666Y-68669104D01*
X25226666Y-68669104D02*
X25179047Y-68811961D01*
X25179047Y-68811961D02*
X25083809Y-68907200D01*
X25083809Y-68907200D02*
X24940952Y-68954819D01*
X24940952Y-68954819D02*
X24845714Y-68954819D01*
X26179047Y-67954819D02*
X25702857Y-67954819D01*
X25702857Y-67954819D02*
X25655238Y-68431009D01*
X25655238Y-68431009D02*
X25702857Y-68383390D01*
X25702857Y-68383390D02*
X25798095Y-68335771D01*
X25798095Y-68335771D02*
X26036190Y-68335771D01*
X26036190Y-68335771D02*
X26131428Y-68383390D01*
X26131428Y-68383390D02*
X26179047Y-68431009D01*
X26179047Y-68431009D02*
X26226666Y-68526247D01*
X26226666Y-68526247D02*
X26226666Y-68764342D01*
X26226666Y-68764342D02*
X26179047Y-68859580D01*
X26179047Y-68859580D02*
X26131428Y-68907200D01*
X26131428Y-68907200D02*
X26036190Y-68954819D01*
X26036190Y-68954819D02*
X25798095Y-68954819D01*
X25798095Y-68954819D02*
X25702857Y-68907200D01*
X25702857Y-68907200D02*
X25655238Y-68859580D01*
X28460476Y-37074819D02*
X28460476Y-37789104D01*
X28460476Y-37789104D02*
X28412857Y-37931961D01*
X28412857Y-37931961D02*
X28317619Y-38027200D01*
X28317619Y-38027200D02*
X28174762Y-38074819D01*
X28174762Y-38074819D02*
X28079524Y-38074819D01*
X29460476Y-38074819D02*
X28889048Y-38074819D01*
X29174762Y-38074819D02*
X29174762Y-37074819D01*
X29174762Y-37074819D02*
X29079524Y-37217676D01*
X29079524Y-37217676D02*
X28984286Y-37312914D01*
X28984286Y-37312914D02*
X28889048Y-37360533D01*
X30079524Y-37074819D02*
X30174762Y-37074819D01*
X30174762Y-37074819D02*
X30270000Y-37122438D01*
X30270000Y-37122438D02*
X30317619Y-37170057D01*
X30317619Y-37170057D02*
X30365238Y-37265295D01*
X30365238Y-37265295D02*
X30412857Y-37455771D01*
X30412857Y-37455771D02*
X30412857Y-37693866D01*
X30412857Y-37693866D02*
X30365238Y-37884342D01*
X30365238Y-37884342D02*
X30317619Y-37979580D01*
X30317619Y-37979580D02*
X30270000Y-38027200D01*
X30270000Y-38027200D02*
X30174762Y-38074819D01*
X30174762Y-38074819D02*
X30079524Y-38074819D01*
X30079524Y-38074819D02*
X29984286Y-38027200D01*
X29984286Y-38027200D02*
X29936667Y-37979580D01*
X29936667Y-37979580D02*
X29889048Y-37884342D01*
X29889048Y-37884342D02*
X29841429Y-37693866D01*
X29841429Y-37693866D02*
X29841429Y-37455771D01*
X29841429Y-37455771D02*
X29889048Y-37265295D01*
X29889048Y-37265295D02*
X29936667Y-37170057D01*
X29936667Y-37170057D02*
X29984286Y-37122438D01*
X29984286Y-37122438D02*
X30079524Y-37074819D01*
X94238095Y-36054819D02*
X94238095Y-36864342D01*
X94238095Y-36864342D02*
X94285714Y-36959580D01*
X94285714Y-36959580D02*
X94333333Y-37007200D01*
X94333333Y-37007200D02*
X94428571Y-37054819D01*
X94428571Y-37054819D02*
X94619047Y-37054819D01*
X94619047Y-37054819D02*
X94714285Y-37007200D01*
X94714285Y-37007200D02*
X94761904Y-36959580D01*
X94761904Y-36959580D02*
X94809523Y-36864342D01*
X94809523Y-36864342D02*
X94809523Y-36054819D01*
X95714285Y-36054819D02*
X95523809Y-36054819D01*
X95523809Y-36054819D02*
X95428571Y-36102438D01*
X95428571Y-36102438D02*
X95380952Y-36150057D01*
X95380952Y-36150057D02*
X95285714Y-36292914D01*
X95285714Y-36292914D02*
X95238095Y-36483390D01*
X95238095Y-36483390D02*
X95238095Y-36864342D01*
X95238095Y-36864342D02*
X95285714Y-36959580D01*
X95285714Y-36959580D02*
X95333333Y-37007200D01*
X95333333Y-37007200D02*
X95428571Y-37054819D01*
X95428571Y-37054819D02*
X95619047Y-37054819D01*
X95619047Y-37054819D02*
X95714285Y-37007200D01*
X95714285Y-37007200D02*
X95761904Y-36959580D01*
X95761904Y-36959580D02*
X95809523Y-36864342D01*
X95809523Y-36864342D02*
X95809523Y-36626247D01*
X95809523Y-36626247D02*
X95761904Y-36531009D01*
X95761904Y-36531009D02*
X95714285Y-36483390D01*
X95714285Y-36483390D02*
X95619047Y-36435771D01*
X95619047Y-36435771D02*
X95428571Y-36435771D01*
X95428571Y-36435771D02*
X95333333Y-36483390D01*
X95333333Y-36483390D02*
X95285714Y-36531009D01*
X95285714Y-36531009D02*
X95238095Y-36626247D01*
X113238095Y-80304819D02*
X113238095Y-79304819D01*
X113238095Y-79781009D02*
X113809523Y-79781009D01*
X113809523Y-80304819D02*
X113809523Y-79304819D01*
X114190476Y-79304819D02*
X114809523Y-79304819D01*
X114809523Y-79304819D02*
X114476190Y-79685771D01*
X114476190Y-79685771D02*
X114619047Y-79685771D01*
X114619047Y-79685771D02*
X114714285Y-79733390D01*
X114714285Y-79733390D02*
X114761904Y-79781009D01*
X114761904Y-79781009D02*
X114809523Y-79876247D01*
X114809523Y-79876247D02*
X114809523Y-80114342D01*
X114809523Y-80114342D02*
X114761904Y-80209580D01*
X114761904Y-80209580D02*
X114714285Y-80257200D01*
X114714285Y-80257200D02*
X114619047Y-80304819D01*
X114619047Y-80304819D02*
X114333333Y-80304819D01*
X114333333Y-80304819D02*
X114238095Y-80257200D01*
X114238095Y-80257200D02*
X114190476Y-80209580D01*
X5238095Y-2304819D02*
X5238095Y-1304819D01*
X5238095Y-1781009D02*
X5809523Y-1781009D01*
X5809523Y-2304819D02*
X5809523Y-1304819D01*
X6809523Y-2304819D02*
X6238095Y-2304819D01*
X6523809Y-2304819D02*
X6523809Y-1304819D01*
X6523809Y-1304819D02*
X6428571Y-1447676D01*
X6428571Y-1447676D02*
X6333333Y-1542914D01*
X6333333Y-1542914D02*
X6238095Y-1590533D01*
%TO.C,C1*%
D10*
X69859420Y-79490000D02*
X70140580Y-79490000D01*
X69859420Y-80510000D02*
X70140580Y-80510000D01*
%TO.C,C5*%
X85859420Y-79490000D02*
X86140580Y-79490000D01*
X85859420Y-80510000D02*
X86140580Y-80510000D01*
%TO.C,C6*%
X89859420Y-79490000D02*
X90140580Y-79490000D01*
X89859420Y-80510000D02*
X90140580Y-80510000D01*
%TO.C,C4*%
X81859420Y-79490000D02*
X82140580Y-79490000D01*
X81859420Y-80510000D02*
X82140580Y-80510000D01*
%TO.C,J6*%
X93620000Y-16620000D02*
X95000000Y-16620000D01*
X93620000Y-18000000D02*
X93620000Y-16620000D01*
X93620000Y-19270000D02*
X93620000Y-29540000D01*
X93620000Y-19270000D02*
X96270000Y-19270000D01*
X93620000Y-29540000D02*
X98920000Y-29540000D01*
X96270000Y-16620000D02*
X98920000Y-16620000D01*
X96270000Y-19270000D02*
X96270000Y-16620000D01*
X98920000Y-16620000D02*
X98920000Y-29540000D01*
%TO.C,J11*%
X26620000Y-56620000D02*
X28000000Y-56620000D01*
X26620000Y-58000000D02*
X26620000Y-56620000D01*
X26620000Y-59270000D02*
X26620000Y-82240000D01*
X26620000Y-59270000D02*
X29270000Y-59270000D01*
X26620000Y-82240000D02*
X31920000Y-82240000D01*
X29270000Y-56620000D02*
X31920000Y-56620000D01*
X29270000Y-59270000D02*
X29270000Y-56620000D01*
X31920000Y-56620000D02*
X31920000Y-82240000D01*
%TO.C,J7*%
X108620000Y-16620000D02*
X110000000Y-16620000D01*
X108620000Y-18000000D02*
X108620000Y-16620000D01*
X108620000Y-19270000D02*
X108620000Y-27000000D01*
X108620000Y-19270000D02*
X111380000Y-19270000D01*
X108620000Y-27000000D02*
X111380000Y-27000000D01*
X111380000Y-19270000D02*
X111380000Y-27000000D01*
%TO.C,J2*%
X73620000Y-46620000D02*
X75000000Y-46620000D01*
X73620000Y-48000000D02*
X73620000Y-46620000D01*
X73620000Y-49270000D02*
X73620000Y-72240000D01*
X73620000Y-49270000D02*
X76270000Y-49270000D01*
X73620000Y-72240000D02*
X78920000Y-72240000D01*
X76270000Y-46620000D02*
X78920000Y-46620000D01*
X76270000Y-49270000D02*
X76270000Y-46620000D01*
X78920000Y-46620000D02*
X78920000Y-72240000D01*
%TO.C,J4*%
X53330000Y-11900000D02*
X53330000Y-10200000D01*
X62670000Y-11900000D02*
X62670000Y-10200000D01*
%TO.C,C3*%
X77859420Y-79490000D02*
X78140580Y-79490000D01*
X77859420Y-80510000D02*
X78140580Y-80510000D01*
%TO.C,J8*%
X108620000Y-53620000D02*
X110000000Y-53620000D01*
X108620000Y-55000000D02*
X108620000Y-53620000D01*
X108620000Y-56270000D02*
X108620000Y-64000000D01*
X108620000Y-56270000D02*
X111380000Y-56270000D01*
X108620000Y-64000000D02*
X111380000Y-64000000D01*
X111380000Y-56270000D02*
X111380000Y-64000000D01*
%TO.C,U12*%
X107090000Y-70440000D02*
X108910000Y-70440000D01*
X107090000Y-70490000D02*
X107090000Y-70440000D01*
X107090000Y-73560000D02*
X107090000Y-73510000D01*
X108910000Y-70440000D02*
X108910000Y-70490000D01*
X108910000Y-71610000D02*
X108910000Y-72390000D01*
X108910000Y-73510000D02*
X108910000Y-73560000D01*
X108910000Y-73560000D02*
X107090000Y-73560000D01*
X106550000Y-70490000D02*
X106310000Y-70160000D01*
X106790000Y-70160000D01*
X106550000Y-70490000D01*
G36*
X106550000Y-70490000D02*
G01*
X106310000Y-70160000D01*
X106790000Y-70160000D01*
X106550000Y-70490000D01*
G37*
%TO.C,U11*%
X94090000Y-70440000D02*
X95910000Y-70440000D01*
X94090000Y-70490000D02*
X94090000Y-70440000D01*
X94090000Y-73560000D02*
X94090000Y-73510000D01*
X95910000Y-70440000D02*
X95910000Y-70490000D01*
X95910000Y-71610000D02*
X95910000Y-72390000D01*
X95910000Y-73510000D02*
X95910000Y-73560000D01*
X95910000Y-73560000D02*
X94090000Y-73560000D01*
X93550000Y-70490000D02*
X93310000Y-70160000D01*
X93790000Y-70160000D01*
X93550000Y-70490000D01*
G36*
X93550000Y-70490000D02*
G01*
X93310000Y-70160000D01*
X93790000Y-70160000D01*
X93550000Y-70490000D01*
G37*
%TO.C,C2*%
X73859420Y-79490000D02*
X74140580Y-79490000D01*
X73859420Y-80510000D02*
X74140580Y-80510000D01*
%TO.C,J3*%
X17330000Y-11900000D02*
X17330000Y-10200000D01*
X26670000Y-11900000D02*
X26670000Y-10200000D01*
%TO.C,J5*%
X16500000Y-76800000D02*
X17000000Y-77300000D01*
X16500000Y-77800000D02*
X16500000Y-76800000D01*
X17000000Y-77300000D02*
X16500000Y-77800000D01*
X17195000Y-69890000D02*
X17195000Y-77500000D01*
X17195000Y-85860000D02*
X17195000Y-80300000D01*
X17240000Y-69890000D02*
X33880000Y-69890000D01*
X17240000Y-85860000D02*
X33925000Y-85860000D01*
X33925000Y-69890000D02*
X33925000Y-77500000D01*
X33925000Y-85860000D02*
X33925000Y-80300000D01*
%TO.C,J10*%
X26620000Y-38620000D02*
X28000000Y-38620000D01*
X26620000Y-40000000D02*
X26620000Y-38620000D01*
X26620000Y-41270000D02*
X26620000Y-64240000D01*
X26620000Y-41270000D02*
X29270000Y-41270000D01*
X26620000Y-64240000D02*
X31920000Y-64240000D01*
X29270000Y-38620000D02*
X31920000Y-38620000D01*
X29270000Y-41270000D02*
X29270000Y-38620000D01*
X31920000Y-38620000D02*
X31920000Y-64240000D01*
%TO.C,U6*%
X92940000Y-37440000D02*
X97060000Y-37440000D01*
X92940000Y-37535000D02*
X92940000Y-37440000D01*
X92940000Y-42560000D02*
X92940000Y-42465000D01*
X97060000Y-37440000D02*
X97060000Y-37535000D01*
X97060000Y-42465000D02*
X97060000Y-42560000D01*
X97060000Y-42560000D02*
X92940000Y-42560000D01*
X92400000Y-37530000D02*
X92160000Y-37200000D01*
X92640000Y-37200000D01*
X92400000Y-37530000D01*
G36*
X92400000Y-37530000D02*
G01*
X92160000Y-37200000D01*
X92640000Y-37200000D01*
X92400000Y-37530000D01*
G37*
%TD*%
%LPC*%
D14*
%TO.C,C1*%
X69225000Y-80000000D03*
X70775000Y-80000000D03*
%TD*%
%TO.C,C5*%
X85225000Y-80000000D03*
X86775000Y-80000000D03*
%TD*%
%TO.C,C6*%
X89225000Y-80000000D03*
X90775000Y-80000000D03*
%TD*%
D15*
%TO.C,H2*%
X114000000Y-6000000D03*
%TD*%
D14*
%TO.C,C4*%
X81225000Y-80000000D03*
X82775000Y-80000000D03*
%TD*%
D16*
%TO.C,J6*%
X95000000Y-18000000D03*
D17*
X97540000Y-18000000D03*
X95000000Y-20540000D03*
X97540000Y-20540000D03*
X95000000Y-23080000D03*
X97540000Y-23080000D03*
X95000000Y-25620000D03*
X97540000Y-25620000D03*
X95000000Y-28160000D03*
X97540000Y-28160000D03*
%TD*%
D16*
%TO.C,J11*%
X28000000Y-58000000D03*
D17*
X30540000Y-58000000D03*
X28000000Y-60540000D03*
X30540000Y-60540000D03*
X28000000Y-63080000D03*
X30540000Y-63080000D03*
X28000000Y-65620000D03*
X30540000Y-65620000D03*
X28000000Y-68160000D03*
X30540000Y-68160000D03*
X28000000Y-70700000D03*
X30540000Y-70700000D03*
X28000000Y-73240000D03*
X30540000Y-73240000D03*
X28000000Y-75780000D03*
X30540000Y-75780000D03*
X28000000Y-78320000D03*
X30540000Y-78320000D03*
X28000000Y-80860000D03*
X30540000Y-80860000D03*
%TD*%
D16*
%TO.C,J7*%
X110000000Y-18000000D03*
D17*
X110000000Y-20540000D03*
X110000000Y-23080000D03*
X110000000Y-25620000D03*
%TD*%
D16*
%TO.C,J2*%
X75000000Y-48000000D03*
D17*
X77540000Y-48000000D03*
X75000000Y-50540000D03*
X77540000Y-50540000D03*
X75000000Y-53080000D03*
X77540000Y-53080000D03*
X75000000Y-55620000D03*
X77540000Y-55620000D03*
X75000000Y-58160000D03*
X77540000Y-58160000D03*
X75000000Y-60700000D03*
X77540000Y-60700000D03*
X75000000Y-63240000D03*
X77540000Y-63240000D03*
X75000000Y-65780000D03*
X77540000Y-65780000D03*
X75000000Y-68320000D03*
X77540000Y-68320000D03*
X75000000Y-70860000D03*
X77540000Y-70860000D03*
%TD*%
D18*
%TO.C,J4*%
X55110000Y-9395000D03*
X60890000Y-9395000D03*
D19*
X54800000Y-8320000D03*
X55600000Y-8320000D03*
D20*
X56750000Y-8320000D03*
X57750000Y-8320000D03*
X58250000Y-8320000D03*
X59250000Y-8320000D03*
D19*
X60400000Y-8320000D03*
X61200000Y-8320000D03*
X61200000Y-8320000D03*
X60400000Y-8320000D03*
D20*
X59750000Y-8320000D03*
X58750000Y-8320000D03*
X57250000Y-8320000D03*
X56250000Y-8320000D03*
D19*
X55600000Y-8320000D03*
X54800000Y-8320000D03*
D21*
X53680000Y-8895000D03*
D22*
X53680000Y-13075000D03*
D21*
X62320000Y-8895000D03*
D22*
X62320000Y-13075000D03*
%TD*%
D14*
%TO.C,C3*%
X77225000Y-80000000D03*
X78775000Y-80000000D03*
%TD*%
D16*
%TO.C,J8*%
X110000000Y-55000000D03*
D17*
X110000000Y-57540000D03*
X110000000Y-60080000D03*
X110000000Y-62620000D03*
%TD*%
D23*
%TO.C,U12*%
X106862500Y-71050000D03*
X106862500Y-72000000D03*
X106862500Y-72950000D03*
X109137500Y-72950000D03*
X109137500Y-71050000D03*
%TD*%
%TO.C,U11*%
X93862500Y-71050000D03*
X93862500Y-72000000D03*
X93862500Y-72950000D03*
X96137500Y-72950000D03*
X96137500Y-71050000D03*
%TD*%
D15*
%TO.C,H4*%
X6000000Y-84000000D03*
%TD*%
D14*
%TO.C,C2*%
X73225000Y-80000000D03*
X74775000Y-80000000D03*
%TD*%
D18*
%TO.C,J3*%
X19110000Y-9395000D03*
X24890000Y-9395000D03*
D19*
X18800000Y-8320000D03*
X19600000Y-8320000D03*
D20*
X20750000Y-8320000D03*
X21750000Y-8320000D03*
X22250000Y-8320000D03*
X23250000Y-8320000D03*
D19*
X24400000Y-8320000D03*
X25200000Y-8320000D03*
X25200000Y-8320000D03*
X24400000Y-8320000D03*
D20*
X23750000Y-8320000D03*
X22750000Y-8320000D03*
X21250000Y-8320000D03*
X20250000Y-8320000D03*
D19*
X19600000Y-8320000D03*
X18800000Y-8320000D03*
D21*
X17680000Y-8895000D03*
D22*
X17680000Y-13075000D03*
D21*
X26320000Y-8895000D03*
D22*
X26320000Y-13075000D03*
%TD*%
D24*
%TO.C,J5*%
X19210000Y-75460000D03*
X31910000Y-75460000D03*
D25*
X22000000Y-78000000D03*
D26*
X23016000Y-79780000D03*
X24032000Y-78000000D03*
X25048000Y-79780000D03*
X26064000Y-78000000D03*
X27080000Y-79780000D03*
X28096000Y-78000000D03*
X29112000Y-79780000D03*
D27*
X17430000Y-78890000D03*
X33690000Y-78890000D03*
%TD*%
D16*
%TO.C,J10*%
X28000000Y-40000000D03*
D17*
X30540000Y-40000000D03*
X28000000Y-42540000D03*
X30540000Y-42540000D03*
X28000000Y-45080000D03*
X30540000Y-45080000D03*
X28000000Y-47620000D03*
X30540000Y-47620000D03*
X28000000Y-50160000D03*
X30540000Y-50160000D03*
X28000000Y-52700000D03*
X30540000Y-52700000D03*
X28000000Y-55240000D03*
X30540000Y-55240000D03*
X28000000Y-57780000D03*
X30540000Y-57780000D03*
X28000000Y-60320000D03*
X30540000Y-60320000D03*
X28000000Y-62860000D03*
X30540000Y-62860000D03*
%TD*%
D28*
%TO.C,U6*%
X92525000Y-38095000D03*
X92525000Y-39365000D03*
X92525000Y-40635000D03*
X92525000Y-41905000D03*
X97475000Y-41905000D03*
X97475000Y-40635000D03*
X97475000Y-39365000D03*
X97475000Y-38095000D03*
%TD*%
D15*
%TO.C,H3*%
X114000000Y-84000000D03*
%TD*%
%TO.C,H1*%
X6000000Y-6000000D03*
%TD*%
%LPD*%
M02*
