%TF.GenerationSoftware,KiCad,Pcbnew,10.0.4*%
%TF.CreationDate,2026-07-22T10:10:38-04:00*%
%TF.ProjectId,cmfd-board-b,636d6664-2d62-46f6-9172-642d622e6b69,rev?*%
%TF.SameCoordinates,Original*%
%TF.FileFunction,Soldermask,Bot*%
%TF.FilePolarity,Negative*%
%FSLAX46Y46*%
G04 Gerber Fmt 4.6, Leading zero omitted, Abs format (unit mm)*
G04 Created by KiCad (PCBNEW 10.0.4) date 2026-07-22 10:10:38*
%MOMM*%
%LPD*%
G01*
G04 APERTURE LIST*
%ADD10R,1.700000X1.700000*%
%ADD11C,1.700000*%
%ADD12C,3.200000*%
%ADD13C,3.250000*%
%ADD14R,1.500000X1.500000*%
%ADD15C,1.500000*%
%ADD16C,2.300000*%
%ADD17C,0.650000*%
%ADD18O,1.000000X2.100000*%
%ADD19O,1.000000X1.800000*%
G04 APERTURE END LIST*
D10*
%TO.C,J10*%
X30000000Y-45000000D03*
D11*
X32540000Y-45000000D03*
X30000000Y-47540000D03*
X32540000Y-47540000D03*
X30000000Y-50080000D03*
X32540000Y-50080000D03*
X30000000Y-52620000D03*
X32540000Y-52620000D03*
X30000000Y-55160000D03*
X32540000Y-55160000D03*
X30000000Y-57700000D03*
X32540000Y-57700000D03*
X30000000Y-60240000D03*
X32540000Y-60240000D03*
X30000000Y-62780000D03*
X32540000Y-62780000D03*
X30000000Y-65320000D03*
X32540000Y-65320000D03*
X30000000Y-67860000D03*
X32540000Y-67860000D03*
%TD*%
D12*
%TO.C,H1*%
X8000000Y-8000000D03*
%TD*%
D10*
%TO.C,J11*%
X30000000Y-62000000D03*
D11*
X32540000Y-62000000D03*
X30000000Y-64540000D03*
X32540000Y-64540000D03*
X30000000Y-67080000D03*
X32540000Y-67080000D03*
X30000000Y-69620000D03*
X32540000Y-69620000D03*
X30000000Y-72160000D03*
X32540000Y-72160000D03*
X30000000Y-74700000D03*
X32540000Y-74700000D03*
X30000000Y-77240000D03*
X32540000Y-77240000D03*
X30000000Y-79780000D03*
X32540000Y-79780000D03*
X30000000Y-82320000D03*
X32540000Y-82320000D03*
X30000000Y-84860000D03*
X32540000Y-84860000D03*
%TD*%
D10*
%TO.C,J_GND*%
X110000000Y-18000000D03*
D11*
X110000000Y-20540000D03*
%TD*%
D12*
%TO.C,H3*%
X112000000Y-82000000D03*
%TD*%
%TO.C,H4*%
X8000000Y-82000000D03*
%TD*%
D10*
%TO.C,J_BEZEL*%
X55000000Y-18000000D03*
D11*
X55000000Y-20540000D03*
X55000000Y-23080000D03*
X55000000Y-25620000D03*
X55000000Y-28160000D03*
X55000000Y-30700000D03*
X55000000Y-33240000D03*
X55000000Y-35780000D03*
X55000000Y-38320000D03*
X55000000Y-40860000D03*
X55000000Y-43400000D03*
X55000000Y-45940000D03*
X55000000Y-48480000D03*
X55000000Y-51020000D03*
X55000000Y-53560000D03*
X55000000Y-56100000D03*
X55000000Y-58640000D03*
X55000000Y-61180000D03*
X55000000Y-63720000D03*
X55000000Y-66260000D03*
%TD*%
D13*
%TO.C,J5*%
X92210000Y-67460000D03*
X104910000Y-67460000D03*
D14*
X95000000Y-70000000D03*
D15*
X96016000Y-71780000D03*
X97032000Y-70000000D03*
X98048000Y-71780000D03*
X99064000Y-70000000D03*
X100080000Y-71780000D03*
X101096000Y-70000000D03*
X102112000Y-71780000D03*
D16*
X90430000Y-70890000D03*
X106690000Y-70890000D03*
%TD*%
D12*
%TO.C,H2*%
X112000000Y-8000000D03*
%TD*%
D10*
%TO.C,J_RK*%
X100000000Y-18000000D03*
D11*
X100000000Y-20540000D03*
X100000000Y-23080000D03*
X100000000Y-25620000D03*
%TD*%
D17*
%TO.C,J3*%
X72110000Y-47395000D03*
X77890000Y-47395000D03*
D18*
X70680000Y-46895000D03*
D19*
X70680000Y-51075000D03*
D18*
X79320000Y-46895000D03*
D19*
X79320000Y-51075000D03*
%TD*%
M02*
