%TF.GenerationSoftware,KiCad,Pcbnew,10.0.4*%
%TF.CreationDate,2026-07-22T13:49:56-04:00*%
%TF.ProjectId,cmfd-board-b,636d6664-2d62-46f6-9172-642d622e6b69,rev?*%
%TF.SameCoordinates,Original*%
%TF.FileFunction,Copper,L2,Bot*%
%TF.FilePolarity,Positive*%
%FSLAX46Y46*%
G04 Gerber Fmt 4.6, Leading zero omitted, Abs format (unit mm)*
G04 Created by KiCad (PCBNEW 10.0.4) date 2026-07-22 13:49:56*
%MOMM*%
%LPD*%
G01*
G04 APERTURE LIST*
%TA.AperFunction,ComponentPad*%
%ADD10R,1.700000X1.700000*%
%TD*%
%TA.AperFunction,ComponentPad*%
%ADD11C,1.700000*%
%TD*%
%TA.AperFunction,ComponentPad*%
%ADD12R,1.500000X1.500000*%
%TD*%
%TA.AperFunction,ComponentPad*%
%ADD13C,1.500000*%
%TD*%
%TA.AperFunction,ComponentPad*%
%ADD14C,2.300000*%
%TD*%
%TA.AperFunction,ComponentPad*%
%ADD15O,2.100000X1.000000*%
%TD*%
%TA.AperFunction,ComponentPad*%
%ADD16O,1.800000X1.000000*%
%TD*%
G04 APERTURE END LIST*
D10*
%TO.P,J6,1*%
%TO.N,N/C*%
X96000000Y-5000000D03*
D11*
%TO.P,J6,2*%
X93460000Y-5000000D03*
%TO.P,J6,3*%
X90920000Y-5000000D03*
%TO.P,J6,4*%
X88380000Y-5000000D03*
%TD*%
D10*
%TO.P,J11,1*%
%TO.N,N/C*%
X30000000Y-62000000D03*
D11*
%TO.P,J11,2*%
X32540000Y-62000000D03*
%TO.P,J11,3*%
X30000000Y-64540000D03*
%TO.P,J11,4*%
X32540000Y-64540000D03*
%TO.P,J11,5*%
X30000000Y-67080000D03*
%TO.P,J11,6*%
X32540000Y-67080000D03*
%TO.P,J11,7*%
X30000000Y-69620000D03*
%TO.P,J11,8*%
X32540000Y-69620000D03*
%TO.P,J11,9*%
X30000000Y-72160000D03*
%TO.P,J11,10*%
X32540000Y-72160000D03*
%TO.P,J11,11*%
X30000000Y-74700000D03*
%TO.P,J11,12*%
X32540000Y-74700000D03*
%TO.P,J11,13*%
X30000000Y-77240000D03*
%TO.P,J11,14*%
X32540000Y-77240000D03*
%TO.P,J11,15*%
X30000000Y-79780000D03*
%TO.P,J11,16*%
X32540000Y-79780000D03*
%TO.P,J11,17*%
X30000000Y-82320000D03*
%TO.P,J11,18*%
X32540000Y-82320000D03*
%TO.P,J11,19*%
X30000000Y-84860000D03*
%TO.P,J11,20*%
X32540000Y-84860000D03*
%TD*%
D10*
%TO.P,J_M12,1*%
%TO.N,N/C*%
X81000000Y-5000000D03*
D11*
%TO.P,J_M12,2*%
X78460000Y-5000000D03*
%TO.P,J_M12,3*%
X75920000Y-5000000D03*
%TO.P,J_M12,4*%
X73380000Y-5000000D03*
%TO.P,J_M12,5*%
X70840000Y-5000000D03*
%TO.P,J_M12,6*%
X68300000Y-5000000D03*
%TD*%
D10*
%TO.P,J10,1*%
%TO.N,N/C*%
X30000000Y-45000000D03*
D11*
%TO.P,J10,2*%
X32540000Y-45000000D03*
%TO.P,J10,3*%
X30000000Y-47540000D03*
%TO.P,J10,4*%
X32540000Y-47540000D03*
%TO.P,J10,5*%
X30000000Y-50080000D03*
%TO.P,J10,6*%
X32540000Y-50080000D03*
%TO.P,J10,7*%
X30000000Y-52620000D03*
%TO.P,J10,8*%
X32540000Y-52620000D03*
%TO.P,J10,9*%
X30000000Y-55160000D03*
%TO.P,J10,10*%
X32540000Y-55160000D03*
%TO.P,J10,11*%
X30000000Y-57700000D03*
%TO.P,J10,12*%
X32540000Y-57700000D03*
%TO.P,J10,13*%
X30000000Y-60240000D03*
%TO.P,J10,14*%
X32540000Y-60240000D03*
%TO.P,J10,15*%
X30000000Y-62780000D03*
%TO.P,J10,16*%
X32540000Y-62780000D03*
%TO.P,J10,17*%
X30000000Y-65320000D03*
%TO.P,J10,18*%
X32540000Y-65320000D03*
%TO.P,J10,19*%
X30000000Y-67860000D03*
%TO.P,J10,20*%
X32540000Y-67860000D03*
%TD*%
D12*
%TO.P,J5,1*%
%TO.N,N/C*%
X56000000Y-12000000D03*
D13*
%TO.P,J5,2*%
X54220000Y-13016000D03*
%TO.P,J5,3*%
X56000000Y-14032000D03*
%TO.P,J5,4*%
X54220000Y-15048000D03*
%TO.P,J5,5*%
X56000000Y-16064000D03*
%TO.P,J5,6*%
X54220000Y-17080000D03*
%TO.P,J5,7*%
X56000000Y-18096000D03*
%TO.P,J5,8*%
X54220000Y-19112000D03*
D14*
%TO.P,J5,SH*%
X55110000Y-7430000D03*
X55110000Y-23690000D03*
%TD*%
D10*
%TO.P,J_BEZEL,1*%
%TO.N,N/C*%
X40000000Y-78000000D03*
D11*
%TO.P,J_BEZEL,2*%
X40000000Y-80540000D03*
%TO.P,J_BEZEL,3*%
X40000000Y-83080000D03*
%TO.P,J_BEZEL,4*%
X40000000Y-85620000D03*
%TO.P,J_BEZEL,5*%
X40000000Y-88160000D03*
%TO.P,J_BEZEL,6*%
X40000000Y-90700000D03*
%TO.P,J_BEZEL,7*%
X40000000Y-93240000D03*
%TO.P,J_BEZEL,8*%
X40000000Y-95780000D03*
%TO.P,J_BEZEL,9*%
X40000000Y-98320000D03*
%TO.P,J_BEZEL,10*%
X40000000Y-100860000D03*
%TO.P,J_BEZEL,11*%
X40000000Y-103400000D03*
%TO.P,J_BEZEL,12*%
X40000000Y-105940000D03*
%TO.P,J_BEZEL,13*%
X40000000Y-108480000D03*
%TO.P,J_BEZEL,14*%
X40000000Y-111020000D03*
%TO.P,J_BEZEL,15*%
X40000000Y-113560000D03*
%TO.P,J_BEZEL,16*%
X40000000Y-116100000D03*
%TO.P,J_BEZEL,17*%
X40000000Y-118640000D03*
%TO.P,J_BEZEL,18*%
X40000000Y-121180000D03*
%TO.P,J_BEZEL,19*%
X40000000Y-123720000D03*
%TO.P,J_BEZEL,20*%
X40000000Y-126260000D03*
%TD*%
D10*
%TO.P,J7,1*%
%TO.N,N/C*%
X108000000Y-5000000D03*
D11*
%TO.P,J7,2*%
X105460000Y-5000000D03*
%TO.P,J7,3*%
X102920000Y-5000000D03*
%TD*%
D10*
%TO.P,J_RK,1*%
%TO.N,N/C*%
X95000000Y-78000000D03*
D11*
%TO.P,J_RK,2*%
X95000000Y-80540000D03*
%TO.P,J_RK,3*%
X95000000Y-83080000D03*
%TO.P,J_RK,4*%
X95000000Y-85620000D03*
%TD*%
D15*
%TO.P,J4,SH*%
%TO.N,N/C*%
X37105000Y-2180000D03*
D16*
X32925000Y-2180000D03*
D15*
X37105000Y-10820000D03*
D16*
X32925000Y-10820000D03*
%TD*%
D15*
%TO.P,J3,SH*%
%TO.N,N/C*%
X19105000Y-2180000D03*
D16*
X14925000Y-2180000D03*
D15*
X19105000Y-10820000D03*
D16*
X14925000Y-10820000D03*
%TD*%
D10*
%TO.P,J_GND,1*%
%TO.N,N/C*%
X110000000Y-78000000D03*
D11*
%TO.P,J_GND,2*%
X110000000Y-80540000D03*
%TD*%
M02*
