%TF.GenerationSoftware,KiCad,Pcbnew,10.0.4*%
%TF.CreationDate,2026-07-22T09:45:05-04:00*%
%TF.ProjectId,cmfd-board-b,636d6664-2d62-46f6-9172-642d622e6b69,rev?*%
%TF.SameCoordinates,Original*%
%TF.FileFunction,Paste,Top*%
%TF.FilePolarity,Positive*%
%FSLAX46Y46*%
G04 Gerber Fmt 4.6, Leading zero omitted, Abs format (unit mm)*
G04 Created by KiCad (PCBNEW 10.0.4) date 2026-07-22 09:45:05*
%MOMM*%
%LPD*%
G01*
G04 APERTURE LIST*
G04 Aperture macros list*
%AMRoundRect*
0 Rectangle with rounded corners*
0 $1 Rounding radius*
0 $2 $3 $4 $5 $6 $7 $8 $9 X,Y pos of 4 corners*
0 Add a 4 corners polygon primitive as box body*
4,1,4,$2,$3,$4,$5,$6,$7,$8,$9,$2,$3,0*
0 Add four circle primitives for the rounded corners*
1,1,$1+$1,$2,$3*
1,1,$1+$1,$4,$5*
1,1,$1+$1,$6,$7*
1,1,$1+$1,$8,$9*
0 Add four rect primitives between the rounded corners*
20,1,$1+$1,$2,$3,$4,$5,0*
20,1,$1+$1,$4,$5,$6,$7,0*
20,1,$1+$1,$6,$7,$8,$9,0*
20,1,$1+$1,$8,$9,$2,$3,0*%
G04 Aperture macros list end*
%ADD10RoundRect,0.150000X-0.512500X-0.150000X0.512500X-0.150000X0.512500X0.150000X-0.512500X0.150000X0*%
%ADD11RoundRect,0.225000X-0.225000X-0.250000X0.225000X-0.250000X0.225000X0.250000X-0.225000X0.250000X0*%
%ADD12RoundRect,0.150000X-0.825000X-0.150000X0.825000X-0.150000X0.825000X0.150000X-0.825000X0.150000X0*%
%ADD13RoundRect,0.150000X-0.150000X-0.425000X0.150000X-0.425000X0.150000X0.425000X-0.150000X0.425000X0*%
%ADD14RoundRect,0.075000X-0.075000X-0.500000X0.075000X-0.500000X0.075000X0.500000X-0.075000X0.500000X0*%
%ADD15O,1.000000X2.100000*%
%ADD16O,1.000000X1.800000*%
G04 APERTURE END LIST*
D10*
%TO.C,U12*%
X106862500Y-71050000D03*
X106862500Y-72000000D03*
X106862500Y-72950000D03*
X109137500Y-72950000D03*
X109137500Y-71050000D03*
%TD*%
D11*
%TO.C,C3*%
X77225000Y-80000000D03*
X78775000Y-80000000D03*
%TD*%
D12*
%TO.C,U6*%
X92525000Y-38095000D03*
X92525000Y-39365000D03*
X92525000Y-40635000D03*
X92525000Y-41905000D03*
X97475000Y-41905000D03*
X97475000Y-40635000D03*
X97475000Y-39365000D03*
X97475000Y-38095000D03*
%TD*%
D13*
%TO.C,J4*%
X54800000Y-8320000D03*
X55600000Y-8320000D03*
D14*
X56750000Y-8320000D03*
X57750000Y-8320000D03*
X58250000Y-8320000D03*
X59250000Y-8320000D03*
D13*
X60400000Y-8320000D03*
X61200000Y-8320000D03*
X61200000Y-8320000D03*
X60400000Y-8320000D03*
D14*
X59750000Y-8320000D03*
X58750000Y-8320000D03*
X57250000Y-8320000D03*
X56250000Y-8320000D03*
D13*
X55600000Y-8320000D03*
X54800000Y-8320000D03*
D15*
X53680000Y-8895000D03*
D16*
X53680000Y-13075000D03*
D15*
X62320000Y-8895000D03*
D16*
X62320000Y-13075000D03*
%TD*%
D11*
%TO.C,C6*%
X89225000Y-80000000D03*
X90775000Y-80000000D03*
%TD*%
%TO.C,C1*%
X69225000Y-80000000D03*
X70775000Y-80000000D03*
%TD*%
%TO.C,C4*%
X81225000Y-80000000D03*
X82775000Y-80000000D03*
%TD*%
D10*
%TO.C,U11*%
X93862500Y-71050000D03*
X93862500Y-72000000D03*
X93862500Y-72950000D03*
X96137500Y-72950000D03*
X96137500Y-71050000D03*
%TD*%
D13*
%TO.C,J3*%
X18800000Y-8320000D03*
X19600000Y-8320000D03*
D14*
X20750000Y-8320000D03*
X21750000Y-8320000D03*
X22250000Y-8320000D03*
X23250000Y-8320000D03*
D13*
X24400000Y-8320000D03*
X25200000Y-8320000D03*
X25200000Y-8320000D03*
X24400000Y-8320000D03*
D14*
X23750000Y-8320000D03*
X22750000Y-8320000D03*
X21250000Y-8320000D03*
X20250000Y-8320000D03*
D13*
X19600000Y-8320000D03*
X18800000Y-8320000D03*
D15*
X17680000Y-8895000D03*
D16*
X17680000Y-13075000D03*
D15*
X26320000Y-8895000D03*
D16*
X26320000Y-13075000D03*
%TD*%
D11*
%TO.C,C5*%
X85225000Y-80000000D03*
X86775000Y-80000000D03*
%TD*%
%TO.C,C2*%
X73225000Y-80000000D03*
X74775000Y-80000000D03*
%TD*%
M02*
