%TF.GenerationSoftware,KiCad,Pcbnew,10.0.4*%
%TF.CreationDate,2026-07-22T09:59:53-04:00*%
%TF.ProjectId,cmfd-board-b,636d6664-2d62-46f6-9172-642d622e6b69,rev?*%
%TF.SameCoordinates,Original*%
%TF.FileFunction,Copper,L1,Top*%
%TF.FilePolarity,Positive*%
%FSLAX46Y46*%
G04 Gerber Fmt 4.6, Leading zero omitted, Abs format (unit mm)*
G04 Created by KiCad (PCBNEW 10.0.4) date 2026-07-22 09:59:53*
%MOMM*%
%LPD*%
G01*
G04 APERTURE LIST*
G04 Aperture macros list*
%AMRoundRect*
0 Rectangle with rounded corners*
0 $1 Rounding radius*
0 $2 $3 $4 $5 $6 $7 $8 $9 X,Y pos of 4 corners*
0 Add a 4 corners polygon primitive as box body*
4,1,4,$2,$3,$4,$5,$6,$7,$8,$9,$2,$3,0*
0 Add four circle primitives for the rounded corners*
1,1,$1+$1,$2,$3*
1,1,$1+$1,$4,$5*
1,1,$1+$1,$6,$7*
1,1,$1+$1,$8,$9*
0 Add four rect primitives between the rounded corners*
20,1,$1+$1,$2,$3,$4,$5,0*
20,1,$1+$1,$4,$5,$6,$7,0*
20,1,$1+$1,$6,$7,$8,$9,0*
20,1,$1+$1,$8,$9,$2,$3,0*%
G04 Aperture macros list end*
%TA.AperFunction,SMDPad,CuDef*%
%ADD10RoundRect,0.225000X-0.225000X-0.250000X0.225000X-0.250000X0.225000X0.250000X-0.225000X0.250000X0*%
%TD*%
%TA.AperFunction,ComponentPad*%
%ADD11C,6.400000*%
%TD*%
%TA.AperFunction,ComponentPad*%
%ADD12R,1.700000X1.700000*%
%TD*%
%TA.AperFunction,ComponentPad*%
%ADD13C,1.700000*%
%TD*%
%TA.AperFunction,SMDPad,CuDef*%
%ADD14RoundRect,0.150000X-0.150000X-0.425000X0.150000X-0.425000X0.150000X0.425000X-0.150000X0.425000X0*%
%TD*%
%TA.AperFunction,SMDPad,CuDef*%
%ADD15RoundRect,0.075000X-0.075000X-0.500000X0.075000X-0.500000X0.075000X0.500000X-0.075000X0.500000X0*%
%TD*%
%TA.AperFunction,ComponentPad*%
%ADD16O,1.000000X2.100000*%
%TD*%
%TA.AperFunction,ComponentPad*%
%ADD17O,1.000000X1.800000*%
%TD*%
%TA.AperFunction,SMDPad,CuDef*%
%ADD18RoundRect,0.150000X-0.512500X-0.150000X0.512500X-0.150000X0.512500X0.150000X-0.512500X0.150000X0*%
%TD*%
%TA.AperFunction,ComponentPad*%
%ADD19R,1.500000X1.500000*%
%TD*%
%TA.AperFunction,ComponentPad*%
%ADD20C,1.500000*%
%TD*%
%TA.AperFunction,ComponentPad*%
%ADD21C,2.300000*%
%TD*%
%TA.AperFunction,SMDPad,CuDef*%
%ADD22RoundRect,0.150000X-0.825000X-0.150000X0.825000X-0.150000X0.825000X0.150000X-0.825000X0.150000X0*%
%TD*%
G04 APERTURE END LIST*
D10*
%TO.P,C1,1*%
%TO.N,N/C*%
X69225000Y-80000000D03*
%TO.P,C1,2*%
X70775000Y-80000000D03*
%TD*%
%TO.P,C5,1*%
%TO.N,N/C*%
X85225000Y-80000000D03*
%TO.P,C5,2*%
X86775000Y-80000000D03*
%TD*%
%TO.P,C6,1*%
%TO.N,N/C*%
X89225000Y-80000000D03*
%TO.P,C6,2*%
X90775000Y-80000000D03*
%TD*%
D11*
%TO.P,H2,1*%
%TO.N,N/C*%
X114000000Y-6000000D03*
%TD*%
D10*
%TO.P,C4,1*%
%TO.N,N/C*%
X81225000Y-80000000D03*
%TO.P,C4,2*%
X82775000Y-80000000D03*
%TD*%
D12*
%TO.P,J6,1*%
%TO.N,N/C*%
X95000000Y-18000000D03*
D13*
%TO.P,J6,2*%
X97540000Y-18000000D03*
%TO.P,J6,3*%
X95000000Y-20540000D03*
%TO.P,J6,4*%
X97540000Y-20540000D03*
%TO.P,J6,5*%
X95000000Y-23080000D03*
%TO.P,J6,6*%
X97540000Y-23080000D03*
%TO.P,J6,7*%
X95000000Y-25620000D03*
%TO.P,J6,8*%
X97540000Y-25620000D03*
%TO.P,J6,9*%
X95000000Y-28160000D03*
%TO.P,J6,10*%
X97540000Y-28160000D03*
%TD*%
D12*
%TO.P,J11,1*%
%TO.N,N/C*%
X28000000Y-58000000D03*
D13*
%TO.P,J11,2*%
X30540000Y-58000000D03*
%TO.P,J11,3*%
X28000000Y-60540000D03*
%TO.P,J11,4*%
X30540000Y-60540000D03*
%TO.P,J11,5*%
X28000000Y-63080000D03*
%TO.P,J11,6*%
X30540000Y-63080000D03*
%TO.P,J11,7*%
X28000000Y-65620000D03*
%TO.P,J11,8*%
X30540000Y-65620000D03*
%TO.P,J11,9*%
X28000000Y-68160000D03*
%TO.P,J11,10*%
X30540000Y-68160000D03*
%TO.P,J11,11*%
X28000000Y-70700000D03*
%TO.P,J11,12*%
X30540000Y-70700000D03*
%TO.P,J11,13*%
X28000000Y-73240000D03*
%TO.P,J11,14*%
X30540000Y-73240000D03*
%TO.P,J11,15*%
X28000000Y-75780000D03*
%TO.P,J11,16*%
X30540000Y-75780000D03*
%TO.P,J11,17*%
X28000000Y-78320000D03*
%TO.P,J11,18*%
X30540000Y-78320000D03*
%TO.P,J11,19*%
X28000000Y-80860000D03*
%TO.P,J11,20*%
X30540000Y-80860000D03*
%TD*%
D12*
%TO.P,J7,1*%
%TO.N,N/C*%
X110000000Y-18000000D03*
D13*
%TO.P,J7,2*%
X110000000Y-20540000D03*
%TO.P,J7,3*%
X110000000Y-23080000D03*
%TO.P,J7,4*%
X110000000Y-25620000D03*
%TD*%
D12*
%TO.P,J2,1*%
%TO.N,N/C*%
X75000000Y-48000000D03*
D13*
%TO.P,J2,2*%
X77540000Y-48000000D03*
%TO.P,J2,3*%
X75000000Y-50540000D03*
%TO.P,J2,4*%
X77540000Y-50540000D03*
%TO.P,J2,5*%
X75000000Y-53080000D03*
%TO.P,J2,6*%
X77540000Y-53080000D03*
%TO.P,J2,7*%
X75000000Y-55620000D03*
%TO.P,J2,8*%
X77540000Y-55620000D03*
%TO.P,J2,9*%
X75000000Y-58160000D03*
%TO.P,J2,10*%
X77540000Y-58160000D03*
%TO.P,J2,11*%
X75000000Y-60700000D03*
%TO.P,J2,12*%
X77540000Y-60700000D03*
%TO.P,J2,13*%
X75000000Y-63240000D03*
%TO.P,J2,14*%
X77540000Y-63240000D03*
%TO.P,J2,15*%
X75000000Y-65780000D03*
%TO.P,J2,16*%
X77540000Y-65780000D03*
%TO.P,J2,17*%
X75000000Y-68320000D03*
%TO.P,J2,18*%
X77540000Y-68320000D03*
%TO.P,J2,19*%
X75000000Y-70860000D03*
%TO.P,J2,20*%
X77540000Y-70860000D03*
%TD*%
D14*
%TO.P,J4,A1*%
%TO.N,N/C*%
X54800000Y-8320000D03*
%TO.P,J4,A4*%
X55600000Y-8320000D03*
D15*
%TO.P,J4,A5*%
X56750000Y-8320000D03*
%TO.P,J4,A6*%
X57750000Y-8320000D03*
%TO.P,J4,A7*%
X58250000Y-8320000D03*
%TO.P,J4,A8*%
X59250000Y-8320000D03*
D14*
%TO.P,J4,A9*%
X60400000Y-8320000D03*
%TO.P,J4,A12*%
X61200000Y-8320000D03*
%TO.P,J4,B1*%
X61200000Y-8320000D03*
%TO.P,J4,B4*%
X60400000Y-8320000D03*
D15*
%TO.P,J4,B5*%
X59750000Y-8320000D03*
%TO.P,J4,B6*%
X58750000Y-8320000D03*
%TO.P,J4,B7*%
X57250000Y-8320000D03*
%TO.P,J4,B8*%
X56250000Y-8320000D03*
D14*
%TO.P,J4,B9*%
X55600000Y-8320000D03*
%TO.P,J4,B12*%
X54800000Y-8320000D03*
D16*
%TO.P,J4,SH*%
X53680000Y-8895000D03*
D17*
X53680000Y-13075000D03*
D16*
X62320000Y-8895000D03*
D17*
X62320000Y-13075000D03*
%TD*%
D10*
%TO.P,C3,1*%
%TO.N,N/C*%
X77225000Y-80000000D03*
%TO.P,C3,2*%
X78775000Y-80000000D03*
%TD*%
D12*
%TO.P,J8,1*%
%TO.N,N/C*%
X110000000Y-55000000D03*
D13*
%TO.P,J8,2*%
X110000000Y-57540000D03*
%TO.P,J8,3*%
X110000000Y-60080000D03*
%TO.P,J8,4*%
X110000000Y-62620000D03*
%TD*%
D18*
%TO.P,U12,1*%
%TO.N,N/C*%
X106862500Y-71050000D03*
%TO.P,U12,2*%
X106862500Y-72000000D03*
%TO.P,U12,3*%
X106862500Y-72950000D03*
%TO.P,U12,4*%
X109137500Y-72950000D03*
%TO.P,U12,5*%
X109137500Y-71050000D03*
%TD*%
%TO.P,U11,1*%
%TO.N,N/C*%
X93862500Y-71050000D03*
%TO.P,U11,2*%
X93862500Y-72000000D03*
%TO.P,U11,3*%
X93862500Y-72950000D03*
%TO.P,U11,4*%
X96137500Y-72950000D03*
%TO.P,U11,5*%
X96137500Y-71050000D03*
%TD*%
D11*
%TO.P,H4,1*%
%TO.N,N/C*%
X6000000Y-84000000D03*
%TD*%
D10*
%TO.P,C2,1*%
%TO.N,N/C*%
X73225000Y-80000000D03*
%TO.P,C2,2*%
X74775000Y-80000000D03*
%TD*%
D14*
%TO.P,J3,A1*%
%TO.N,N/C*%
X18800000Y-8320000D03*
%TO.P,J3,A4*%
X19600000Y-8320000D03*
D15*
%TO.P,J3,A5*%
X20750000Y-8320000D03*
%TO.P,J3,A6*%
X21750000Y-8320000D03*
%TO.P,J3,A7*%
X22250000Y-8320000D03*
%TO.P,J3,A8*%
X23250000Y-8320000D03*
D14*
%TO.P,J3,A9*%
X24400000Y-8320000D03*
%TO.P,J3,A12*%
X25200000Y-8320000D03*
%TO.P,J3,B1*%
X25200000Y-8320000D03*
%TO.P,J3,B4*%
X24400000Y-8320000D03*
D15*
%TO.P,J3,B5*%
X23750000Y-8320000D03*
%TO.P,J3,B6*%
X22750000Y-8320000D03*
%TO.P,J3,B7*%
X21250000Y-8320000D03*
%TO.P,J3,B8*%
X20250000Y-8320000D03*
D14*
%TO.P,J3,B9*%
X19600000Y-8320000D03*
%TO.P,J3,B12*%
X18800000Y-8320000D03*
D16*
%TO.P,J3,SH*%
X17680000Y-8895000D03*
D17*
X17680000Y-13075000D03*
D16*
X26320000Y-8895000D03*
D17*
X26320000Y-13075000D03*
%TD*%
D19*
%TO.P,J5,1*%
%TO.N,N/C*%
X22000000Y-78000000D03*
D20*
%TO.P,J5,2*%
X23016000Y-79780000D03*
%TO.P,J5,3*%
X24032000Y-78000000D03*
%TO.P,J5,4*%
X25048000Y-79780000D03*
%TO.P,J5,5*%
X26064000Y-78000000D03*
%TO.P,J5,6*%
X27080000Y-79780000D03*
%TO.P,J5,7*%
X28096000Y-78000000D03*
%TO.P,J5,8*%
X29112000Y-79780000D03*
D21*
%TO.P,J5,SH*%
X17430000Y-78890000D03*
X33690000Y-78890000D03*
%TD*%
D12*
%TO.P,J10,1*%
%TO.N,N/C*%
X28000000Y-40000000D03*
D13*
%TO.P,J10,2*%
X30540000Y-40000000D03*
%TO.P,J10,3*%
X28000000Y-42540000D03*
%TO.P,J10,4*%
X30540000Y-42540000D03*
%TO.P,J10,5*%
X28000000Y-45080000D03*
%TO.P,J10,6*%
X30540000Y-45080000D03*
%TO.P,J10,7*%
X28000000Y-47620000D03*
%TO.P,J10,8*%
X30540000Y-47620000D03*
%TO.P,J10,9*%
X28000000Y-50160000D03*
%TO.P,J10,10*%
X30540000Y-50160000D03*
%TO.P,J10,11*%
X28000000Y-52700000D03*
%TO.P,J10,12*%
X30540000Y-52700000D03*
%TO.P,J10,13*%
X28000000Y-55240000D03*
%TO.P,J10,14*%
X30540000Y-55240000D03*
%TO.P,J10,15*%
X28000000Y-57780000D03*
%TO.P,J10,16*%
X30540000Y-57780000D03*
%TO.P,J10,17*%
X28000000Y-60320000D03*
%TO.P,J10,18*%
X30540000Y-60320000D03*
%TO.P,J10,19*%
X28000000Y-62860000D03*
%TO.P,J10,20*%
X30540000Y-62860000D03*
%TD*%
D22*
%TO.P,U6,1*%
%TO.N,N/C*%
X92525000Y-38095000D03*
%TO.P,U6,2*%
X92525000Y-39365000D03*
%TO.P,U6,3*%
X92525000Y-40635000D03*
%TO.P,U6,4*%
X92525000Y-41905000D03*
%TO.P,U6,5*%
X97475000Y-41905000D03*
%TO.P,U6,6*%
X97475000Y-40635000D03*
%TO.P,U6,7*%
X97475000Y-39365000D03*
%TO.P,U6,8*%
X97475000Y-38095000D03*
%TD*%
D11*
%TO.P,H3,1*%
%TO.N,N/C*%
X114000000Y-84000000D03*
%TD*%
%TO.P,H1,1*%
%TO.N,N/C*%
X6000000Y-6000000D03*
%TD*%
M02*
