%TF.GenerationSoftware,KiCad,Pcbnew,10.0.4*%
%TF.CreationDate,2026-07-22T13:49:56-04:00*%
%TF.ProjectId,cmfd-board-b,636d6664-2d62-46f6-9172-642d622e6b69,rev?*%
%TF.SameCoordinates,Original*%
%TF.FileFunction,Legend,Top*%
%TF.FilePolarity,Positive*%
%FSLAX46Y46*%
G04 Gerber Fmt 4.6, Leading zero omitted, Abs format (unit mm)*
G04 Created by KiCad (PCBNEW 10.0.4) date 2026-07-22 13:49:56*
%MOMM*%
%LPD*%
G01*
G04 APERTURE LIST*
G04 Aperture macros list*
%AMRoundRect*
0 Rectangle with rounded corners*
0 $1 Rounding radius*
0 $2 $3 $4 $5 $6 $7 $8 $9 X,Y pos of 4 corners*
0 Add a 4 corners polygon primitive as box body*
4,1,4,$2,$3,$4,$5,$6,$7,$8,$9,$2,$3,0*
0 Add four circle primitives for the rounded corners*
1,1,$1+$1,$2,$3*
1,1,$1+$1,$4,$5*
1,1,$1+$1,$6,$7*
1,1,$1+$1,$8,$9*
0 Add four rect primitives between the rounded corners*
20,1,$1+$1,$2,$3,$4,$5,0*
20,1,$1+$1,$4,$5,$6,$7,0*
20,1,$1+$1,$6,$7,$8,$9,0*
20,1,$1+$1,$8,$9,$2,$3,0*%
G04 Aperture macros list end*
%ADD10C,0.120000*%
%ADD11C,0.132000*%
%ADD12C,0.150000*%
%ADD13RoundRect,0.225000X-0.225000X-0.250000X0.225000X-0.250000X0.225000X0.250000X-0.225000X0.250000X0*%
%ADD14C,3.200000*%
%ADD15R,1.700000X1.700000*%
%ADD16C,1.700000*%
%ADD17C,3.250000*%
%ADD18R,1.500000X1.500000*%
%ADD19C,1.500000*%
%ADD20C,2.300000*%
%ADD21RoundRect,0.150000X-0.512500X-0.150000X0.512500X-0.150000X0.512500X0.150000X-0.512500X0.150000X0*%
%ADD22C,0.650000*%
%ADD23RoundRect,0.150000X-0.425000X0.150000X-0.425000X-0.150000X0.425000X-0.150000X0.425000X0.150000X0*%
%ADD24RoundRect,0.075000X-0.500000X0.075000X-0.500000X-0.075000X0.500000X-0.075000X0.500000X0.075000X0*%
%ADD25O,2.100000X1.000000*%
%ADD26O,1.800000X1.000000*%
G04 APERTURE END LIST*
D10*
X-8514285Y-83861129D02*
X-8514285Y-84511129D01*
X-8514285Y-83892081D02*
X-8452380Y-83861129D01*
X-8452380Y-83861129D02*
X-8328570Y-83861129D01*
X-8328570Y-83861129D02*
X-8266666Y-83892081D01*
X-8266666Y-83892081D02*
X-8235713Y-83923033D01*
X-8235713Y-83923033D02*
X-8204761Y-83984938D01*
X-8204761Y-83984938D02*
X-8204761Y-84170652D01*
X-8204761Y-84170652D02*
X-8235713Y-84232557D01*
X-8235713Y-84232557D02*
X-8266666Y-84263510D01*
X-8266666Y-84263510D02*
X-8328570Y-84294462D01*
X-8328570Y-84294462D02*
X-8452380Y-84294462D01*
X-8452380Y-84294462D02*
X-8514285Y-84263510D01*
X-7833332Y-84294462D02*
X-7895237Y-84263510D01*
X-7895237Y-84263510D02*
X-7926190Y-84232557D01*
X-7926190Y-84232557D02*
X-7957142Y-84170652D01*
X-7957142Y-84170652D02*
X-7957142Y-83984938D01*
X-7957142Y-83984938D02*
X-7926190Y-83923033D01*
X-7926190Y-83923033D02*
X-7895237Y-83892081D01*
X-7895237Y-83892081D02*
X-7833332Y-83861129D01*
X-7833332Y-83861129D02*
X-7740475Y-83861129D01*
X-7740475Y-83861129D02*
X-7678571Y-83892081D01*
X-7678571Y-83892081D02*
X-7647618Y-83923033D01*
X-7647618Y-83923033D02*
X-7616666Y-83984938D01*
X-7616666Y-83984938D02*
X-7616666Y-84170652D01*
X-7616666Y-84170652D02*
X-7647618Y-84232557D01*
X-7647618Y-84232557D02*
X-7678571Y-84263510D01*
X-7678571Y-84263510D02*
X-7740475Y-84294462D01*
X-7740475Y-84294462D02*
X-7833332Y-84294462D01*
X-7338095Y-84294462D02*
X-7338095Y-83861129D01*
X-7338095Y-83984938D02*
X-7307142Y-83923033D01*
X-7307142Y-83923033D02*
X-7276190Y-83892081D01*
X-7276190Y-83892081D02*
X-7214285Y-83861129D01*
X-7214285Y-83861129D02*
X-7152380Y-83861129D01*
X-7028571Y-83861129D02*
X-6780952Y-83861129D01*
X-6935714Y-83644462D02*
X-6935714Y-84201605D01*
X-6935714Y-84201605D02*
X-6904761Y-84263510D01*
X-6904761Y-84263510D02*
X-6842856Y-84294462D01*
X-6842856Y-84294462D02*
X-6780952Y-84294462D01*
X-6595237Y-84263510D02*
X-6533332Y-84294462D01*
X-6533332Y-84294462D02*
X-6409523Y-84294462D01*
X-6409523Y-84294462D02*
X-6347618Y-84263510D01*
X-6347618Y-84263510D02*
X-6316666Y-84201605D01*
X-6316666Y-84201605D02*
X-6316666Y-84170652D01*
X-6316666Y-84170652D02*
X-6347618Y-84108748D01*
X-6347618Y-84108748D02*
X-6409523Y-84077795D01*
X-6409523Y-84077795D02*
X-6502380Y-84077795D01*
X-6502380Y-84077795D02*
X-6564285Y-84046843D01*
X-6564285Y-84046843D02*
X-6595237Y-83984938D01*
X-6595237Y-83984938D02*
X-6595237Y-83953986D01*
X-6595237Y-83953986D02*
X-6564285Y-83892081D01*
X-6564285Y-83892081D02*
X-6502380Y-83861129D01*
X-6502380Y-83861129D02*
X-6409523Y-83861129D01*
X-6409523Y-83861129D02*
X-6347618Y-83892081D01*
X-5449999Y-84294462D02*
X-5511904Y-84263510D01*
X-5511904Y-84263510D02*
X-5542857Y-84232557D01*
X-5542857Y-84232557D02*
X-5573809Y-84170652D01*
X-5573809Y-84170652D02*
X-5573809Y-83984938D01*
X-5573809Y-83984938D02*
X-5542857Y-83923033D01*
X-5542857Y-83923033D02*
X-5511904Y-83892081D01*
X-5511904Y-83892081D02*
X-5449999Y-83861129D01*
X-5449999Y-83861129D02*
X-5357142Y-83861129D01*
X-5357142Y-83861129D02*
X-5295238Y-83892081D01*
X-5295238Y-83892081D02*
X-5264285Y-83923033D01*
X-5264285Y-83923033D02*
X-5233333Y-83984938D01*
X-5233333Y-83984938D02*
X-5233333Y-84170652D01*
X-5233333Y-84170652D02*
X-5264285Y-84232557D01*
X-5264285Y-84232557D02*
X-5295238Y-84263510D01*
X-5295238Y-84263510D02*
X-5357142Y-84294462D01*
X-5357142Y-84294462D02*
X-5449999Y-84294462D01*
X-4954762Y-83861129D02*
X-4954762Y-84294462D01*
X-4954762Y-83923033D02*
X-4923809Y-83892081D01*
X-4923809Y-83892081D02*
X-4861904Y-83861129D01*
X-4861904Y-83861129D02*
X-4769047Y-83861129D01*
X-4769047Y-83861129D02*
X-4707143Y-83892081D01*
X-4707143Y-83892081D02*
X-4676190Y-83953986D01*
X-4676190Y-83953986D02*
X-4676190Y-84294462D01*
X-3933333Y-83861129D02*
X-3778571Y-84294462D01*
X-3623810Y-83861129D02*
X-3778571Y-84294462D01*
X-3778571Y-84294462D02*
X-3840476Y-84449224D01*
X-3840476Y-84449224D02*
X-3871429Y-84480176D01*
X-3871429Y-84480176D02*
X-3933333Y-84511129D01*
X-3376191Y-83953986D02*
X-2880953Y-83953986D01*
X-2880953Y-84139700D02*
X-3376191Y-84139700D01*
X-2447619Y-83644462D02*
X-2385714Y-83644462D01*
X-2385714Y-83644462D02*
X-2323810Y-83675414D01*
X-2323810Y-83675414D02*
X-2292857Y-83706367D01*
X-2292857Y-83706367D02*
X-2261905Y-83768271D01*
X-2261905Y-83768271D02*
X-2230952Y-83892081D01*
X-2230952Y-83892081D02*
X-2230952Y-84046843D01*
X-2230952Y-84046843D02*
X-2261905Y-84170652D01*
X-2261905Y-84170652D02*
X-2292857Y-84232557D01*
X-2292857Y-84232557D02*
X-2323810Y-84263510D01*
X-2323810Y-84263510D02*
X-2385714Y-84294462D01*
X-2385714Y-84294462D02*
X-2447619Y-84294462D01*
X-2447619Y-84294462D02*
X-2509524Y-84263510D01*
X-2509524Y-84263510D02*
X-2540476Y-84232557D01*
X-2540476Y-84232557D02*
X-2571429Y-84170652D01*
X-2571429Y-84170652D02*
X-2602381Y-84046843D01*
X-2602381Y-84046843D02*
X-2602381Y-83892081D01*
X-2602381Y-83892081D02*
X-2571429Y-83768271D01*
X-2571429Y-83768271D02*
X-2540476Y-83706367D01*
X-2540476Y-83706367D02*
X-2509524Y-83675414D01*
X-2509524Y-83675414D02*
X-2447619Y-83644462D01*
X-1209524Y-84263510D02*
X-1271428Y-84294462D01*
X-1271428Y-84294462D02*
X-1395238Y-84294462D01*
X-1395238Y-84294462D02*
X-1457143Y-84263510D01*
X-1457143Y-84263510D02*
X-1488095Y-84201605D01*
X-1488095Y-84201605D02*
X-1488095Y-83953986D01*
X-1488095Y-83953986D02*
X-1457143Y-83892081D01*
X-1457143Y-83892081D02*
X-1395238Y-83861129D01*
X-1395238Y-83861129D02*
X-1271428Y-83861129D01*
X-1271428Y-83861129D02*
X-1209524Y-83892081D01*
X-1209524Y-83892081D02*
X-1178571Y-83953986D01*
X-1178571Y-83953986D02*
X-1178571Y-84015890D01*
X-1178571Y-84015890D02*
X-1488095Y-84077795D01*
X-621428Y-84294462D02*
X-621428Y-83644462D01*
X-621428Y-84263510D02*
X-683333Y-84294462D01*
X-683333Y-84294462D02*
X-807142Y-84294462D01*
X-807142Y-84294462D02*
X-869047Y-84263510D01*
X-869047Y-84263510D02*
X-900000Y-84232557D01*
X-900000Y-84232557D02*
X-930952Y-84170652D01*
X-930952Y-84170652D02*
X-930952Y-83984938D01*
X-930952Y-83984938D02*
X-900000Y-83923033D01*
X-900000Y-83923033D02*
X-869047Y-83892081D01*
X-869047Y-83892081D02*
X-807142Y-83861129D01*
X-807142Y-83861129D02*
X-683333Y-83861129D01*
X-683333Y-83861129D02*
X-621428Y-83892081D01*
X-33333Y-83861129D02*
X-33333Y-84387319D01*
X-33333Y-84387319D02*
X-64286Y-84449224D01*
X-64286Y-84449224D02*
X-95238Y-84480176D01*
X-95238Y-84480176D02*
X-157143Y-84511129D01*
X-157143Y-84511129D02*
X-250000Y-84511129D01*
X-250000Y-84511129D02*
X-311905Y-84480176D01*
X-33333Y-84263510D02*
X-95238Y-84294462D01*
X-95238Y-84294462D02*
X-219047Y-84294462D01*
X-219047Y-84294462D02*
X-280952Y-84263510D01*
X-280952Y-84263510D02*
X-311905Y-84232557D01*
X-311905Y-84232557D02*
X-342857Y-84170652D01*
X-342857Y-84170652D02*
X-342857Y-83984938D01*
X-342857Y-83984938D02*
X-311905Y-83923033D01*
X-311905Y-83923033D02*
X-280952Y-83892081D01*
X-280952Y-83892081D02*
X-219047Y-83861129D01*
X-219047Y-83861129D02*
X-95238Y-83861129D01*
X-95238Y-83861129D02*
X-33333Y-83892081D01*
X523808Y-84263510D02*
X461904Y-84294462D01*
X461904Y-84294462D02*
X338094Y-84294462D01*
X338094Y-84294462D02*
X276189Y-84263510D01*
X276189Y-84263510D02*
X245237Y-84201605D01*
X245237Y-84201605D02*
X245237Y-83953986D01*
X245237Y-83953986D02*
X276189Y-83892081D01*
X276189Y-83892081D02*
X338094Y-83861129D01*
X338094Y-83861129D02*
X461904Y-83861129D01*
X461904Y-83861129D02*
X523808Y-83892081D01*
X523808Y-83892081D02*
X554761Y-83953986D01*
X554761Y-83953986D02*
X554761Y-84015890D01*
X554761Y-84015890D02*
X245237Y-84077795D01*
X1978570Y-84511129D02*
X1978570Y-83582557D01*
X3371428Y-83861129D02*
X3495237Y-84294462D01*
X3495237Y-84294462D02*
X3619047Y-83984938D01*
X3619047Y-83984938D02*
X3742856Y-84294462D01*
X3742856Y-84294462D02*
X3866666Y-83861129D01*
X4114284Y-84294462D02*
X4114284Y-83861129D01*
X4114284Y-83644462D02*
X4083332Y-83675414D01*
X4083332Y-83675414D02*
X4114284Y-83706367D01*
X4114284Y-83706367D02*
X4145237Y-83675414D01*
X4145237Y-83675414D02*
X4114284Y-83644462D01*
X4114284Y-83644462D02*
X4114284Y-83706367D01*
X4423808Y-84294462D02*
X4423808Y-83861129D01*
X4423808Y-83984938D02*
X4454761Y-83923033D01*
X4454761Y-83923033D02*
X4485713Y-83892081D01*
X4485713Y-83892081D02*
X4547618Y-83861129D01*
X4547618Y-83861129D02*
X4609523Y-83861129D01*
X5073808Y-84263510D02*
X5011904Y-84294462D01*
X5011904Y-84294462D02*
X4888094Y-84294462D01*
X4888094Y-84294462D02*
X4826189Y-84263510D01*
X4826189Y-84263510D02*
X4795237Y-84201605D01*
X4795237Y-84201605D02*
X4795237Y-83953986D01*
X4795237Y-83953986D02*
X4826189Y-83892081D01*
X4826189Y-83892081D02*
X4888094Y-83861129D01*
X4888094Y-83861129D02*
X5011904Y-83861129D01*
X5011904Y-83861129D02*
X5073808Y-83892081D01*
X5073808Y-83892081D02*
X5104761Y-83953986D01*
X5104761Y-83953986D02*
X5104761Y-84015890D01*
X5104761Y-84015890D02*
X4795237Y-84077795D01*
X5878570Y-84294462D02*
X5878570Y-83644462D01*
X5878570Y-83892081D02*
X5940475Y-83861129D01*
X5940475Y-83861129D02*
X6064285Y-83861129D01*
X6064285Y-83861129D02*
X6126189Y-83892081D01*
X6126189Y-83892081D02*
X6157142Y-83923033D01*
X6157142Y-83923033D02*
X6188094Y-83984938D01*
X6188094Y-83984938D02*
X6188094Y-84170652D01*
X6188094Y-84170652D02*
X6157142Y-84232557D01*
X6157142Y-84232557D02*
X6126189Y-84263510D01*
X6126189Y-84263510D02*
X6064285Y-84294462D01*
X6064285Y-84294462D02*
X5940475Y-84294462D01*
X5940475Y-84294462D02*
X5878570Y-84263510D01*
X6714284Y-84263510D02*
X6652380Y-84294462D01*
X6652380Y-84294462D02*
X6528570Y-84294462D01*
X6528570Y-84294462D02*
X6466665Y-84263510D01*
X6466665Y-84263510D02*
X6435713Y-84201605D01*
X6435713Y-84201605D02*
X6435713Y-83953986D01*
X6435713Y-83953986D02*
X6466665Y-83892081D01*
X6466665Y-83892081D02*
X6528570Y-83861129D01*
X6528570Y-83861129D02*
X6652380Y-83861129D01*
X6652380Y-83861129D02*
X6714284Y-83892081D01*
X6714284Y-83892081D02*
X6745237Y-83953986D01*
X6745237Y-83953986D02*
X6745237Y-84015890D01*
X6745237Y-84015890D02*
X6435713Y-84077795D01*
X6961904Y-83861129D02*
X7302380Y-83861129D01*
X7302380Y-83861129D02*
X6961904Y-84294462D01*
X6961904Y-84294462D02*
X7302380Y-84294462D01*
X7797617Y-84263510D02*
X7735713Y-84294462D01*
X7735713Y-84294462D02*
X7611903Y-84294462D01*
X7611903Y-84294462D02*
X7549998Y-84263510D01*
X7549998Y-84263510D02*
X7519046Y-84201605D01*
X7519046Y-84201605D02*
X7519046Y-83953986D01*
X7519046Y-83953986D02*
X7549998Y-83892081D01*
X7549998Y-83892081D02*
X7611903Y-83861129D01*
X7611903Y-83861129D02*
X7735713Y-83861129D01*
X7735713Y-83861129D02*
X7797617Y-83892081D01*
X7797617Y-83892081D02*
X7828570Y-83953986D01*
X7828570Y-83953986D02*
X7828570Y-84015890D01*
X7828570Y-84015890D02*
X7519046Y-84077795D01*
X8199999Y-84294462D02*
X8138094Y-84263510D01*
X8138094Y-84263510D02*
X8107141Y-84201605D01*
X8107141Y-84201605D02*
X8107141Y-83644462D01*
X8942855Y-84046843D02*
X9438094Y-84046843D01*
X9190474Y-84294462D02*
X9190474Y-83799224D01*
X10242855Y-84294462D02*
X10242855Y-83644462D01*
X10242855Y-83644462D02*
X10459522Y-84108748D01*
X10459522Y-84108748D02*
X10676189Y-83644462D01*
X10676189Y-83644462D02*
X10676189Y-84294462D01*
X11326189Y-84294462D02*
X10954760Y-84294462D01*
X11140474Y-84294462D02*
X11140474Y-83644462D01*
X11140474Y-83644462D02*
X11078570Y-83737319D01*
X11078570Y-83737319D02*
X11016665Y-83799224D01*
X11016665Y-83799224D02*
X10954760Y-83830176D01*
X11573808Y-83706367D02*
X11604760Y-83675414D01*
X11604760Y-83675414D02*
X11666665Y-83644462D01*
X11666665Y-83644462D02*
X11821427Y-83644462D01*
X11821427Y-83644462D02*
X11883332Y-83675414D01*
X11883332Y-83675414D02*
X11914284Y-83706367D01*
X11914284Y-83706367D02*
X11945237Y-83768271D01*
X11945237Y-83768271D02*
X11945237Y-83830176D01*
X11945237Y-83830176D02*
X11914284Y-83923033D01*
X11914284Y-83923033D02*
X11542856Y-84294462D01*
X11542856Y-84294462D02*
X11945237Y-84294462D01*
X12719046Y-84294462D02*
X12719046Y-83644462D01*
X12997618Y-84294462D02*
X12997618Y-83953986D01*
X12997618Y-83953986D02*
X12966665Y-83892081D01*
X12966665Y-83892081D02*
X12904761Y-83861129D01*
X12904761Y-83861129D02*
X12811904Y-83861129D01*
X12811904Y-83861129D02*
X12749999Y-83892081D01*
X12749999Y-83892081D02*
X12719046Y-83923033D01*
X13554760Y-84263510D02*
X13492856Y-84294462D01*
X13492856Y-84294462D02*
X13369046Y-84294462D01*
X13369046Y-84294462D02*
X13307141Y-84263510D01*
X13307141Y-84263510D02*
X13276189Y-84201605D01*
X13276189Y-84201605D02*
X13276189Y-83953986D01*
X13276189Y-83953986D02*
X13307141Y-83892081D01*
X13307141Y-83892081D02*
X13369046Y-83861129D01*
X13369046Y-83861129D02*
X13492856Y-83861129D01*
X13492856Y-83861129D02*
X13554760Y-83892081D01*
X13554760Y-83892081D02*
X13585713Y-83953986D01*
X13585713Y-83953986D02*
X13585713Y-84015890D01*
X13585713Y-84015890D02*
X13276189Y-84077795D01*
X13864284Y-84294462D02*
X13864284Y-83861129D01*
X13864284Y-83984938D02*
X13895237Y-83923033D01*
X13895237Y-83923033D02*
X13926189Y-83892081D01*
X13926189Y-83892081D02*
X13988094Y-83861129D01*
X13988094Y-83861129D02*
X14049999Y-83861129D01*
X14514284Y-84263510D02*
X14452380Y-84294462D01*
X14452380Y-84294462D02*
X14328570Y-84294462D01*
X14328570Y-84294462D02*
X14266665Y-84263510D01*
X14266665Y-84263510D02*
X14235713Y-84201605D01*
X14235713Y-84201605D02*
X14235713Y-83953986D01*
X14235713Y-83953986D02*
X14266665Y-83892081D01*
X14266665Y-83892081D02*
X14328570Y-83861129D01*
X14328570Y-83861129D02*
X14452380Y-83861129D01*
X14452380Y-83861129D02*
X14514284Y-83892081D01*
X14514284Y-83892081D02*
X14545237Y-83953986D01*
X14545237Y-83953986D02*
X14545237Y-84015890D01*
X14545237Y-84015890D02*
X14235713Y-84077795D01*
D11*
X-6926189Y-87397255D02*
X-6978570Y-87449636D01*
X-6978570Y-87449636D02*
X-7135713Y-87502016D01*
X-7135713Y-87502016D02*
X-7240475Y-87502016D01*
X-7240475Y-87502016D02*
X-7397618Y-87449636D01*
X-7397618Y-87449636D02*
X-7502380Y-87344874D01*
X-7502380Y-87344874D02*
X-7554761Y-87240112D01*
X-7554761Y-87240112D02*
X-7607142Y-87030588D01*
X-7607142Y-87030588D02*
X-7607142Y-86873445D01*
X-7607142Y-86873445D02*
X-7554761Y-86663921D01*
X-7554761Y-86663921D02*
X-7502380Y-86559159D01*
X-7502380Y-86559159D02*
X-7397618Y-86454397D01*
X-7397618Y-86454397D02*
X-7240475Y-86402016D01*
X-7240475Y-86402016D02*
X-7135713Y-86402016D01*
X-7135713Y-86402016D02*
X-6978570Y-86454397D01*
X-6978570Y-86454397D02*
X-6926189Y-86506778D01*
X-6454761Y-87502016D02*
X-6454761Y-86402016D01*
X-6454761Y-86402016D02*
X-6088094Y-87187731D01*
X-6088094Y-87187731D02*
X-5721427Y-86402016D01*
X-5721427Y-86402016D02*
X-5721427Y-87502016D01*
X-4830951Y-86925826D02*
X-5197618Y-86925826D01*
X-5197618Y-87502016D02*
X-5197618Y-86402016D01*
X-5197618Y-86402016D02*
X-4673808Y-86402016D01*
X-4254761Y-87502016D02*
X-4254761Y-86402016D01*
X-4254761Y-86402016D02*
X-3992856Y-86402016D01*
X-3992856Y-86402016D02*
X-3835713Y-86454397D01*
X-3835713Y-86454397D02*
X-3730951Y-86559159D01*
X-3730951Y-86559159D02*
X-3678570Y-86663921D01*
X-3678570Y-86663921D02*
X-3626189Y-86873445D01*
X-3626189Y-86873445D02*
X-3626189Y-87030588D01*
X-3626189Y-87030588D02*
X-3678570Y-87240112D01*
X-3678570Y-87240112D02*
X-3730951Y-87344874D01*
X-3730951Y-87344874D02*
X-3835713Y-87449636D01*
X-3835713Y-87449636D02*
X-3992856Y-87502016D01*
X-3992856Y-87502016D02*
X-4254761Y-87502016D01*
X-1949999Y-86925826D02*
X-1792856Y-86978207D01*
X-1792856Y-86978207D02*
X-1740475Y-87030588D01*
X-1740475Y-87030588D02*
X-1688094Y-87135350D01*
X-1688094Y-87135350D02*
X-1688094Y-87292493D01*
X-1688094Y-87292493D02*
X-1740475Y-87397255D01*
X-1740475Y-87397255D02*
X-1792856Y-87449636D01*
X-1792856Y-87449636D02*
X-1897618Y-87502016D01*
X-1897618Y-87502016D02*
X-2316666Y-87502016D01*
X-2316666Y-87502016D02*
X-2316666Y-86402016D01*
X-2316666Y-86402016D02*
X-1949999Y-86402016D01*
X-1949999Y-86402016D02*
X-1845237Y-86454397D01*
X-1845237Y-86454397D02*
X-1792856Y-86506778D01*
X-1792856Y-86506778D02*
X-1740475Y-86611540D01*
X-1740475Y-86611540D02*
X-1740475Y-86716302D01*
X-1740475Y-86716302D02*
X-1792856Y-86821064D01*
X-1792856Y-86821064D02*
X-1845237Y-86873445D01*
X-1845237Y-86873445D02*
X-1949999Y-86925826D01*
X-1949999Y-86925826D02*
X-2316666Y-86925826D01*
X-1007142Y-86402016D02*
X-797618Y-86402016D01*
X-797618Y-86402016D02*
X-692856Y-86454397D01*
X-692856Y-86454397D02*
X-588094Y-86559159D01*
X-588094Y-86559159D02*
X-535713Y-86768683D01*
X-535713Y-86768683D02*
X-535713Y-87135350D01*
X-535713Y-87135350D02*
X-588094Y-87344874D01*
X-588094Y-87344874D02*
X-692856Y-87449636D01*
X-692856Y-87449636D02*
X-797618Y-87502016D01*
X-797618Y-87502016D02*
X-1007142Y-87502016D01*
X-1007142Y-87502016D02*
X-1111904Y-87449636D01*
X-1111904Y-87449636D02*
X-1216666Y-87344874D01*
X-1216666Y-87344874D02*
X-1269047Y-87135350D01*
X-1269047Y-87135350D02*
X-1269047Y-86768683D01*
X-1269047Y-86768683D02*
X-1216666Y-86559159D01*
X-1216666Y-86559159D02*
X-1111904Y-86454397D01*
X-1111904Y-86454397D02*
X-1007142Y-86402016D01*
X-116666Y-87187731D02*
X407143Y-87187731D01*
X-221428Y-87502016D02*
X145238Y-86402016D01*
X145238Y-86402016D02*
X511905Y-87502016D01*
X1507143Y-87502016D02*
X1140476Y-86978207D01*
X878571Y-87502016D02*
X878571Y-86402016D01*
X878571Y-86402016D02*
X1297619Y-86402016D01*
X1297619Y-86402016D02*
X1402381Y-86454397D01*
X1402381Y-86454397D02*
X1454762Y-86506778D01*
X1454762Y-86506778D02*
X1507143Y-86611540D01*
X1507143Y-86611540D02*
X1507143Y-86768683D01*
X1507143Y-86768683D02*
X1454762Y-86873445D01*
X1454762Y-86873445D02*
X1402381Y-86925826D01*
X1402381Y-86925826D02*
X1297619Y-86978207D01*
X1297619Y-86978207D02*
X878571Y-86978207D01*
X1978571Y-87502016D02*
X1978571Y-86402016D01*
X1978571Y-86402016D02*
X2240476Y-86402016D01*
X2240476Y-86402016D02*
X2397619Y-86454397D01*
X2397619Y-86454397D02*
X2502381Y-86559159D01*
X2502381Y-86559159D02*
X2554762Y-86663921D01*
X2554762Y-86663921D02*
X2607143Y-86873445D01*
X2607143Y-86873445D02*
X2607143Y-87030588D01*
X2607143Y-87030588D02*
X2554762Y-87240112D01*
X2554762Y-87240112D02*
X2502381Y-87344874D01*
X2502381Y-87344874D02*
X2397619Y-87449636D01*
X2397619Y-87449636D02*
X2240476Y-87502016D01*
X2240476Y-87502016D02*
X1978571Y-87502016D01*
X3078571Y-87082969D02*
X3916667Y-87082969D01*
X4807143Y-86925826D02*
X4964286Y-86978207D01*
X4964286Y-86978207D02*
X5016667Y-87030588D01*
X5016667Y-87030588D02*
X5069048Y-87135350D01*
X5069048Y-87135350D02*
X5069048Y-87292493D01*
X5069048Y-87292493D02*
X5016667Y-87397255D01*
X5016667Y-87397255D02*
X4964286Y-87449636D01*
X4964286Y-87449636D02*
X4859524Y-87502016D01*
X4859524Y-87502016D02*
X4440476Y-87502016D01*
X4440476Y-87502016D02*
X4440476Y-86402016D01*
X4440476Y-86402016D02*
X4807143Y-86402016D01*
X4807143Y-86402016D02*
X4911905Y-86454397D01*
X4911905Y-86454397D02*
X4964286Y-86506778D01*
X4964286Y-86506778D02*
X5016667Y-86611540D01*
X5016667Y-86611540D02*
X5016667Y-86716302D01*
X5016667Y-86716302D02*
X4964286Y-86821064D01*
X4964286Y-86821064D02*
X4911905Y-86873445D01*
X4911905Y-86873445D02*
X4807143Y-86925826D01*
X4807143Y-86925826D02*
X4440476Y-86925826D01*
X7845238Y-87397255D02*
X7792857Y-87449636D01*
X7792857Y-87449636D02*
X7635714Y-87502016D01*
X7635714Y-87502016D02*
X7530952Y-87502016D01*
X7530952Y-87502016D02*
X7373809Y-87449636D01*
X7373809Y-87449636D02*
X7269047Y-87344874D01*
X7269047Y-87344874D02*
X7216666Y-87240112D01*
X7216666Y-87240112D02*
X7164285Y-87030588D01*
X7164285Y-87030588D02*
X7164285Y-86873445D01*
X7164285Y-86873445D02*
X7216666Y-86663921D01*
X7216666Y-86663921D02*
X7269047Y-86559159D01*
X7269047Y-86559159D02*
X7373809Y-86454397D01*
X7373809Y-86454397D02*
X7530952Y-86402016D01*
X7530952Y-86402016D02*
X7635714Y-86402016D01*
X7635714Y-86402016D02*
X7792857Y-86454397D01*
X7792857Y-86454397D02*
X7845238Y-86506778D01*
X8264285Y-87187731D02*
X8788095Y-87187731D01*
X8159523Y-87502016D02*
X8526190Y-86402016D01*
X8526190Y-86402016D02*
X8892857Y-87502016D01*
X9888095Y-87502016D02*
X9521428Y-86978207D01*
X9259523Y-87502016D02*
X9259523Y-86402016D01*
X9259523Y-86402016D02*
X9678571Y-86402016D01*
X9678571Y-86402016D02*
X9783333Y-86454397D01*
X9783333Y-86454397D02*
X9835714Y-86506778D01*
X9835714Y-86506778D02*
X9888095Y-86611540D01*
X9888095Y-86611540D02*
X9888095Y-86768683D01*
X9888095Y-86768683D02*
X9835714Y-86873445D01*
X9835714Y-86873445D02*
X9783333Y-86925826D01*
X9783333Y-86925826D02*
X9678571Y-86978207D01*
X9678571Y-86978207D02*
X9259523Y-86978207D01*
X10988095Y-87502016D02*
X10621428Y-86978207D01*
X10359523Y-87502016D02*
X10359523Y-86402016D01*
X10359523Y-86402016D02*
X10778571Y-86402016D01*
X10778571Y-86402016D02*
X10883333Y-86454397D01*
X10883333Y-86454397D02*
X10935714Y-86506778D01*
X10935714Y-86506778D02*
X10988095Y-86611540D01*
X10988095Y-86611540D02*
X10988095Y-86768683D01*
X10988095Y-86768683D02*
X10935714Y-86873445D01*
X10935714Y-86873445D02*
X10883333Y-86925826D01*
X10883333Y-86925826D02*
X10778571Y-86978207D01*
X10778571Y-86978207D02*
X10359523Y-86978207D01*
X11459523Y-87502016D02*
X11459523Y-86402016D01*
X11983333Y-86925826D02*
X12350000Y-86925826D01*
X12507143Y-87502016D02*
X11983333Y-87502016D01*
X11983333Y-87502016D02*
X11983333Y-86402016D01*
X11983333Y-86402016D02*
X12507143Y-86402016D01*
X13607143Y-87502016D02*
X13240476Y-86978207D01*
X12978571Y-87502016D02*
X12978571Y-86402016D01*
X12978571Y-86402016D02*
X13397619Y-86402016D01*
X13397619Y-86402016D02*
X13502381Y-86454397D01*
X13502381Y-86454397D02*
X13554762Y-86506778D01*
X13554762Y-86506778D02*
X13607143Y-86611540D01*
X13607143Y-86611540D02*
X13607143Y-86768683D01*
X13607143Y-86768683D02*
X13554762Y-86873445D01*
X13554762Y-86873445D02*
X13502381Y-86925826D01*
X13502381Y-86925826D02*
X13397619Y-86978207D01*
X13397619Y-86978207D02*
X12978571Y-86978207D01*
D12*
X62833333Y-66929580D02*
X62785714Y-66977200D01*
X62785714Y-66977200D02*
X62642857Y-67024819D01*
X62642857Y-67024819D02*
X62547619Y-67024819D01*
X62547619Y-67024819D02*
X62404762Y-66977200D01*
X62404762Y-66977200D02*
X62309524Y-66881961D01*
X62309524Y-66881961D02*
X62261905Y-66786723D01*
X62261905Y-66786723D02*
X62214286Y-66596247D01*
X62214286Y-66596247D02*
X62214286Y-66453390D01*
X62214286Y-66453390D02*
X62261905Y-66262914D01*
X62261905Y-66262914D02*
X62309524Y-66167676D01*
X62309524Y-66167676D02*
X62404762Y-66072438D01*
X62404762Y-66072438D02*
X62547619Y-66024819D01*
X62547619Y-66024819D02*
X62642857Y-66024819D01*
X62642857Y-66024819D02*
X62785714Y-66072438D01*
X62785714Y-66072438D02*
X62833333Y-66120057D01*
X63166667Y-66024819D02*
X63785714Y-66024819D01*
X63785714Y-66024819D02*
X63452381Y-66405771D01*
X63452381Y-66405771D02*
X63595238Y-66405771D01*
X63595238Y-66405771D02*
X63690476Y-66453390D01*
X63690476Y-66453390D02*
X63738095Y-66501009D01*
X63738095Y-66501009D02*
X63785714Y-66596247D01*
X63785714Y-66596247D02*
X63785714Y-66834342D01*
X63785714Y-66834342D02*
X63738095Y-66929580D01*
X63738095Y-66929580D02*
X63690476Y-66977200D01*
X63690476Y-66977200D02*
X63595238Y-67024819D01*
X63595238Y-67024819D02*
X63309524Y-67024819D01*
X63309524Y-67024819D02*
X63214286Y-66977200D01*
X63214286Y-66977200D02*
X63166667Y-66929580D01*
X7238095Y-4304819D02*
X7238095Y-3304819D01*
X7238095Y-3781009D02*
X7809523Y-3781009D01*
X7809523Y-4304819D02*
X7809523Y-3304819D01*
X8809523Y-4304819D02*
X8238095Y-4304819D01*
X8523809Y-4304819D02*
X8523809Y-3304819D01*
X8523809Y-3304819D02*
X8428571Y-3447676D01*
X8428571Y-3447676D02*
X8333333Y-3542914D01*
X8333333Y-3542914D02*
X8238095Y-3590533D01*
X97724819Y-9718333D02*
X98439104Y-9718333D01*
X98439104Y-9718333D02*
X98581961Y-9765952D01*
X98581961Y-9765952D02*
X98677200Y-9861190D01*
X98677200Y-9861190D02*
X98724819Y-10004047D01*
X98724819Y-10004047D02*
X98724819Y-10099285D01*
X97724819Y-8813571D02*
X97724819Y-9004047D01*
X97724819Y-9004047D02*
X97772438Y-9099285D01*
X97772438Y-9099285D02*
X97820057Y-9146904D01*
X97820057Y-9146904D02*
X97962914Y-9242142D01*
X97962914Y-9242142D02*
X98153390Y-9289761D01*
X98153390Y-9289761D02*
X98534342Y-9289761D01*
X98534342Y-9289761D02*
X98629580Y-9242142D01*
X98629580Y-9242142D02*
X98677200Y-9194523D01*
X98677200Y-9194523D02*
X98724819Y-9099285D01*
X98724819Y-9099285D02*
X98724819Y-8908809D01*
X98724819Y-8908809D02*
X98677200Y-8813571D01*
X98677200Y-8813571D02*
X98629580Y-8765952D01*
X98629580Y-8765952D02*
X98534342Y-8718333D01*
X98534342Y-8718333D02*
X98296247Y-8718333D01*
X98296247Y-8718333D02*
X98201009Y-8765952D01*
X98201009Y-8765952D02*
X98153390Y-8813571D01*
X98153390Y-8813571D02*
X98105771Y-8908809D01*
X98105771Y-8908809D02*
X98105771Y-9099285D01*
X98105771Y-9099285D02*
X98153390Y-9194523D01*
X98153390Y-9194523D02*
X98201009Y-9242142D01*
X98201009Y-9242142D02*
X98296247Y-9289761D01*
X54833333Y-66929580D02*
X54785714Y-66977200D01*
X54785714Y-66977200D02*
X54642857Y-67024819D01*
X54642857Y-67024819D02*
X54547619Y-67024819D01*
X54547619Y-67024819D02*
X54404762Y-66977200D01*
X54404762Y-66977200D02*
X54309524Y-66881961D01*
X54309524Y-66881961D02*
X54261905Y-66786723D01*
X54261905Y-66786723D02*
X54214286Y-66596247D01*
X54214286Y-66596247D02*
X54214286Y-66453390D01*
X54214286Y-66453390D02*
X54261905Y-66262914D01*
X54261905Y-66262914D02*
X54309524Y-66167676D01*
X54309524Y-66167676D02*
X54404762Y-66072438D01*
X54404762Y-66072438D02*
X54547619Y-66024819D01*
X54547619Y-66024819D02*
X54642857Y-66024819D01*
X54642857Y-66024819D02*
X54785714Y-66072438D01*
X54785714Y-66072438D02*
X54833333Y-66120057D01*
X55785714Y-67024819D02*
X55214286Y-67024819D01*
X55500000Y-67024819D02*
X55500000Y-66024819D01*
X55500000Y-66024819D02*
X55404762Y-66167676D01*
X55404762Y-66167676D02*
X55309524Y-66262914D01*
X55309524Y-66262914D02*
X55214286Y-66310533D01*
X111238095Y-4304819D02*
X111238095Y-3304819D01*
X111238095Y-3781009D02*
X111809523Y-3781009D01*
X111809523Y-4304819D02*
X111809523Y-3304819D01*
X112238095Y-3400057D02*
X112285714Y-3352438D01*
X112285714Y-3352438D02*
X112380952Y-3304819D01*
X112380952Y-3304819D02*
X112619047Y-3304819D01*
X112619047Y-3304819D02*
X112714285Y-3352438D01*
X112714285Y-3352438D02*
X112761904Y-3400057D01*
X112761904Y-3400057D02*
X112809523Y-3495295D01*
X112809523Y-3495295D02*
X112809523Y-3590533D01*
X112809523Y-3590533D02*
X112761904Y-3733390D01*
X112761904Y-3733390D02*
X112190476Y-4304819D01*
X112190476Y-4304819D02*
X112809523Y-4304819D01*
X30460476Y-59074819D02*
X30460476Y-59789104D01*
X30460476Y-59789104D02*
X30412857Y-59931961D01*
X30412857Y-59931961D02*
X30317619Y-60027200D01*
X30317619Y-60027200D02*
X30174762Y-60074819D01*
X30174762Y-60074819D02*
X30079524Y-60074819D01*
X31460476Y-60074819D02*
X30889048Y-60074819D01*
X31174762Y-60074819D02*
X31174762Y-59074819D01*
X31174762Y-59074819D02*
X31079524Y-59217676D01*
X31079524Y-59217676D02*
X30984286Y-59312914D01*
X30984286Y-59312914D02*
X30889048Y-59360533D01*
X32412857Y-60074819D02*
X31841429Y-60074819D01*
X32127143Y-60074819D02*
X32127143Y-59074819D01*
X32127143Y-59074819D02*
X32031905Y-59217676D01*
X32031905Y-59217676D02*
X31936667Y-59312914D01*
X31936667Y-59312914D02*
X31841429Y-59360533D01*
X111238095Y-78304819D02*
X111238095Y-77304819D01*
X111238095Y-77781009D02*
X111809523Y-77781009D01*
X111809523Y-78304819D02*
X111809523Y-77304819D01*
X112190476Y-77304819D02*
X112809523Y-77304819D01*
X112809523Y-77304819D02*
X112476190Y-77685771D01*
X112476190Y-77685771D02*
X112619047Y-77685771D01*
X112619047Y-77685771D02*
X112714285Y-77733390D01*
X112714285Y-77733390D02*
X112761904Y-77781009D01*
X112761904Y-77781009D02*
X112809523Y-77876247D01*
X112809523Y-77876247D02*
X112809523Y-78114342D01*
X112809523Y-78114342D02*
X112761904Y-78209580D01*
X112761904Y-78209580D02*
X112714285Y-78257200D01*
X112714285Y-78257200D02*
X112619047Y-78304819D01*
X112619047Y-78304819D02*
X112333333Y-78304819D01*
X112333333Y-78304819D02*
X112238095Y-78257200D01*
X112238095Y-78257200D02*
X112190476Y-78209580D01*
X82724819Y-11146904D02*
X83439104Y-11146904D01*
X83439104Y-11146904D02*
X83581961Y-11194523D01*
X83581961Y-11194523D02*
X83677200Y-11289761D01*
X83677200Y-11289761D02*
X83724819Y-11432618D01*
X83724819Y-11432618D02*
X83724819Y-11527856D01*
X83820057Y-10908809D02*
X83820057Y-10146904D01*
X83724819Y-9908808D02*
X82724819Y-9908808D01*
X82724819Y-9908808D02*
X83439104Y-9575475D01*
X83439104Y-9575475D02*
X82724819Y-9242142D01*
X82724819Y-9242142D02*
X83724819Y-9242142D01*
X83724819Y-8242142D02*
X83724819Y-8813570D01*
X83724819Y-8527856D02*
X82724819Y-8527856D01*
X82724819Y-8527856D02*
X82867676Y-8623094D01*
X82867676Y-8623094D02*
X82962914Y-8718332D01*
X82962914Y-8718332D02*
X83010533Y-8813570D01*
X82820057Y-7861189D02*
X82772438Y-7813570D01*
X82772438Y-7813570D02*
X82724819Y-7718332D01*
X82724819Y-7718332D02*
X82724819Y-7480237D01*
X82724819Y-7480237D02*
X82772438Y-7384999D01*
X82772438Y-7384999D02*
X82820057Y-7337380D01*
X82820057Y-7337380D02*
X82915295Y-7289761D01*
X82915295Y-7289761D02*
X83010533Y-7289761D01*
X83010533Y-7289761D02*
X83153390Y-7337380D01*
X83153390Y-7337380D02*
X83724819Y-7908808D01*
X83724819Y-7908808D02*
X83724819Y-7289761D01*
X30460476Y-42074819D02*
X30460476Y-42789104D01*
X30460476Y-42789104D02*
X30412857Y-42931961D01*
X30412857Y-42931961D02*
X30317619Y-43027200D01*
X30317619Y-43027200D02*
X30174762Y-43074819D01*
X30174762Y-43074819D02*
X30079524Y-43074819D01*
X31460476Y-43074819D02*
X30889048Y-43074819D01*
X31174762Y-43074819D02*
X31174762Y-42074819D01*
X31174762Y-42074819D02*
X31079524Y-42217676D01*
X31079524Y-42217676D02*
X30984286Y-42312914D01*
X30984286Y-42312914D02*
X30889048Y-42360533D01*
X32079524Y-42074819D02*
X32174762Y-42074819D01*
X32174762Y-42074819D02*
X32270000Y-42122438D01*
X32270000Y-42122438D02*
X32317619Y-42170057D01*
X32317619Y-42170057D02*
X32365238Y-42265295D01*
X32365238Y-42265295D02*
X32412857Y-42455771D01*
X32412857Y-42455771D02*
X32412857Y-42693866D01*
X32412857Y-42693866D02*
X32365238Y-42884342D01*
X32365238Y-42884342D02*
X32317619Y-42979580D01*
X32317619Y-42979580D02*
X32270000Y-43027200D01*
X32270000Y-43027200D02*
X32174762Y-43074819D01*
X32174762Y-43074819D02*
X32079524Y-43074819D01*
X32079524Y-43074819D02*
X31984286Y-43027200D01*
X31984286Y-43027200D02*
X31936667Y-42979580D01*
X31936667Y-42979580D02*
X31889048Y-42884342D01*
X31889048Y-42884342D02*
X31841429Y-42693866D01*
X31841429Y-42693866D02*
X31841429Y-42455771D01*
X31841429Y-42455771D02*
X31889048Y-42265295D01*
X31889048Y-42265295D02*
X31936667Y-42170057D01*
X31936667Y-42170057D02*
X31984286Y-42122438D01*
X31984286Y-42122438D02*
X32079524Y-42074819D01*
X64954819Y-15893333D02*
X65669104Y-15893333D01*
X65669104Y-15893333D02*
X65811961Y-15940952D01*
X65811961Y-15940952D02*
X65907200Y-16036190D01*
X65907200Y-16036190D02*
X65954819Y-16179047D01*
X65954819Y-16179047D02*
X65954819Y-16274285D01*
X64954819Y-14940952D02*
X64954819Y-15417142D01*
X64954819Y-15417142D02*
X65431009Y-15464761D01*
X65431009Y-15464761D02*
X65383390Y-15417142D01*
X65383390Y-15417142D02*
X65335771Y-15321904D01*
X65335771Y-15321904D02*
X65335771Y-15083809D01*
X65335771Y-15083809D02*
X65383390Y-14988571D01*
X65383390Y-14988571D02*
X65431009Y-14940952D01*
X65431009Y-14940952D02*
X65526247Y-14893333D01*
X65526247Y-14893333D02*
X65764342Y-14893333D01*
X65764342Y-14893333D02*
X65859580Y-14940952D01*
X65859580Y-14940952D02*
X65907200Y-14988571D01*
X65907200Y-14988571D02*
X65954819Y-15083809D01*
X65954819Y-15083809D02*
X65954819Y-15321904D01*
X65954819Y-15321904D02*
X65907200Y-15417142D01*
X65907200Y-15417142D02*
X65859580Y-15464761D01*
X37476190Y-75074819D02*
X37476190Y-75789104D01*
X37476190Y-75789104D02*
X37428571Y-75931961D01*
X37428571Y-75931961D02*
X37333333Y-76027200D01*
X37333333Y-76027200D02*
X37190476Y-76074819D01*
X37190476Y-76074819D02*
X37095238Y-76074819D01*
X37714286Y-76170057D02*
X38476190Y-76170057D01*
X39047619Y-75551009D02*
X39190476Y-75598628D01*
X39190476Y-75598628D02*
X39238095Y-75646247D01*
X39238095Y-75646247D02*
X39285714Y-75741485D01*
X39285714Y-75741485D02*
X39285714Y-75884342D01*
X39285714Y-75884342D02*
X39238095Y-75979580D01*
X39238095Y-75979580D02*
X39190476Y-76027200D01*
X39190476Y-76027200D02*
X39095238Y-76074819D01*
X39095238Y-76074819D02*
X38714286Y-76074819D01*
X38714286Y-76074819D02*
X38714286Y-75074819D01*
X38714286Y-75074819D02*
X39047619Y-75074819D01*
X39047619Y-75074819D02*
X39142857Y-75122438D01*
X39142857Y-75122438D02*
X39190476Y-75170057D01*
X39190476Y-75170057D02*
X39238095Y-75265295D01*
X39238095Y-75265295D02*
X39238095Y-75360533D01*
X39238095Y-75360533D02*
X39190476Y-75455771D01*
X39190476Y-75455771D02*
X39142857Y-75503390D01*
X39142857Y-75503390D02*
X39047619Y-75551009D01*
X39047619Y-75551009D02*
X38714286Y-75551009D01*
X39714286Y-75551009D02*
X40047619Y-75551009D01*
X40190476Y-76074819D02*
X39714286Y-76074819D01*
X39714286Y-76074819D02*
X39714286Y-75074819D01*
X39714286Y-75074819D02*
X40190476Y-75074819D01*
X40523810Y-75074819D02*
X41190476Y-75074819D01*
X41190476Y-75074819D02*
X40523810Y-76074819D01*
X40523810Y-76074819D02*
X41190476Y-76074819D01*
X41571429Y-75551009D02*
X41904762Y-75551009D01*
X42047619Y-76074819D02*
X41571429Y-76074819D01*
X41571429Y-76074819D02*
X41571429Y-75074819D01*
X41571429Y-75074819D02*
X42047619Y-75074819D01*
X42952381Y-76074819D02*
X42476191Y-76074819D01*
X42476191Y-76074819D02*
X42476191Y-75074819D01*
X109724819Y-9718333D02*
X110439104Y-9718333D01*
X110439104Y-9718333D02*
X110581961Y-9765952D01*
X110581961Y-9765952D02*
X110677200Y-9861190D01*
X110677200Y-9861190D02*
X110724819Y-10004047D01*
X110724819Y-10004047D02*
X110724819Y-10099285D01*
X109724819Y-9337380D02*
X109724819Y-8670714D01*
X109724819Y-8670714D02*
X110724819Y-9099285D01*
X66833333Y-66929580D02*
X66785714Y-66977200D01*
X66785714Y-66977200D02*
X66642857Y-67024819D01*
X66642857Y-67024819D02*
X66547619Y-67024819D01*
X66547619Y-67024819D02*
X66404762Y-66977200D01*
X66404762Y-66977200D02*
X66309524Y-66881961D01*
X66309524Y-66881961D02*
X66261905Y-66786723D01*
X66261905Y-66786723D02*
X66214286Y-66596247D01*
X66214286Y-66596247D02*
X66214286Y-66453390D01*
X66214286Y-66453390D02*
X66261905Y-66262914D01*
X66261905Y-66262914D02*
X66309524Y-66167676D01*
X66309524Y-66167676D02*
X66404762Y-66072438D01*
X66404762Y-66072438D02*
X66547619Y-66024819D01*
X66547619Y-66024819D02*
X66642857Y-66024819D01*
X66642857Y-66024819D02*
X66785714Y-66072438D01*
X66785714Y-66072438D02*
X66833333Y-66120057D01*
X67690476Y-66358152D02*
X67690476Y-67024819D01*
X67452381Y-65977200D02*
X67214286Y-66691485D01*
X67214286Y-66691485D02*
X67833333Y-66691485D01*
X68761905Y-52054819D02*
X68761905Y-52864342D01*
X68761905Y-52864342D02*
X68809524Y-52959580D01*
X68809524Y-52959580D02*
X68857143Y-53007200D01*
X68857143Y-53007200D02*
X68952381Y-53054819D01*
X68952381Y-53054819D02*
X69142857Y-53054819D01*
X69142857Y-53054819D02*
X69238095Y-53007200D01*
X69238095Y-53007200D02*
X69285714Y-52959580D01*
X69285714Y-52959580D02*
X69333333Y-52864342D01*
X69333333Y-52864342D02*
X69333333Y-52054819D01*
X70333333Y-53054819D02*
X69761905Y-53054819D01*
X70047619Y-53054819D02*
X70047619Y-52054819D01*
X70047619Y-52054819D02*
X69952381Y-52197676D01*
X69952381Y-52197676D02*
X69857143Y-52292914D01*
X69857143Y-52292914D02*
X69761905Y-52340533D01*
X71285714Y-53054819D02*
X70714286Y-53054819D01*
X71000000Y-53054819D02*
X71000000Y-52054819D01*
X71000000Y-52054819D02*
X70904762Y-52197676D01*
X70904762Y-52197676D02*
X70809524Y-52292914D01*
X70809524Y-52292914D02*
X70714286Y-52340533D01*
X93761904Y-75074819D02*
X93761904Y-75789104D01*
X93761904Y-75789104D02*
X93714285Y-75931961D01*
X93714285Y-75931961D02*
X93619047Y-76027200D01*
X93619047Y-76027200D02*
X93476190Y-76074819D01*
X93476190Y-76074819D02*
X93380952Y-76074819D01*
X94000000Y-76170057D02*
X94761904Y-76170057D01*
X95571428Y-76074819D02*
X95238095Y-75598628D01*
X95000000Y-76074819D02*
X95000000Y-75074819D01*
X95000000Y-75074819D02*
X95380952Y-75074819D01*
X95380952Y-75074819D02*
X95476190Y-75122438D01*
X95476190Y-75122438D02*
X95523809Y-75170057D01*
X95523809Y-75170057D02*
X95571428Y-75265295D01*
X95571428Y-75265295D02*
X95571428Y-75408152D01*
X95571428Y-75408152D02*
X95523809Y-75503390D01*
X95523809Y-75503390D02*
X95476190Y-75551009D01*
X95476190Y-75551009D02*
X95380952Y-75598628D01*
X95380952Y-75598628D02*
X95000000Y-75598628D01*
X96000000Y-76074819D02*
X96000000Y-75074819D01*
X96571428Y-76074819D02*
X96142857Y-75503390D01*
X96571428Y-75074819D02*
X96000000Y-75646247D01*
X58833333Y-66929580D02*
X58785714Y-66977200D01*
X58785714Y-66977200D02*
X58642857Y-67024819D01*
X58642857Y-67024819D02*
X58547619Y-67024819D01*
X58547619Y-67024819D02*
X58404762Y-66977200D01*
X58404762Y-66977200D02*
X58309524Y-66881961D01*
X58309524Y-66881961D02*
X58261905Y-66786723D01*
X58261905Y-66786723D02*
X58214286Y-66596247D01*
X58214286Y-66596247D02*
X58214286Y-66453390D01*
X58214286Y-66453390D02*
X58261905Y-66262914D01*
X58261905Y-66262914D02*
X58309524Y-66167676D01*
X58309524Y-66167676D02*
X58404762Y-66072438D01*
X58404762Y-66072438D02*
X58547619Y-66024819D01*
X58547619Y-66024819D02*
X58642857Y-66024819D01*
X58642857Y-66024819D02*
X58785714Y-66072438D01*
X58785714Y-66072438D02*
X58833333Y-66120057D01*
X59214286Y-66120057D02*
X59261905Y-66072438D01*
X59261905Y-66072438D02*
X59357143Y-66024819D01*
X59357143Y-66024819D02*
X59595238Y-66024819D01*
X59595238Y-66024819D02*
X59690476Y-66072438D01*
X59690476Y-66072438D02*
X59738095Y-66120057D01*
X59738095Y-66120057D02*
X59785714Y-66215295D01*
X59785714Y-66215295D02*
X59785714Y-66310533D01*
X59785714Y-66310533D02*
X59738095Y-66453390D01*
X59738095Y-66453390D02*
X59166667Y-67024819D01*
X59166667Y-67024819D02*
X59785714Y-67024819D01*
X40045180Y-6166666D02*
X39330895Y-6166666D01*
X39330895Y-6166666D02*
X39188038Y-6119047D01*
X39188038Y-6119047D02*
X39092800Y-6023809D01*
X39092800Y-6023809D02*
X39045180Y-5880952D01*
X39045180Y-5880952D02*
X39045180Y-5785714D01*
X39711847Y-7071428D02*
X39045180Y-7071428D01*
X40092800Y-6833333D02*
X39378514Y-6595238D01*
X39378514Y-6595238D02*
X39378514Y-7214285D01*
X22045180Y-6166666D02*
X21330895Y-6166666D01*
X21330895Y-6166666D02*
X21188038Y-6119047D01*
X21188038Y-6119047D02*
X21092800Y-6023809D01*
X21092800Y-6023809D02*
X21045180Y-5880952D01*
X21045180Y-5880952D02*
X21045180Y-5785714D01*
X22045180Y-6547619D02*
X22045180Y-7166666D01*
X22045180Y-7166666D02*
X21664228Y-6833333D01*
X21664228Y-6833333D02*
X21664228Y-6976190D01*
X21664228Y-6976190D02*
X21616609Y-7071428D01*
X21616609Y-7071428D02*
X21568990Y-7119047D01*
X21568990Y-7119047D02*
X21473752Y-7166666D01*
X21473752Y-7166666D02*
X21235657Y-7166666D01*
X21235657Y-7166666D02*
X21140419Y-7119047D01*
X21140419Y-7119047D02*
X21092800Y-7071428D01*
X21092800Y-7071428D02*
X21045180Y-6976190D01*
X21045180Y-6976190D02*
X21045180Y-6690476D01*
X21045180Y-6690476D02*
X21092800Y-6595238D01*
X21092800Y-6595238D02*
X21140419Y-6547619D01*
X7238095Y-78304819D02*
X7238095Y-77304819D01*
X7238095Y-77781009D02*
X7809523Y-77781009D01*
X7809523Y-78304819D02*
X7809523Y-77304819D01*
X8714285Y-77638152D02*
X8714285Y-78304819D01*
X8476190Y-77257200D02*
X8238095Y-77971485D01*
X8238095Y-77971485D02*
X8857142Y-77971485D01*
X108238095Y-75074819D02*
X108238095Y-75789104D01*
X108238095Y-75789104D02*
X108190476Y-75931961D01*
X108190476Y-75931961D02*
X108095238Y-76027200D01*
X108095238Y-76027200D02*
X107952381Y-76074819D01*
X107952381Y-76074819D02*
X107857143Y-76074819D01*
X108476191Y-76170057D02*
X109238095Y-76170057D01*
X110000000Y-75122438D02*
X109904762Y-75074819D01*
X109904762Y-75074819D02*
X109761905Y-75074819D01*
X109761905Y-75074819D02*
X109619048Y-75122438D01*
X109619048Y-75122438D02*
X109523810Y-75217676D01*
X109523810Y-75217676D02*
X109476191Y-75312914D01*
X109476191Y-75312914D02*
X109428572Y-75503390D01*
X109428572Y-75503390D02*
X109428572Y-75646247D01*
X109428572Y-75646247D02*
X109476191Y-75836723D01*
X109476191Y-75836723D02*
X109523810Y-75931961D01*
X109523810Y-75931961D02*
X109619048Y-76027200D01*
X109619048Y-76027200D02*
X109761905Y-76074819D01*
X109761905Y-76074819D02*
X109857143Y-76074819D01*
X109857143Y-76074819D02*
X110000000Y-76027200D01*
X110000000Y-76027200D02*
X110047619Y-75979580D01*
X110047619Y-75979580D02*
X110047619Y-75646247D01*
X110047619Y-75646247D02*
X109857143Y-75646247D01*
X110476191Y-76074819D02*
X110476191Y-75074819D01*
X110476191Y-75074819D02*
X111047619Y-76074819D01*
X111047619Y-76074819D02*
X111047619Y-75074819D01*
X111523810Y-76074819D02*
X111523810Y-75074819D01*
X111523810Y-75074819D02*
X111761905Y-75074819D01*
X111761905Y-75074819D02*
X111904762Y-75122438D01*
X111904762Y-75122438D02*
X112000000Y-75217676D01*
X112000000Y-75217676D02*
X112047619Y-75312914D01*
X112047619Y-75312914D02*
X112095238Y-75503390D01*
X112095238Y-75503390D02*
X112095238Y-75646247D01*
X112095238Y-75646247D02*
X112047619Y-75836723D01*
X112047619Y-75836723D02*
X112000000Y-75931961D01*
X112000000Y-75931961D02*
X111904762Y-76027200D01*
X111904762Y-76027200D02*
X111761905Y-76074819D01*
X111761905Y-76074819D02*
X111523810Y-76074819D01*
%TO.C,C3*%
D10*
X62859420Y-67490000D02*
X63140580Y-67490000D01*
X62859420Y-68510000D02*
X63140580Y-68510000D01*
%TO.C,J6*%
X87950000Y-6077358D02*
X87950000Y-6390000D01*
X87950000Y-15150000D02*
X87950000Y-9150000D01*
X88810000Y-6077358D02*
X88810000Y-6390000D01*
X88810000Y-9150000D02*
X88810000Y-15150000D01*
X88810000Y-15150000D02*
X87950000Y-15150000D01*
X89650000Y-6390000D02*
X89650000Y-9150000D01*
X90490000Y-6077358D02*
X90490000Y-6390000D01*
X90490000Y-15150000D02*
X90490000Y-9150000D01*
X91350000Y-6077358D02*
X91350000Y-6390000D01*
X91350000Y-9150000D02*
X91350000Y-15150000D01*
X91350000Y-15150000D02*
X90490000Y-15150000D01*
X92190000Y-6390000D02*
X92190000Y-9150000D01*
X93030000Y-6077358D02*
X93030000Y-6390000D01*
X93030000Y-15150000D02*
X93030000Y-9150000D01*
X93890000Y-6077358D02*
X93890000Y-6390000D01*
X93890000Y-9150000D02*
X93890000Y-15150000D01*
X93890000Y-15150000D02*
X93030000Y-15150000D01*
X94730000Y-6390000D02*
X94730000Y-9150000D01*
X95570000Y-6160000D02*
X95570000Y-6390000D01*
X96000000Y-3730000D02*
X97270000Y-3730000D01*
X96430000Y-6160000D02*
X96430000Y-6390000D01*
X97270000Y-3730000D02*
X97270000Y-5000000D01*
X95570000Y-9150000D02*
X96430000Y-9150000D01*
X96430000Y-15150000D01*
X95570000Y-15150000D01*
X95570000Y-9150000D01*
G36*
X95570000Y-9150000D02*
G01*
X96430000Y-9150000D01*
X96430000Y-15150000D01*
X95570000Y-15150000D01*
X95570000Y-9150000D01*
G37*
X87000000Y-6390000D02*
X97380000Y-6390000D01*
X97380000Y-9150000D01*
X87000000Y-9150000D01*
X87000000Y-6390000D01*
%TO.C,C1*%
X54859420Y-67490000D02*
X55140580Y-67490000D01*
X54859420Y-68510000D02*
X55140580Y-68510000D01*
%TO.C,J11*%
X28620000Y-60620000D02*
X30000000Y-60620000D01*
X28620000Y-62000000D02*
X28620000Y-60620000D01*
X28620000Y-63270000D02*
X28620000Y-86240000D01*
X28620000Y-63270000D02*
X31270000Y-63270000D01*
X28620000Y-86240000D02*
X33920000Y-86240000D01*
X31270000Y-60620000D02*
X33920000Y-60620000D01*
X31270000Y-63270000D02*
X31270000Y-60620000D01*
X33920000Y-60620000D02*
X33920000Y-86240000D01*
%TO.C,J_M12*%
X67870000Y-6077358D02*
X67870000Y-6390000D01*
X67870000Y-15150000D02*
X67870000Y-9150000D01*
X68730000Y-6077358D02*
X68730000Y-6390000D01*
X68730000Y-9150000D02*
X68730000Y-15150000D01*
X68730000Y-15150000D02*
X67870000Y-15150000D01*
X69570000Y-6390000D02*
X69570000Y-9150000D01*
X70410000Y-6077358D02*
X70410000Y-6390000D01*
X70410000Y-15150000D02*
X70410000Y-9150000D01*
X71270000Y-6077358D02*
X71270000Y-6390000D01*
X71270000Y-9150000D02*
X71270000Y-15150000D01*
X71270000Y-15150000D02*
X70410000Y-15150000D01*
X72110000Y-6390000D02*
X72110000Y-9150000D01*
X72950000Y-6077358D02*
X72950000Y-6390000D01*
X72950000Y-15150000D02*
X72950000Y-9150000D01*
X73810000Y-6077358D02*
X73810000Y-6390000D01*
X73810000Y-9150000D02*
X73810000Y-15150000D01*
X73810000Y-15150000D02*
X72950000Y-15150000D01*
X74650000Y-6390000D02*
X74650000Y-9150000D01*
X75490000Y-6077358D02*
X75490000Y-6390000D01*
X75490000Y-15150000D02*
X75490000Y-9150000D01*
X76350000Y-6077358D02*
X76350000Y-6390000D01*
X76350000Y-9150000D02*
X76350000Y-15150000D01*
X76350000Y-15150000D02*
X75490000Y-15150000D01*
X77190000Y-6390000D02*
X77190000Y-9150000D01*
X78030000Y-6077358D02*
X78030000Y-6390000D01*
X78030000Y-15150000D02*
X78030000Y-9150000D01*
X78890000Y-6077358D02*
X78890000Y-6390000D01*
X78890000Y-9150000D02*
X78890000Y-15150000D01*
X78890000Y-15150000D02*
X78030000Y-15150000D01*
X79730000Y-6390000D02*
X79730000Y-9150000D01*
X80570000Y-6160000D02*
X80570000Y-6390000D01*
X81000000Y-3730000D02*
X82270000Y-3730000D01*
X81430000Y-6160000D02*
X81430000Y-6390000D01*
X82270000Y-3730000D02*
X82270000Y-5000000D01*
X80570000Y-9150000D02*
X81430000Y-9150000D01*
X81430000Y-15150000D01*
X80570000Y-15150000D01*
X80570000Y-9150000D01*
G36*
X80570000Y-9150000D02*
G01*
X81430000Y-9150000D01*
X81430000Y-15150000D01*
X80570000Y-15150000D01*
X80570000Y-9150000D01*
G37*
X66920000Y-6390000D02*
X82380000Y-6390000D01*
X82380000Y-9150000D01*
X66920000Y-9150000D01*
X66920000Y-6390000D01*
%TO.C,J10*%
X28620000Y-43620000D02*
X30000000Y-43620000D01*
X28620000Y-45000000D02*
X28620000Y-43620000D01*
X28620000Y-46270000D02*
X28620000Y-69240000D01*
X28620000Y-46270000D02*
X31270000Y-46270000D01*
X28620000Y-69240000D02*
X33920000Y-69240000D01*
X31270000Y-43620000D02*
X33920000Y-43620000D01*
X31270000Y-46270000D02*
X31270000Y-43620000D01*
X33920000Y-43620000D02*
X33920000Y-69240000D01*
%TO.C,J5*%
X48140000Y-7195000D02*
X53700000Y-7195000D01*
X48140000Y-7240000D02*
X48140000Y-23925000D01*
X48140000Y-23925000D02*
X53700000Y-23925000D01*
X56200000Y-6500000D02*
X57200000Y-6500000D01*
X56700000Y-7000000D02*
X56200000Y-6500000D01*
X57200000Y-6500000D02*
X56700000Y-7000000D01*
X64110000Y-7195000D02*
X56500000Y-7195000D01*
X64110000Y-7240000D02*
X64110000Y-23880000D01*
X64110000Y-23925000D02*
X56500000Y-23925000D01*
%TO.C,J_BEZEL*%
X38620000Y-76620000D02*
X40000000Y-76620000D01*
X38620000Y-78000000D02*
X38620000Y-76620000D01*
X38620000Y-79270000D02*
X38620000Y-127640000D01*
X38620000Y-79270000D02*
X41380000Y-79270000D01*
X38620000Y-127640000D02*
X41380000Y-127640000D01*
X41380000Y-79270000D02*
X41380000Y-127640000D01*
%TO.C,J7*%
X102490000Y-6077358D02*
X102490000Y-6390000D01*
X102490000Y-15150000D02*
X102490000Y-9150000D01*
X103350000Y-6077358D02*
X103350000Y-6390000D01*
X103350000Y-9150000D02*
X103350000Y-15150000D01*
X103350000Y-15150000D02*
X102490000Y-15150000D01*
X104190000Y-6390000D02*
X104190000Y-9150000D01*
X105030000Y-6077358D02*
X105030000Y-6390000D01*
X105030000Y-15150000D02*
X105030000Y-9150000D01*
X105890000Y-6077358D02*
X105890000Y-6390000D01*
X105890000Y-9150000D02*
X105890000Y-15150000D01*
X105890000Y-15150000D02*
X105030000Y-15150000D01*
X106730000Y-6390000D02*
X106730000Y-9150000D01*
X107570000Y-6160000D02*
X107570000Y-6390000D01*
X108000000Y-3730000D02*
X109270000Y-3730000D01*
X108430000Y-6160000D02*
X108430000Y-6390000D01*
X109270000Y-3730000D02*
X109270000Y-5000000D01*
X107570000Y-9150000D02*
X108430000Y-9150000D01*
X108430000Y-15150000D01*
X107570000Y-15150000D01*
X107570000Y-9150000D01*
G36*
X107570000Y-9150000D02*
G01*
X108430000Y-9150000D01*
X108430000Y-15150000D01*
X107570000Y-15150000D01*
X107570000Y-9150000D01*
G37*
X101540000Y-6390000D02*
X109380000Y-6390000D01*
X109380000Y-9150000D01*
X101540000Y-9150000D01*
X101540000Y-6390000D01*
%TO.C,C4*%
X66859420Y-67490000D02*
X67140580Y-67490000D01*
X66859420Y-68510000D02*
X67140580Y-68510000D01*
%TO.C,U11*%
X69090000Y-53440000D02*
X70910000Y-53440000D01*
X69090000Y-53490000D02*
X69090000Y-53440000D01*
X69090000Y-56560000D02*
X69090000Y-56510000D01*
X70910000Y-53440000D02*
X70910000Y-53490000D01*
X70910000Y-54610000D02*
X70910000Y-55390000D01*
X70910000Y-56510000D02*
X70910000Y-56560000D01*
X70910000Y-56560000D02*
X69090000Y-56560000D01*
X68550000Y-53490000D02*
X68310000Y-53160000D01*
X68790000Y-53160000D01*
X68550000Y-53490000D01*
G36*
X68550000Y-53490000D02*
G01*
X68310000Y-53160000D01*
X68790000Y-53160000D01*
X68550000Y-53490000D01*
G37*
%TO.C,J_RK*%
X93620000Y-76620000D02*
X95000000Y-76620000D01*
X93620000Y-78000000D02*
X93620000Y-76620000D01*
X93620000Y-79270000D02*
X93620000Y-87000000D01*
X93620000Y-79270000D02*
X96380000Y-79270000D01*
X93620000Y-87000000D02*
X96380000Y-87000000D01*
X96380000Y-79270000D02*
X96380000Y-87000000D01*
%TO.C,C2*%
X58859420Y-67490000D02*
X59140580Y-67490000D01*
X58859420Y-68510000D02*
X59140580Y-68510000D01*
%TO.C,J4*%
X34100000Y-1830000D02*
X35800000Y-1830000D01*
X34100000Y-11170000D02*
X35800000Y-11170000D01*
%TO.C,J3*%
X16100000Y-1830000D02*
X17800000Y-1830000D01*
X16100000Y-11170000D02*
X17800000Y-11170000D01*
%TO.C,J_GND*%
X108620000Y-76620000D02*
X110000000Y-76620000D01*
X108620000Y-78000000D02*
X108620000Y-76620000D01*
X108620000Y-79270000D02*
X108620000Y-81920000D01*
X108620000Y-79270000D02*
X111380000Y-79270000D01*
X108620000Y-81920000D02*
X111380000Y-81920000D01*
X111380000Y-79270000D02*
X111380000Y-81920000D01*
%TD*%
%LPC*%
D13*
%TO.C,C3*%
X62225000Y-68000000D03*
X63775000Y-68000000D03*
%TD*%
D14*
%TO.C,H1*%
X8000000Y-8000000D03*
%TD*%
D15*
%TO.C,J6*%
X96000000Y-5000000D03*
D16*
X93460000Y-5000000D03*
X90920000Y-5000000D03*
X88380000Y-5000000D03*
%TD*%
D13*
%TO.C,C1*%
X54225000Y-68000000D03*
X55775000Y-68000000D03*
%TD*%
D14*
%TO.C,H2*%
X112000000Y-8000000D03*
%TD*%
D15*
%TO.C,J11*%
X30000000Y-62000000D03*
D16*
X32540000Y-62000000D03*
X30000000Y-64540000D03*
X32540000Y-64540000D03*
X30000000Y-67080000D03*
X32540000Y-67080000D03*
X30000000Y-69620000D03*
X32540000Y-69620000D03*
X30000000Y-72160000D03*
X32540000Y-72160000D03*
X30000000Y-74700000D03*
X32540000Y-74700000D03*
X30000000Y-77240000D03*
X32540000Y-77240000D03*
X30000000Y-79780000D03*
X32540000Y-79780000D03*
X30000000Y-82320000D03*
X32540000Y-82320000D03*
X30000000Y-84860000D03*
X32540000Y-84860000D03*
%TD*%
D14*
%TO.C,H3*%
X112000000Y-82000000D03*
%TD*%
D15*
%TO.C,J_M12*%
X81000000Y-5000000D03*
D16*
X78460000Y-5000000D03*
X75920000Y-5000000D03*
X73380000Y-5000000D03*
X70840000Y-5000000D03*
X68300000Y-5000000D03*
%TD*%
D15*
%TO.C,J10*%
X30000000Y-45000000D03*
D16*
X32540000Y-45000000D03*
X30000000Y-47540000D03*
X32540000Y-47540000D03*
X30000000Y-50080000D03*
X32540000Y-50080000D03*
X30000000Y-52620000D03*
X32540000Y-52620000D03*
X30000000Y-55160000D03*
X32540000Y-55160000D03*
X30000000Y-57700000D03*
X32540000Y-57700000D03*
X30000000Y-60240000D03*
X32540000Y-60240000D03*
X30000000Y-62780000D03*
X32540000Y-62780000D03*
X30000000Y-65320000D03*
X32540000Y-65320000D03*
X30000000Y-67860000D03*
X32540000Y-67860000D03*
%TD*%
D17*
%TO.C,J5*%
X58540000Y-9210000D03*
X58540000Y-21910000D03*
D18*
X56000000Y-12000000D03*
D19*
X54220000Y-13016000D03*
X56000000Y-14032000D03*
X54220000Y-15048000D03*
X56000000Y-16064000D03*
X54220000Y-17080000D03*
X56000000Y-18096000D03*
X54220000Y-19112000D03*
D20*
X55110000Y-7430000D03*
X55110000Y-23690000D03*
%TD*%
D15*
%TO.C,J_BEZEL*%
X40000000Y-78000000D03*
D16*
X40000000Y-80540000D03*
X40000000Y-83080000D03*
X40000000Y-85620000D03*
X40000000Y-88160000D03*
X40000000Y-90700000D03*
X40000000Y-93240000D03*
X40000000Y-95780000D03*
X40000000Y-98320000D03*
X40000000Y-100860000D03*
X40000000Y-103400000D03*
X40000000Y-105940000D03*
X40000000Y-108480000D03*
X40000000Y-111020000D03*
X40000000Y-113560000D03*
X40000000Y-116100000D03*
X40000000Y-118640000D03*
X40000000Y-121180000D03*
X40000000Y-123720000D03*
X40000000Y-126260000D03*
%TD*%
D15*
%TO.C,J7*%
X108000000Y-5000000D03*
D16*
X105460000Y-5000000D03*
X102920000Y-5000000D03*
%TD*%
D13*
%TO.C,C4*%
X66225000Y-68000000D03*
X67775000Y-68000000D03*
%TD*%
D21*
%TO.C,U11*%
X68862500Y-54050000D03*
X68862500Y-55000000D03*
X68862500Y-55950000D03*
X71137500Y-55950000D03*
X71137500Y-54050000D03*
%TD*%
D15*
%TO.C,J_RK*%
X95000000Y-78000000D03*
D16*
X95000000Y-80540000D03*
X95000000Y-83080000D03*
X95000000Y-85620000D03*
%TD*%
D13*
%TO.C,C2*%
X58225000Y-68000000D03*
X59775000Y-68000000D03*
%TD*%
D22*
%TO.C,J4*%
X36605000Y-3610000D03*
X36605000Y-9390000D03*
D23*
X37680000Y-3300000D03*
X37680000Y-4100000D03*
D24*
X37680000Y-5250000D03*
X37680000Y-6250000D03*
X37680000Y-6750000D03*
X37680000Y-7750000D03*
D23*
X37680000Y-8900000D03*
X37680000Y-9700000D03*
X37680000Y-9700000D03*
X37680000Y-8900000D03*
D24*
X37680000Y-8250000D03*
X37680000Y-7250000D03*
X37680000Y-5750000D03*
X37680000Y-4750000D03*
D23*
X37680000Y-4100000D03*
X37680000Y-3300000D03*
D25*
X37105000Y-2180000D03*
D26*
X32925000Y-2180000D03*
D25*
X37105000Y-10820000D03*
D26*
X32925000Y-10820000D03*
%TD*%
D22*
%TO.C,J3*%
X18605000Y-3610000D03*
X18605000Y-9390000D03*
D23*
X19680000Y-3300000D03*
X19680000Y-4100000D03*
D24*
X19680000Y-5250000D03*
X19680000Y-6250000D03*
X19680000Y-6750000D03*
X19680000Y-7750000D03*
D23*
X19680000Y-8900000D03*
X19680000Y-9700000D03*
X19680000Y-9700000D03*
X19680000Y-8900000D03*
D24*
X19680000Y-8250000D03*
X19680000Y-7250000D03*
X19680000Y-5750000D03*
X19680000Y-4750000D03*
D23*
X19680000Y-4100000D03*
X19680000Y-3300000D03*
D25*
X19105000Y-2180000D03*
D26*
X14925000Y-2180000D03*
D25*
X19105000Y-10820000D03*
D26*
X14925000Y-10820000D03*
%TD*%
D14*
%TO.C,H4*%
X8000000Y-82000000D03*
%TD*%
D15*
%TO.C,J_GND*%
X110000000Y-78000000D03*
D16*
X110000000Y-80540000D03*
%TD*%
%LPD*%
M02*
