solid OpenSCAD_Model
  facet normal -1 0 0
    outer loop
      vertex 21 6 3
      vertex 21 72 22
      vertex 21 72 3
    endloop
  endfacet
  facet normal -1 -0 0
    outer loop
      vertex 21 72 22
      vertex 21 6 3
      vertex 21 6 22
    endloop
  endfacet
  facet normal -0 0 1
    outer loop
      vertex 6 72 3
      vertex 21 6 3
      vertex 21 72 3
    endloop
  endfacet
  facet normal 0 0 1
    outer loop
      vertex 21 6 3
      vertex 6 72 3
      vertex 6 6 3
    endloop
  endfacet
  facet normal 1 -0 0
    outer loop
      vertex 6 6 22
      vertex 6 72 3
      vertex 6 72 22
    endloop
  endfacet
  facet normal 1 0 0
    outer loop
      vertex 6 72 3
      vertex 6 6 22
      vertex 6 6 3
    endloop
  endfacet
  facet normal 0 -1 0
    outer loop
      vertex 6 72 3
      vertex 21 72 22
      vertex 6 72 22
    endloop
  endfacet
  facet normal 0 -1 -0
    outer loop
      vertex 21 72 22
      vertex 6 72 3
      vertex 21 72 3
    endloop
  endfacet
  facet normal 0 1 -0
    outer loop
      vertex 21 6 3
      vertex 6 6 22
      vertex 21 6 22
    endloop
  endfacet
  facet normal 0 1 0
    outer loop
      vertex 6 6 22
      vertex 21 6 3
      vertex 6 6 3
    endloop
  endfacet
  facet normal -1 0 0
    outer loop
      vertex 39 6 3
      vertex 39 72 22
      vertex 39 72 3
    endloop
  endfacet
  facet normal -1 -0 0
    outer loop
      vertex 39 72 22
      vertex 39 6 3
      vertex 39 6 22
    endloop
  endfacet
  facet normal -0 0 1
    outer loop
      vertex 24 72 3
      vertex 39 6 3
      vertex 39 72 3
    endloop
  endfacet
  facet normal 0 0 1
    outer loop
      vertex 39 6 3
      vertex 24 72 3
      vertex 24 6 3
    endloop
  endfacet
  facet normal 1 -0 0
    outer loop
      vertex 24 6 22
      vertex 24 72 3
      vertex 24 72 22
    endloop
  endfacet
  facet normal 1 0 0
    outer loop
      vertex 24 72 3
      vertex 24 6 22
      vertex 24 6 3
    endloop
  endfacet
  facet normal 0 -1 0
    outer loop
      vertex 24 72 3
      vertex 39 72 22
      vertex 24 72 22
    endloop
  endfacet
  facet normal 0 -1 -0
    outer loop
      vertex 39 72 22
      vertex 24 72 3
      vertex 39 72 3
    endloop
  endfacet
  facet normal 0 1 -0
    outer loop
      vertex 39 6 3
      vertex 24 6 22
      vertex 39 6 22
    endloop
  endfacet
  facet normal 0 1 0
    outer loop
      vertex 24 6 22
      vertex 39 6 3
      vertex 24 6 3
    endloop
  endfacet
  facet normal 0.0653993 -0.997859 0
    outer loop
      vertex 39 0 0
      vertex 39.3916 0.0256653 22
      vertex 39 0 22
    endloop
  endfacet
  facet normal 0.0653993 -0.997859 0
    outer loop
      vertex 39.3916 0.0256653 22
      vertex 39 0 0
      vertex 39.3916 0.0256653 0
    endloop
  endfacet
  facet normal 0.442237 -0.896898 0
    outer loop
      vertex 40.148 0.228361 0
      vertex 40.5 0.401923 22
      vertex 40.148 0.228361 22
    endloop
  endfacet
  facet normal 0.442237 -0.896898 0
    outer loop
      vertex 40.5 0.401923 22
      vertex 40.148 0.228361 0
      vertex 40.5 0.401923 0
    endloop
  endfacet
  facet normal -0.659426 0.751769 0
    outer loop
      vertex 1.17372 77.3801 0
      vertex 0.878679 77.1213 22
      vertex 1.17372 77.3801 22
    endloop
  endfacet
  facet normal -0.659426 0.751769 0
    outer loop
      vertex 0.878679 77.1213 22
      vertex 1.17372 77.3801 0
      vertex 0.878679 77.1213 0
    endloop
  endfacet
  facet normal 0.831485 -0.555547 0
    outer loop
      vertex 41.3801 1.17372 22
      vertex 41.5981 1.5 0
      vertex 41.5981 1.5 22
    endloop
  endfacet
  facet normal 0.831485 -0.555547 0
    outer loop
      vertex 41.5981 1.5 0
      vertex 41.3801 1.17372 22
      vertex 41.3801 1.17372 0
    endloop
  endfacet
  facet normal 0 1 0
    outer loop
      vertex 39 78 22
      vertex 27 78 18
      vertex 3 78 22
    endloop
  endfacet
  facet normal 0 1 0
    outer loop
      vertex 39 78 22
      vertex 27 78 8
      vertex 27 78 18
    endloop
  endfacet
  facet normal 0 1 0
    outer loop
      vertex 27 78 8
      vertex 39 78 0
      vertex 15 78 8
    endloop
  endfacet
  facet normal 0 1 -0
    outer loop
      vertex 39 78 0
      vertex 27 78 8
      vertex 39 78 22
    endloop
  endfacet
  facet normal 0 1 -0
    outer loop
      vertex 15 78 18
      vertex 3 78 22
      vertex 27 78 18
    endloop
  endfacet
  facet normal 0 1 -0
    outer loop
      vertex 15 78 8
      vertex 3 78 22
      vertex 15 78 18
    endloop
  endfacet
  facet normal 0 1 0
    outer loop
      vertex 15 78 8
      vertex 3 78 0
      vertex 3 78 22
    endloop
  endfacet
  facet normal 0 1 0
    outer loop
      vertex 3 78 0
      vertex 15 78 8
      vertex 39 78 0
    endloop
  endfacet
  facet normal 1 -0 0
    outer loop
      vertex 42 3 22
      vertex 42 75 0
      vertex 42 75 22
    endloop
  endfacet
  facet normal 1 0 0
    outer loop
      vertex 42 75 0
      vertex 42 3 22
      vertex 42 3 0
    endloop
  endfacet
  facet normal 0.896961 0.44211 0
    outer loop
      vertex 41.7716 76.148 22
      vertex 41.5981 76.5 0
      vertex 41.5981 76.5 22
    endloop
  endfacet
  facet normal 0.896961 0.44211 0
    outer loop
      vertex 41.5981 76.5 0
      vertex 41.7716 76.148 22
      vertex 41.7716 76.148 0
    endloop
  endfacet
  facet normal 0 -1 0
    outer loop
      vertex 3 0 0
      vertex 39 0 22
      vertex 3 0 22
    endloop
  endfacet
  facet normal 0 -1 -0
    outer loop
      vertex 39 0 22
      vertex 3 0 0
      vertex 39 0 0
    endloop
  endfacet
  facet normal 0.896936 -0.44216 0
    outer loop
      vertex 41.5981 1.5 22
      vertex 41.7716 1.85195 0
      vertex 41.7716 1.85195 22
    endloop
  endfacet
  facet normal 0.896936 -0.44216 0
    outer loop
      vertex 41.7716 1.85195 0
      vertex 41.5981 1.5 22
      vertex 41.5981 1.5 0
    endloop
  endfacet
  facet normal 0 0 1
    outer loop
      vertex 39 78 22
      vertex 24 72 22
      vertex 39 72 22
    endloop
  endfacet
  facet normal 0 0 1
    outer loop
      vertex 24 72 22
      vertex 21 72 22
      vertex 24 6 22
    endloop
  endfacet
  facet normal 0 0 1
    outer loop
      vertex 39 78 22
      vertex 21 72 22
      vertex 24 72 22
    endloop
  endfacet
  facet normal -0 0 1
    outer loop
      vertex 3 78 22
      vertex 21 72 22
      vertex 39 78 22
    endloop
  endfacet
  facet normal -0 0 1
    outer loop
      vertex 0 75 22
      vertex 6 72 22
      vertex 3 78 22
    endloop
  endfacet
  facet normal 0 0 1
    outer loop
      vertex 21 72 22
      vertex 3 78 22
      vertex 6 72 22
    endloop
  endfacet
  facet normal 0 0 1
    outer loop
      vertex 39 72 22
      vertex 42 75 22
      vertex 41.9743 75.3916 22
    endloop
  endfacet
  facet normal 0 0 1
    outer loop
      vertex 42 75 22
      vertex 39 72 22
      vertex 42 3 22
    endloop
  endfacet
  facet normal 0 0 1
    outer loop
      vertex 39 72 22
      vertex 41.9743 75.3916 22
      vertex 41.8978 75.7765 22
    endloop
  endfacet
  facet normal -0 0 1
    outer loop
      vertex 39 6 22
      vertex 42 3 22
      vertex 39 72 22
    endloop
  endfacet
  facet normal 0 0 1
    outer loop
      vertex 39 72 22
      vertex 41.8978 75.7765 22
      vertex 41.7716 76.148 22
    endloop
  endfacet
  facet normal 0 0 1
    outer loop
      vertex 42 3 22
      vertex 39 6 22
      vertex 41.9743 2.60842 22
    endloop
  endfacet
  facet normal 0 0 1
    outer loop
      vertex 39 72 22
      vertex 41.7716 76.148 22
      vertex 41.5981 76.5 22
    endloop
  endfacet
  facet normal 0 0 1
    outer loop
      vertex 41.9743 2.60842 22
      vertex 39 6 22
      vertex 41.8978 2.22354 22
    endloop
  endfacet
  facet normal 0 0 1
    outer loop
      vertex 39 72 22
      vertex 41.5981 76.5 22
      vertex 41.3801 76.8263 22
    endloop
  endfacet
  facet normal 0 0 1
    outer loop
      vertex 41.8978 2.22354 22
      vertex 39 6 22
      vertex 41.7716 1.85195 22
    endloop
  endfacet
  facet normal 0 0 1
    outer loop
      vertex 39 72 22
      vertex 41.3801 76.8263 22
      vertex 41.1213 77.1213 22
    endloop
  endfacet
  facet normal 0 0 1
    outer loop
      vertex 41.7716 1.85195 22
      vertex 39 6 22
      vertex 41.5981 1.5 22
    endloop
  endfacet
  facet normal 0 0 1
    outer loop
      vertex 39 72 22
      vertex 41.1213 77.1213 22
      vertex 40.8263 77.3801 22
    endloop
  endfacet
  facet normal 0 0 1
    outer loop
      vertex 41.5981 1.5 22
      vertex 39 6 22
      vertex 41.3801 1.17372 22
    endloop
  endfacet
  facet normal 0 0 1
    outer loop
      vertex 39 72 22
      vertex 40.8263 77.3801 22
      vertex 40.5 77.5981 22
    endloop
  endfacet
  facet normal 0 0 1
    outer loop
      vertex 41.3801 1.17372 22
      vertex 39 6 22
      vertex 41.1213 0.878679 22
    endloop
  endfacet
  facet normal 0 0 1
    outer loop
      vertex 39 72 22
      vertex 40.5 77.5981 22
      vertex 40.148 77.7716 22
    endloop
  endfacet
  facet normal 0 0 1
    outer loop
      vertex 41.1213 0.878679 22
      vertex 39 6 22
      vertex 40.8263 0.61994 22
    endloop
  endfacet
  facet normal 0 0 1
    outer loop
      vertex 39 72 22
      vertex 40.148 77.7716 22
      vertex 39.7765 77.8978 22
    endloop
  endfacet
  facet normal 0 0 1
    outer loop
      vertex 40.8263 0.61994 22
      vertex 39 6 22
      vertex 40.5 0.401923 22
    endloop
  endfacet
  facet normal 0 0 1
    outer loop
      vertex 39 72 22
      vertex 39.7765 77.8978 22
      vertex 39.3916 77.9743 22
    endloop
  endfacet
  facet normal 0 0 1
    outer loop
      vertex 40.5 0.401923 22
      vertex 39 6 22
      vertex 40.148 0.228361 22
    endloop
  endfacet
  facet normal 0 0 1
    outer loop
      vertex 39 72 22
      vertex 39.3916 77.9743 22
      vertex 39 78 22
    endloop
  endfacet
  facet normal 0 0 1
    outer loop
      vertex 40.148 0.228361 22
      vertex 39 6 22
      vertex 39.7765 0.102222 22
    endloop
  endfacet
  facet normal 0 0 1
    outer loop
      vertex 39.7765 0.102222 22
      vertex 39 6 22
      vertex 39.3916 0.0256653 22
    endloop
  endfacet
  facet normal 0 0 1
    outer loop
      vertex 39 6 22
      vertex 39 0 22
      vertex 39.3916 0.0256653 22
    endloop
  endfacet
  facet normal -0 0 1
    outer loop
      vertex 24 6 22
      vertex 39 0 22
      vertex 39 6 22
    endloop
  endfacet
  facet normal 0 0 1
    outer loop
      vertex 21 6 22
      vertex 24 6 22
      vertex 21 72 22
    endloop
  endfacet
  facet normal -0 0 1
    outer loop
      vertex 21 6 22
      vertex 39 0 22
      vertex 24 6 22
    endloop
  endfacet
  facet normal 0 0 1
    outer loop
      vertex 3 0 22
      vertex 21 6 22
      vertex 6 6 22
    endloop
  endfacet
  facet normal 0 0 1
    outer loop
      vertex 21 6 22
      vertex 3 0 22
      vertex 39 0 22
    endloop
  endfacet
  facet normal 0 0 1
    outer loop
      vertex 6 72 22
      vertex 0 75 22
      vertex 6 6 22
    endloop
  endfacet
  facet normal 0 0 1
    outer loop
      vertex 0 75 22
      vertex 3 78 22
      vertex 2.60842 77.9743 22
    endloop
  endfacet
  facet normal 0 0 1
    outer loop
      vertex 0 3 22
      vertex 6 6 22
      vertex 0 75 22
    endloop
  endfacet
  facet normal 0 0 1
    outer loop
      vertex 0 75 22
      vertex 2.60842 77.9743 22
      vertex 2.22354 77.8978 22
    endloop
  endfacet
  facet normal 0 0 1
    outer loop
      vertex 6 6 22
      vertex 0 3 22
      vertex 3 0 22
    endloop
  endfacet
  facet normal 0 0 1
    outer loop
      vertex 0 75 22
      vertex 2.22354 77.8978 22
      vertex 1.85195 77.7716 22
    endloop
  endfacet
  facet normal 0 0 1
    outer loop
      vertex 3 0 22
      vertex 0 3 22
      vertex 2.60842 0.0256653 22
    endloop
  endfacet
  facet normal 0 0 1
    outer loop
      vertex 0 75 22
      vertex 1.85195 77.7716 22
      vertex 1.5 77.5981 22
    endloop
  endfacet
  facet normal 0 0 1
    outer loop
      vertex 2.60842 0.0256653 22
      vertex 0 3 22
      vertex 2.22354 0.102222 22
    endloop
  endfacet
  facet normal 0 0 1
    outer loop
      vertex 0 75 22
      vertex 1.5 77.5981 22
      vertex 1.17372 77.3801 22
    endloop
  endfacet
  facet normal 0 0 1
    outer loop
      vertex 2.22354 0.102222 22
      vertex 0 3 22
      vertex 1.85195 0.228361 22
    endloop
  endfacet
  facet normal 0 0 1
    outer loop
      vertex 0 75 22
      vertex 1.17372 77.3801 22
      vertex 0.878679 77.1213 22
    endloop
  endfacet
  facet normal 0 0 1
    outer loop
      vertex 1.85195 0.228361 22
      vertex 0 3 22
      vertex 1.5 0.401923 22
    endloop
  endfacet
  facet normal 0 0 1
    outer loop
      vertex 0 75 22
      vertex 0.878679 77.1213 22
      vertex 0.61994 76.8263 22
    endloop
  endfacet
  facet normal 0 0 1
    outer loop
      vertex 1.5 0.401923 22
      vertex 0 3 22
      vertex 1.17372 0.61994 22
    endloop
  endfacet
  facet normal 0 0 1
    outer loop
      vertex 0 75 22
      vertex 0.61994 76.8263 22
      vertex 0.401923 76.5 22
    endloop
  endfacet
  facet normal 0 0 1
    outer loop
      vertex 1.17372 0.61994 22
      vertex 0 3 22
      vertex 0.878679 0.878679 22
    endloop
  endfacet
  facet normal 0 0 1
    outer loop
      vertex 0 75 22
      vertex 0.401923 76.5 22
      vertex 0.228361 76.148 22
    endloop
  endfacet
  facet normal 0 0 1
    outer loop
      vertex 0.878679 0.878679 22
      vertex 0 3 22
      vertex 0.61994 1.17372 22
    endloop
  endfacet
  facet normal 0 0 1
    outer loop
      vertex 0 75 22
      vertex 0.228361 76.148 22
      vertex 0.102222 75.7765 22
    endloop
  endfacet
  facet normal 0 0 1
    outer loop
      vertex 0.61994 1.17372 22
      vertex 0 3 22
      vertex 0.401923 1.5 22
    endloop
  endfacet
  facet normal 0 0 1
    outer loop
      vertex 0 75 22
      vertex 0.102222 75.7765 22
      vertex 0.0256653 75.3916 22
    endloop
  endfacet
  facet normal 0 0 1
    outer loop
      vertex 0.401923 1.5 22
      vertex 0 3 22
      vertex 0.228361 1.85195 22
    endloop
  endfacet
  facet normal 0 0 1
    outer loop
      vertex 0.228361 1.85195 22
      vertex 0 3 22
      vertex 0.102222 2.22354 22
    endloop
  endfacet
  facet normal 0 0 1
    outer loop
      vertex 0.102222 2.22354 22
      vertex 0 3 22
      vertex 0.0256653 2.60842 22
    endloop
  endfacet
  facet normal 0.751769 -0.659426 0
    outer loop
      vertex 41.1213 0.878679 22
      vertex 41.3801 1.17372 0
      vertex 41.3801 1.17372 22
    endloop
  endfacet
  facet normal 0.751769 -0.659426 0
    outer loop
      vertex 41.3801 1.17372 0
      vertex 41.1213 0.878679 22
      vertex 41.1213 0.878679 0
    endloop
  endfacet
  facet normal 0.0654873 0.997853 -0
    outer loop
      vertex 39.3916 77.9743 0
      vertex 39 78 22
      vertex 39.3916 77.9743 22
    endloop
  endfacet
  facet normal 0.0654873 0.997853 0
    outer loop
      vertex 39 78 22
      vertex 39.3916 77.9743 0
      vertex 39 78 0
    endloop
  endfacet
  facet normal -1 0 0
    outer loop
      vertex 0 3 0
      vertex 0 75 22
      vertex 0 75 0
    endloop
  endfacet
  facet normal -1 -0 0
    outer loop
      vertex 0 75 22
      vertex 0 3 0
      vertex 0 3 22
    endloop
  endfacet
  facet normal -0.997859 -0.0654026 0
    outer loop
      vertex 0.0256653 2.60842 0
      vertex 0 3 22
      vertex 0 3 0
    endloop
  endfacet
  facet normal -0.997859 -0.0654026 0
    outer loop
      vertex 0 3 22
      vertex 0.0256653 2.60842 0
      vertex 0.0256653 2.60842 22
    endloop
  endfacet
  facet normal -0.896898 0.442237 0
    outer loop
      vertex 0.228361 76.148 0
      vertex 0.401923 76.5 22
      vertex 0.401923 76.5 0
    endloop
  endfacet
  facet normal -0.896898 0.442237 0
    outer loop
      vertex 0.401923 76.5 22
      vertex 0.228361 76.148 0
      vertex 0.228361 76.148 22
    endloop
  endfacet
  facet normal 0.946858 0.321651 0
    outer loop
      vertex 41.8978 75.7765 22
      vertex 41.7716 76.148 0
      vertex 41.7716 76.148 22
    endloop
  endfacet
  facet normal 0.946858 0.321651 0
    outer loop
      vertex 41.7716 76.148 0
      vertex 41.8978 75.7765 22
      vertex 41.8978 75.7765 0
    endloop
  endfacet
  facet normal 0.980815 0.19494 0
    outer loop
      vertex 41.9743 75.3916 22
      vertex 41.8978 75.7765 0
      vertex 41.8978 75.7765 22
    endloop
  endfacet
  facet normal 0.980815 0.19494 0
    outer loop
      vertex 41.8978 75.7765 0
      vertex 41.9743 75.3916 22
      vertex 41.9743 75.3916 0
    endloop
  endfacet
  facet normal 0.321512 -0.946905 0
    outer loop
      vertex 39.7765 0.102222 0
      vertex 40.148 0.228361 22
      vertex 39.7765 0.102222 22
    endloop
  endfacet
  facet normal 0.321512 -0.946905 0
    outer loop
      vertex 40.148 0.228361 22
      vertex 39.7765 0.102222 0
      vertex 40.148 0.228361 0
    endloop
  endfacet
  facet normal 0.195079 -0.980788 0
    outer loop
      vertex 39.3916 0.0256653 0
      vertex 39.7765 0.102222 22
      vertex 39.3916 0.0256653 22
    endloop
  endfacet
  facet normal 0.195079 -0.980788 0
    outer loop
      vertex 39.7765 0.102222 22
      vertex 39.3916 0.0256653 0
      vertex 39.7765 0.102222 0
    endloop
  endfacet
  facet normal -0.44216 0.896936 0
    outer loop
      vertex 1.85195 77.7716 0
      vertex 1.5 77.5981 22
      vertex 1.85195 77.7716 22
    endloop
  endfacet
  facet normal -0.44216 0.896936 0
    outer loop
      vertex 1.5 77.5981 22
      vertex 1.85195 77.7716 0
      vertex 1.5 77.5981 0
    endloop
  endfacet
  facet normal -0.321582 0.946882 0
    outer loop
      vertex 2.22354 77.8978 0
      vertex 1.85195 77.7716 22
      vertex 2.22354 77.8978 22
    endloop
  endfacet
  facet normal -0.321582 0.946882 0
    outer loop
      vertex 1.85195 77.7716 22
      vertex 2.22354 77.8978 0
      vertex 1.85195 77.7716 0
    endloop
  endfacet
  facet normal -0.0654906 0.997853 0
    outer loop
      vertex 3 78 0
      vertex 2.60842 77.9743 22
      vertex 3 78 22
    endloop
  endfacet
  facet normal -0.0654906 0.997853 0
    outer loop
      vertex 2.60842 77.9743 22
      vertex 3 78 0
      vertex 2.60842 77.9743 0
    endloop
  endfacet
  facet normal -0.321442 -0.946929 0
    outer loop
      vertex 1.85195 0.228361 0
      vertex 2.22354 0.102222 22
      vertex 1.85195 0.228361 22
    endloop
  endfacet
  facet normal -0.321442 -0.946929 -0
    outer loop
      vertex 2.22354 0.102222 22
      vertex 1.85195 0.228361 0
      vertex 2.22354 0.102222 0
    endloop
  endfacet
  facet normal -0.946929 -0.321442 0
    outer loop
      vertex 0.228361 1.85195 0
      vertex 0.102222 2.22354 22
      vertex 0.102222 2.22354 0
    endloop
  endfacet
  facet normal -0.946929 -0.321442 0
    outer loop
      vertex 0.102222 2.22354 22
      vertex 0.228361 1.85195 0
      vertex 0.228361 1.85195 22
    endloop
  endfacet
  facet normal 0.65939 -0.751801 0
    outer loop
      vertex 40.8263 0.61994 0
      vertex 41.1213 0.878679 22
      vertex 40.8263 0.61994 22
    endloop
  endfacet
  facet normal 0.65939 -0.751801 0
    outer loop
      vertex 41.1213 0.878679 22
      vertex 40.8263 0.61994 0
      vertex 41.1213 0.878679 0
    endloop
  endfacet
  facet normal -0.555577 -0.831465 0
    outer loop
      vertex 1.17372 0.61994 0
      vertex 1.5 0.401923 22
      vertex 1.17372 0.61994 22
    endloop
  endfacet
  facet normal -0.555577 -0.831465 -0
    outer loop
      vertex 1.5 0.401923 22
      vertex 1.17372 0.61994 0
      vertex 1.5 0.401923 0
    endloop
  endfacet
  facet normal 0.997853 0.0654873 0
    outer loop
      vertex 42 75 22
      vertex 41.9743 75.3916 0
      vertex 41.9743 75.3916 22
    endloop
  endfacet
  facet normal 0.997853 0.0654873 0
    outer loop
      vertex 41.9743 75.3916 0
      vertex 42 75 22
      vertex 42 75 0
    endloop
  endfacet
  facet normal -0.896873 -0.442288 0
    outer loop
      vertex 0.401923 1.5 0
      vertex 0.228361 1.85195 22
      vertex 0.228361 1.85195 0
    endloop
  endfacet
  facet normal -0.896873 -0.442288 0
    outer loop
      vertex 0.228361 1.85195 22
      vertex 0.401923 1.5 0
      vertex 0.401923 1.5 22
    endloop
  endfacet
  facet normal -0.0654026 -0.997859 0
    outer loop
      vertex 2.60842 0.0256653 0
      vertex 3 0 22
      vertex 2.60842 0.0256653 22
    endloop
  endfacet
  facet normal -0.0654026 -0.997859 -0
    outer loop
      vertex 3 0 22
      vertex 2.60842 0.0256653 0
      vertex 3 0 0
    endloop
  endfacet
  facet normal -0.19495 0.980813 0
    outer loop
      vertex 2.60842 77.9743 0
      vertex 2.22354 77.8978 22
      vertex 2.60842 77.9743 22
    endloop
  endfacet
  facet normal -0.19495 0.980813 0
    outer loop
      vertex 2.22354 77.8978 22
      vertex 2.60842 77.9743 0
      vertex 2.22354 77.8978 0
    endloop
  endfacet
  facet normal -0.442288 -0.896873 0
    outer loop
      vertex 1.5 0.401923 0
      vertex 1.85195 0.228361 22
      vertex 1.5 0.401923 22
    endloop
  endfacet
  facet normal -0.442288 -0.896873 -0
    outer loop
      vertex 1.85195 0.228361 22
      vertex 1.5 0.401923 0
      vertex 1.85195 0.228361 0
    endloop
  endfacet
  facet normal -0.980786 -0.195089 0
    outer loop
      vertex 0.102222 2.22354 0
      vertex 0.0256653 2.60842 22
      vertex 0.0256653 2.60842 0
    endloop
  endfacet
  facet normal -0.980786 -0.195089 0
    outer loop
      vertex 0.0256653 2.60842 22
      vertex 0.102222 2.22354 0
      vertex 0.102222 2.22354 22
    endloop
  endfacet
  facet normal 0.555553 -0.831481 0
    outer loop
      vertex 40.5 0.401923 0
      vertex 40.8263 0.61994 22
      vertex 40.5 0.401923 22
    endloop
  endfacet
  facet normal 0.555553 -0.831481 0
    outer loop
      vertex 40.8263 0.61994 22
      vertex 40.5 0.401923 0
      vertex 40.8263 0.61994 0
    endloop
  endfacet
  facet normal -0.980788 0.195079 0
    outer loop
      vertex 0.0256653 75.3916 0
      vertex 0.102222 75.7765 22
      vertex 0.102222 75.7765 0
    endloop
  endfacet
  facet normal -0.980788 0.195079 0
    outer loop
      vertex 0.102222 75.7765 22
      vertex 0.0256653 75.3916 0
      vertex 0.0256653 75.3916 22
    endloop
  endfacet
  facet normal -0.831481 0.555553 0
    outer loop
      vertex 0.401923 76.5 0
      vertex 0.61994 76.8263 22
      vertex 0.61994 76.8263 0
    endloop
  endfacet
  facet normal -0.831481 0.555553 0
    outer loop
      vertex 0.61994 76.8263 22
      vertex 0.401923 76.5 0
      vertex 0.401923 76.5 22
    endloop
  endfacet
  facet normal 0.831501 0.555523 0
    outer loop
      vertex 41.5981 76.5 22
      vertex 41.3801 76.8263 0
      vertex 41.3801 76.8263 22
    endloop
  endfacet
  facet normal 0.831501 0.555523 0
    outer loop
      vertex 41.3801 76.8263 0
      vertex 41.5981 76.5 22
      vertex 41.5981 76.5 0
    endloop
  endfacet
  facet normal -0.997859 0.0653993 0
    outer loop
      vertex 0 75 0
      vertex 0.0256653 75.3916 22
      vertex 0.0256653 75.3916 0
    endloop
  endfacet
  facet normal -0.997859 0.0653993 0
    outer loop
      vertex 0.0256653 75.3916 22
      vertex 0 75 0
      vertex 0 75 22
    endloop
  endfacet
  facet normal -0.555547 0.831485 0
    outer loop
      vertex 1.5 77.5981 0
      vertex 1.17372 77.3801 22
      vertex 1.5 77.5981 22
    endloop
  endfacet
  facet normal -0.555547 0.831485 0
    outer loop
      vertex 1.17372 77.3801 22
      vertex 1.5 77.5981 0
      vertex 1.17372 77.3801 0
    endloop
  endfacet
  facet normal 0.751724 0.659478 0
    outer loop
      vertex 41.3801 76.8263 22
      vertex 41.1213 77.1213 0
      vertex 41.1213 77.1213 22
    endloop
  endfacet
  facet normal 0.751724 0.659478 0
    outer loop
      vertex 41.1213 77.1213 0
      vertex 41.3801 76.8263 22
      vertex 41.3801 76.8263 0
    endloop
  endfacet
  facet normal -0.195089 -0.980786 0
    outer loop
      vertex 2.22354 0.102222 0
      vertex 2.60842 0.0256653 22
      vertex 2.22354 0.102222 22
    endloop
  endfacet
  facet normal -0.195089 -0.980786 -0
    outer loop
      vertex 2.60842 0.0256653 22
      vertex 2.22354 0.102222 0
      vertex 2.60842 0.0256653 0
    endloop
  endfacet
  facet normal 0.946882 -0.321582 0
    outer loop
      vertex 41.7716 1.85195 22
      vertex 41.8978 2.22354 0
      vertex 41.8978 2.22354 22
    endloop
  endfacet
  facet normal 0.946882 -0.321582 0
    outer loop
      vertex 41.8978 2.22354 0
      vertex 41.7716 1.85195 22
      vertex 41.7716 1.85195 0
    endloop
  endfacet
  facet normal -0.946905 0.321512 0
    outer loop
      vertex 0.102222 75.7765 0
      vertex 0.228361 76.148 22
      vertex 0.228361 76.148 0
    endloop
  endfacet
  facet normal -0.946905 0.321512 0
    outer loop
      vertex 0.228361 76.148 22
      vertex 0.102222 75.7765 0
      vertex 0.102222 75.7765 22
    endloop
  endfacet
  facet normal -0.751801 0.65939 0
    outer loop
      vertex 0.61994 76.8263 0
      vertex 0.878679 77.1213 22
      vertex 0.878679 77.1213 0
    endloop
  endfacet
  facet normal -0.751801 0.65939 0
    outer loop
      vertex 0.878679 77.1213 22
      vertex 0.61994 76.8263 0
      vertex 0.61994 76.8263 22
    endloop
  endfacet
  facet normal 0.321651 0.946858 -0
    outer loop
      vertex 40.148 77.7716 0
      vertex 39.7765 77.8978 22
      vertex 40.148 77.7716 22
    endloop
  endfacet
  facet normal 0.321651 0.946858 0
    outer loop
      vertex 39.7765 77.8978 22
      vertex 40.148 77.7716 0
      vertex 39.7765 77.8978 0
    endloop
  endfacet
  facet normal -0.659339 -0.751846 0
    outer loop
      vertex 0.878679 0.878679 0
      vertex 1.17372 0.61994 22
      vertex 0.878679 0.878679 22
    endloop
  endfacet
  facet normal -0.659339 -0.751846 -0
    outer loop
      vertex 1.17372 0.61994 22
      vertex 0.878679 0.878679 0
      vertex 1.17372 0.61994 0
    endloop
  endfacet
  facet normal -0.831465 -0.555577 0
    outer loop
      vertex 0.61994 1.17372 0
      vertex 0.401923 1.5 22
      vertex 0.401923 1.5 0
    endloop
  endfacet
  facet normal -0.831465 -0.555577 0
    outer loop
      vertex 0.401923 1.5 22
      vertex 0.61994 1.17372 0
      vertex 0.61994 1.17372 22
    endloop
  endfacet
  facet normal -0.751846 -0.659339 0
    outer loop
      vertex 0.878679 0.878679 0
      vertex 0.61994 1.17372 22
      vertex 0.61994 1.17372 0
    endloop
  endfacet
  facet normal -0.751846 -0.659339 0
    outer loop
      vertex 0.61994 1.17372 22
      vertex 0.878679 0.878679 0
      vertex 0.878679 0.878679 22
    endloop
  endfacet
  facet normal 0.44211 0.896961 -0
    outer loop
      vertex 40.5 77.5981 0
      vertex 40.148 77.7716 22
      vertex 40.5 77.5981 22
    endloop
  endfacet
  facet normal 0.44211 0.896961 0
    outer loop
      vertex 40.148 77.7716 22
      vertex 40.5 77.5981 0
      vertex 40.148 77.7716 0
    endloop
  endfacet
  facet normal 0.19494 0.980815 -0
    outer loop
      vertex 39.7765 77.8978 0
      vertex 39.3916 77.9743 22
      vertex 39.7765 77.8978 22
    endloop
  endfacet
  facet normal 0.19494 0.980815 0
    outer loop
      vertex 39.3916 77.9743 22
      vertex 39.7765 77.8978 0
      vertex 39.3916 77.9743 0
    endloop
  endfacet
  facet normal 0.659478 0.751724 -0
    outer loop
      vertex 41.1213 77.1213 0
      vertex 40.8263 77.3801 22
      vertex 41.1213 77.1213 22
    endloop
  endfacet
  facet normal 0.659478 0.751724 0
    outer loop
      vertex 40.8263 77.3801 22
      vertex 41.1213 77.1213 0
      vertex 40.8263 77.3801 0
    endloop
  endfacet
  facet normal 0.997853 -0.0654906 0
    outer loop
      vertex 41.9743 2.60842 22
      vertex 42 3 0
      vertex 42 3 22
    endloop
  endfacet
  facet normal 0.997853 -0.0654906 0
    outer loop
      vertex 42 3 0
      vertex 41.9743 2.60842 22
      vertex 41.9743 2.60842 0
    endloop
  endfacet
  facet normal 0.980813 -0.19495 0
    outer loop
      vertex 41.8978 2.22354 22
      vertex 41.9743 2.60842 0
      vertex 41.9743 2.60842 22
    endloop
  endfacet
  facet normal 0.980813 -0.19495 0
    outer loop
      vertex 41.9743 2.60842 0
      vertex 41.8978 2.22354 22
      vertex 41.8978 2.22354 0
    endloop
  endfacet
  facet normal 0.555523 0.831501 -0
    outer loop
      vertex 40.8263 77.3801 0
      vertex 40.5 77.5981 22
      vertex 40.8263 77.3801 22
    endloop
  endfacet
  facet normal 0.555523 0.831501 0
    outer loop
      vertex 40.5 77.5981 22
      vertex 40.8263 77.3801 0
      vertex 40.5 77.5981 0
    endloop
  endfacet
  facet normal 0 0 -1
    outer loop
      vertex 39 0 0
      vertex 42 3 0
      vertex 41.9743 2.60842 0
    endloop
  endfacet
  facet normal 0 0 -1
    outer loop
      vertex 42 3 0
      vertex 0 3 0
      vertex 42 75 0
    endloop
  endfacet
  facet normal 0 0 -1
    outer loop
      vertex 39 0 0
      vertex 41.9743 2.60842 0
      vertex 41.8978 2.22354 0
    endloop
  endfacet
  facet normal 0 0 -1
    outer loop
      vertex 0 75 0
      vertex 42 75 0
      vertex 0 3 0
    endloop
  endfacet
  facet normal 0 0 -1
    outer loop
      vertex 39 0 0
      vertex 41.8978 2.22354 0
      vertex 41.7716 1.85195 0
    endloop
  endfacet
  facet normal 0 -0 -1
    outer loop
      vertex 39 78 0
      vertex 42 75 0
      vertex 0 75 0
    endloop
  endfacet
  facet normal 0 0 -1
    outer loop
      vertex 39 0 0
      vertex 41.7716 1.85195 0
      vertex 41.5981 1.5 0
    endloop
  endfacet
  facet normal 0 0 -1
    outer loop
      vertex 42 75 0
      vertex 39 78 0
      vertex 41.9743 75.3916 0
    endloop
  endfacet
  facet normal 0 0 -1
    outer loop
      vertex 39 0 0
      vertex 41.5981 1.5 0
      vertex 41.3801 1.17372 0
    endloop
  endfacet
  facet normal 0 0 -1
    outer loop
      vertex 41.9743 75.3916 0
      vertex 39 78 0
      vertex 41.8978 75.7765 0
    endloop
  endfacet
  facet normal 0 0 -1
    outer loop
      vertex 39 0 0
      vertex 41.3801 1.17372 0
      vertex 41.1213 0.878679 0
    endloop
  endfacet
  facet normal -0 0 -1
    outer loop
      vertex 42 3 0
      vertex 39 0 0
      vertex 0 3 0
    endloop
  endfacet
  facet normal 0 0 -1
    outer loop
      vertex 39 0 0
      vertex 41.1213 0.878679 0
      vertex 40.8263 0.61994 0
    endloop
  endfacet
  facet normal 0 0 -1
    outer loop
      vertex 41.8978 75.7765 0
      vertex 39 78 0
      vertex 41.7716 76.148 0
    endloop
  endfacet
  facet normal 0 0 -1
    outer loop
      vertex 39 0 0
      vertex 40.8263 0.61994 0
      vertex 40.5 0.401923 0
    endloop
  endfacet
  facet normal 0 0 -1
    outer loop
      vertex 41.3801 76.8263 0
      vertex 39 78 0
      vertex 41.1213 77.1213 0
    endloop
  endfacet
  facet normal 0 0 -1
    outer loop
      vertex 39 0 0
      vertex 40.5 0.401923 0
      vertex 40.148 0.228361 0
    endloop
  endfacet
  facet normal 0 0 -1
    outer loop
      vertex 41.1213 77.1213 0
      vertex 39 78 0
      vertex 40.8263 77.3801 0
    endloop
  endfacet
  facet normal 0 0 -1
    outer loop
      vertex 39 0 0
      vertex 40.148 0.228361 0
      vertex 39.7765 0.102222 0
    endloop
  endfacet
  facet normal 0 0 -1
    outer loop
      vertex 40.8263 77.3801 0
      vertex 39 78 0
      vertex 40.5 77.5981 0
    endloop
  endfacet
  facet normal 0 0 -1
    outer loop
      vertex 39 0 0
      vertex 39.7765 0.102222 0
      vertex 39.3916 0.0256653 0
    endloop
  endfacet
  facet normal 0 0 -1
    outer loop
      vertex 40.5 77.5981 0
      vertex 39 78 0
      vertex 40.148 77.7716 0
    endloop
  endfacet
  facet normal 0 0 -1
    outer loop
      vertex 40.148 77.7716 0
      vertex 39 78 0
      vertex 39.7765 77.8978 0
    endloop
  endfacet
  facet normal 0 0 -1
    outer loop
      vertex 39.7765 77.8978 0
      vertex 39 78 0
      vertex 39.3916 77.9743 0
    endloop
  endfacet
  facet normal 0 0 -1
    outer loop
      vertex 0 3 0
      vertex 39 0 0
      vertex 3 0 0
    endloop
  endfacet
  facet normal 0 0 -1
    outer loop
      vertex 41.7716 76.148 0
      vertex 39 78 0
      vertex 41.5981 76.5 0
    endloop
  endfacet
  facet normal 0 0 -1
    outer loop
      vertex 0 3 0
      vertex 3 0 0
      vertex 2.60842 0.0256653 0
    endloop
  endfacet
  facet normal 0 0 -1
    outer loop
      vertex 41.5981 76.5 0
      vertex 39 78 0
      vertex 41.3801 76.8263 0
    endloop
  endfacet
  facet normal 0 0 -1
    outer loop
      vertex 0 3 0
      vertex 2.60842 0.0256653 0
      vertex 2.22354 0.102222 0
    endloop
  endfacet
  facet normal -0 0 -1
    outer loop
      vertex 39 78 0
      vertex 0 75 0
      vertex 3 78 0
    endloop
  endfacet
  facet normal 0 0 -1
    outer loop
      vertex 0 3 0
      vertex 2.22354 0.102222 0
      vertex 1.85195 0.228361 0
    endloop
  endfacet
  facet normal 0 0 -1
    outer loop
      vertex 3 78 0
      vertex 0 75 0
      vertex 2.60842 77.9743 0
    endloop
  endfacet
  facet normal 0 0 -1
    outer loop
      vertex 0 3 0
      vertex 1.85195 0.228361 0
      vertex 1.5 0.401923 0
    endloop
  endfacet
  facet normal 0 0 -1
    outer loop
      vertex 2.60842 77.9743 0
      vertex 0 75 0
      vertex 2.22354 77.8978 0
    endloop
  endfacet
  facet normal 0 0 -1
    outer loop
      vertex 0 3 0
      vertex 1.5 0.401923 0
      vertex 1.17372 0.61994 0
    endloop
  endfacet
  facet normal 0 0 -1
    outer loop
      vertex 2.22354 77.8978 0
      vertex 0 75 0
      vertex 1.85195 77.7716 0
    endloop
  endfacet
  facet normal 0 0 -1
    outer loop
      vertex 0 3 0
      vertex 1.17372 0.61994 0
      vertex 0.878679 0.878679 0
    endloop
  endfacet
  facet normal 0 0 -1
    outer loop
      vertex 1.85195 77.7716 0
      vertex 0 75 0
      vertex 1.5 77.5981 0
    endloop
  endfacet
  facet normal 0 0 -1
    outer loop
      vertex 0 3 0
      vertex 0.878679 0.878679 0
      vertex 0.61994 1.17372 0
    endloop
  endfacet
  facet normal 0 0 -1
    outer loop
      vertex 1.5 77.5981 0
      vertex 0 75 0
      vertex 1.17372 77.3801 0
    endloop
  endfacet
  facet normal 0 0 -1
    outer loop
      vertex 0 3 0
      vertex 0.61994 1.17372 0
      vertex 0.401923 1.5 0
    endloop
  endfacet
  facet normal 0 0 -1
    outer loop
      vertex 1.17372 77.3801 0
      vertex 0 75 0
      vertex 0.878679 77.1213 0
    endloop
  endfacet
  facet normal 0 0 -1
    outer loop
      vertex 0 3 0
      vertex 0.401923 1.5 0
      vertex 0.228361 1.85195 0
    endloop
  endfacet
  facet normal 0 0 -1
    outer loop
      vertex 0.878679 77.1213 0
      vertex 0 75 0
      vertex 0.61994 76.8263 0
    endloop
  endfacet
  facet normal 0 0 -1
    outer loop
      vertex 0 3 0
      vertex 0.228361 1.85195 0
      vertex 0.102222 2.22354 0
    endloop
  endfacet
  facet normal 0 0 -1
    outer loop
      vertex 0.61994 76.8263 0
      vertex 0 75 0
      vertex 0.401923 76.5 0
    endloop
  endfacet
  facet normal 0 0 -1
    outer loop
      vertex 0 3 0
      vertex 0.102222 2.22354 0
      vertex 0.0256653 2.60842 0
    endloop
  endfacet
  facet normal 0 0 -1
    outer loop
      vertex 0.401923 76.5 0
      vertex 0 75 0
      vertex 0.228361 76.148 0
    endloop
  endfacet
  facet normal 0 0 -1
    outer loop
      vertex 0.228361 76.148 0
      vertex 0 75 0
      vertex 0.102222 75.7765 0
    endloop
  endfacet
  facet normal 0 0 -1
    outer loop
      vertex 0.102222 75.7765 0
      vertex 0 75 0
      vertex 0.0256653 75.3916 0
    endloop
  endfacet
  facet normal -1 0 0
    outer loop
      vertex 38 2 10
      vertex 38 5 13
      vertex 38 5 10
    endloop
  endfacet
  facet normal -1 -0 0
    outer loop
      vertex 38 5 13
      vertex 38 2 10
      vertex 38 2 13
    endloop
  endfacet
  facet normal 0 0 -1
    outer loop
      vertex 4 2 13
      vertex 38 5 13
      vertex 38 2 13
    endloop
  endfacet
  facet normal -0 0 -1
    outer loop
      vertex 38 5 13
      vertex 4 2 13
      vertex 4 5 13
    endloop
  endfacet
  facet normal -0 0 1
    outer loop
      vertex 4 5 10
      vertex 38 2 10
      vertex 38 5 10
    endloop
  endfacet
  facet normal 0 0 1
    outer loop
      vertex 38 2 10
      vertex 4 5 10
      vertex 4 2 10
    endloop
  endfacet
  facet normal 1 -0 0
    outer loop
      vertex 4 2 13
      vertex 4 5 10
      vertex 4 5 13
    endloop
  endfacet
  facet normal 1 0 0
    outer loop
      vertex 4 5 10
      vertex 4 2 13
      vertex 4 2 10
    endloop
  endfacet
  facet normal 0 -1 0
    outer loop
      vertex 4 5 10
      vertex 38 5 13
      vertex 4 5 13
    endloop
  endfacet
  facet normal 0 -1 -0
    outer loop
      vertex 38 5 13
      vertex 4 5 10
      vertex 38 5 10
    endloop
  endfacet
  facet normal 0 1 -0
    outer loop
      vertex 38 2 10
      vertex 4 2 13
      vertex 38 2 13
    endloop
  endfacet
  facet normal 0 1 0
    outer loop
      vertex 4 2 13
      vertex 38 2 10
      vertex 4 2 10
    endloop
  endfacet
  facet normal -1 0 0
    outer loop
      vertex 38 73 10
      vertex 38 76 13
      vertex 38 76 10
    endloop
  endfacet
  facet normal -1 -0 0
    outer loop
      vertex 38 76 13
      vertex 38 73 10
      vertex 38 73 13
    endloop
  endfacet
  facet normal 0 0 -1
    outer loop
      vertex 4 73 13
      vertex 38 76 13
      vertex 38 73 13
    endloop
  endfacet
  facet normal -0 0 -1
    outer loop
      vertex 38 76 13
      vertex 4 73 13
      vertex 4 76 13
    endloop
  endfacet
  facet normal -0 0 1
    outer loop
      vertex 4 76 10
      vertex 38 73 10
      vertex 38 76 10
    endloop
  endfacet
  facet normal 0 0 1
    outer loop
      vertex 38 73 10
      vertex 4 76 10
      vertex 4 73 10
    endloop
  endfacet
  facet normal 1 -0 0
    outer loop
      vertex 4 73 13
      vertex 4 76 10
      vertex 4 76 13
    endloop
  endfacet
  facet normal 1 0 0
    outer loop
      vertex 4 76 10
      vertex 4 73 13
      vertex 4 73 10
    endloop
  endfacet
  facet normal 0 -1 0
    outer loop
      vertex 4 76 10
      vertex 38 76 13
      vertex 4 76 13
    endloop
  endfacet
  facet normal 0 -1 -0
    outer loop
      vertex 38 76 13
      vertex 4 76 10
      vertex 38 76 10
    endloop
  endfacet
  facet normal 0 1 -0
    outer loop
      vertex 38 73 10
      vertex 4 73 13
      vertex 38 73 13
    endloop
  endfacet
  facet normal 0 1 0
    outer loop
      vertex 4 73 13
      vertex 38 73 10
      vertex 4 73 10
    endloop
  endfacet
  facet normal -1 0 0
    outer loop
      vertex 27 77 8
      vertex 27 78 18
      vertex 27 78 8
    endloop
  endfacet
  facet normal -1 -0 0
    outer loop
      vertex 27 78 18
      vertex 27 77 8
      vertex 27 77 18
    endloop
  endfacet
  facet normal 0 0 -1
    outer loop
      vertex 15 77 18
      vertex 27 78 18
      vertex 27 77 18
    endloop
  endfacet
  facet normal -0 0 -1
    outer loop
      vertex 27 78 18
      vertex 15 77 18
      vertex 15 78 18
    endloop
  endfacet
  facet normal -0 0 1
    outer loop
      vertex 15 78 8
      vertex 27 77 8
      vertex 27 78 8
    endloop
  endfacet
  facet normal 0 0 1
    outer loop
      vertex 27 77 8
      vertex 15 78 8
      vertex 15 77 8
    endloop
  endfacet
  facet normal 1 -0 0
    outer loop
      vertex 15 77 18
      vertex 15 78 8
      vertex 15 78 18
    endloop
  endfacet
  facet normal 1 0 0
    outer loop
      vertex 15 78 8
      vertex 15 77 18
      vertex 15 77 8
    endloop
  endfacet
  facet normal 0 1 -0
    outer loop
      vertex 27 77 8
      vertex 15 77 18
      vertex 27 77 18
    endloop
  endfacet
  facet normal 0 1 0
    outer loop
      vertex 15 77 18
      vertex 27 77 8
      vertex 15 77 8
    endloop
  endfacet
endsolid OpenSCAD_Model
